<svg xmlns="http://www.w3.org/2000/svg" width=" " height=" " viewBox="0 0 auto auto"
    fill="none">
    <path
        d="M14.0613 4.81797H9.25891L7.79731 0.354526C7.76194 0.251098 7.69513 0.161316 7.60621 0.0977465C7.51729 0.0341766 7.41072 0 7.30141 0C7.1921 0 7.08553 0.0341766 6.99661 0.0977465C6.90769 0.161316 6.84087 0.251098 6.80551 0.354526L5.35365 4.81797H0.522023C0.38197 4.82017 0.248474 4.87769 0.150675 4.97796C0.0528772 5.07824 -0.001281 5.21313 2.30139e-05 5.3532C-0.000155743 5.38363 0.00311305 5.41398 0.00976697 5.44368C0.0164802 5.51878 0.0395162 5.59152 0.0772646 5.6568C0.115013 5.72208 0.166563 5.77832 0.228311 5.8216L4.17254 8.6752L2.65874 13.1853C2.62288 13.2919 2.62089 13.407 2.65304 13.5148C2.68519 13.6226 2.74991 13.7178 2.83831 13.7873C2.91907 13.8622 3.02235 13.9082 3.13202 13.9182C3.25002 13.9097 3.36319 13.8679 3.45845 13.7978L7.30802 10.9838L11.1576 13.7964C11.2522 13.8678 11.3657 13.9096 11.484 13.9168C11.5931 13.909 11.6959 13.8629 11.7743 13.7866C11.8635 13.7177 11.9288 13.6226 11.961 13.5145C11.9933 13.4065 11.9907 13.2911 11.9538 13.1846L10.44 8.67172L14.3515 5.79237L14.4462 5.70885C14.5439 5.61388 14.6042 5.48689 14.616 5.35111C14.6099 5.20794 14.5489 5.07262 14.4456 4.97332C14.3422 4.87402 14.2046 4.81838 14.0613 4.81797Z"
        fill="#D4B45E" />
</svg>