<svg xmlns="http://www.w3.org/2000/svg" width="103" height="79" viewBox="0 0 103 79" fill="none"><path d="M101.776 73.0239H98.7547C98.2078 73.0239 97.7685 73.4543 97.7595 74.0012L97.7057 77.0229C97.6967 77.5967 98.163 78.0719 98.7368 78.0719H101.758C102.305 78.0719 102.745 77.6415 102.754 77.0946L102.807 74.073C102.816 73.4991 102.35 73.0239 101.776 73.0239Z" fill="white"></path><path d="M4.27781 73.0149H1.2562C0.709266 73.0149 0.269922 73.4453 0.260956 73.9922L0.207158 77.0138C0.198192 77.5877 0.664435 78.0629 1.23827 78.0629H4.25988C4.80682 78.0629 5.24616 77.6325 5.25513 77.0855L5.30893 74.0639C5.31789 73.4901 4.85165 73.0149 4.27781 73.0149Z" fill="white"></path><path d="M63.2127 23.1717L63.2665 20.1412C63.2755 19.5763 62.8092 19.1011 62.2444 19.1011H59.2138C58.6758 19.1011 58.2365 19.5315 58.2275 20.0694L58.1737 23.1C58.1647 23.6649 58.631 24.1401 59.1959 24.1401H62.2264C62.7644 24.1401 63.2037 23.7097 63.2127 23.1717Z" fill="white"></path><path d="M94.7201 46.4031L91.1785 45.4438V27.9238C91.1785 26.1664 89.7439 24.7318 87.9865 24.7318H75.2276V29.6633H86.2471V44.1168L80.7687 42.6373L79.4865 47.3984L91.1695 50.5455L80.2845 73.0148H69.812L79.4865 36.8362C79.6659 36.1906 79.5672 35.5003 79.2355 34.9264C78.8948 34.3526 78.3478 33.9401 77.6933 33.7787L73.0847 32.649V32.5145L73.4433 12.2419C73.4702 10.8522 72.3584 9.72242 70.9687 9.72242H60.9086L61.0162 3.35642C61.0431 1.96666 59.9313 0.836914 58.5415 0.836914H45.7736C44.3839 0.836914 43.2362 1.96666 43.2093 3.35642L43.1017 9.72242H33.0416C31.6519 9.72242 30.5042 10.8522 30.4773 12.2419L30.1097 32.649L25.4652 33.7787C24.8107 33.9401 24.2368 34.3526 23.8871 34.9264C23.5285 35.5003 23.4119 36.1906 23.5644 36.8362L31.9747 73.0148H37.1751L29.0517 38.0735L35.0859 36.6031L49.0642 33.2049L48.3649 73.0238H53.1887H22.7395L11.8545 50.5455L23.5375 47.3984L22.2553 42.6373L16.7769 44.1168V29.6633H27.7964V24.7318H15.0375C13.2801 24.7318 11.8455 26.1664 11.8455 27.9238V45.4438L8.30388 46.3942C7.46106 46.6183 6.7617 47.1922 6.38512 47.9812C6.00854 48.7613 5.9906 49.6758 6.34028 50.4738L17.2522 73.0238H8.6446C8.09766 73.0238 7.65832 73.4542 7.64935 74.0011L7.62245 75.5433L7.59555 77.0227C7.58659 77.5966 8.05283 78.0718 8.62667 78.0718H94.8995C95.4464 78.0718 95.8857 77.6414 95.8947 77.0945L95.9216 75.5523L95.9485 74.0728C95.9575 73.499 95.4912 73.0238 94.9174 73.0238H85.745L96.621 50.5635L96.6568 50.4828C97.0065 49.6848 96.9886 48.7792 96.612 47.9902C96.2533 47.2011 95.554 46.6273 94.7201 46.4031ZM48.1945 5.88489H55.9323L55.8606 9.72242H48.1228L48.1945 5.88489ZM51.0906 27.5472L37.8654 30.7661L35.1756 31.4206L35.4625 14.7614H68.3505L68.0546 31.4117L61.5093 29.7977L52.2831 27.5293C51.8886 27.4486 51.4851 27.4486 51.0906 27.5472ZM54.1122 33.2049L61.4286 34.9981L73.9544 38.0735L64.6027 73.0148H69.6865H53.4039L54.1122 33.2049Z" fill="white"></path></svg>