<svg xmlns="http://www.w3.org/2000/svg" width="103" height="89" viewBox="0 0 103 89" fill="none"><path d="M34.6729 46.3004L30.8622 48.8378C30.7188 48.9275 30.6381 49.0889 30.6381 49.2592L30.5574 73.6204C30.5574 73.9163 30.7995 74.1584 31.0864 74.1584H34.9777C35.2557 74.1584 35.4798 73.9342 35.4798 73.6563V46.7577C35.4888 46.3273 35.0136 46.0673 34.6729 46.3004Z" fill="white"></path><path d="M34.9507 76.3014H31.0504C30.7725 76.3014 30.5483 76.5256 30.5483 76.8035V80.2734C30.5483 80.5603 30.7904 80.8024 31.0773 80.8024H34.9776C35.2556 80.8024 35.4797 80.5783 35.4797 80.3003V76.8304C35.4887 76.5435 35.2466 76.3014 34.9507 76.3014Z" fill="white"></path><path d="M55.6266 21.437L51.8788 23.7234C51.7263 23.8131 51.6277 23.9834 51.6277 24.1628C51.6187 28.0362 51.5739 68.3661 51.5649 73.6114C51.5649 73.9162 51.816 74.1583 52.1119 74.1583H55.9046C56.1915 74.1583 56.4246 73.9252 56.4246 73.6383L56.4515 21.9122C56.4515 21.4819 55.9853 21.2129 55.6266 21.437Z" fill="white"></path><path d="M55.8958 76.3014H52.0045C51.7265 76.3014 51.4934 76.5256 51.4934 76.8035V80.2645C51.4934 80.5603 51.7355 80.8024 52.0314 80.8024H55.9227C56.2007 80.8024 56.4338 80.5783 56.4338 80.3003V76.8394C56.4248 76.5435 56.1827 76.3014 55.8958 76.3014Z" fill="white"></path><path d="M79.8535 66.3129L75.8725 64.0445C75.5318 63.8472 75.1194 64.0893 75.1194 64.4748L75.1463 73.6293C75.1463 73.9163 75.3794 74.1494 75.6663 74.1494H79.5846C79.8625 74.1494 80.0777 73.9342 80.0777 73.6562L80.1136 66.7702C80.1225 66.5909 80.0239 66.4115 79.8535 66.3129Z" fill="white"></path><path d="M79.5663 76.3014H75.6391C75.3702 76.3014 75.146 76.5166 75.146 76.7945V80.2914C75.146 80.5783 75.3791 80.8114 75.666 80.8114H79.5932C79.8622 80.8114 80.0864 80.5962 80.0864 80.3183V76.8214C80.0774 76.5345 79.8443 76.3014 79.5663 76.3014Z" fill="white"></path><path d="M93.8943 83.2859H88.0035C87.7166 83.2859 87.4745 83.0439 87.4745 82.7569V61.247C87.4745 60.2428 86.9365 59.2924 86.0668 58.7724L65.4356 46.4259C65.2742 46.3273 65.1756 46.1569 65.1756 45.9686V3.48676C65.1756 2.44668 64.6107 1.4873 63.7141 0.976226C62.8085 0.465152 61.6967 0.474118 60.809 1.01209L39.3439 13.8517C38.4832 14.3717 37.9452 15.3221 37.9452 16.3264V29.2198C37.9452 29.3991 37.8555 29.5605 37.7031 29.6501L17.045 42.0145C16.1842 42.5346 15.6463 43.485 15.6463 44.4892V82.7838C15.6463 83.0618 15.4221 83.2859 15.1442 83.2859H9.02921C8.75125 83.2859 8.5271 83.5101 8.5271 83.7881V87.6883C8.5271 87.9753 8.76919 88.2174 9.05611 88.2174H18.5334H39.9895H40.8323H62.2884H63.1313H84.5874H93.9212C94.1992 88.2174 94.4233 87.9932 94.4233 87.7152V83.8149C94.4233 83.528 94.1812 83.2859 93.8943 83.2859ZM20.8198 45.5024L37.1562 35.7203C37.4969 35.514 37.9452 35.774 37.9452 36.1775V82.7838C37.9452 83.0618 37.721 83.2859 37.4431 83.2859H21.1067C20.8198 83.2859 20.5777 83.0439 20.5777 82.7569V45.9328C20.5777 45.7534 20.6673 45.592 20.8198 45.5024ZM42.8766 35.2809V31.6406V17.7699C42.8766 17.5906 42.9663 17.4292 43.1187 17.3395L59.4551 7.55742C59.7958 7.35119 60.2441 7.61121 60.2441 8.01469V48.3985V82.7749C60.2441 83.0528 60.02 83.277 59.742 83.277H43.4056C43.1187 83.277 42.8766 83.0349 42.8766 82.748V35.2809ZM65.7046 83.2859C65.4176 83.2859 65.1756 83.0439 65.1756 82.7569V62.1257V52.9085C65.1756 52.5139 65.6059 52.2808 65.9466 52.4781L82.2831 62.2602C82.4444 62.3588 82.5431 62.5292 82.5431 62.7175V82.7928C82.5431 83.0708 82.3189 83.2949 82.041 83.2949H65.7046V83.2859Z" fill="white"></path><path d="M101.704 83.2859H97.3466C97.0866 83.2859 96.8804 83.4921 96.8804 83.7521V87.7152C96.8804 87.9842 97.1045 88.2083 97.3735 88.2083H101.731C101.991 88.2083 102.197 88.0021 102.197 87.7421V83.779C102.197 83.51 101.973 83.2859 101.704 83.2859Z" fill="white"></path><path d="M5.12919 83.2859H0.834382C0.55643 83.2859 0.332275 83.51 0.332275 83.788V87.6883C0.332275 87.9752 0.574363 88.2173 0.861281 88.2173H5.15609C5.43404 88.2173 5.6582 87.9931 5.6582 87.7152V83.8149C5.6582 83.528 5.42508 83.2859 5.12919 83.2859Z" fill="white"></path></svg>