<svg xmlns="http://www.w3.org/2000/svg" width="208" height="235" fill="none"><g fill="#B3D5EB" stroke="white" stroke-miterlimit="10" stroke-width="0.463022" class="africa-svg svg-g"><path d="M203.814 169.458C203.702 168.828 203.702 168.963 203.411 168.711 203.119 168.459 203.119 165.273 203.008 164.825 202.897 164.376 203.341 164.129 203.008 164.105 202.675 164.082 202.318 163.521 202.207 163.115 202.096 162.709 201.429 162.597 201.225 162.349 201.026 162.101 201.424 161.943 201.628 161.765 201.827 161.583 201.406 161.564 201.049 161.765 200.693 161.966 200.892 162.284 200.512 162.709 200.133 163.134 200.915 164.012 200.512 164.507 200.109 165.002 200.401 164.778 200.156 165.362 199.91 165.946 199.507 166.17 198.864 166.128 198.216 166.081 198.396 166.847 197.97 166.847 197.544 166.847 197.702 166.824 197.433 166.488 197.165 166.151 197.234 166.959 197.567 167.254 197.901 167.548 197.544 167.548 197.567 167.973 197.591 168.398 197.322 168.333 196.808 168.781 196.294 169.23 196.785 169.052 196.998 169.454 197.211 169.86 197.433 170.173 196.877 170.285 196.322 170.397 196.878 170.285 196.989 170.579 197.1 170.874 196.276 171.005 195.65 170.892 195.025 170.78 194.914 171.5 194.09 171.747 193.266 171.995 193.757 172.196 193.331 172.331 192.909 172.467 192.794 173.004 192.886 173.293 192.974 173.578 192.595 174.064 192.261 173.77 191.928 173.476 191.659 173.77 191.326 173.41 190.992 173.05 190.59 173.592 190.303 173.952 190.011 174.312 190.191 174.447 189.765 174.494 189.344 174.541 188.696 174.559 188.427 174.134 188.159 173.709 188.159 174.134 187.849 174.447 187.538 174.76 187.2 175.101 186.867 175.12 186.534 175.143 186.376 175.792 186.376 175.792 186.376 175.792 185.885 176.488 185.709 177.142 185.529 177.796 185.33 178.044 184.816 178.581 184.302 179.123 184.728 179.459 184.904 180.066 185.08 180.674 185.682 180.739 185.307 181.37 184.927 182 185.709 182.224 186.066 182.888 186.422 183.551 186.691 183.911 186.603 184.653 186.515 185.396 187.515 185.644 187.094 186.452 186.672 187.26 186.691 187.012 186.246 187.666 185.802 188.32 186.358 188.474 186.2 188.881 186.043 189.287 185.821 189.913 184.862 190.726 183.904 191.534 184.705 192.211 184.371 192.389 184.038 192.571 183.478 193.243 182.991 193.916 182.501 194.589 183.237 194.612 183.394 195.219 183.552 195.827 184.172 195.691 184.107 196.163 184.042 196.635 184.33 196.836 184.418 197.331 184.506 197.826 184.506 198.05 184.015 198.681 183.524 199.311 184.126 199.311 184.237 199.942 184.348 200.572 184.681 200.708 185.084 201.156 185.487 201.605 185.575 202.642 185.885 203.001 186.196 203.361 186.909 203.496 187.223 203.767 187.534 204.038 187.737 204.174 188.205 204.263 188.673 204.351 188.608 204.487 188.83 204.622 189.052 204.758 189.835 204.823 190.256 204.622 190.678 204.421 191.08 204.216 191.594 204.08 192.108 203.945 192.354 204.127 192.933 203.496 193.511 202.866 194.581 202.642 194.849 202.464 195.118 202.282 195.229 202.329 195.206 202.016 195.183 201.703 195.363 200.89 195.387 200.442 195.41 199.993 195.72 199.858 195.924 199.316 196.123 198.774 195.766 198.933 195.595 198.326 195.424 197.718 196.391 197.158 196.368 196.84 196.345 196.527 197.035 195.738 197.035 195.313 197.035 194.888 197.234 194.794 197.257 194.369 197.28 193.944 197.368 193.584 197.748 193.066 198.128 192.547 198.017 192.753 197.882 192.393 197.748 192.034 198.174 191.833 198.239 191.45 198.304 191.067 198.595 190.777 198.595 190.417 198.595 190.058 198.618 189.992 198.818 189.876 199.017 189.764 198.882 189.563 198.952 189.021 199.017 188.479 199.507 188.166 199.355 187.76 199.197 187.353 199.776 186.905 199.822 186.657 199.869 186.41 199.933 185.961 200.179 185.49 200.424 185.018 200.424 184.906 200.489 184.322 200.554 183.738 200.688 183.803 200.934 183.42 201.179 183.037 201.424 182.948 201.471 182.341 201.517 181.734 201.336 181.328 201.248 180.991 201.16 180.655 201.184 180.207 201.559 179.824 201.938 179.44 201.758 179.511 201.693 179.193 201.628 178.88 201.383 178.945 201.494 178.361 201.605 177.778 202.031 177.843 202.207 177.553 202.387 177.259 202.698 177.035 202.61 176.652 202.522 176.269 202.452 176.091 202.165 175.979 201.878 175.867 201.855 175.307 201.985 174.494 202.119 173.686 201.985 173.504 202.073 173.008 202.161 172.513 202.406 172.672 202.832 172.242 203.253 171.817 203.522 172.107 203.814 171.747 204.105 171.388 204.193 171.5 204.615 171.612 205.036 171.724 204.703 170.869 204.17 170.351 203.633 169.832 203.925 170.08 203.814 169.449V169.458ZM207.633 85.243C207.652 84.757 207.67 84.257 207.67 83.823 207.67 83.444 207.61 83.211 207.48 83.089 207.346 82.963 207.161 82.982 206.966 82.996 206.777 83.015 206.582 83.029 206.402 82.931 205.777 82.594 205.476 82.935 205.184 83.267 204.897 83.584 204.679 83.65 204.225 83.729 203.98 83.771 203.86 84.005 203.758 84.21 203.647 84.43 203.568 84.561 203.415 84.533 203.142 84.477 203.091 84.509 202.961 84.607 202.901 84.654 202.822 84.715 202.674 84.794 202.23 85.028 200.998 84.976 200.632 84.953 200.285 84.934 199.989 85.14 199.692 85.341 199.512 85.467 199.327 85.593 199.141 85.658 198.877 85.752 198.734 85.911 198.604 86.046 198.479 86.177 198.364 86.303 198.16 86.364 197.766 86.476 197.72 86.425 197.544 86.247L197.512 86.214C197.359 86.065 197.289 86.07 197.137 86.098 197.072 86.112 196.979 86.13 196.84 86.135 196.451 86.149 196.127 86.112 195.706 85.887 195.261 85.64 195.025 85.915 194.701 86.294L194.682 86.317C194.307 86.751 193.891 86.915 193.293 86.878 192.867 86.845 192.724 87.041 192.604 87.195 192.516 87.307 192.451 87.391 192.298 87.391 192.224 87.391 192.154 87.391 192.08 87.396 191.765 87.405 191.492 87.415 191.39 87.2 191.27 86.943 191.071 87.004 190.858 87.064 190.77 87.092 190.673 87.121 190.571 87.135 190.39 87.158 190.284 87.279 190.187 87.382 190.066 87.513 189.974 87.616 189.765 87.555 189.381 87.438 189.196 87.532 188.867 87.7 188.807 87.728 188.742 87.76 188.672 87.798 188.344 87.952 188.2 87.905 187.936 87.812 187.848 87.779 187.746 87.746 187.621 87.714 187.376 87.653 187.061 87.7 186.783 87.742 186.51 87.784 186.232 87.826 186.158 87.732L186.121 87.686C185.964 87.485 185.904 87.424 185.607 87.56 185.547 87.588 185.492 87.583 185.441 87.546 185.297 87.438 185.214 87.111 185.242 86.761 185.26 86.565 185.241 86.476 185.186 86.429 185.13 86.387 185.066 86.406 185.001 86.429 184.931 86.453 184.862 86.476 184.792 86.439 184.695 86.387 184.598 86.238 184.515 86.112 184.394 85.929 184.297 85.771 184.158 85.785 183.973 85.799 183.82 85.785 183.737 85.504 183.658 85.229 183.385 85.168 183.223 85.168 183.13 85.061 182.662 84.542 182.491 84.472 182.454 84.458 182.389 84.439 182.306 84.421 181.986 84.341 181.394 84.196 181.384 83.86 181.38 83.683 181.324 83.514 181.269 83.332 181.172 83.015 181.07 82.683 181.209 82.281 181.278 82.076 181.329 81.88 181.375 81.674L181.408 81.651C181.514 81.576 181.602 81.525 181.672 81.483 181.866 81.366 181.973 81.305 181.996 80.997 182.01 80.791 181.917 80.642 181.824 80.497 181.732 80.357 181.639 80.207 181.639 79.997 181.639 79.726 181.486 79.679 181.306 79.623 181.13 79.567 180.889 79.493 180.625 79.194 180.514 79.068 180.426 78.969 180.352 78.885 180.056 78.554 179.991 78.488 179.736 78.017 179.5 77.596 179.143 77.568 178.829 77.545 178.676 77.535 178.528 77.521 178.403 77.47 178.037 77.307 177.833 76.863 177.56 76.041 177.402 75.569 177.157 75.569 177 75.569 176.935 75.569 176.893 75.569 176.87 75.546 176.847 75.522 176.838 75.471 176.838 75.391 176.838 74.784 176.314 74.602 175.828 74.481L175.694 74.448C175.456 74.392 175.322 74.208 175.291 73.897L175.282 73.799C175.254 73.542 175.249 73.481 175.189 73.458 175.143 73.439 175.101 73.467 175.05 73.509 174.949 73.593 174.754 73.747 174.328 73.747 173.865 73.747 173.786 73.672 173.703 73.598 173.624 73.523 173.532 73.439 173.189 73.402 172.745 73.358 172.356 73.18 172.022 72.869L171.976 72.827C171.675 72.542 171.643 72.477 171.61 72.402 171.578 72.337 171.541 72.262 171.36 72.061 171.059 71.729 170.98 71.505 170.865 71.169 170.832 71.071 170.795 70.968 170.749 70.846 170.559 70.351 170.11 69.198 170.267 67.96 170.383 67.058 170.355 67.012 170.207 66.899 170.165 66.867 170.11 66.829 170.05 66.731 169.823 66.367 169.781 66.115 169.689 65.559L169.679 65.493C169.661 65.377 169.647 65.283 169.638 65.209 169.601 64.914 169.577 64.891 169.286 64.863L169.175 64.854C168.786 64.811 168.54 64.54 168.485 64.48 168.485 64.386 168.457 63.933 168.184 63.709 167.897 63.471 167.665 63.354 167.063 63.097 166.758 62.966 166.665 62.724 166.582 62.509 166.508 62.317 166.434 62.135 166.23 62.074 165.841 61.957 165.637 61.696 165.475 61.486 165.396 61.392 165.401 61.308 165.401 61.21 165.401 61.098 165.406 60.972 165.285 60.836 165.202 60.743 165.146 60.542 165.081 60.313 164.998 60.01 164.887 59.627 164.665 59.286 164.382 58.847 164.424 57.982 164.452 57.469 164.461 57.286 164.466 57.156 164.456 57.081 164.424 56.852 164.299 56.371 164.049 56.203 163.998 56.17 163.97 56.133 163.97 56.114 163.97 56.095 164.003 56.03 164.28 55.936 164.517 55.852 164.47 55.315 164.368 54.507 164.322 54.138 164.28 53.788 164.304 53.61 164.373 53.11 164.216 52.363 164.067 52.041 164.003 51.896 163.85 51.746 163.692 51.583 163.493 51.382 163.29 51.177 163.243 50.98 163.141 50.574 162.567 50.336 162.012 50.102 161.771 50 161.646 49.827 161.512 49.64 161.35 49.416 161.183 49.182 160.803 49.075 160.238 48.916 160.183 48.253 160.173 48.131L160.192 48.117 160.173 48.089V47.982L160.127 48.019C160.021 47.851 159.701 47.318 159.664 46.959 159.613 46.492 159.266 45.347 159.062 44.983 159.016 44.899 158.933 44.773 158.831 44.609 158.502 44.1 157.895 43.156 157.988 42.843 158.067 42.577 157.831 42.269 157.604 41.975 157.418 41.736 157.229 41.489 157.229 41.288 157.229 40.816 157.085 40.218 156.854 39.728 156.775 39.56 156.664 39.41 156.557 39.27 156.354 38.994 156.159 38.738 156.154 38.313 156.141 37.626 156.117 37.332 155.733 36.967 155.65 36.888 155.576 36.832 155.511 36.785 155.298 36.626 155.214 36.561 155.196 35.888 155.182 35.332 154.951 35.15 154.724 34.977 154.576 34.861 154.437 34.753 154.363 34.529 154.288 34.305 154.233 34.095 154.177 33.894 154.094 33.585 154.015 33.296 153.904 33.044 153.895 33.006 153.705 32.165 152.946 31.32 152.835 31.198 152.723 31.077 152.617 30.965 151.996 30.292 151.506 29.764 151.39 29.302 151.246 28.732 151.006 28.517 150.492 28.158 150.427 28.111 150.367 28.074 150.311 28.036 149.955 27.798 149.904 27.761 149.918 27.508 149.927 27.345 150.121 27.181 150.311 27.027 150.455 26.91 150.603 26.789 150.686 26.654 150.686 26.691 150.695 26.733 150.695 26.775 150.709 26.99 150.732 27.284 150.881 27.41 150.945 27.462 151.015 27.504 151.094 27.546 151.33 27.681 151.598 27.835 151.788 28.452 151.983 29.097 152.571 29.503 153.094 29.863 153.265 29.979 153.427 30.091 153.557 30.199 153.737 30.353 153.899 30.545 154.052 30.736 154.339 31.091 154.603 31.427 154.988 31.376 155.515 31.306 156.108 31.096 156.113 31.091L156.141 31.072 156.205 30.942C156.34 30.685 156.687 29.998 156.988 29.358 157.141 29.031 157.27 28.798 157.386 28.587 157.562 28.27 157.687 28.041 157.761 27.728 157.881 27.223 157.983 26.485 157.983 26.481L157.872 26.453C157.84 26.541 157.817 26.555 157.817 26.555 157.766 26.546 157.636 26.359 157.363 25.201 157.317 25.005 157.284 24.869 157.261 24.762 157.192 24.453 157.192 24.449 157.03 24.159L156.997 24.103C156.877 23.893 156.812 23.645 156.747 23.402 156.678 23.136 156.604 22.861 156.46 22.636 156.205 22.235 156.145 21.188 156.145 21.179V21.062L156.048 21.137C156.043 21.142 155.423 21.655 154.654 21.422 154.409 21.347 154.205 21.263 154.025 21.193 153.617 21.03 153.325 20.917 152.946 21.039L152.807 21.086C152.358 21.235 151.973 21.366 151.709 21.058 151.668 21.006 151.603 20.945 151.524 20.955 151.441 20.969 151.408 21.058 151.367 21.156 151.334 21.235 151.302 21.329 151.246 21.338 151.2 21.347 151.14 21.319 151.061 21.249 150.695 20.931 150.533 20.889 150.376 20.852 150.325 20.838 150.274 20.824 150.214 20.801 150.144 20.773 150.075 20.749 150.01 20.726 149.867 20.675 149.746 20.633 149.626 20.53 149.422 20.352 149.167 20.165 148.811 20.142 148.663 20.133 148.552 20.17 148.45 20.198 148.302 20.245 148.204 20.278 148.061 20.151 148.019 20.114 147.977 20.081 147.94 20.049 147.741 19.866 147.589 19.722 147.098 19.768 146.866 19.787 146.676 19.745 146.528 19.708 146.329 19.661 146.153 19.619 146 19.778 145.903 19.876 145.75 19.923 145.551 19.983 145.306 20.058 145 20.151 144.667 20.385 144.523 20.488 144.426 20.558 144.357 20.609 144.245 20.693 144.102 20.746 143.926 20.768 143.87 20.777 143.806 20.782 143.722 20.796 143.495 20.829 143.315 20.815 143.157 20.805 142.87 20.787 142.662 20.773 142.481 21.062 142.254 21.427 141.824 21.571 141.444 21.702L141.268 21.763C140.902 21.88 140.662 21.959 140.458 22.165 140.375 22.249 140.31 22.235 140.152 22.193 140.018 22.16 139.833 22.113 139.574 22.146 139.064 22.216 138.226 21.917 138.004 21.744 137.953 21.702 137.921 21.665 137.884 21.627 137.749 21.483 137.652 21.403 137.138 21.403 136.962 21.403 136.786 21.413 136.62 21.422 136.161 21.45 135.763 21.469 135.559 21.277 135.397 21.123 135.328 21.1 135.221 21.058 135.129 21.025 135.008 20.974 134.744 20.805 134.198 20.46 133.577 20.114 133.138 20.165 132.957 20.184 132.846 20.077 132.721 19.946 132.587 19.81 132.429 19.661 132.174 19.666H132.068C131.554 19.675 130.772 19.689 130.48 19.895 130.396 19.951 130.355 19.997 130.322 20.025 130.248 20.095 130.248 20.1 129.776 20.114 129.637 20.114 129.568 20.114 129.535 20.109L129.512 20.077C129.484 20.044 129.48 20.044 129.109 20.137 129.035 20.114 128.503 19.937 128.521 19.432 128.521 19.325 128.535 19.222 128.544 19.133 128.568 18.914 128.586 18.736 128.48 18.629 128.387 18.535 128.23 18.507 127.942 18.535 127.757 18.554 127.595 18.563 127.452 18.577 127.016 18.61 126.702 18.633 126.317 18.773 126.192 18.82 126.114 18.858 126.058 18.881 126.044 18.89 126.026 18.895 126.016 18.9 126.012 18.89 126.002 18.876 125.998 18.862 125.97 18.801 125.928 18.703 125.826 18.549 125.734 18.404 125.618 18.316 125.484 18.288 125.248 18.241 125.025 18.395 124.891 18.484 124.863 18.503 124.845 18.517 124.826 18.526 124.761 18.563 124.539 18.563 124.359 18.489 124.285 18.46 124.197 18.404 124.173 18.316 124.118 18.11 123.91 17.844 123.706 17.788 123.618 17.764 123.534 17.783 123.474 17.844 123.442 17.877 123.405 17.919 123.368 17.961 123.275 18.063 123.104 18.264 123.03 18.241 123.011 18.236 122.988 18.199 122.974 18.11 122.96 18.012 122.956 17.905 122.951 17.793 122.933 17.4 122.914 16.956 122.442 16.671 122.155 16.499 121.969 16.461 121.821 16.429 121.668 16.396 121.557 16.372 121.391 16.214 121.307 16.134 121.252 16.092 121.192 16.116 121.136 16.139 121.131 16.2 121.127 16.256 121.127 16.312 121.117 16.372 121.08 16.401 121.053 16.419 120.997 16.433 120.863 16.387 120.682 16.33 120.567 16.27 120.469 16.223 120.256 16.116 120.113 16.046 119.594 16.111 119.506 16.12 119.423 16.13 119.349 16.144 118.77 16.218 118.451 16.256 117.909 16.092 117.288 15.901 117.057 15.831 116.705 16.102 116.571 16.209 116.334 16.27 116.08 16.33 115.77 16.41 115.445 16.494 115.27 16.681 115.117 16.849 114.885 16.919 114.663 16.989 114.469 17.05 114.269 17.111 114.121 17.237 114.043 17.302 113.945 17.353 113.853 17.405 113.612 17.531 113.343 17.676 113.552 18.096 113.575 18.143 113.598 18.208 113.58 18.246 113.556 18.297 113.436 18.316 113.325 18.334 113.103 18.372 112.802 18.423 112.76 18.764 112.737 18.942 112.709 19.082 112.681 19.194 112.626 19.446 112.593 19.596 112.778 19.754 113.01 19.955 113.098 20.245 113.084 20.436 113.079 20.492 113.061 20.567 113.038 20.656 112.978 20.908 112.894 21.249 113.042 21.492 113.103 21.595 113.075 21.618 112.95 21.702 112.834 21.782 112.672 21.894 112.635 22.155 112.579 22.566 112.357 22.87 112.126 22.847 112.121 22.847 112.116 22.847 112.112 22.847 111.964 22.847 111.885 23.052 111.797 23.29 111.704 23.538 111.598 23.818 111.417 23.874 111.047 23.982 110.783 24.038 110.204 23.874 109.635 23.711 109.324 23.487 109.028 23.192 108.778 22.935 108.38 22.898 108.06 22.87 107.982 22.865 107.907 22.856 107.843 22.847 107.361 22.777 107.014 22.599 106.773 22.305 106.449 21.908 106.176 21.627 105.611 21.73 105.06 21.828 104.314 21.81 104.185 21.698 104.152 21.669 104.12 21.632 104.078 21.585 103.921 21.403 103.68 21.123 103.291 21.268 102.898 21.417 102.814 21.366 102.671 21.282L102.652 21.272C102.615 21.249 102.583 21.226 102.555 21.198 102.462 21.114 102.356 21.02 102.129 21.184 101.897 21.357 101.828 21.357 101.444 21.221 101.319 21.179 101.143 21.156 100.953 21.128 100.555 21.076 100.106 21.016 100.05 20.754 99.985 20.432 99.842 20.32 99.684 20.189 99.61 20.128 99.527 20.063 99.443 19.965 99.369 19.885 99.314 19.838 99.277 19.806 99.17 19.717 99.166 19.712 99.184 19.231 99.207 18.587 99.078 17.68 98.888 17.512 98.86 17.484 98.832 17.391 98.809 17.302 98.73 17.012 98.596 16.527 97.943 16.634 97.17 16.765 96.434 16.872 95.846 16.728 95.647 16.681 95.517 16.611 95.378 16.531 95.133 16.396 94.855 16.246 94.133 16.214 93.387 16.181 93.262 15.691 93.188 15.396 93.151 15.256 93.123 15.144 93.026 15.144 92.943 15.144 92.85 15.209 92.72 15.298 92.507 15.443 92.216 15.644 91.776 15.7L91.66 15.714C90.989 15.803 90.155 15.915 89.692 15.616 89.234 15.326 88.877 15.396 88.465 15.476 88.4 15.49 88.336 15.504 88.266 15.513 87.803 15.597 87.104 15.606 87.002 15.606 86.928 15.55 86.391 15.116 86.368 14.569 86.358 14.285 86.266 14.098 86.187 13.934 86.09 13.733 86.016 13.575 86.108 13.294 86.206 12.995 86.132 12.86 86.053 12.799 85.9 12.678 85.604 12.738 85.247 12.972 84.789 13.266 84.367 13.332 83.965 13.173 83.779 13.103 83.705 12.991 83.603 12.832 83.534 12.724 83.451 12.598 83.312 12.458 83.247 12.393 83.177 12.332 83.103 12.271 82.932 12.122 82.77 11.982 82.779 11.842 82.784 11.743 82.877 11.631 83.048 11.515 83.553 11.164 84.191 10.538 84.659 10.081 84.789 9.954 84.909 9.838 85.006 9.744 85.122 9.632 85.224 9.553 85.317 9.483 85.585 9.272 85.766 9.132 85.803 8.567 85.817 8.31 85.9 8.137 85.974 7.983 86.108 7.708 86.21 7.493 85.784 7.068 85.632 6.914 85.469 6.773 85.317 6.638 84.854 6.232 84.455 5.877 84.511 5.461 84.534 5.255 84.511 5.082 84.483 4.928 84.432 4.62 84.409 4.466 84.821 4.372 84.914 4.349 85.002 4.33 85.09 4.316 85.627 4.204 86.011 4.125 86.201 3.555 86.303 3.251 86.178 3.102 86.085 2.995 85.979 2.873 85.919 2.798 86.238 2.49 86.581 2.158 86.646 1.836 86.595 1.64 86.567 1.528 86.497 1.448 86.405 1.425 86.308 1.397 86.201 1.439 86.104 1.542 85.979 1.673 85.909 1.831 85.835 2.004 85.706 2.313 85.553 2.658 85.039 2.92 84.747 3.065 84.557 3.2 84.423 3.298 84.173 3.476 84.145 3.494 83.979 3.298 83.886 3.191 83.766 3.009 83.645 2.812 83.344 2.35 83.006 1.822 82.714 1.822 82.576 1.822 82.469 1.845 82.372 1.869 82.201 1.906 82.062 1.939 81.798 1.827 81.636 1.761 81.534 1.663 81.427 1.561 81.256 1.397 81.085 1.234 80.673 1.196 80.46 1.177 80.196 1.126 79.964 1.079 79.51.991 79.367.967 79.33 1.056 79.302 1.121 79.353 1.182 79.534 1.299 79.895 1.542 80.344 1.845 80.335 2.051 80.335 2.116 80.27 2.182 80.159 2.238 79.973 2.331 79.788 2.336 79.594 2.345 79.279 2.355 78.95 2.369 78.649 2.775 78.232 3.336 77.732 3.368 77.677 3.373 77.255 3.2 76.177 2.686 76.079 2.327 76.028 2.135 75.894 2.004 75.714 1.948 75.422 1.859 75.028 1.995 74.7 2.299 74.186 2.77 73.829 2.77 73.338 2.299 73.232 2.196 73.144 2.098 73.07 2.009 72.783 1.687 72.611 1.49 72.083 1.934 71.741 2.219 71.403 2.308 71.051 2.397 70.778 2.467 70.495 2.541 70.19 2.705 69.884 2.873 69.662 3.093 69.463 3.289 69.203 3.541 69.004 3.747 68.731 3.728 68.532 3.719 68.426 3.62 68.277 3.485 68.074 3.298 67.814 3.06 67.199 2.952 66.518 2.836 65.985 2.91 65.421 2.995 65.096 3.041 64.763 3.088 64.37 3.107 63.934 3.13 63.629 3.074 63.337 3.023 62.906 2.948 62.504 2.873 61.753 3.06L61.577 3.102C60.425 3.392 59.665 3.583 59.147 3.737 58.605 3.891 56.808 3.989 56.336 3.737 55.822 3.462 55.614 3.448 55.234 3.905 55.155 4.003 55.058 4.13 54.952 4.279 54.572 4.798 54.049 5.512 53.567 5.648 53.308 5.722 53.012 5.755 52.724 5.793 52.303 5.844 51.863 5.895 51.548 6.068 51.308 6.199 50.923 6.124 50.548 6.049 50.169 5.975 49.807 5.9 49.632 6.077 49.312 6.4 48.641 7.156 48.238 7.638 47.821 8.137 46.965 8.763 46.775 8.81 46.622 8.852 46.099 8.824 45.89 8.81H45.876C45.876 8.81 45.872 8.81 45.867 8.81H45.863C45.825 8.81 44.895 8.735 44.585 8.324 44.534 8.254 44.483 8.179 44.432 8.1 44.256 7.834 44.089 7.582 43.853 7.568 43.709 7.558 43.557 7.638 43.395 7.82 42.941 8.324 42.459 8.221 41.95 8.109 41.899 8.1 41.848 8.086 41.797 8.077 41.621 8.044 41.533 7.997 41.441 7.955 41.246 7.862 41.084 7.782 40.288 7.857 39.426 7.941 38.913 7.81 38.417 7.68 38.255 7.638 38.098 7.596 37.936 7.568 37.829 7.549 37.746 7.53 37.676 7.521 37.435 7.477 37.17 7.34 36.88 7.11L36.857 7.091C36.685 6.951 36.57 6.825 36.477 6.722 36.278 6.507 36.158 6.376 35.806 6.526 35.458 6.671 35.125 7.32 34.833 7.894 34.718 8.123 34.606 8.343 34.509 8.497 34.384 8.698 34.106 8.866 33.838 9.034 33.416 9.296 32.977 9.562 33.069 9.987 33.185 10.534 33.143 10.576 32.435 11.22L32.199 11.435C31.717 11.874 31.476 12.201 31.282 12.458 31.097 12.706 30.967 12.883 30.712 13.042 30.222 13.36 28.92 13.696 28.754 13.556 28.749 13.551 28.74 13.542 28.754 13.504 28.865 13.238 28.948 12.977 28.823 12.855 28.726 12.762 28.541 12.785 28.24 12.925 27.981 13.042 27.8 13.084 27.652 13.112 27.388 13.168 27.226 13.201 27.004 13.612 26.888 13.827 26.8 14.023 26.721 14.196 26.573 14.532 26.453 14.794 26.244 14.985 26.133 15.088 26.05 15.195 25.971 15.293 25.804 15.513 25.642 15.719 25.207 15.919 24.749 16.13 24.179 16.457 24.077 16.826 24.045 16.947 24.063 17.064 24.137 17.176 24.388 17.554 24.249 17.83 23.906 18.334 23.568 18.825 23.165 19.614 23.082 20.193L23.063 20.315C22.989 20.796 22.938 21.114 23.323 21.417 23.429 21.501 23.475 21.613 23.457 21.754 23.424 22.01 23.193 22.263 23.049 22.323 22.864 22.403 22.781 22.627 22.795 22.809 22.809 22.987 22.906 23.118 23.059 23.155 23.323 23.22 23.36 23.757 23.36 24.323 23.36 24.486 23.392 24.58 23.415 24.645 23.466 24.79 23.48 24.827 22.813 25.645 22.503 26.028 22.29 26.266 22.137 26.439 21.813 26.803 21.739 26.892 21.545 27.387 21.345 27.91 21.068 28.102 20.683 28.372 20.549 28.466 20.401 28.569 20.239 28.699 20.012 28.877 19.85 28.961 19.72 29.031 19.479 29.157 19.322 29.241 19.067 29.718 18.998 29.849 18.947 29.956 18.905 30.045 18.788 30.291 18.469 30.488 17.947 30.638 17.567 30.741 17.363 30.825 17.229 30.881 17.012 30.97 16.975 30.979 16.65 30.914 16.053 30.792 15.868 31.082 15.752 31.628 15.729 31.731 15.697 31.796 15.655 31.815 15.595 31.848 15.484 31.787 15.368 31.726 15.252 31.666 15.122 31.596 14.988 31.586 14.646 31.558 14.405 31.778 14.349 31.834 14.27 31.852 13.886 31.937 13.687 31.834 13.641 31.81 13.594 31.81 13.548 31.834 13.335 31.937 13.196 32.562 13.164 32.726 13.094 32.791 12.636 33.226 12.205 33.894 11.997 34.216 11.983 34.52 11.969 34.791 11.951 35.141 11.937 35.444 11.506 35.711 11.233 35.884 11.029 35.977 10.863 36.052 10.539 36.201 10.321 36.299 10.006 36.79 9.802 37.103 9.626 37.276 9.455 37.448 9.233 37.668 9.024 37.878 8.784 38.355 8.589 38.747 8.432 38.794 8.274 38.836 8.108 38.882 7.936 38.929 7.788 39.364 7.612 39.877 7.691 40.485 7.751 40.975 7.788 41.26 7.816 41.503 7.788 41.648 7.76 41.792 7.663 41.905 7.561 42.026 7.39 42.227 7.2 42.456 7.348 42.848 7.404 42.998 7.418 43.1 7.385 43.161 7.344 43.24 7.205 43.273 7.033 43.315 6.908 43.343 6.765 43.381 6.607 43.441 6.478 43.493 6.371 43.535 6.283 43.567 5.996 43.675 5.876 43.717 5.695 43.964 5.607 44.091 5.417 44.179 5.218 44.273 4.959 44.394 4.691 44.52 4.589 44.754 4.422 45.146 4.44 45.198 4.575 45.445L4.589 45.473C4.64 45.567 4.621 45.59 4.579 45.66 4.524 45.744 4.454 45.856 4.468 46.118 4.491 46.473 4.278 46.781 4.075 47.08 4.024 47.155 3.973 47.234 3.927 47.309 3.843 47.449 3.681 47.557 3.519 47.659 3.283 47.813 3.038 47.972 3.093 48.243 3.121 48.369 3.163 48.425 3.2 48.463 3.181 48.481 3.149 48.519 3.112 48.561 3.051 48.626 2.959 48.72 2.829 48.86 2.699 49.005 2.588 49.117 2.496 49.215 2.158 49.57 2.033 49.701 1.986 50.116 1.963 50.322 1.787 50.49 1.602 50.667 1.371 50.887 1.107 51.135 1.107 51.513V53.573C1.102 53.634 1.005 54.582 1.417 55.17 1.681 55.539 1.755 55.572 1.931 55.605 2.019 55.624 2.125 55.642 2.324 55.745 2.838 56.002 2.959 56.086 3.477 56.446L3.584 56.52C3.973 56.787 3.922 56.973 3.811 57.384 3.764 57.567 3.704 57.791 3.667 58.076 3.621 58.473 3.653 58.73 3.681 58.963 3.718 59.272 3.746 59.491 3.565 59.898 3.329 60.411 3.589 60.612 3.797 60.771 3.899 60.85 3.987 60.92 4.005 61.009 4.019 61.079 4.047 61.182 4.079 61.299 4.204 61.738 4.413 62.471 4.038 62.649 3.834 62.747 3.718 62.873 3.7 63.027 3.667 63.275 3.889 63.522 4.084 63.69 4.218 63.807 4.292 64.139 4.269 64.531 4.241 64.97 4.079 65.568 3.704 65.825 3.292 66.101 3.343 66.367 3.389 66.582 3.422 66.745 3.436 66.843 3.315 66.937 2.954 67.217 2.959 67.254 3.107 67.698L3.135 67.782C3.274 68.207 2.968 68.791 2.908 68.903H2.88V68.936L2.801 69.02H2.875C2.866 69.128 2.834 69.356 2.713 69.525 2.649 69.618 2.524 69.693 2.403 69.763 2.223 69.87 2.037 69.982 2.093 70.155 2.121 70.253 2.195 70.314 2.264 70.365 2.371 70.449 2.44 70.506 2.362 70.688 2.306 70.814 2.213 70.884 2.121 70.949 1.968 71.061 1.811 71.178 1.871 71.524 1.898 71.692 1.94 71.799 1.977 71.888 2.042 72.061 2.07 72.136 1.871 72.458 1.718 72.706 1.75 72.939 1.787 73.182 1.829 73.467 1.875 73.761 1.616 74.144 1.445 74.406 1.273 74.546 1.162 74.639 1.065 74.723.996 74.775 1 74.854 1.005 74.948 1.097 75.022 1.371 75.2 1.616 75.359 1.773 75.419 1.88 75.457 1.991 75.497 2.064 75.65 2.098 75.915 2.116 76.05 2.125 76.176 2.135 76.288 2.172 76.732 2.199 77.022 2.598 77.372 2.871 77.61 3.098 77.671 3.334 77.736 3.528 77.788 3.727 77.844 3.973 78.003 4.158 78.124 4.26 78.236 4.334 78.316 4.505 78.502 4.575 78.521 4.876 78.264 4.991 78.161 5.116 78.017 5.246 77.862 5.603 77.442 6.01 76.961 6.436 77.246 6.682 77.409 6.756 77.54 6.807 77.638 6.908 77.825 6.982 77.858 7.45 77.741 8.247 77.54 8.52 77.531 8.802 77.858L8.867 77.933C9.136 78.241 9.279 78.414 9.9 78.451 10.187 78.474 10.251 78.53 10.256 78.549 10.256 78.577 10.159 78.671 9.89 78.741 9.501 78.834 9.006 78.857 8.83 78.68 8.765 78.614 8.747 78.526 8.774 78.409 8.853 78.063 8.728 77.923 8.645 77.872 8.478 77.769 8.219 77.834 7.978 78.04L7.927 78.082C7.584 78.372 7.561 78.386 7.195 78.25 6.807 78.105 5.783 78.007 5.649 78.129 5.612 78.161 5.593 78.222 5.57 78.292 5.515 78.465 5.436 78.722 5.052 78.811 4.649 78.895 4.413 78.75 4.186 78.61 4.102 78.558 4.024 78.512 3.94 78.474 3.82 78.423 3.676 78.428 3.528 78.488 3.278 78.591 3.056 78.839 2.94 79.128 2.899 79.236 2.838 79.329 2.792 79.413 2.709 79.544 2.644 79.651 2.69 79.75 2.732 79.848 2.871 79.908 3.163 79.96 3.778 80.072 4.63 80.333 4.908 80.418 4.672 80.637 4.487 80.773 4.376 80.796 4.153 80.843 4.056 81.015 3.964 81.179 3.857 81.37 3.755 81.548 3.463 81.548 3.107 81.548 2.982 81.665 2.866 81.772 2.783 81.852 2.704 81.922 2.528 81.95 2.255 81.992 2.209 82.108 2.204 82.174 2.195 82.323 2.385 82.468 2.7 82.548 2.945 82.613 3.042 82.72 3.135 82.823 3.227 82.926 3.32 83.033 3.542 83.08 3.751 83.127 3.792 83.248 3.862 83.435 3.913 83.58 3.973 83.748 4.126 83.907 4.255 84.042 4.306 84.243 4.362 84.458 4.445 84.766 4.538 85.121 4.885 85.378 5.181 85.598 5.529 85.682 5.862 85.761 6.172 85.836 6.469 85.906 6.686 86.084 6.756 86.14 6.811 86.191 6.862 86.238 6.95 86.312 7.01 86.368 7.08 86.406V86.42L7.098 86.434C7.172 86.495 8.89 87.901 9.395 88.055 9.784 88.176 10.21 88.653 10.548 89.031 10.631 89.124 10.714 89.218 10.789 89.293 10.839 89.344 10.886 89.391 10.932 89.437 11.238 89.75 11.441 89.956 11.4 90.287 11.344 90.745 11.46 90.96 11.969 91.32 12.432 91.651 12.645 92.006 12.678 92.058 12.678 92.142 12.701 92.749 12.784 93.132 12.835 93.38 12.868 93.417 12.918 93.473 12.946 93.501 12.979 93.534 13.03 93.637 13.104 93.781 13.071 94.043 13.043 94.291 13.02 94.482 13.002 94.664 13.025 94.804 13.043 94.921 13.219 95.935 13.65 96.108 13.983 96.238 14.076 96.299 14.312 96.673 14.428 96.855 14.571 96.911 14.696 96.953 14.854 97.009 14.988 97.061 15.067 97.355 15.215 97.915 15.335 97.976 15.729 98.182L15.822 98.228C15.984 98.312 16.109 98.34 16.22 98.364 16.424 98.41 16.553 98.439 16.808 98.836 17.146 99.368 17.535 99.419 17.678 99.419 17.692 99.419 17.692 99.419 17.701 99.419 17.794 99.504 18.651 100.279 19.415 100.825 19.947 101.199 20.091 101.363 20.331 101.624 20.456 101.76 20.614 101.932 20.859 102.18 21.29 102.605 21.92 103.095 22.586 103.614 23.04 103.969 23.512 104.333 23.943 104.698 24.485 105.155 25.198 105.595 25.828 105.982 26.392 106.333 26.883 106.632 27.008 106.809 27.203 107.08 27.971 107.127 28.499 107.127 28.731 107.127 28.911 107.117 28.981 107.113 29.069 107.173 29.68 107.584 30.115 107.584 30.865 107.584 31.388 107.43 31.713 107.108 32.097 106.734 32.407 106.552 32.879 106.272L32.986 106.211C33.194 106.09 33.352 106.071 33.523 106.052 33.773 106.024 34.032 105.992 34.412 105.618 34.755 105.277 34.824 105.342 34.94 105.454 35.023 105.534 35.13 105.637 35.338 105.637 35.833 105.637 35.991 105.595 36.417 105.165 36.653 104.931 37.398 105.029 38.051 105.113 38.468 105.169 38.862 105.221 39.084 105.179H39.107C39.63 105.085 40.084 105.006 40.255 105.104 40.436 105.207 40.779 105.212 41.33 105.109 41.788 105.025 43.946 105.071 44.098 105.104 44.21 105.179 45.353 105.964 45.742 106.118 45.913 106.188 45.964 106.3 46.011 106.389 46.038 106.449 46.071 106.51 46.131 106.524 46.14 106.524 46.15 106.524 46.159 106.524 46.201 106.524 46.251 106.501 46.316 106.454 46.381 106.407 46.437 106.37 46.492 106.328 46.687 106.192 46.909 106.038 47.502 105.473 47.895 105.099 48.178 105.071 48.474 105.048 48.752 105.025 49.039 104.997 49.428 104.707 49.604 104.576 49.724 104.483 49.812 104.417 50.02 104.259 50.025 104.259 50.057 104.254 50.081 104.254 50.113 104.249 50.173 104.231 50.414 104.161 50.942 103.913 51.159 103.731 51.22 103.679 51.331 103.693 51.474 103.707 51.72 103.735 52.058 103.773 52.405 103.488 52.674 103.268 52.799 103.278 52.924 103.287 53.044 103.296 53.169 103.306 53.373 103.138 53.743 102.829 54.438 102.703 54.479 102.698 54.544 102.708 54.655 102.717 54.794 102.717 55.118 102.717 55.6 102.666 56.058 102.414 56.507 102.166 56.794 101.914 56.966 101.764 57.021 101.713 57.068 101.675 57.1 101.657 57.146 101.624 57.211 101.526 57.355 101.306 57.401 101.236 57.452 101.152 57.507 101.073 57.674 101.092 57.92 101.05 58.054 101.026 58.086 101.022 58.109 101.017 58.128 101.012 58.16 101.012 58.184 101.143 58.197 101.218 58.221 101.344 58.248 101.475 58.332 101.531 58.424 101.591 58.665 101.671 58.887 101.671 59.045 101.671 59.193 101.629 59.276 101.517 59.411 101.325 59.415 101.33 59.624 101.358L59.707 101.367C59.975 101.4 60.54 101.138 60.698 101.064 60.739 101.11 60.832 101.176 61.04 101.255 61.11 101.283 61.179 101.302 61.221 101.26 61.249 101.288 61.286 101.32 61.332 101.363 61.628 101.638 61.726 101.615 61.883 101.493 61.934 101.456 61.994 101.409 62.082 101.377 62.267 101.311 62.328 101.311 62.467 101.311 62.564 101.311 62.698 101.311 62.93 101.292 63.263 101.26 63.406 101.138 63.522 101.045 63.606 100.975 63.675 100.919 63.795 100.905 63.902 100.895 63.99 100.867 64.064 100.849 64.231 100.802 64.337 100.769 64.555 100.9 64.735 101.008 64.86 101.003 64.957 100.994 65.059 100.989 65.138 100.98 65.272 101.101 65.439 101.25 65.573 101.302 65.726 101.353 65.851 101.4 65.99 101.451 66.18 101.568 66.337 101.666 66.37 101.769 66.398 101.867 66.453 102.054 66.523 102.175 66.967 102.199 67.319 102.217 67.523 102.147 67.652 102.101 67.801 102.049 67.828 102.04 67.926 102.175 68.009 102.297 68.051 102.432 68.088 102.568 68.148 102.773 68.208 102.983 68.426 103.096 68.62 103.198 68.68 103.287 68.759 103.408 68.81 103.483 68.865 103.572 68.967 103.679 69.171 103.899 69.217 104.118 69.287 104.417 69.301 104.483 69.315 104.553 69.333 104.628 69.384 104.838 69.481 104.889 69.565 104.936 69.657 104.987 69.745 105.034 69.778 105.352 69.801 105.567 69.778 105.837 69.754 106.099 69.708 106.627 69.662 107.127 69.967 107.281 70.13 107.36 70.227 107.384 70.305 107.402 70.426 107.426 70.486 107.44 70.671 107.687 70.731 107.767 70.778 107.841 70.824 107.911 70.931 108.08 71.019 108.215 71.157 108.238 71.171 108.238 71.185 108.238 71.199 108.238 71.301 108.238 71.426 108.178 71.588 108.047 72.065 107.65 72.144 107.608 72.824 107.64 73.287 107.664 73.435 107.519 73.57 107.388 73.648 107.313 73.718 107.248 73.848 107.215 74.232 107.131 74.412 107.094 75.047 107.075 75.44 107.066 75.579 106.949 75.746 106.809 75.857 106.716 75.977 106.613 76.209 106.524 76.751 106.314 77.079 106.188 77.593 106.277 77.848 106.319 78.177 106.267 78.58 106.136 78.594 106.272 78.635 106.393 78.719 106.501 78.992 106.856 79.552 107.197 80.423 107.542 81.001 107.776 81.719 108.21 82.011 108.729 82.242 109.145 82.344 112.634 82.372 114.428L82.418 114.937C82.414 114.979 82.302 115.908 82.242 116.151 82.191 116.389 82.14 116.431 81.927 116.544 81.863 116.576 81.737 116.604 81.608 116.637 81.33 116.702 81.048 116.772 80.973 116.922 80.95 116.973 80.95 117.029 80.973 117.085 81.117 117.394 81.186 117.45 81.608 117.431 81.872 117.417 81.876 117.454 81.918 117.637 81.932 117.697 81.946 117.772 81.974 117.856 82.001 117.945 82.02 118.024 82.034 118.09 82.066 118.262 82.103 118.379 82.326 118.482 82.14 118.725 81.413 119.687 81.233 119.902 81.149 120 81.099 120.196 81.029 120.444 80.913 120.869 80.756 121.448 80.358 121.766 79.881 122.144 79.746 122.508 79.64 122.803 79.598 122.915 79.561 123.018 79.51 123.111 79.376 123.345 79.432 123.513 79.51 123.774 79.566 123.947 79.631 124.157 79.677 124.475 79.714 124.727 79.756 124.886 79.784 125.003 79.848 125.26 79.858 125.302 79.682 125.689L79.635 125.792C79.524 126.026 79.469 126.147 79.52 126.241 79.575 126.343 79.723 126.367 80.084 126.418L80.191 126.432C80.385 126.46 80.501 126.516 80.524 126.591 80.571 126.731 80.344 126.979 80.159 127.18 80.117 127.226 80.075 127.268 80.038 127.31 79.904 127.46 79.853 127.535 79.872 127.609 79.89 127.684 79.973 127.707 80.108 127.754 80.21 127.787 80.348 127.829 80.52 127.908 80.927 128.1 81.052 128.352 81.214 128.674 81.274 128.796 81.339 128.922 81.423 129.057L81.46 129.118C81.775 129.636 82.367 130.608 83.136 131.173 83.77 131.645 83.895 131.911 84.099 132.35 84.145 132.448 84.196 132.556 84.256 132.677 84.58 133.308 85.849 133.845 85.993 133.906L88.391 136.965C88.41 137.017 88.65 137.722 88.854 138.245 89.012 138.652 88.951 139.198 88.891 139.675 88.873 139.819 88.859 139.96 88.85 140.09 88.822 140.539 89.373 141.076 89.789 141.324 89.827 141.87 89.845 142.272 89.854 142.547 89.868 143.108 89.989 143.211 90.215 143.397 90.331 143.491 90.47 143.608 90.641 143.827 90.743 143.958 90.836 144.065 90.919 144.164 91.234 144.533 91.392 144.715 91.359 145.345 91.336 145.887 91.725 146.387 92.1 146.868 92.318 147.148 92.521 147.41 92.642 147.671 92.827 148.078 92.808 148.176 92.785 148.325 92.767 148.442 92.744 148.592 92.79 148.9 92.85 149.283 92.947 149.404 93.04 149.465 93.04 149.47 93.031 149.479 93.026 149.489 92.998 149.535 92.975 149.582 92.952 149.638 92.864 149.839 92.744 150.11 92.267 150.488 91.785 150.866 91.753 151.077 91.72 151.32 91.711 151.399 91.697 151.478 91.669 151.572 91.577 151.875 91.799 152.044 92.035 152.226 92.137 152.305 92.248 152.385 92.341 152.487 92.637 152.805 92.707 152.926 92.674 153.3 92.642 153.646 92.771 153.805 93.063 154.15 93.123 154.22 93.188 154.3 93.262 154.393L93.332 154.477C93.693 154.921 93.702 154.935 93.637 155.159 93.554 155.458 93.67 155.776 93.961 156.07 94.221 156.327 94.262 156.406 93.846 156.845 93.563 157.144 93.744 157.336 93.901 157.504 94.017 157.626 94.137 157.752 94.137 157.934 94.137 158.027 94.137 158.125 94.146 158.223 94.16 158.62 94.179 159.069 93.947 159.625 93.753 160.097 93.771 160.19 93.957 160.302 94.012 160.339 94.082 160.377 94.146 160.461 94.359 160.722 93.799 161.302 93.646 161.432 93.484 161.573 93.063 162.203 93.248 162.633 93.355 162.866 92.841 163.119 92.535 163.268 92.406 163.329 92.308 163.38 92.257 163.422 91.882 163.754 91.549 164.002 91.262 164.156 91.072 164.258 90.993 164.385 90.924 164.497 90.831 164.646 90.757 164.768 90.433 164.805 90.271 164.828 90.174 164.87 90.127 164.945 90.067 165.043 90.104 165.16 90.146 165.295 90.192 165.44 90.243 165.604 90.192 165.786V165.8C90.058 166.276 90.03 166.374 90.299 166.51 90.322 166.519 90.327 166.529 90.327 166.533 90.327 166.575 90.188 166.692 90.09 166.767 89.984 166.851 89.864 166.944 89.78 167.047 89.6 167.253 89.697 167.556 89.799 167.879 89.845 168.028 89.896 168.187 89.919 168.341 89.951 168.551 89.901 168.617 89.84 168.687 89.771 168.771 89.688 168.869 89.766 169.163 89.882 169.597 89.817 170.004 89.586 170.279 89.433 170.462 89.479 170.681 89.526 170.896 89.549 171.013 89.576 171.134 89.572 171.246 89.558 171.522 89.424 171.601 88.984 171.868L88.863 171.942C88.567 172.125 88.447 172.321 88.326 172.531 88.224 172.708 88.118 172.886 87.891 173.073 87.539 173.358 87.646 173.671 87.752 174.002 87.812 174.189 87.877 174.385 87.873 174.596 87.859 175.077 87.877 175.161 87.988 175.609 88.021 175.735 88.058 175.889 88.104 176.09 88.289 176.894 87.956 177.889 87.891 178.08L87.877 178.127 87.849 178.192H87.854C87.785 178.44 87.562 179.295 87.65 179.743 87.724 180.149 87.808 180.299 87.951 180.57 87.993 180.649 88.044 180.743 88.099 180.855 88.215 181.093 88.41 181.219 88.576 181.327 88.766 181.448 88.919 181.546 88.919 181.77 88.919 182.261 89.331 182.742 89.813 183.298L89.831 183.321C90.257 183.821 90.239 184.017 90.192 184.437L90.178 184.564C90.141 184.928 90.327 184.965 90.54 185.007 90.678 185.035 90.85 185.068 91.04 185.19 91.396 185.418 91.392 185.46 91.35 185.694 91.336 185.764 91.322 185.853 91.313 185.97 91.285 186.329 91.554 186.638 91.813 186.932 91.924 187.063 92.044 187.193 92.128 187.329 92.29 187.581 92.359 187.768 92.48 188.109 92.563 188.342 92.679 188.669 92.873 189.137 93.257 190.071 93.281 190.094 93.656 190.463 93.739 190.547 93.846 190.645 93.975 190.781 94.415 191.239 94.577 191.622 94.762 192.065 94.864 192.308 94.971 192.56 95.128 192.845 95.267 193.098 95.378 193.27 95.461 193.406 95.651 193.705 95.712 193.808 95.744 194.186 95.767 194.443 95.874 194.602 95.98 194.756 96.119 194.952 96.262 195.158 96.239 195.615 96.207 196.386 96.026 197.395 95.832 198.465L95.79 198.708C95.642 199.572 95.874 199.731 96.082 199.871 96.161 199.927 96.239 199.973 96.286 200.067 96.337 200.165 96.388 200.244 96.429 200.314 96.55 200.506 96.638 200.646 96.651 201.029 96.656 201.179 96.651 201.291 96.642 201.393 96.624 201.674 96.614 201.842 96.883 202.16 97.189 202.524 97.082 203.122 96.962 203.813L96.934 203.981C96.8 204.775 96.883 204.985 97.165 205.532 97.531 206.247 97.689 206.868 97.647 207.428 97.605 207.961 97.744 208.213 97.976 208.629 98.059 208.778 98.152 208.947 98.253 209.161 98.351 209.367 98.457 209.558 98.554 209.741 98.851 210.287 99.105 210.764 99.147 211.371 99.184 211.922 99.587 212.23 100.013 212.553 100.254 212.739 100.508 212.931 100.698 213.174 100.99 213.557 101.184 213.622 101.323 213.674 101.439 213.716 101.504 213.739 101.592 213.917 101.777 214.304 102.041 214.332 102.138 214.328 102.222 214.444 102.606 214.968 102.953 215.365 103.124 215.565 103.106 215.738 103.078 215.963 103.046 216.205 103.013 216.486 103.245 216.836 103.342 216.976 103.435 217.112 103.527 217.247 103.856 217.714 104.166 218.158 104.398 218.756 104.486 218.975 104.537 219.115 104.569 219.214 104.648 219.433 104.652 219.438 104.801 219.671L104.851 219.751C105.111 220.148 105.236 220.62 105.217 221.119 105.199 221.643 105.486 221.904 106.185 222.339 106.662 222.637 106.764 222.894 106.88 223.189 106.935 223.333 106.995 223.483 107.102 223.646 107.301 223.95 107.463 224.053 107.634 224.16 107.745 224.23 107.857 224.3 107.986 224.431 108.301 224.749 108.361 225.879 108.306 226.426 108.259 226.874 108.032 227.024 107.653 227.276 107.593 227.313 107.532 227.355 107.468 227.402 107.069 227.678 106.884 228.014 106.717 228.303 106.676 228.378 106.634 228.448 106.592 228.514 106.379 228.845 106.685 229.126 106.958 229.373 106.991 229.401 107.018 229.429 107.051 229.457 107.181 229.579 107.245 229.719 107.25 229.864 107.25 230.004 107.194 230.139 107.088 230.247 107.042 230.289 107.028 230.335 107.037 230.382 107.056 230.48 107.194 230.536 107.366 230.602 107.551 230.676 107.778 230.765 107.824 230.905 107.935 231.237 108.046 232.414 108.046 232.853 108.046 233.035 108.07 233.129 108.12 233.185 108.181 233.245 108.264 233.245 108.371 233.241 108.44 233.241 108.528 233.241 108.634 233.255 109.047 233.311 109.153 233.381 109.329 233.61 109.505 233.843 109.695 233.829 110.107 233.801 110.181 233.797 110.26 233.787 110.348 233.783 110.94 233.745 111.038 233.904 111.153 234.166 111.209 234.287 111.362 234.395 111.579 234.46 111.718 234.502 111.894 234.53 112.065 234.53 112.283 234.53 112.501 234.488 112.663 234.385 112.839 234.273 113.144 234.17 113.441 234.072 113.839 233.941 114.214 233.815 114.325 233.652 114.496 233.409 115.265 233.091 115.821 233.031 115.996 233.017 116.177 233.04 116.376 233.068 116.802 233.133 117.284 233.203 117.798 232.83 118.284 232.475 118.548 232.624 118.761 232.746 118.853 232.797 118.937 232.844 119.02 232.844 119.025 232.844 119.034 232.844 119.039 232.844 119.089 232.844 119.14 232.839 119.196 232.834 119.451 232.825 119.765 232.811 119.803 232.563 119.812 232.503 119.807 232.451 119.807 232.405 119.803 232.274 119.798 232.213 120.168 232.12 120.608 232.012 120.729 232.092 120.965 232.251 121.006 232.279 121.053 232.311 121.104 232.344 121.381 232.512 121.534 232.456 121.905 232.316 122.02 232.274 122.169 232.218 122.349 232.157 122.914 231.975 122.956 232.026 123.071 232.19 123.104 232.232 123.136 232.283 123.187 232.335 123.326 232.484 123.613 232.423 123.947 232.358 124.257 232.293 124.609 232.222 124.812 232.349 125.215 232.591 125.729 232.722 126.123 232.68 126.22 232.666 126.326 232.704 126.442 232.746 126.697 232.834 127.012 232.951 127.493 232.671 128.155 232.293 128.216 232.227 128.595 231.816L128.669 231.737C128.989 231.386 129.165 231.377 129.512 231.354 129.632 231.344 129.771 231.34 129.947 231.312 130.04 231.298 130.123 231.288 130.197 231.274 130.313 231.256 130.429 231.242 130.489 231.237 130.438 231.293 130.327 231.396 130.276 231.438 130.174 231.527 130.077 231.634 130.137 231.709 130.253 231.853 130.892 231.541 131.281 231.26 131.591 231.041 131.841 230.957 132.077 230.877 132.323 230.793 132.55 230.718 132.823 230.504 133.147 230.247 133.536 230.092 134.027 229.892 134.327 229.77 134.666 229.635 135.059 229.448 135.805 229.102 135.855 229.027 136.018 228.808 136.087 228.715 136.175 228.598 136.346 228.416 136.68 228.07 136.856 228.047 137.096 228.014 137.268 227.99 137.467 227.962 137.754 227.822 138.272 227.565 138.458 227.332 138.759 226.944 138.87 226.804 138.995 226.641 139.157 226.449 139.768 225.744 139.967 225.613 140.56 225.365 140.949 225.207 141.023 225.034 141.102 224.847 141.148 224.735 141.199 224.618 141.333 224.483 141.398 224.417 141.467 224.352 141.546 224.277 141.907 223.936 142.407 223.469 142.546 222.904 142.708 222.264 142.792 222.217 143.194 221.998 143.579 221.783 143.991 221.507 144.009 220.928 144.019 220.624 144.31 220.451 144.746 220.19 145.009 220.031 145.306 219.853 145.63 219.597 146.287 219.069 146.278 218.765 146.269 218.466 146.269 218.354 146.264 218.247 146.292 218.125 146.366 217.812 146.565 217.752 146.866 217.653 146.977 217.616 147.102 217.579 147.232 217.518 147.496 217.401 147.547 217.224 147.598 217.037 147.644 216.864 147.695 216.682 147.922 216.49 148.348 216.126 148.385 216.037 148.598 215.551 148.635 215.467 148.677 215.374 148.728 215.262 148.964 214.734 149.149 214.575 149.408 214.356 149.51 214.267 149.63 214.169 149.765 214.033 150.112 213.683 150.144 213.529 150.191 213.323 150.209 213.239 150.228 213.146 150.269 213.024 150.325 212.866 150.404 212.735 150.482 212.609 150.617 212.389 150.746 212.179 150.723 211.866 150.686 211.413 151.131 210.801 151.367 210.469 151.635 210.105 151.408 209.451 151.381 209.367 151.395 209.274 151.51 208.386 151.441 207.816 151.362 207.237 151.362 206.163 151.441 205.523 151.478 205.214 151.52 205.163 151.552 205.126 151.598 205.07 151.626 205.018 151.626 204.761 151.626 204.35 152.001 204.238 152.251 204.163 152.284 204.154 152.311 204.145 152.334 204.135 152.538 204.065 152.922 203.93 153.649 203.603 153.943 203.469 154.103 203.388 154.131 203.36 154.131 203.36 154.187 203.299 154.367 203.182 154.613 203.024 154.96 202.874 155.33 202.715 155.668 202.571 156.02 202.421 156.349 202.239 156.863 201.959 157.085 201.987 157.321 202.015 157.4 202.024 157.483 202.033 157.576 202.033 157.784 202.033 157.886 202.024 157.951 201.954 158.02 201.879 158.02 201.753 158.011 201.557 158.002 201.375 158.196 201.123 158.382 200.875 158.558 200.641 158.743 200.398 158.794 200.179 158.845 199.983 158.97 199.941 159.132 199.885 159.298 199.829 159.488 199.763 159.581 199.502 159.697 199.184 159.604 199.067 159.497 198.932 159.433 198.852 159.363 198.759 159.321 198.6 159.281 198.444 159.286 198.343 159.335 198.297 159.4 198.24 159.502 198.142 159.65 197.928 159.947 197.488 159.891 197.077 159.826 196.606 159.808 196.461 159.785 196.316 159.775 196.152 159.743 195.723 159.678 195.648 159.572 195.559 159.521 195.513 159.46 195.461 159.396 195.302L159.382 195.27C159.201 194.849 159.118 194.658 159.099 194.261 159.095 194.149 159.099 193.994 159.113 193.836 159.141 193.406 159.173 192.864 158.979 192.495 158.812 192.182 158.803 191.766 158.794 191.43 158.794 191.253 158.784 191.098 158.757 191 158.724 190.874 158.641 190.785 158.558 190.697 158.433 190.566 158.317 190.44 158.344 190.192 158.391 189.805 158.294 189.762 158.085 189.702 158.03 189.688 157.969 189.669 157.9 189.636 157.719 189.562 157.631 189.459 157.53 189.337 157.46 189.253 157.386 189.165 157.275 189.081 157.118 188.95 157.071 188.777 157.016 188.571 156.988 188.464 156.96 188.352 156.914 188.24 156.789 187.922 156.779 187.474 157.127 187.17 157.275 187.044 157.344 186.941 157.349 186.843 157.349 186.731 157.27 186.647 157.173 186.553 157.136 186.521 157.099 186.483 157.062 186.437 156.863 186.222 156.881 186.105 157.071 185.745 157.141 185.615 157.168 185.502 157.187 185.418 157.229 185.26 157.247 185.18 157.451 185.096 157.692 184.993 157.756 184.797 157.835 184.568 157.881 184.428 157.937 184.265 158.039 184.092 158.233 183.765 158.344 183.816 158.636 183.956 158.715 183.994 158.803 184.036 158.909 184.078 159.039 184.129 159.122 184.139 159.192 184.101 159.275 184.059 159.298 183.97 159.326 183.872 159.363 183.741 159.405 183.592 159.59 183.499 159.747 183.419 159.817 183.457 159.91 183.508 160.095 183.606 160.275 183.653 160.729 183.27 161.178 182.891 161.257 182.98 161.41 183.162 161.502 183.27 161.618 183.405 161.836 183.471 162.317 183.615 162.456 183.274 162.623 182.845 162.674 182.714 162.734 182.569 162.803 182.415 162.947 182.111 162.947 181.948 162.942 181.808 162.942 181.644 162.938 181.518 163.206 181.177 163.512 180.785 163.665 180.696 163.822 180.603 163.924 180.542 164.026 180.481 164.174 180.346 164.535 180.014 164.813 179.556 164.813 179.383 164.813 179.267 164.864 179.131 165.031 178.767 165.119 178.585 165.281 178.515 165.424 178.454 165.549 178.398 165.67 178.346 165.707 178.23 165.767 178.057 166.239 177.889 166.521 177.851 166.892 177.8 167.248 177.613 167.211 177.305 167.202 177.239 167.221 177.221 167.23 177.216 167.281 177.16 167.452 177.165 167.637 177.174 167.739 177.174 167.86 177.183 167.985 177.174 168.198 177.174 168.313 177.216 168.438 177.272 168.577 177.333 168.721 177.393 168.98 177.361 169.253 177.328 169.411 177.165 169.55 177.02 169.665 176.903 169.763 176.8 169.897 176.796 169.99 176.791 170.059 176.805 170.128 176.814 170.3 176.847 170.443 176.87 170.754 176.585 171.18 176.193 171.397 176.034 171.754 175.796 171.832 175.745 171.897 175.707 171.953 175.675 172.17 175.548 172.281 175.488 172.453 175.049 172.68 174.479 172.953 174.124 173.24 174.026 173.624 173.89 173.962 172.844 174.064 172.358 174.115 172.115 174.263 171.975 174.407 171.835 174.564 171.681 174.731 171.527 174.74 171.251 174.749 170.971 174.902 170.817 175.023 170.691 175.106 170.602 175.18 170.522 175.189 170.424 175.194 170.359 175.254 170.228 175.314 170.102 175.439 169.831 175.574 169.555 175.435 169.425 175.384 169.383 175.356 169.327 175.324 169.266 175.249 169.135 175.171 168.986 174.879 168.958 174.8 168.948 174.754 168.934 174.731 168.902 174.671 168.822 174.694 168.621 174.736 168.29 174.759 168.093 174.791 167.855 174.814 167.552 174.828 167.36 174.847 167.178 174.861 167.01 174.939 166.104 174.972 165.702 174.847 165.608 174.828 165.594 174.786 165.576 174.74 165.608 174.698 165.566 174.698 165.263 174.703 165.02 174.703 164.749 174.708 164.408 174.671 164.1 174.629 163.801 174.629 163.184 174.624 162.53 174.62 161.549 174.61 160.536 174.495 160.171 174.416 159.924 174.397 159.802 174.384 159.746 174.374 159.695 174.356 159.629 174.282 159.648 174.268 159.648 174.254 159.648 174.226 159.648 174.171 159.643 174.115 159.545 174.06 159.447 173.985 159.321 173.902 159.176 173.768 159.12 173.8 159.083 173.902 159.013 173.976 158.961 174.166 158.831 174.384 158.686 174.425 158.513 174.504 158.195 174.536 157.481 174.425 157.154 174.402 157.088 174.388 157.046 174.379 157.014 174.347 156.902 174.337 156.888 174.222 156.836 174.185 156.817 174.134 156.789 174.06 156.747 173.814 156.612 173.796 156.467 173.8 156.42L173.814 156.406 173.805 156.388 173.842 156.22 173.763 156.294 173.393 155.444C173.305 155.243 173.073 154.996 172.846 154.753 172.805 154.706 172.758 154.659 172.717 154.613 172.601 154.482 172.49 154.234 172.356 153.949 172.207 153.622 172.036 153.253 171.809 152.926 171.601 152.628 171.693 152.501 171.795 152.371 171.879 152.258 171.99 152.118 171.809 151.894 171.499 151.506 171.592 151.175 171.768 150.67 171.897 150.287 171.781 150.208 171.541 150.096 171.443 150.049 171.323 149.993 171.193 149.886 170.999 149.736 171.045 149.624 171.124 149.423 171.198 149.241 171.286 149.017 171.217 148.69 171.184 148.545 171.147 148.414 171.115 148.288 170.994 147.84 170.906 147.513 171.082 147.032 171.244 146.592 171.235 146.55 171.175 146.396 171.152 146.331 171.115 146.247 171.082 146.074 171.059 145.939 171.036 145.84 171.017 145.761 170.962 145.523 170.943 145.453 171.054 145.023 171.142 144.682 171.031 144.486 170.906 144.252 170.804 144.065 170.684 143.855 170.652 143.514 170.61 143.08 170.513 142.982 170.402 142.902 170.346 142.865 170.314 142.842 170.304 142.697 170.286 142.248 169.952 142.08 169.448 141.875 169.346 141.833 169.327 141.809 169.323 141.809 169.332 141.786 169.425 141.73 169.494 141.688 169.675 141.585 169.92 141.44 170.036 141.188 170.17 140.894 170.036 140.8 169.939 140.73 169.841 140.66 169.777 140.614 169.888 140.366 169.999 140.114 170.013 140.081 169.976 140.039 169.943 140.002 169.902 140.016 169.869 140.025 169.8 140.044 169.675 140.076 169.522 139.894 169.48 139.847 169.448 139.81 169.425 139.777 169.527 139.768 169.707 139.735 169.883 139.511 170.022 139.329 170.124 139.287 170.189 139.264 170.341 139.208 170.323 139.133 170.244 138.843 170.161 138.554 170.189 138.404 170.216 138.231 170.24 138.091 170.267 137.932 170.244 137.68 170.198 137.19 170.235 136.652 170.244 136.536 170.42 136.405 171.578 135.545 171.869 135.088L171.93 134.994C172.217 134.536 172.462 134.144 172.221 133.71 172.17 133.612 172.152 133.542 172.17 133.485 172.193 133.406 172.305 133.355 172.43 133.294 172.532 133.247 172.643 133.191 172.749 133.107 172.99 132.925 172.99 132.836 172.958 132.649 172.944 132.565 172.925 132.458 172.934 132.294 172.944 132.023 172.99 131.991 173.092 131.93 173.161 131.888 173.258 131.827 173.365 131.682 173.495 131.5 173.583 131.271 173.684 131 173.786 130.725 173.907 130.412 174.106 130.052 174.175 129.926 174.226 129.837 174.254 129.786 174.31 129.861 174.421 129.907 174.685 129.772 174.986 129.618 175.124 129.534 175.249 129.459 175.374 129.384 175.481 129.314 175.731 129.193 176.097 129.02 176.24 128.861 176.439 128.651 176.523 128.562 176.615 128.464 176.736 128.347 176.828 128.263 176.898 128.202 176.953 128.156 177.171 127.974 177.176 127.955 177.139 127.619 177.097 127.268 177.407 126.806 177.453 126.74L178.046 126.484 178.065 126.47C178.065 126.47 178.426 126.068 178.268 125.731 178.208 125.601 178.25 125.545 178.417 125.372 178.537 125.246 178.704 125.078 178.87 124.788 179.102 124.386 179.222 124.311 179.375 124.209 179.472 124.148 179.579 124.078 179.722 123.928 179.875 123.77 179.926 123.728 179.977 123.69 180.046 123.634 180.097 123.597 180.361 123.284 180.755 122.826 180.796 122.798 181.028 122.653L181.13 122.588C181.19 122.55 181.25 122.513 181.306 122.48 181.556 122.331 181.792 122.186 182.111 121.84 182.399 121.523 182.899 121.074 183.297 120.71 183.426 120.593 183.542 120.486 183.644 120.392 183.797 120.248 183.889 120.182 183.964 120.126 184.079 120.042 184.149 119.991 184.32 119.743 184.473 119.519 184.653 119.388 184.862 119.234 185.01 119.122 185.167 119.01 185.334 118.846 185.672 118.515 185.742 118.276 185.829 117.973 185.848 117.912 185.867 117.847 185.89 117.772 185.955 117.562 186.075 117.496 186.232 117.398 186.357 117.324 186.51 117.235 186.672 117.053 186.839 116.866 186.913 116.796 186.982 116.73 187.061 116.651 187.135 116.581 187.344 116.343 187.566 116.09 187.58 116.095 187.663 116.09 187.723 116.09 187.811 116.09 187.987 116.034 188.297 115.936 188.339 115.866 188.409 115.721 188.441 115.656 188.478 115.581 188.561 115.469 188.756 115.212 188.835 115.198 189.177 115.133 189.256 115.119 189.344 115.1 189.45 115.077 189.825 114.993 189.825 114.825 189.798 114.652 189.779 114.558 189.774 114.502 189.83 114.451 189.937 114.353 190.112 114.334 190.288 114.315 190.427 114.301 190.557 114.287 190.65 114.231 190.714 114.194 190.751 114.157 190.784 114.124 190.849 114.054 190.904 113.998 191.265 113.984 191.534 113.979 191.548 113.974 191.562 113.923 191.576 113.876 191.534 113.848 191.506 113.83 191.432 113.783 191.363 113.727 191.386 113.615 191.4 113.554 191.409 113.531 191.409 113.526 191.423 113.526 191.446 113.545 191.465 113.554 191.539 113.601 191.65 113.666 191.812 113.661 192.09 113.652 192.122 113.587 192.178 113.381 192.196 113.32 192.215 113.241 192.252 113.143 192.307 112.984 192.335 112.961 192.33 112.956 192.33 112.956 192.344 112.961 192.354 112.965 192.391 112.984 192.451 113.017 192.548 112.979 192.719 112.914 192.932 112.835 193.085 112.335 193.215 111.896 193.317 111.872 193.548 111.83L193.604 111.821C193.826 111.779 193.9 111.742 194.034 111.279 194.108 111.018 194.219 110.92 194.344 110.803 194.446 110.709 194.562 110.602 194.669 110.396 194.826 110.083 194.933 110.06 195.062 110.032 195.104 110.023 195.155 110.013 195.21 109.995 195.423 109.911 195.558 109.331 195.595 109.159 195.729 109.074 196.423 108.635 196.576 108.486 196.604 108.458 196.632 108.43 196.664 108.402 196.812 108.262 196.998 108.089 197.021 107.771 197.039 107.5 197.09 107.482 197.197 107.435 197.215 107.426 197.238 107.416 197.262 107.402 197.447 107.309 197.539 107.169 197.863 106.375 197.891 106.309 197.933 106.286 197.984 106.258 198.1 106.192 198.183 106.118 198.141 105.833 198.141 105.809 198.137 105.791 198.132 105.772 198.197 105.819 198.299 105.861 198.428 105.833 198.655 105.791 198.632 105.627 198.618 105.52 198.604 105.408 198.6 105.352 198.692 105.319 198.975 105.207 199.081 104.866 198.984 104.385 198.933 104.142 199.03 104.086 199.188 103.992 199.248 103.955 199.313 103.918 199.378 103.862 199.618 103.651 199.618 103.595 199.618 103.142 199.618 102.904 199.641 102.885 199.739 102.811 199.813 102.755 199.924 102.67 200.081 102.474 200.41 102.063 200.415 101.984 200.392 101.755 200.392 101.718 200.382 101.68 200.382 101.633 200.368 101.283 200.595 101.115 200.734 101.045 201.003 100.909 201.068 100.737 200.989 100.368 200.915 100.031 201.109 99.765 201.336 99.676 201.438 99.634 201.535 99.592 201.563 99.504 201.595 99.401 201.535 99.275 201.396 99.041 201.294 98.878 201.378 98.798 201.572 98.635 201.725 98.509 201.91 98.354 202.008 98.093 202.142 97.733 202.234 97.714 202.392 97.686 202.461 97.672 202.545 97.658 202.642 97.612 202.934 97.481 202.943 97.439 202.915 97.173 202.91 97.126 202.906 97.075 202.896 97.009 202.883 96.818 202.966 96.771 203.123 96.687 203.244 96.621 203.392 96.547 203.526 96.369 203.813 96.01 203.799 95.837 203.772 95.412 203.772 95.36 203.762 95.3 203.762 95.239 203.749 94.935 203.79 94.907 203.911 94.828 203.999 94.772 204.119 94.697 204.262 94.505 204.378 94.351 204.475 94.244 204.559 94.16 204.725 93.982 204.837 93.861 204.851 93.571 204.86 93.338 204.929 93.268 205.073 93.123 205.156 93.039 205.263 92.936 205.378 92.768 205.693 92.324 205.693 92.193 205.679 91.712V91.637C205.665 91.231 205.712 91.156 205.911 90.857 205.966 90.773 206.036 90.671 206.115 90.544 206.378 90.11 206.286 89.732 206.198 89.367 206.161 89.204 206.119 89.04 206.11 88.867 206.087 88.475 206.216 88.461 206.411 88.442 206.466 88.438 206.517 88.428 206.578 88.414 206.8 88.358 207.203 88.228 207.43 88.008 207.693 87.746 207.749 87.466 207.596 87.172 207.499 86.985 207.536 86.102 207.564 85.243H207.633Z"></path><path d="M170.401 141.183C170.336 141.173 170.285 141.192 170.239 141.229 170.151 141.309 170.137 141.458 170.133 141.514 170.031 141.673 170.105 141.752 170.142 141.78 170.184 141.813 170.248 141.827 170.313 141.827 170.424 141.827 170.545 141.785 170.591 141.729 170.656 141.645 170.665 141.491 170.614 141.36 170.572 141.253 170.494 141.187 170.397 141.178L170.401 141.183ZM171.476 140.93C171.513 140.832 171.485 140.682 171.388 140.486 171.286 140.276 171.101 140.295 170.957 140.309 170.934 140.309 170.906 140.313 170.883 140.318 170.666 140.332 170.601 140.486 170.541 140.701 170.485 140.883 170.615 141.019 170.721 141.122 170.772 141.173 170.818 141.22 170.837 141.262L170.865 141.318 170.92 141.28C170.92 141.28 171.207 141.094 171.36 141.037 171.416 141.019 171.457 140.977 171.481 140.925L171.476 140.93ZM170.897 141.449 170.846 141.44 170.832 141.487C170.823 141.519 170.735 141.823 170.842 142 170.879 142.061 170.93 142.099 170.999 142.113 171.032 142.122 171.064 142.122 171.096 142.122 171.166 142.122 171.221 142.103 171.263 142.061 171.346 141.982 171.342 141.851 171.328 141.758 171.3 141.585 171.036 141.463 170.897 141.445V141.449ZM171.776 140.407 171.822 140.44 171.855 140.398C171.882 140.361 172.132 140.024 171.956 139.879 171.813 139.758 171.688 139.716 171.498 139.879 171.461 139.912 171.442 139.954 171.442 140.006 171.452 140.174 171.72 140.37 171.771 140.407H171.776ZM172.197 139.692 172.225 139.715 172.257 139.701C172.285 139.687 172.942 139.388 172.965 138.991 172.984 138.687 172.799 138.617 172.632 138.552 172.567 138.529 172.502 138.5 172.442 138.463 172.364 138.412 172.322 138.337 172.28 138.262 172.22 138.15 172.146 138.024 171.942 138.066 171.873 138.08 171.822 138.113 171.789 138.169 171.725 138.286 171.785 138.458 171.84 138.622 171.863 138.687 171.882 138.743 171.896 138.795V138.813C171.947 139.019 171.951 139.042 171.896 139.337 171.873 139.453 171.877 139.519 171.905 139.561 171.933 139.603 171.984 139.612 172.021 139.617 172.067 139.626 172.123 139.631 172.188 139.687L172.197 139.692ZM43.565 6.569 43.584 6.583C43.616 6.601 43.649 6.611 43.686 6.611 43.723 6.611 43.76 6.597 43.797 6.569 43.885 6.499 43.931 6.331 43.894 6.214 43.871 6.134 43.811 6.088 43.737 6.083 43.662 6.078 43.612 6.116 43.588 6.144 43.491 6.26 43.551 6.513 43.561 6.541V6.564L43.565 6.569ZM43.047 6.186C43.079 6.186 43.13 6.186 43.144 6.196 43.181 6.214 43.214 6.219 43.251 6.219 43.339 6.219 43.418 6.168 43.473 6.074 43.552 5.939 43.552 5.743 43.422 5.654 43.26 5.542 43.158 5.682 43.075 5.794 43.024 5.864 42.968 5.934 42.899 5.981 42.867 5.999 42.797 6.042 42.811 6.107 42.829 6.177 42.927 6.182 43.047 6.191V6.186Z"></path></g></svg>