<svg xmlns="http://www.w3.org/2000/svg" width="100" height="34" viewBox="0 0 100 34" fill="none"><path d="M92.0366 0.000108637H7.96787C7.66143 0.000108637 7.35867 0.000108638 7.05304 0.00177998C6.79719 0.00345133 6.54339 0.00830659 6.28509 0.012393C5.72395 0.0189963 5.16413 0.0683633 4.61049 0.160065C4.05763 0.253763 3.52209 0.43041 3.02198 0.684032C2.52248 0.939799 2.06607 1.27214 1.66931 1.66901C1.27048 2.06475 0.938012 2.52218 0.684708 3.02371C0.430706 3.52423 0.25458 4.06059 0.162413 4.61426C0.06937 5.16723 0.0193027 5.72657 0.0126604 6.28728C0.0049054 6.54349 0.00408644 6.80056 0 7.05681V26.3728C0.00408644 26.6322 0.0049054 26.8836 0.0126604 27.1432C0.0193047 27.7039 0.069372 28.2632 0.162413 28.8161C0.254325 29.3701 0.430462 29.9068 0.684708 30.4075C0.937897 30.9074 1.27041 31.363 1.66931 31.7565C2.06457 32.1551 2.52127 32.4877 3.02198 32.7415C3.52208 32.9958 4.05757 33.1735 4.61049 33.2687C5.16422 33.3596 5.72399 33.409 6.28509 33.4164C6.54339 33.4221 6.79719 33.4253 7.05304 33.4253C7.35866 33.427 7.66145 33.427 7.96787 33.427H92.0366C92.337 33.427 92.6422 33.427 92.9425 33.4253C93.1971 33.4253 93.4583 33.4221 93.7129 33.4164C94.2729 33.4094 94.8317 33.36 95.3842 33.2687C95.939 33.1728 96.4764 32.9952 96.9789 32.7415C97.4791 32.4876 97.9354 32.155 98.3303 31.7565C98.7282 31.3614 99.0614 30.9062 99.3178 30.4075C99.5701 29.9064 99.7446 29.3698 99.8351 28.8161C99.9283 28.2631 99.9802 27.7039 99.9902 27.1432C99.9935 26.8836 99.9935 26.6322 99.9935 26.3728C100 26.0692 100 25.7672 100 25.4587V7.96919C100 7.66316 100 7.35958 99.9935 7.05681C99.9935 6.80056 99.9935 6.54349 99.9902 6.28724C99.9802 5.72649 99.9283 5.16727 99.8351 4.61423C99.7443 4.06088 99.5699 3.52456 99.3178 3.02367C98.8019 2.01842 97.9839 1.20016 96.9789 0.683956C96.4764 0.430954 95.9389 0.254354 95.3842 0.15999C94.8318 0.067884 94.273 0.0184999 93.7129 0.012276C93.4583 0.00819795 93.1971 0.00330091 92.9425 0.00167135C92.6422 0 92.337 0.000108637 92.0366 0.000108637Z" fill="#A6A6A6"></path><path d="M7.05712 32.6957C6.8025 32.6957 6.55404 32.6924 6.30143 32.6867C5.77811 32.6799 5.25602 32.6344 4.73944 32.5504C4.25775 32.4675 3.79112 32.3132 3.35494 32.0926C2.92277 31.8738 2.52859 31.587 2.18751 31.243C1.84149 30.9031 1.55342 30.5089 1.3347 30.076C1.11357 29.6403 0.960536 29.1732 0.880927 28.6911C0.794957 28.1731 0.748443 27.6493 0.741787 27.1243C0.736489 26.948 0.729553 26.3612 0.729553 26.3612V7.05669C0.729553 7.05669 0.736941 6.4789 0.741829 6.30915C0.748202 5.78492 0.794445 5.26193 0.880158 4.74471C0.959914 4.26129 1.11307 3.7929 1.33431 3.35574C1.55223 2.92312 1.8387 2.52862 2.18264 2.18751C2.52619 1.84317 2.92162 1.55484 3.35454 1.33306C3.78971 1.11318 4.25545 0.959952 4.73617 0.878505C5.25445 0.79374 5.77835 0.747911 6.30348 0.741405L7.05753 0.731201H92.9384L93.7015 0.741814C94.2218 0.747998 94.7409 0.793417 95.2545 0.877686C95.74 0.960155 96.2107 1.11445 96.6508 1.33551C97.5181 1.78247 98.2238 2.48959 98.6689 3.35778C98.8867 3.79192 99.0374 4.25649 99.1162 4.73574C99.2029 5.2572 99.2515 5.7843 99.2614 6.31283C99.2639 6.54949 99.2639 6.8037 99.2639 7.05669C99.2705 7.37007 99.2705 7.66835 99.2705 7.96907V25.4586C99.2705 25.7622 99.2705 26.0584 99.2639 26.3571C99.2639 26.6289 99.2639 26.8778 99.2606 27.134C99.2509 27.6531 99.2031 28.1708 99.1178 28.683C99.0398 29.1685 98.8876 29.6392 98.6665 30.0785C98.4463 30.5067 98.1598 30.8975 97.8178 31.2365C97.4764 31.5823 97.0816 31.8708 96.6484 32.091C96.2095 32.3133 95.7395 32.4682 95.2545 32.5504C94.7379 32.6348 94.2158 32.6804 93.6924 32.6867C93.4477 32.6924 93.1914 32.6957 92.9425 32.6957L92.0366 32.6974L7.05712 32.6957Z" fill="black"></path><path d="M20.6987 16.9647C20.7076 16.2672 20.8929 15.5833 21.2372 14.9767C21.5816 14.37 22.0737 13.8603 22.668 13.495C22.2905 12.9558 21.7925 12.5121 21.2135 12.1991C20.6345 11.8861 19.9905 11.7124 19.3327 11.6919C17.9294 11.5446 16.5689 12.5316 15.8538 12.5316C15.1249 12.5316 14.0239 11.7065 12.8383 11.7309C12.0714 11.7556 11.3241 11.9786 10.669 12.3781C10.0139 12.7776 9.47352 13.34 9.10042 14.0105C7.48423 16.8087 8.68976 20.921 10.2379 23.1829C11.0125 24.2904 11.9178 25.5276 13.1023 25.4837C14.2614 25.4357 14.6944 24.7446 16.0935 24.7446C17.4797 24.7446 17.8859 25.4837 19.0944 25.4558C20.3382 25.4357 21.1219 24.3434 21.8693 23.2253C22.4258 22.4361 22.8541 21.5639 23.1382 20.641C22.4156 20.3354 21.7989 19.8238 21.3651 19.17C20.9313 18.5163 20.6995 17.7493 20.6987 16.9647Z" fill="white"></path><path d="M18.4159 10.2043C19.0941 9.39019 19.4282 8.34378 19.3473 7.28729C18.3112 7.39611 17.3541 7.8913 16.6668 8.67418C16.3307 9.05664 16.0733 9.50158 15.9093 9.98358C15.7453 10.4656 15.6779 10.9752 15.711 11.4832C16.2292 11.4885 16.7419 11.3762 17.2105 11.1547C17.679 10.9332 18.0911 10.6082 18.4159 10.2043Z" fill="white"></path><path d="M35.3508 22.6799H31.3952L30.4453 25.4848H28.7699L32.5166 15.1074H34.2573L38.0039 25.4848H36.2999L35.3508 22.6799ZM31.8049 21.3856H34.9404L33.3947 16.8334H33.3514L31.8049 21.3856Z" fill="white"></path><path d="M46.0954 21.7022C46.0954 24.0533 44.837 25.5639 42.938 25.5639C42.4569 25.5891 41.9785 25.4783 41.5575 25.2442C41.1365 25.0101 40.7899 24.6621 40.5575 24.2402H40.5215V27.9877H38.9685V17.9188H40.4718V19.1772H40.5003C40.7435 18.7573 41.0959 18.4112 41.5201 18.1757C41.9443 17.9401 42.4245 17.824 42.9094 17.8397C44.8296 17.8397 46.0954 19.3576 46.0954 21.7022ZM44.4991 21.7022C44.4991 20.1704 43.7075 19.1633 42.4997 19.1633C41.3131 19.1633 40.515 20.1916 40.515 21.7022C40.515 23.2266 41.3131 24.2476 42.4997 24.2476C43.7075 24.2476 44.4991 23.2479 44.4991 21.7022Z" fill="white"></path><path d="M54.4227 21.7022C54.4227 24.0533 53.1643 25.5639 51.2653 25.5639C50.7842 25.5891 50.3058 25.4783 49.8848 25.2442C49.4638 25.0101 49.1172 24.6621 48.8848 24.2402H48.8489V27.9877H47.2958V17.9188H48.7991V19.1772H48.8276C49.0708 18.7573 49.4232 18.4112 49.8474 18.1757C50.2716 17.9401 50.7518 17.824 51.2367 17.8397C53.157 17.8397 54.4227 19.3576 54.4227 21.7022ZM52.8265 21.7022C52.8265 20.1704 52.0349 19.1633 50.8271 19.1633C49.6405 19.1633 48.8423 20.1916 48.8423 21.7022C48.8423 23.2266 49.6405 24.2476 50.8271 24.2476C52.0349 24.2476 52.8265 23.2479 52.8265 21.7022Z" fill="white"></path><path d="M59.9264 22.5934C60.0415 23.6224 61.0412 24.2981 62.4073 24.2981C63.7163 24.2981 64.6581 23.6224 64.6581 22.6945C64.6581 21.889 64.0901 21.4067 62.7452 21.0762L61.4003 20.7522C59.4947 20.292 58.6101 19.4008 58.6101 17.9547C58.6101 16.1642 60.1704 14.9343 62.3861 14.9343C64.5789 14.9343 66.0822 16.1642 66.1328 17.9547H64.565C64.4712 16.9191 63.6151 16.2939 62.3641 16.2939C61.113 16.2939 60.2569 16.9264 60.2569 17.847C60.2569 18.5806 60.8037 19.0123 62.1413 19.3428L63.2846 19.6236C65.4138 20.1271 66.2984 20.9824 66.2984 22.5003C66.2984 24.4417 64.7519 25.6577 62.2922 25.6577C59.9909 25.6577 58.4371 24.4703 58.3367 22.5933L59.9264 22.5934Z" fill="white"></path><path d="M69.6501 16.1283V17.9188H71.0889V19.1486H69.6501V23.3197C69.6501 23.9676 69.9382 24.2696 70.5707 24.2696C70.7415 24.2666 70.912 24.2546 71.0815 24.2337V25.4562C70.7972 25.5093 70.5082 25.5334 70.2189 25.528C68.6871 25.528 68.0898 24.9526 68.0898 23.4853V19.1486H66.9897V17.9188H68.0897V16.1283H69.6501Z" fill="white"></path><path d="M71.9221 21.7022C71.9221 19.3217 73.3241 17.8258 75.5105 17.8258C77.7041 17.8258 79.0996 19.3216 79.0996 21.7022C79.0996 24.0893 77.7114 25.5786 75.5105 25.5786C73.3102 25.5786 71.9221 24.0892 71.9221 21.7022ZM77.5172 21.7022C77.5172 20.0692 76.7689 19.1054 75.5104 19.1054C74.252 19.1054 73.5045 20.0766 73.5045 21.7022C73.5045 23.3417 74.252 24.2982 75.5104 24.2982C76.7689 24.2982 77.5172 23.3417 77.5172 21.7022Z" fill="white"></path><path d="M80.38 17.9188H81.8612V19.2066H81.8971C81.9974 18.8044 82.233 18.4489 82.5644 18.2C82.8958 17.9511 83.3028 17.8238 83.717 17.8396C83.896 17.839 84.0745 17.8584 84.2491 17.8976V19.3502C84.0232 19.2812 83.7875 19.2495 83.5513 19.2564C83.3257 19.2472 83.1008 19.287 82.892 19.373C82.6832 19.459 82.4955 19.5891 82.3418 19.7545C82.188 19.9198 82.0719 20.1165 82.0013 20.331C81.9308 20.5455 81.9075 20.7727 81.933 20.9971V25.4847H80.38L80.38 17.9188Z" fill="white"></path><path d="M91.4095 23.2625C91.2005 24.636 89.863 25.5786 88.1516 25.5786C85.9507 25.5786 84.5845 24.1039 84.5845 21.7381C84.5845 19.3649 85.958 17.8258 88.0864 17.8258C90.1796 17.8258 91.496 19.2637 91.496 21.5577V22.0898H86.1522V22.1837C86.1276 22.4621 86.1624 22.7426 86.2545 23.0066C86.3466 23.2705 86.4938 23.5118 86.6863 23.7145C86.8788 23.9172 87.1122 24.0766 87.371 24.1822C87.6299 24.2877 87.9082 24.337 88.1876 24.3267C88.5546 24.3611 88.9228 24.2761 89.2377 24.0844C89.5525 23.8926 89.797 23.6044 89.9348 23.2625L91.4095 23.2625ZM86.1596 21.0044H89.9421C89.9561 20.7541 89.9181 20.5035 89.8307 20.2685C89.7432 20.0335 89.6081 19.8191 89.4338 19.6388C89.2596 19.4585 89.0499 19.3162 88.818 19.2207C88.5862 19.1253 88.3371 19.0788 88.0864 19.0842C87.8335 19.0827 87.5828 19.1313 87.3487 19.2271C87.1147 19.323 86.902 19.4643 86.7229 19.6428C86.5437 19.8214 86.4017 20.0336 86.305 20.2673C86.2084 20.501 86.1589 20.7515 86.1596 21.0044Z" fill="white"></path><path d="M31.6103 7.29625C31.9359 7.27288 32.2626 7.32207 32.5669 7.44026C32.8712 7.55845 33.1454 7.7427 33.3699 7.97972C33.5943 8.21674 33.7634 8.50061 33.8648 8.81088C33.9663 9.12114 33.9976 9.45005 33.9566 9.77388C33.9566 11.3669 33.0956 12.2826 31.6103 12.2826H29.8092V7.29625H31.6103ZM30.5837 11.5774H31.5238C31.7565 11.5913 31.9893 11.5532 32.2053 11.4657C32.4214 11.3783 32.6152 11.2438 32.7727 11.072C32.9303 10.9002 33.0475 10.6955 33.1159 10.4727C33.1843 10.2499 33.2022 10.0146 33.1682 9.78404C33.1997 9.55437 33.18 9.32058 33.1106 9.0994C33.0411 8.87823 32.9236 8.67516 32.7664 8.50474C32.6093 8.33432 32.4164 8.20077 32.2015 8.11367C31.9867 8.02656 31.7553 7.98805 31.5238 8.00089H30.5837V11.5774Z" fill="white"></path><path d="M34.8314 10.3994C34.8077 10.1521 34.836 9.90258 34.9144 9.66686C34.9929 9.43115 35.1197 9.21442 35.2868 9.03059C35.4539 8.84675 35.6575 8.69987 35.8847 8.59936C36.1119 8.49885 36.3576 8.44693 36.606 8.44693C36.8544 8.44693 37.1001 8.49885 37.3272 8.59936C37.5544 8.69987 37.7581 8.84675 37.9252 9.03059C38.0923 9.21442 38.2191 9.43115 38.2975 9.66686C38.3759 9.90258 38.4042 10.1521 38.3806 10.3994C38.4047 10.6469 38.3767 10.8968 38.2985 11.1329C38.2203 11.369 38.0935 11.5861 37.9264 11.7703C37.7593 11.9545 37.5555 12.1017 37.3281 12.2024C37.1007 12.3031 36.8547 12.3552 36.606 12.3552C36.3573 12.3552 36.1113 12.3031 35.8839 12.2024C35.6565 12.1017 35.4527 11.9545 35.2855 11.7703C35.1184 11.5861 34.9917 11.369 34.9135 11.1329C34.8352 10.8968 34.8073 10.6469 34.8314 10.3994ZM37.6167 10.3994C37.6167 9.5837 37.2503 9.1067 36.6072 9.1067C35.9617 9.1067 35.5985 9.5837 35.5985 10.3994C35.5985 11.2216 35.9617 11.6949 36.6072 11.6949C37.2503 11.6949 37.6167 11.2183 37.6167 10.3994Z" fill="white"></path><path d="M43.0984 12.2825H42.328L41.5503 9.51107H41.4915L40.717 12.2825H39.954L38.9167 8.51953H39.67L40.3441 11.3909H40.3996L41.1732 8.51953H41.8857L42.6593 11.3909H42.7181L43.3889 8.51953H44.1315L43.0984 12.2825Z" fill="white"></path><path d="M45.0039 8.51955H45.7188V9.11733H45.7743C45.8684 8.90263 46.0272 8.72265 46.2285 8.60247C46.4298 8.4823 46.6636 8.42792 46.8972 8.44691C47.0803 8.43314 47.2642 8.46075 47.4351 8.52769C47.6061 8.59462 47.7599 8.69917 47.8849 8.83358C48.01 8.96799 48.1033 9.12883 48.1578 9.30417C48.2122 9.47951 48.2266 9.66486 48.1997 9.8465V12.2825H47.4571V10.033C47.4571 9.42827 47.1943 9.12753 46.6451 9.12753C46.5207 9.12174 46.3966 9.1429 46.2813 9.18956C46.1659 9.23621 46.062 9.30726 45.9766 9.39784C45.8913 9.48841 45.8266 9.59637 45.7868 9.71431C45.7471 9.83225 45.7334 9.95738 45.7465 10.0811V12.2825H45.0039L45.0039 8.51955Z" fill="white"></path><path d="M49.3831 7.05057H50.1257V12.2825H49.3831V7.05057Z" fill="white"></path><path d="M51.158 10.3994C51.1344 10.1521 51.1627 9.90256 51.2411 9.66683C51.3196 9.43111 51.4464 9.21438 51.6135 9.03054C51.7806 8.8467 51.9843 8.69982 52.2115 8.5993C52.4387 8.49879 52.6844 8.44687 52.9328 8.44687C53.1813 8.44687 53.4269 8.49879 53.6541 8.5993C53.8813 8.69982 54.085 8.8467 54.2521 9.03054C54.4192 9.21438 54.5461 9.43111 54.6245 9.66683C54.7029 9.90256 54.7312 10.1521 54.7076 10.3994C54.7317 10.6469 54.7037 10.8968 54.6255 11.1329C54.5472 11.369 54.4205 11.5861 54.2533 11.7703C54.0862 11.9545 53.8823 12.1017 53.6549 12.2024C53.4275 12.3031 53.1815 12.3551 52.9328 12.3551C52.6841 12.3551 52.4381 12.3031 52.2107 12.2024C51.9833 12.1017 51.7795 11.9545 51.6123 11.7703C51.4452 11.5861 51.3184 11.369 51.2402 11.1329C51.1619 10.8968 51.134 10.6469 51.158 10.3994ZM53.9433 10.3994C53.9433 9.58371 53.5769 9.10671 52.9338 9.10671C52.2883 9.10671 51.9252 9.58371 51.9252 10.3994C51.9252 11.2216 52.2883 11.6949 52.9338 11.6949C53.5769 11.6949 53.9433 11.2183 53.9433 10.3994Z" fill="white"></path><path d="M55.4894 11.2183C55.4894 10.541 55.9937 10.1505 56.889 10.095L57.9083 10.0362V9.71142C57.9083 9.31399 57.6455 9.08957 57.1379 9.08957C56.7233 9.08957 56.436 9.24177 56.3536 9.50781H55.6346C55.7105 8.86147 56.3185 8.4469 57.1722 8.4469C58.1155 8.4469 58.6476 8.91655 58.6476 9.71142V12.2825H57.9327V11.7537H57.874C57.7547 11.9434 57.5873 12.098 57.3887 12.2018C57.1901 12.3056 56.9675 12.3549 56.7437 12.3445C56.5857 12.3609 56.4261 12.3441 56.275 12.295C56.124 12.246 55.9849 12.1658 55.8667 12.0597C55.7485 11.9536 55.6539 11.8239 55.5889 11.679C55.5239 11.5341 55.49 11.3771 55.4894 11.2183ZM57.9083 10.8968V10.5822L56.9893 10.6409C56.4711 10.6756 56.2361 10.8519 56.2361 11.1836C56.2361 11.5223 56.5299 11.7194 56.9339 11.7194C57.0522 11.7314 57.1718 11.7194 57.2855 11.6843C57.3991 11.6491 57.5045 11.5914 57.5955 11.5147C57.6864 11.4379 57.7609 11.3436 57.8146 11.2375C57.8684 11.1314 57.9002 11.0155 57.9083 10.8968Z" fill="white"></path><path d="M59.6237 10.3994C59.6237 9.21036 60.235 8.4571 61.1857 8.4571C61.4209 8.44627 61.6543 8.5026 61.8586 8.6195C62.063 8.73641 62.2298 8.90906 62.3397 9.11729H62.3952V7.05057H63.1378V12.2825H62.4262V11.688H62.3674C62.2491 11.8948 62.0764 12.0653 61.8681 12.181C61.6598 12.2968 61.4238 12.3533 61.1857 12.3445C60.2284 12.3446 59.6237 11.5913 59.6237 10.3994ZM60.3909 10.3994C60.3909 11.1975 60.7671 11.6778 61.3963 11.6778C62.0222 11.6778 62.409 11.1906 62.409 10.4027C62.409 9.6184 62.0181 9.12426 61.3963 9.12426C60.7711 9.12426 60.3909 9.60778 60.3909 10.3994Z" fill="white"></path><path d="M66.2104 10.3994C66.1867 10.1521 66.215 9.90258 66.2934 9.66686C66.3718 9.43115 66.4987 9.21442 66.6657 9.03059C66.8328 8.84675 67.0365 8.69987 67.2637 8.59936C67.4908 8.49885 67.7365 8.44693 67.9849 8.44693C68.2334 8.44693 68.479 8.49885 68.7062 8.59936C68.9334 8.69987 69.1371 8.84675 69.3041 9.03059C69.4712 9.21442 69.598 9.43115 69.6765 9.66686C69.7549 9.90258 69.7832 10.1521 69.7595 10.3994C69.7836 10.6469 69.7557 10.8968 69.6775 11.1329C69.5992 11.369 69.4725 11.5861 69.3054 11.7703C69.1382 11.9545 68.9344 12.1017 68.707 12.2024C68.4796 12.3031 68.2337 12.3552 67.9849 12.3552C67.7362 12.3552 67.4903 12.3031 67.2629 12.2024C67.0354 12.1017 66.8316 11.9545 66.6645 11.7703C66.4974 11.5861 66.3706 11.369 66.2924 11.1329C66.2142 10.8968 66.1863 10.6469 66.2104 10.3994ZM68.9957 10.3994C68.9957 9.5837 68.6292 9.1067 67.9862 9.1067C67.3406 9.1067 66.9775 9.5837 66.9775 10.3994C66.9775 11.2216 67.3407 11.6949 67.9862 11.6949C68.6292 11.6949 68.9957 11.2183 68.9957 10.3994Z" fill="white"></path><path d="M70.7559 8.51955H71.4708V9.11733H71.5263C71.6205 8.90263 71.7792 8.72265 71.9805 8.60247C72.1818 8.4823 72.4156 8.42792 72.6492 8.44691C72.8323 8.43314 73.0162 8.46075 73.1872 8.52769C73.3581 8.59462 73.5119 8.69917 73.637 8.83358C73.762 8.96799 73.8553 9.12883 73.9098 9.30417C73.9643 9.47951 73.9786 9.66486 73.9517 9.8465V12.2825H73.2091V10.033C73.2091 9.42827 72.9463 9.12753 72.3971 9.12753C72.2728 9.12174 72.1487 9.1429 72.0333 9.18956C71.9179 9.23621 71.814 9.30726 71.7287 9.39784C71.6433 9.48841 71.5786 9.59637 71.5389 9.71431C71.4991 9.83225 71.4854 9.95738 71.4986 10.0811V12.2825H70.7559V8.51955Z" fill="white"></path><path d="M78.1481 7.58267V8.53668H78.9634V9.16221H78.1481V11.0972C78.1481 11.4913 78.3105 11.6639 78.6802 11.6639C78.7748 11.6636 78.8694 11.6579 78.9634 11.6468V12.2654C78.83 12.2892 78.6949 12.3019 78.5594 12.3033C77.7335 12.3033 77.4046 12.0128 77.4046 11.2873V9.16218H76.8073V8.53664H77.4046V7.58267H78.1481Z" fill="white"></path><path d="M79.9777 7.05057H80.7138V9.12425H80.7726C80.8713 8.90754 81.0344 8.72654 81.2398 8.60591C81.4451 8.48529 81.6826 8.4309 81.92 8.45016C82.1021 8.44025 82.2842 8.47066 82.4532 8.53922C82.6223 8.60778 82.7741 8.7128 82.8979 8.84679C83.0217 8.98078 83.1143 9.14044 83.1693 9.31437C83.2243 9.4883 83.2402 9.67222 83.2159 9.85301V12.2825H82.4725V10.0362C82.4725 9.43517 82.1926 9.13077 81.6679 9.13077C81.5402 9.1203 81.4118 9.13784 81.2917 9.18218C81.1715 9.22652 81.0625 9.29657 80.9723 9.38744C80.882 9.47831 80.8127 9.5878 80.7692 9.70825C80.7257 9.8287 80.709 9.9572 80.7204 10.0848V12.2825H79.9778L79.9777 7.05057Z" fill="white"></path><path d="M87.5461 11.2665C87.4452 11.6104 87.2266 11.9079 86.9285 12.1069C86.6304 12.3059 86.2719 12.3938 85.9156 12.3551C85.6677 12.3617 85.4213 12.3142 85.1936 12.216C84.9658 12.1178 84.7622 11.9712 84.5968 11.7864C84.4314 11.6016 84.3083 11.383 84.2358 11.1458C84.1634 10.9086 84.1434 10.6585 84.1773 10.4129C84.1443 10.1664 84.1646 9.91578 84.2369 9.67789C84.3092 9.44 84.4317 9.22041 84.5962 9.03399C84.7607 8.84758 84.9634 8.69868 85.1904 8.59739C85.4175 8.4961 85.6637 8.44478 85.9123 8.4469C86.9593 8.4469 87.591 9.16224 87.591 10.3439V10.603H84.9338V10.6446C84.9222 10.7827 84.9395 10.9217 84.9848 11.0527C85.03 11.1837 85.1021 11.3038 85.1965 11.4053C85.2908 11.5068 85.4053 11.5874 85.5327 11.6421C85.66 11.6968 85.7974 11.7242 85.936 11.7226C86.1136 11.744 86.2936 11.712 86.453 11.6308C86.6124 11.5495 86.7441 11.4227 86.8312 11.2665L87.5461 11.2665ZM84.9338 10.0538H86.8345C86.8438 9.92748 86.8267 9.80063 86.7841 9.68136C86.7415 9.5621 86.6744 9.45306 86.5872 9.36125C86.5 9.26945 86.3945 9.19691 86.2776 9.14829C86.1606 9.09967 86.0348 9.07606 85.9082 9.07896C85.7798 9.07735 85.6523 9.10146 85.5333 9.14989C85.4143 9.19831 85.3063 9.27006 85.2155 9.36091C85.1246 9.45176 85.0529 9.55987 85.0046 9.67886C84.9562 9.79786 84.9321 9.92533 84.9338 10.0538Z" fill="white"></path></svg>