<svg xmlns="http://www.w3.org/2000/svg" width="80" height="80" viewBox="0 0 80 80" fill="none"><path d="M41.3953 24.6583L48.6237 31.9029C56.3964 39.6931 50.8703 52.9921 39.8656 52.9797C28.861 52.9674 23.3647 39.656 31.155 31.8833L38.3996 24.6549C39.2278 23.8286 40.569 23.8301 41.3953 24.6583Z" stroke="#808080" stroke-width="3"></path><path d="M39.9348 57L39.9348 35.898" stroke="#808080" stroke-width="3" stroke-linecap="round"></path><path d="M40.1653 44.4153L35.1545 39.3933" stroke="#808080" stroke-width="3" stroke-linecap="round"></path><path d="M40.1634 46.082L45.1854 41.0713" stroke="#808080" stroke-width="3" stroke-linecap="round"></path><path d="M66.5 41C66.5 40.3905 66.5 35.4127 66.5 33" stroke="#808080" stroke-width="3"></path><path d="M62 36.5L66.5 32L71 36.5" stroke="#808080" stroke-width="3" stroke-linecap="square"></path><mask id="path-7-inside-1_75_694" fill="white"><path d="M68 40C68 45.5379 66.3578 50.9514 63.2811 55.556C60.2045 60.1605 55.8315 63.7494 50.7151 65.8686C45.5988 67.9879 39.9689 68.5424 34.5375 67.462C29.106 66.3816 24.1169 63.7149 20.201 59.799C16.2851 55.8831 13.6184 50.894 12.538 45.4625C11.4576 40.0311 12.0121 34.4012 14.1314 29.2849C16.2506 24.1685 19.8395 19.7955 24.444 16.7189C29.0486 13.6422 34.4621 12 40 12L40 15.0019C35.0559 15.0019 30.2227 16.4681 26.1118 19.2149C22.0009 21.9617 18.7969 25.8659 16.9048 30.4337C15.0128 35.0015 14.5177 40.0277 15.4823 44.8769C16.4468 49.726 18.8277 54.1803 22.3237 57.6763C25.8197 61.1723 30.274 63.5532 35.1231 64.5177C39.9723 65.4823 44.9985 64.9872 49.5663 63.0952C54.1341 61.2031 58.0383 57.9991 60.7851 53.8882C63.5319 49.7773 64.9981 44.9441 64.9981 40H68Z"></path></mask><path d="M68 40C68 45.5379 66.3578 50.9514 63.2811 55.556C60.2045 60.1605 55.8315 63.7494 50.7151 65.8686C45.5988 67.9879 39.9689 68.5424 34.5375 67.462C29.106 66.3816 24.1169 63.7149 20.201 59.799C16.2851 55.8831 13.6184 50.894 12.538 45.4625C11.4576 40.0311 12.0121 34.4012 14.1314 29.2849C16.2506 24.1685 19.8395 19.7955 24.444 16.7189C29.0486 13.6422 34.4621 12 40 12L40 15.0019C35.0559 15.0019 30.2227 16.4681 26.1118 19.2149C22.0009 21.9617 18.7969 25.8659 16.9048 30.4337C15.0128 35.0015 14.5177 40.0277 15.4823 44.8769C16.4468 49.726 18.8277 54.1803 22.3237 57.6763C25.8197 61.1723 30.274 63.5532 35.1231 64.5177C39.9723 65.4823 44.9985 64.9872 49.5663 63.0952C54.1341 61.2031 58.0383 57.9991 60.7851 53.8882C63.5319 49.7773 64.9981 44.9441 64.9981 40H68Z" stroke="#808080" stroke-width="6" mask="url(#path-7-inside-1_75_694)"></path><mask id="path-8-inside-2_75_694" fill="white"><path d="M42.8526 12.1457C44.4231 12.3065 45.9772 12.5999 47.4983 13.0227L46.6944 15.915C45.3364 15.5375 43.9489 15.2756 42.5468 15.132L42.8526 12.1457Z"></path></mask><path d="M42.8526 12.1457C44.4231 12.3065 45.9772 12.5999 47.4983 13.0227L46.6944 15.915C45.3364 15.5375 43.9489 15.2756 42.5468 15.132L42.8526 12.1457Z" stroke="#808080" stroke-width="6" mask="url(#path-8-inside-2_75_694)"></path><mask id="path-9-inside-3_75_694" fill="white"><path d="M50.1129 13.8899C51.5851 14.4601 53.0064 15.1538 54.3616 15.9636L52.8218 18.5405C51.6119 17.8176 50.343 17.1983 49.0287 16.6892L50.1129 13.8899Z"></path></mask><path d="M50.1129 13.8899C51.5851 14.4601 53.0064 15.1538 54.3616 15.9636L52.8218 18.5405C51.6119 17.8176 50.343 17.1983 49.0287 16.6892L50.1129 13.8899Z" stroke="#808080" stroke-width="6" mask="url(#path-9-inside-3_75_694)"></path><mask id="path-10-inside-4_75_694" fill="white"><path d="M56.4743 17.359C57.7509 18.2878 58.9466 19.323 60.0487 20.4534L57.8993 22.549C56.9153 21.5398 55.8478 20.6156 54.7081 19.7864L56.4743 17.359Z"></path></mask><path d="M56.4743 17.359C57.7509 18.2878 58.9466 19.323 60.0487 20.4534L57.8993 22.549C56.9153 21.5398 55.8478 20.6156 54.7081 19.7864L56.4743 17.359Z" stroke="#808080" stroke-width="6" mask="url(#path-10-inside-4_75_694)"></path></svg>