<svg xmlns="http://www.w3.org/2000/svg" width="80" height="80" viewBox="0 0 80 80" fill="none"><path fill-rule="evenodd" clip-rule="evenodd" d="M44.0881 63H21C20.4477 63 20 62.5523 20 62V14C20 13.4477 20.4477 13 21 13H43.6027C43.8541 13 44.0963 13.0947 44.281 13.2652L48.5485 17.2044L52.6783 21.0165C52.8834 21.2058 53 21.4722 53 21.7513V46.1659C53.6504 46.0568 54.3186 46 55 46C55.3368 46 55.6703 46.0139 56 46.0411V21.7513C56 20.6349 55.5335 19.5693 54.7131 18.8121L50.5833 15L46.3159 11.0608C45.577 10.3787 44.6083 10 43.6027 10H21C18.7909 10 17 11.7909 17 14V62C17 64.2091 18.7909 66 21 66H46.0556C45.2586 65.1096 44.5927 64.0995 44.0881 63Z" fill="#808080"></path><path d="M51 58L54 61L60 55" stroke="#808080" stroke-width="3"></path><line x1="24" y1="30.5" x2="49" y2="30.5" stroke="#808080" stroke-width="3"></line><line x1="24" y1="38.5" x2="49" y2="38.5" stroke="#808080" stroke-width="3"></line><line x1="24" y1="46.5" x2="43" y2="46.5" stroke="#808080" stroke-width="3"></line><line x1="24" y1="54.5" x2="39" y2="54.5" stroke="#808080" stroke-width="3"></line><path d="M44 12V22H54" stroke="#808080" stroke-width="3"></path><circle cx="55" cy="58" r="10.5" stroke="#808080" stroke-width="3"></circle></svg>