<svg xmlns="http://www.w3.org/2000/svg" width="80" height="80" viewBox="0 0 80 80" fill="none"><path fill-rule="evenodd" clip-rule="evenodd" d="M49.3376 54.1124C43.2088 57.0297 36.5277 57.0997 30.6931 54.2552L31.271 56.7596C36.4443 58.8713 43.008 58.8853 48.733 56.7323L49.3376 54.1124ZM28.8991 49.6553L28.7869 49.5796C23.4326 45.9676 19.9219 39.8543 19.9219 32.9221C19.9219 21.834 28.9106 12.8452 39.9988 12.8452C51.087 12.8452 60.0757 21.834 60.0757 32.9221C60.0757 39.8542 56.5651 45.9674 51.2108 49.5795L51.156 49.6165L51.1507 49.6088C44.1917 54.3887 36.1468 54.5541 29.773 50.2682L29.7666 50.2405L29.0439 49.7529C28.9972 49.7183 28.9507 49.6835 28.9042 49.6484L28.8991 49.6553ZM32.6266 60.3887C37.284 61.6948 42.5439 61.6587 47.4262 60.3087C46.1531 62.1875 44.006 63.3834 41.6295 63.3834H38.3682C36.0257 63.3834 33.9059 62.2214 32.6266 60.3887ZM51.3735 58.632L52.8886 52.0665C59.0342 47.9205 63.0757 40.8933 63.0757 32.9221C63.0757 20.1771 52.7438 9.84521 39.9988 9.84521C27.2538 9.84521 16.9219 20.1771 16.9219 32.9221C16.9219 40.8934 20.9634 47.9207 27.1092 52.0666L28.6243 58.632C29.5711 62.735 32.9656 65.756 37.05 66.2967C37.0172 66.4745 37 66.6579 37 66.8452C37 68.5021 38.3431 69.8452 40 69.8452C41.6569 69.8452 43 68.5021 43 66.8452C43 66.6578 42.9828 66.4743 42.9499 66.2964C47.0334 65.7549 50.4268 62.7342 51.3735 58.632Z" fill="#808080"></path><path d="M39.5 55V30L43.5 26" stroke="#808080" stroke-width="3"></path><path d="M44.5 53.5V41L48.5 37" stroke="#808080" stroke-width="3"></path><path d="M34.5002 55V36.0615L31 32.5615" stroke="#808080" stroke-width="3"></path><circle cx="45" cy="25" r="2.5" stroke="#808080" stroke-width="3"></circle><circle cx="50" cy="35" r="2.5" stroke="#808080" stroke-width="3"></circle><circle cx="29" cy="30" r="2.5" stroke="#808080" stroke-width="3"></circle></svg>