<svg xmlns="http://www.w3.org/2000/svg" width="80" height="80" viewBox="0 0 80 80" fill="none"><circle cx="40" cy="32" r="20.5" stroke="#808080" stroke-width="3"></circle><path d="M40.9697 19.3692L47.3949 25.8089C54.1992 32.6284 49.3616 44.2703 39.7282 44.2594C30.0947 44.2486 25.2833 32.5959 32.1029 25.7917L38.5426 19.3665C39.2135 18.697 40.3002 18.6982 40.9697 19.3692Z" stroke="#808080" stroke-width="3"></path><path d="M40 51L40 29" stroke="#808080" stroke-width="3" stroke-linecap="round"></path><path d="M39.9942 36.8134L35.5403 32.3494" stroke="#808080" stroke-width="3" stroke-linecap="round"></path><path d="M39.9936 38.2945L44.4576 33.8405" stroke="#808080" stroke-width="3" stroke-linecap="round"></path><path d="M11.5 70C11.5 63.5 19.5 50 30 50" stroke="#808080" stroke-width="3"></path><path d="M68.5 70C68.5 63.5 60 50 49.5 50" stroke="#808080" stroke-width="3"></path><line x1="12" y1="68.5" x2="68" y2="68.5" stroke="#808080" stroke-width="3"></line></svg>