<svg xmlns="http://www.w3.org/2000/svg" width="80" height="80" viewBox="0 0 80 80" fill="none"><path d="M41.551 23.658L48.7794 30.9026C56.5521 38.6928 51.026 51.9917 40.0214 51.9793C29.0167 51.967 23.5206 38.6557 31.3107 30.883L38.5554 23.6546C39.3835 22.8284 40.7247 22.8299 41.551 23.658Z" stroke="#808080" stroke-width="3"></path><path d="M40.0936 56L40.0936 34.8981" stroke="#808080" stroke-width="3" stroke-linecap="round"></path><path d="M40.3231 43.4151L35.3124 38.3932" stroke="#808080" stroke-width="3" stroke-linecap="round"></path><path d="M40.3224 45.0804L45.3443 40.0697" stroke="#808080" stroke-width="3" stroke-linecap="round"></path><path d="M39.9999 12C32.4999 16.5 27.9999 19 15.9999 26C15.9999 60 39.9999 68 39.9999 68C39.9999 68 63.9999 60 63.9999 26C49.4999 17.5 46.9999 16 39.9999 12Z" stroke="#808080" stroke-width="3"></path></svg>