<svg xmlns="http://www.w3.org/2000/svg" width="80" height="80" viewBox="0 0 80 80" fill="none"><path d="M42.578 56H38.3269C37.3307 56 36.5059 55.2196 36.4488 54.2234L36.3409 52.2121C35.6874 52.0027 35.0465 51.7362 34.4311 51.4253L32.8258 52.8085C32.0834 53.4493 30.9604 53.4113 30.2688 52.7133L27.2613 49.7058C26.557 49.0015 26.5253 47.8658 27.1915 47.1171L28.562 45.588C28.2257 44.9408 27.9529 44.2682 27.7308 43.5766L25.7449 43.4307C24.7677 43.3609 24 42.5361 24 41.5526V37.3015C24 36.3053 24.7804 35.4805 25.7766 35.4234L27.7689 35.3155C27.9783 34.6747 28.2384 34.0529 28.5493 33.4501L27.1978 31.8829C26.557 31.1469 26.5951 30.0175 27.293 29.3259L30.3005 26.3184C31.0112 25.6078 32.1469 25.5824 32.8893 26.2486L34.393 27.6001C35.0402 27.2701 35.7064 26.9973 36.3917 26.7752L36.5376 24.7449C36.6074 23.7677 37.4322 23 38.4157 23H42.6668C43.663 23 44.4878 23.7804 44.5449 24.7766L44.6591 26.8323C45.2999 27.0481 45.9217 27.3082 46.5245 27.6128L48.1108 26.2423C48.8468 25.6014 49.9762 25.6395 50.6678 26.3374L53.6753 29.3449C54.3795 30.0492 54.4113 31.185 53.7451 31.9337L52.3492 33.4882C52.6537 34.0846 52.9075 34.7001 53.1169 35.3346L55.1917 35.4868C56.1688 35.563 56.9366 36.3815 56.9366 37.3649V41.616C56.9366 42.6122 56.1561 43.437 55.16 43.4941L53.1359 43.6083C52.9202 44.2746 52.6537 44.9217 52.3301 45.5435L53.7451 47.1805C54.3859 47.9229 54.3415 49.046 53.6562 49.7376L50.6487 52.7451C49.9444 53.4493 48.8087 53.4811 48.06 52.8148L46.4738 51.3936C45.8773 51.6981 45.2555 51.9583 44.6147 52.1677L44.4624 54.2425C44.3863 55.2323 43.5614 56 42.578 56ZM39.4182 52.9671H41.512L41.6453 51.1652C41.7024 50.3657 42.2671 49.6931 43.0475 49.4901C43.9675 49.249 44.8495 48.881 45.668 48.3924C46.3722 47.9737 47.2669 48.0561 47.876 48.6082L49.2655 49.8518L50.7502 48.367L49.5066 46.9267C48.98 46.3176 48.9039 45.4357 49.3163 44.7441C49.8175 43.9002 50.1919 42.9929 50.4267 42.0538C50.636 41.248 51.3213 40.6833 52.1461 40.6389L53.8973 40.5437V38.4499L52.089 38.3167C51.2832 38.2596 50.6107 37.6949 50.4076 36.9081C50.1729 35.9944 49.8049 35.1188 49.3226 34.3003C48.9039 33.5897 48.9927 32.7077 49.5384 32.0923L50.7502 30.7408L49.2655 29.2561L47.876 30.4553C47.2669 30.9819 46.3849 31.0581 45.687 30.6456C44.8685 30.1571 43.9802 29.7891 43.0538 29.5416C42.2607 29.3322 41.696 28.647 41.6516 27.8285L41.5564 26.0519H39.4626L39.3294 27.8221C39.2659 28.6343 38.6949 29.3069 37.9081 29.5036C36.95 29.7447 36.0237 30.1254 35.1671 30.633C34.4501 31.0581 33.5618 30.9692 32.9527 30.4172L31.6456 29.2498L30.1673 30.7281L31.3411 32.0923C31.8677 32.7077 31.9439 33.5833 31.5314 34.2749C31.0429 35.0998 30.6749 35.9817 30.4338 36.9018C30.2307 37.6949 29.5391 38.2596 28.7206 38.304L27.0012 38.3992V40.493L28.727 40.6199C29.5328 40.677 30.2117 41.248 30.4084 42.0348C30.6495 42.9992 31.0365 43.9192 31.5505 44.7822C31.9756 45.4928 31.8931 46.3874 31.3347 47.0029L30.1673 48.3417L31.652 49.8264L33.0542 48.6145C33.6633 48.0879 34.5389 48.0117 35.2305 48.4178C36.0681 48.9127 36.969 49.2807 37.9018 49.5155C38.7076 49.7185 39.2786 50.4101 39.3167 51.235L39.4182 52.9671ZM36.2965 51.3936C36.2965 51.3999 36.2965 51.3999 36.2965 51.3936ZM50.0777 28.5518C50.0777 28.5582 50.0777 28.5582 50.0777 28.5518ZM34.9767 28.1584L34.9831 28.1648C34.9831 28.1648 34.9831 28.1584 34.9767 28.1584ZM40.4714 46.7491C38.5553 46.7491 36.747 46.0067 35.3638 44.6299C33.6951 42.9612 32.959 40.6516 33.3461 38.2976C33.8346 35.3028 36.2711 32.8664 39.2723 32.3715C41.6262 31.9844 43.9358 32.7204 45.6045 34.3892C47.2732 36.0579 48.0092 38.3674 47.6222 40.7214C47.1273 43.7162 44.6972 46.1527 41.696 46.6476C41.2899 46.7174 40.8775 46.7491 40.4714 46.7491ZM40.4841 35.3028C40.243 35.3028 40.0019 35.3219 39.7608 35.3599C38.0287 35.6455 36.6201 37.054 36.3346 38.7862C36.1061 40.163 36.5376 41.5145 37.5084 42.4853C38.4791 43.4561 39.8243 43.8812 41.2075 43.6591C42.9396 43.3736 44.3482 41.965 44.6337 40.2328C44.8621 38.856 44.4307 37.5045 43.4599 36.5337C42.6605 35.7343 41.6009 35.3028 40.4841 35.3028Z" fill="#808080"></path><path d="M25.2497 67.7058C24.4225 67.7058 23.5088 67.675 22.589 67.6009C15.3845 66.9897 12.5879 62.8103 12.378 59.1L13.9522 58.9889L12.378 59.0938C12.2236 56.4022 13.3411 52.8524 16.9402 50.9571C19.3849 49.6669 22.5087 49.6484 25.0892 50.8954C30.7565 53.6426 30.3799 63.0202 30.133 65.8291C30.0465 66.7613 29.3119 67.4959 28.3797 67.5762C27.8117 67.6256 26.6511 67.7058 25.2497 67.7058ZM21.0085 53.1364C20.0825 53.1364 19.175 53.3401 18.3971 53.7476C15.5512 55.2477 15.4833 58.0567 15.5326 58.8839V58.8901C15.6191 60.3841 16.5019 63.9091 22.8853 64.4524C24.4533 64.5821 25.9906 64.5574 27.0647 64.5018C27.2314 60.7607 26.682 55.1922 23.694 53.7414C22.8606 53.3339 21.9284 53.1364 21.0085 53.1364Z" fill="#808080"></path><path d="M34.626 68.2553C35.5397 68.3479 36.4533 68.4096 37.367 68.4343C37.5461 68.4405 37.7004 68.2923 37.7066 68.1133L37.7806 65.6192C37.7868 65.4402 37.651 65.2982 37.472 65.292C36.6447 65.2673 35.8175 65.2117 34.9902 65.1253C34.8174 65.1068 34.6569 65.2303 34.6383 65.4093L34.342 67.8849C34.3173 68.0762 34.447 68.2368 34.626 68.2553Z" fill="#808080"></path><path d="M39.7806 65.576L39.9102 68.0639C39.9226 68.2429 40.0769 68.3849 40.256 68.3726C41.1696 68.3108 42.0895 68.2121 42.9847 68.0824C43.1637 68.0577 43.2872 67.891 43.2625 67.712L42.9106 65.2488C42.8859 65.0759 42.7254 64.9524 42.5525 64.9771C41.7376 65.0944 40.9104 65.1809 40.0831 65.2364C39.9041 65.2488 39.7744 65.4031 39.7806 65.576Z" fill="#808080"></path><path d="M44.8497 64.8596L45.3436 67.2982C45.3807 67.4772 45.5535 67.5883 45.7326 67.5513C46.6215 67.3537 47.5044 67.1253 48.3686 66.8722C48.5415 66.8228 48.6403 66.6376 48.5909 66.4647L47.8809 64.0818C47.8315 63.9151 47.6525 63.8163 47.4858 63.8719C46.708 64.1003 45.9116 64.3102 45.109 64.483C44.9238 64.5139 44.8127 64.6806 44.8497 64.8596Z" fill="#808080"></path><path d="M60.7645 20.8861C55.554 15.5584 48.5286 12.558 40.9846 12.4407C40.8364 12.4407 40.6821 12.4346 40.5339 12.4346C25.1495 12.4346 12.4136 24.6211 12.0494 39.8079C11.9012 46.0061 14.3397 52.0746 17.6302 56.8097C17.6796 56.8838 17.6981 56.9702 17.6796 57.0628L16.8956 60.5693C16.8585 60.7422 16.9635 60.9151 17.1425 60.9521L19.5934 61.4769C19.7662 61.5139 19.9391 61.4028 19.9823 61.2299L20.2354 60.0878C20.9577 60.8904 21.7047 61.625 22.4456 62.2918C22.5814 62.4091 22.7851 62.3905 22.9086 62.2547L24.5507 60.3595C24.668 60.2236 24.6557 60.0261 24.5198 59.9088C23.8284 59.2976 23.174 58.637 22.5382 57.9394H23.9704C24.1494 57.9394 24.2976 57.7974 24.2976 57.6184L24.3223 55.1058C24.3223 54.9268 24.1803 54.7848 24.0013 54.7848H20.2416C20.1305 54.7848 20.0317 54.7292 19.97 54.6428C16.9141 50.0744 15.0744 44.6355 15.1917 39.8573C15.5189 26.257 27.0448 15.3855 40.9167 15.5831C47.6334 15.688 53.881 18.355 58.5173 23.0962C63.1413 27.8251 65.6045 34.0603 65.444 40.6413C65.2094 50.3584 59.1964 59.063 50.0967 62.9091C49.9361 62.977 49.8559 63.1622 49.9176 63.3227L50.8436 65.6316C50.9116 65.7983 51.1029 65.8786 51.2696 65.8106C61.5361 61.483 68.3147 51.661 68.5801 40.6907C68.753 33.2578 65.9811 26.22 60.7645 20.8861Z" fill="#808080"></path></svg>