<svg xmlns="http://www.w3.org/2000/svg" width="80" height="80" viewBox="0 0 80 80" fill="none"><g clip-path="url(#clip0_74_596)"><path d="M69.5971 19.0503L68.2311 20.6703C68.1239 20.7945 68.1408 20.9864 68.2706 21.0937L69.185 21.867C69.3995 22.0476 69.2754 22.3919 68.9931 22.3919H42.2775C42.1139 22.3919 41.9784 22.5274 41.984 22.6911L42.001 24.8191C42.001 24.9827 42.1364 25.1182 42.3001 25.1182H68.9367C69.2076 25.1182 69.3431 25.4512 69.1399 25.6375L68.265 26.439C68.1465 26.5519 68.1352 26.7382 68.2481 26.8624L69.6987 28.4372C69.8116 28.5614 69.9979 28.567 70.122 28.4541L75.1683 23.8143C75.2981 23.6958 75.2924 23.4813 75.157 23.3684L70.0148 19.0165C69.8906 18.9092 69.7043 18.9262 69.5971 19.0503Z" fill="#808080"></path><path d="M33.8841 25.0956L35.9387 25.1182C36.1081 25.1182 36.2435 24.9827 36.2435 24.8134L36.2266 22.7192C36.2266 22.5556 36.0911 22.4201 35.9218 22.4144L33.8841 22.3919C33.7148 22.3919 33.5793 22.5217 33.5793 22.691V24.7851C33.5793 24.9545 33.7148 25.0899 33.8841 25.0956Z" fill="#808080"></path><path d="M29.9725 25.0956L32.0271 25.1182C32.1964 25.1182 32.3319 24.9827 32.3319 24.8134L32.315 22.7192C32.315 22.5556 32.1795 22.4201 32.0101 22.4144L29.9781 22.3919C29.8088 22.3919 29.6733 22.5217 29.6733 22.691V24.7851C29.6733 24.9545 29.8088 25.0899 29.9725 25.0956Z" fill="#808080"></path><path d="M37.8014 25.0956L39.856 25.1182C40.0254 25.1182 40.1609 24.9827 40.1609 24.8134L40.1439 22.7192C40.1439 22.5556 40.0084 22.4201 39.8391 22.4144L37.8071 22.3919C37.6377 22.3919 37.5023 22.5217 37.5023 22.691V24.7851C37.4966 24.9545 37.6321 25.0899 37.8014 25.0956Z" fill="#808080"></path><path d="M38.9191 60.2047H12.3277C12.0454 60.2047 11.9043 59.8547 12.1132 59.6628L12.9542 58.8895C13.0784 58.7709 13.0897 58.579 12.9711 58.4492L11.5374 56.897C11.4189 56.7671 11.2213 56.7615 11.0971 56.8744L6.07351 61.4973C5.93804 61.6214 5.94369 61.8416 6.0848 61.9657L11.21 66.3008C11.3399 66.4136 11.5374 66.3967 11.6503 66.2669L12.9994 64.6638C13.1122 64.534 13.0897 64.3365 12.9598 64.2236L12.0793 63.4785C11.8592 63.2922 11.989 62.931 12.2769 62.931H38.9473C39.1166 62.931 39.2577 62.7899 39.2577 62.6205L39.2408 60.5151C39.2295 60.3401 39.0884 60.2047 38.9191 60.2047Z" fill="#808080"></path><path d="M51.2806 62.9252L49.226 62.9026C49.0567 62.9026 48.9212 62.7615 48.9212 62.5978V60.5037C48.9212 60.3344 49.0567 60.2045 49.226 60.2045L51.2637 60.2271C51.4274 60.2271 51.5628 60.3626 51.5685 60.5319L51.5854 62.626C51.5854 62.7897 51.45 62.9252 51.2806 62.9252ZM47.369 62.9252L45.32 62.9026C45.1506 62.9026 45.0152 62.7615 45.0152 62.5978V60.5037C45.0152 60.3344 45.1506 60.2045 45.32 60.2045L47.352 60.2271C47.5157 60.2271 47.6512 60.3626 47.6568 60.5319L47.6738 62.626C47.6738 62.7897 47.5383 62.9252 47.369 62.9252ZM43.4573 62.9252L41.4027 62.9026C41.2333 62.9026 41.0979 62.7615 41.0979 62.5978V60.5037C41.0979 60.3344 41.2333 60.2045 41.4027 60.2045L43.4404 60.2271C43.604 60.2271 43.7395 60.3626 43.7452 60.5319L43.7621 62.626C43.7621 62.7897 43.6266 62.9252 43.4573 62.9252Z" fill="#808080"></path><path fill-rule="evenodd" clip-rule="evenodd" d="M66.7539 41.2355L66.6442 28.7817C66.6385 27.8278 65.8596 27.0545 64.9057 27.0545H16.261C15.3071 27.0545 14.5451 27.8278 14.5508 28.7817L14.7935 56.3327C14.7991 57.2866 15.5781 58.0599 16.532 58.0599H55.4502C55.1969 57.1349 55.0627 56.1758 55.0587 55.2094H17.627L17.4069 29.8994H63.8106L63.9153 41.9381L63.9188 41.9346C64.6867 41.1685 65.7851 40.9356 66.7539 41.2355Z" fill="#808080"></path><path fill-rule="evenodd" clip-rule="evenodd" d="M58.3877 47.6275L58.3833 47.6319C57.2623 48.7505 56.4552 49.9999 55.9321 51.3071H55.8034C55.6171 51.3071 55.4591 51.1547 55.4591 50.9628L55.3067 33.5212C55.3067 33.3349 55.4591 33.1768 55.6454 33.1768H57.9201C58.1064 33.1768 58.2644 33.3293 58.2644 33.5212L58.3877 47.6275Z" fill="#808080"></path><path d="M25.7963 51.3071H23.5216C23.3353 51.3071 23.1772 51.1547 23.1772 50.9628L23.0248 33.5212C23.0248 33.3349 23.1772 33.1768 23.3635 33.1768H25.6383C25.8245 33.1768 25.9826 33.3293 25.9826 33.5212L26.135 50.9628C26.1406 51.1491 25.9882 51.3071 25.7963 51.3071Z" fill="#808080"></path><path d="M36.5604 51.3071H34.2857C34.0994 51.3071 33.9414 51.1547 33.9414 50.9628L33.789 33.5212C33.789 33.3349 33.9414 33.1769 34.1276 33.1769H36.4024C36.5887 33.1769 36.7467 33.3293 36.7467 33.5212L36.8991 50.9628C36.8991 51.1491 36.7467 51.3071 36.5604 51.3071Z" fill="#808080"></path><path d="M47.3189 51.3071H45.0442C44.8579 51.3071 44.6999 51.1547 44.6999 50.9628L44.5475 33.5212C44.5475 33.3349 44.6999 33.1769 44.8861 33.1769H47.1609C47.3471 33.1769 47.5052 33.3293 47.5052 33.5212L47.6576 50.9628C47.6576 51.1491 47.5052 51.3071 47.3189 51.3071Z" fill="#808080"></path><path d="M66.2986 45.5594L70.6093 49.8798C74.8637 54.1437 71.839 61.4228 65.8157 61.416C59.7923 61.4093 56.784 54.1234 61.0479 49.869L65.3684 45.5583C65.6255 45.3017 66.042 45.3022 66.2986 45.5594Z" stroke="#808080" stroke-width="3"></path><path d="M65.815 60.8993L65.815 51.9247" stroke="#808080" stroke-width="3" stroke-linecap="round"></path><path d="M65.9947 56.9139L63.0065 53.919" stroke="#808080" stroke-width="3" stroke-linecap="round"></path><path d="M65.9927 57.9077L68.9876 54.9196" stroke="#808080" stroke-width="3" stroke-linecap="round"></path></g><defs><clipPath id="clip0_74_596"><rect width="80" height="80" fill="white"></rect></clipPath></defs></svg>