<svg xmlns="http://www.w3.org/2000/svg" width="80" height="80" viewBox="0 0 80 80" fill="none"><mask id="path-1-inside-1_74_637" fill="white"><path fill-rule="evenodd" clip-rule="evenodd" d="M52.8886 52.0666C59.0343 47.9206 63.0758 40.8934 63.0758 32.9222C63.0758 20.1772 52.7439 9.84528 39.9988 9.84528C27.2538 9.84528 16.9219 20.1772 16.9219 32.9222C16.9219 40.8934 20.9635 47.9207 27.1092 52.0667L28.6243 58.632C29.6714 63.1694 33.7117 66.3835 38.3682 66.3835H41.6296C46.2861 66.3835 50.3264 63.1694 51.3735 58.632L52.8886 52.0666Z"></path></mask><path d="M52.8886 52.0666L51.2108 49.5796L50.2312 50.2405L49.9654 51.392L52.8886 52.0666ZM27.1092 52.0667L30.0324 51.3921L29.7667 50.2406L28.787 49.5797L27.1092 52.0667ZM28.6243 58.632L25.7011 59.3066L25.7011 59.3066L28.6243 58.632ZM51.3735 58.632L54.2967 59.3066L54.2967 59.3066L51.3735 58.632ZM60.0758 32.9222C60.0758 39.8543 56.5651 45.9675 51.2108 49.5796L54.5664 54.5535C61.5035 49.8737 66.0758 41.9324 66.0758 32.9222H60.0758ZM39.9988 12.8453C51.087 12.8453 60.0758 21.834 60.0758 32.9222H66.0758C66.0758 18.5203 54.4007 6.84528 39.9988 6.84528V12.8453ZM19.9219 32.9222C19.9219 21.834 28.9106 12.8453 39.9988 12.8453V6.84528C25.5969 6.84528 13.9219 18.5203 13.9219 32.9222H19.9219ZM28.787 49.5797C23.4326 45.9676 19.9219 39.8544 19.9219 32.9222H13.9219C13.9219 41.9325 18.4943 49.8738 25.4315 54.5537L28.787 49.5797ZM31.5475 57.9575L30.0324 51.3921L24.1861 52.7413L25.7011 59.3066L31.5475 57.9575ZM38.3682 63.3835C35.1086 63.3835 32.2804 61.1336 31.5475 57.9575L25.7011 59.3066C27.0623 65.2051 32.3147 69.3835 38.3682 69.3835V63.3835ZM41.6296 63.3835H38.3682V69.3835H41.6296V63.3835ZM48.4503 57.9575C47.7174 61.1336 44.8892 63.3835 41.6296 63.3835V69.3835C47.6831 69.3835 52.9355 65.2051 54.2967 59.3066L48.4503 57.9575ZM49.9654 51.392L48.4503 57.9575L54.2967 59.3066L55.8118 52.7411L49.9654 51.392Z" fill="#808080" mask="url(#path-1-inside-1_74_637)"></path><path d="M40.8513 20.9404L46.6581 26.7603C52.7167 32.8324 48.4093 43.1984 39.8316 43.1888C31.2539 43.1791 26.9698 32.8035 33.042 26.745L38.8619 20.9381C39.4119 20.3894 40.3025 20.3904 40.8513 20.9404Z" stroke="#808080" stroke-width="3"></path><path d="M39.8883 46.7133L39.8883 29.7612" stroke="#808080" stroke-width="3" stroke-linecap="round"></path><path d="M40.0733 36.6035L36.048 32.5691" stroke="#808080" stroke-width="3" stroke-linecap="round"></path><path d="M40.0707 37.9422L44.1051 33.9169" stroke="#808080" stroke-width="3" stroke-linecap="round"></path><circle cx="40" cy="66.8453" r="3" fill="#808080"></circle><path d="M30 57.8453C35.8824 60.5119 43.5294 60.5119 50 57.8453" stroke="#808080" stroke-width="3"></path><path d="M28 50.8453C35.0589 56.1786 44.2353 56.1786 52 50.8453" stroke="#808080" stroke-width="3"></path></svg>