<svg xmlns="http://www.w3.org/2000/svg" width="80" height="80" viewBox="0 0 80 80" fill="none"><path d="M38.1343 43.1186V36.2661C38.1343 35.4081 37.44 34.7139 36.582 34.7139H29.7183C28.8659 34.7139 28.166 35.4081 28.166 36.2661V43.1186C28.166 43.9766 28.8659 44.6765 29.7183 44.6765H36.5764C37.44 44.6765 38.1343 43.9766 38.1343 43.1186ZM35.4192 41.9614H30.8867V37.4289H35.4192V41.9614Z" fill="#04246A"></path><path d="M22.9216 38.0214C22.916 34.6911 20.2913 31.9761 17.0683 31.9761C13.8452 31.9761 11.2205 34.6855 11.2149 38.0214C11.2036 42.2886 14.9798 45.173 16.1369 45.9519C16.4135 46.1439 16.7409 46.2398 17.0626 46.2398C17.4126 46.2398 17.7569 46.1326 18.0504 45.9068C19.1962 45.0545 22.9273 41.9669 22.9273 38.0327C22.9216 38.027 22.9216 38.027 22.9216 38.0214ZM17.0344 43.2482C15.9224 42.362 13.9242 40.4372 13.9299 38.027C13.9299 36.1925 15.341 34.6911 17.0683 34.6911C17.9319 34.6911 18.7221 35.0636 19.2866 35.6676C19.8567 36.2772 20.2123 37.107 20.2123 38.027C20.201 39.9123 18.6092 41.9105 17.0344 43.2482Z" fill="#04246A"></path><path d="M16.0872 52.4376L16.0703 53.9673C16.0703 54.1366 16.2058 54.2777 16.3751 54.2777L19.1635 54.3003C19.3329 54.3003 19.474 54.1648 19.474 53.9955V53.2166V52.4602C19.474 52.2909 19.3385 52.1554 19.1692 52.1554L16.4033 52.1328C16.2284 52.1328 16.0929 52.2683 16.0872 52.4376Z" fill="#04246A"></path><path d="M17.9272 50.6482C18.0965 50.6482 18.2376 50.5128 18.2376 50.3434V47.6679C18.2376 47.4986 18.1021 47.3631 17.9328 47.3631L16.3975 47.3462C16.2281 47.3462 16.087 47.4817 16.087 47.651L16.0645 50.3209C16.0645 50.4902 16.1999 50.6257 16.3693 50.6313L17.1482 50.6426L17.9272 50.6482Z" fill="#04246A"></path><path d="M21.0603 53.2224L21.0547 53.9731C21.0547 54.1425 21.1902 54.2836 21.3595 54.2836L24.0519 54.3062C24.2213 54.3062 24.3624 54.1707 24.3624 54.0014V53.2224V52.4661C24.3624 52.2967 24.2269 52.1613 24.0576 52.1613L21.3821 52.1387C21.2127 52.1387 21.0773 52.2741 21.0716 52.4435L21.0603 53.2224Z" fill="#04246A"></path><path d="M25.9471 53.2224L25.9414 53.9731C25.9414 54.1425 26.0769 54.2836 26.2462 54.2836L28.9387 54.3062C29.108 54.3062 29.2491 54.1707 29.2491 54.0014V53.2224V52.4661C29.2491 52.2967 29.1136 52.1613 28.9443 52.1613L26.2688 52.1387C26.0995 52.1387 25.964 52.2741 25.9583 52.4435L25.9471 53.2224Z" fill="#04246A"></path><path d="M30.8357 53.2224L30.8301 53.9731C30.8301 54.1425 30.9655 54.2836 31.1349 54.2836L33.8273 54.3062C33.9967 54.3062 34.1378 54.1707 34.1378 54.0014V53.2224V52.4661C34.1378 52.2967 34.0023 52.1613 33.833 52.1613L31.1575 52.1387C30.9881 52.1387 30.8527 52.2741 30.847 52.4435L30.8357 53.2224Z" fill="#04246A"></path><path d="M35.7244 53.2224L35.7188 53.9731C35.7188 54.1425 35.8542 54.2836 36.0236 54.2836L38.716 54.3062C38.8853 54.3062 39.0264 54.1707 39.0264 54.0014V53.2224V52.4661C39.0264 52.2967 38.891 52.1613 38.7216 52.1613L36.0461 52.1387C35.8768 52.1387 35.7413 52.2741 35.7357 52.4435L35.7244 53.2224Z" fill="#04246A"></path><path d="M40.6131 53.2224L40.6074 53.9731C40.6074 54.1425 40.7429 54.2836 40.9122 54.2836L43.6047 54.3062C43.774 54.3062 43.9151 54.1707 43.9151 54.0014V53.2224V52.4604C43.9151 52.2967 43.7796 52.1613 43.616 52.1613L40.9404 52.1387C40.7711 52.1387 40.63 52.2741 40.63 52.4435L40.6131 53.2224Z" fill="#04246A"></path><path d="M77.172 40.618C76.6244 37.3668 73.9546 34.7872 70.6864 34.33C67.5537 33.8897 64.7088 35.363 63.1509 37.745C62.2422 37.4627 61.2995 37.2708 60.323 37.1862V21.8387C60.323 20.9525 59.6062 20.2356 58.72 20.2356H48.0857V16.99C48.0857 16.1603 47.414 15.4829 46.5786 15.4829H42.8475C42.0234 15.4829 41.3461 16.1546 41.3461 16.99V20.2356H24.7681V16.99C24.7681 16.1603 24.0907 15.4829 23.261 15.4829H19.53C18.7058 15.4829 18.0229 16.1546 18.0229 16.99V20.2356H7.60869C6.7225 20.2356 6 20.9581 6 21.8443V60.436C6 61.3166 6.7225 62.039 7.60305 62.039H49.0396C51.9917 64.85 56.1404 66.4136 60.6278 65.9112C67.8698 65.0984 73.4127 58.8273 73.4014 51.5402C73.4014 50.5976 73.3055 49.6775 73.1305 48.78C75.9527 47.3068 77.7646 44.1289 77.172 40.618ZM58.9627 63.2865C57.0718 63.2865 55.2881 62.8349 53.7076 62.039C52.3642 61.3673 51.1732 60.4416 50.1854 59.324C48.3566 57.2525 47.239 54.5318 47.239 51.5628C47.239 49.0115 48.0574 46.6408 49.4573 44.716C50.3491 43.4798 51.478 42.4243 52.7763 41.6228C54.21 40.7196 55.8525 40.127 57.608 39.9294C58.0539 39.873 58.5055 39.8504 58.9683 39.8504C59.4312 39.8504 59.8827 39.8786 60.3287 39.9294C60.9326 39.9971 61.5197 40.1157 62.0898 40.2737C61.9656 40.8156 61.8978 41.38 61.8978 41.9614C61.8978 42.5033 61.9543 43.0339 62.0615 43.5419H60.3287H57.6136H52.7198H52.0989C51.4555 43.5419 50.9361 44.0612 50.9361 44.7047V44.7216V58.4378C50.9361 58.7934 51.0998 59.1208 51.3595 59.3353C51.5627 59.5047 51.8167 59.6006 52.0989 59.6006H60.323H65.8321C66.4756 59.6006 66.9949 59.0813 66.9949 58.4378V49.209C67.802 49.5025 68.6769 49.6606 69.5913 49.6606C69.9074 49.6606 70.2235 49.638 70.5283 49.5985C70.6412 50.242 70.6977 50.8967 70.6977 51.5684C70.6864 58.0258 65.4257 63.2865 58.9627 63.2865ZM50.0556 40.206C49.367 40.7422 48.7291 41.3405 48.1534 41.9953H45.5174V37.4627H50.05L50.0556 40.206ZM64.8161 47.9785V54.1141H60.3174H57.6024H53.1037V45.7038H56.4114V48.622C56.4114 49.2655 56.9306 49.7848 57.5741 49.7848H57.6024H60.3174H60.3512C60.9891 49.7848 61.5084 49.2655 61.5084 48.6276V45.7038H62.8687C63.3598 46.59 64.0315 47.3633 64.8161 47.9785ZM53.1093 56.2873H57.608H60.323H64.8217V57.4105H60.323H57.608H53.1093V56.2873ZM59.3352 45.7038V47.6116H58.5845V45.7038V45.0716H59.3352V45.7038ZM71.3976 47.1601C70.9122 47.3181 70.3929 47.4084 69.8566 47.4197C69.8002 47.4253 69.7494 47.4253 69.6929 47.4253C68.6261 47.4253 67.627 47.1262 66.7804 46.6012C66.3288 46.3247 65.9168 45.986 65.5611 45.5909C65.341 45.3538 65.1491 45.1054 64.9741 44.8289C64.737 44.4507 64.5338 44.0443 64.3984 43.6096C64.2121 43.0565 64.1049 42.4582 64.1049 41.8373C64.1049 41.5945 64.1218 41.3575 64.1557 41.126C64.2234 40.5898 64.3645 40.0874 64.5677 39.6077C64.7766 39.1392 65.0419 38.6989 65.3636 38.3094C66.3853 37.0563 67.9431 36.2492 69.6873 36.2492C71.5161 36.2492 73.1361 37.1241 74.1465 38.4844L73.5087 39.1222L70.2913 42.3453L69.7099 42.9267C69.5744 43.0621 69.3599 43.0621 69.2244 42.9267L67.2884 40.968C67.1529 40.8325 66.9328 40.8325 66.7973 40.9623L65.5555 42.1872C65.42 42.3227 65.42 42.5428 65.5499 42.6783L69.2019 46.3755C69.3373 46.5109 69.5575 46.5109 69.6929 46.3755L71.6968 44.3716L75.1794 40.889C75.2359 41.1938 75.2641 41.5099 75.2641 41.8316C75.2641 43.7733 74.265 45.4893 72.7523 46.4827C72.3459 46.7819 71.8887 47.002 71.3976 47.1601ZM44.0668 18.1979H45.3706V20.2356V22.9506V23.7126H44.0668V22.9506V20.2356V18.1979ZM20.7435 18.1979H22.0531V20.2356V22.9506V23.7126H20.7435V22.9506V20.2356V18.1979ZM18.0285 22.9506V24.9206C18.0285 25.7503 18.7059 26.4277 19.5356 26.4277H23.2666C24.0964 26.4277 24.7737 25.7503 24.7737 24.9206V22.9506H41.3574V24.9206C41.3574 25.7503 42.0347 26.4277 42.8645 26.4277H46.5899C47.4196 26.4277 48.097 25.756 48.097 24.9206V22.9506H57.6193V27.4098H8.71502V22.9506H18.0285ZM8.71502 59.3184V30.1248H57.6024V37.1862C55.8864 37.3442 54.2551 37.8071 52.7706 38.5183V36.2943C52.7706 35.4363 52.0764 34.7421 51.2184 34.7421H44.3603C43.5023 34.7421 42.808 35.4363 42.808 36.2943V43.1468C42.808 44.0048 43.5079 44.7047 44.3659 44.7047H46.2512C45.1505 46.7424 44.524 49.0792 44.524 51.5515C44.524 52.0313 44.5465 52.4998 44.5973 52.9626C44.603 53.0586 44.6143 53.1545 44.6312 53.2449C44.8852 55.4575 45.6472 57.5178 46.8044 59.3127H8.71502V59.3184Z" fill="#04246A"></path></svg>