<svg xmlns="http://www.w3.org/2000/svg" width="47" height="51" viewBox="0 0 47 51" fill="none"><path d="M4.6621 6.66523H6.68276C6.83475 6.66523 6.95546 6.54452 6.95546 6.39253V4.48364C6.95546 4.33164 6.83475 4.21094 6.68276 4.21094H4.6621C4.51011 4.21094 4.3894 4.33164 4.3894 4.48364V6.39253C4.3894 6.54005 4.51011 6.66523 4.6621 6.66523Z" fill="white"></path><path d="M8.6228 6.66523H10.6434C10.7954 6.66523 10.9161 6.54452 10.9161 6.39253V4.48364C10.9161 4.33164 10.7954 4.21094 10.6434 4.21094H8.6228C8.4708 4.21094 8.3501 4.33164 8.3501 4.48364V6.39253C8.3501 6.54005 8.47527 6.66523 8.6228 6.66523Z" fill="white"></path><path d="M12.5882 6.66523H14.6089C14.7609 6.66523 14.8816 6.54452 14.8816 6.39253V4.48364C14.8816 4.33164 14.7609 4.21094 14.6089 4.21094H12.5882C12.4362 4.21094 12.3155 4.33164 12.3155 4.48364V6.39253C12.3111 6.54005 12.4362 6.66523 12.5882 6.66523Z" fill="white"></path><path d="M4.6621 14.4894H19.5398C19.6918 14.4894 19.8125 14.3687 19.8125 14.2167V12.3079C19.8125 12.1559 19.6918 12.0352 19.5398 12.0352H4.6621C4.51011 12.0352 4.3894 12.1559 4.3894 12.3079V14.2167C4.3894 14.3687 4.51011 14.4894 4.6621 14.4894Z" fill="white"></path><path d="M21.708 14.4894H23.7287C23.8806 14.4894 24.0014 14.3687 24.0014 14.2167V12.3079C24.0014 12.1559 23.8806 12.0352 23.7287 12.0352H21.708C21.556 12.0352 21.4353 12.1559 21.4353 12.3079V14.2167C21.4353 14.3687 21.556 14.4894 21.708 14.4894Z" fill="white"></path><path d="M4.6621 22.4875H18.7173C18.8693 22.4875 18.99 22.3668 18.99 22.2148V20.3059C18.99 20.1539 18.8693 20.0332 18.7173 20.0332H4.6621C4.51011 20.0332 4.3894 20.1539 4.3894 20.3059V22.2148C4.3894 22.3623 4.51011 22.4875 4.6621 22.4875Z" fill="white"></path><path d="M4.6621 26.4836H9.9015C10.0535 26.4836 10.1742 26.3629 10.1742 26.2109V24.302C10.1742 24.15 10.0535 24.0293 9.9015 24.0293H4.6621C4.51011 24.0293 4.3894 24.15 4.3894 24.302V26.2109C4.3894 26.3629 4.51011 26.4836 4.6621 26.4836Z" fill="white"></path><path d="M22.9105 20.0293H20.8899C20.7379 20.0293 20.6172 20.15 20.6172 20.302V22.2109C20.6172 22.3629 20.7379 22.4836 20.8899 22.4836H22.9105C23.0625 22.4836 23.1832 22.3629 23.1832 22.2109V20.302C23.1832 20.15 23.0625 20.0293 22.9105 20.0293Z" fill="white"></path><path d="M11.9668 24.0254C11.8148 24.0254 11.6941 24.1461 11.6941 24.2981V26.207C11.6941 26.359 11.8148 26.4797 11.9668 26.4797H13.9874C14.1394 26.4797 14.2601 26.359 14.2601 26.207V24.2981C14.2601 24.1461 14.1394 24.0254 13.9874 24.0254H11.9668Z" fill="white"></path><path d="M15.7444 28.1602H4.6621C4.51011 28.1602 4.3894 28.2809 4.3894 28.4329V30.3417C4.3894 30.4937 4.51011 30.6144 4.6621 30.6144H15.7444C15.8964 30.6144 16.0171 30.4937 16.0171 30.3417V28.4329C16.0171 28.2853 15.8964 28.1602 15.7444 28.1602Z" fill="white"></path><path d="M9.9015 32.1621H4.6621C4.51011 32.1621 4.3894 32.2828 4.3894 32.4348V34.3437C4.3894 34.4957 4.51011 34.6164 4.6621 34.6164H9.9015C10.0535 34.6164 10.1742 34.4957 10.1742 34.3437V32.4348C10.1742 32.2828 10.049 32.1621 9.9015 32.1621Z" fill="white"></path><path d="M19.5397 28.1602H17.519C17.367 28.1602 17.2463 28.2809 17.2463 28.4329V30.3417C17.2463 30.4937 17.367 30.6144 17.519 30.6144H19.5397C19.6917 30.6144 19.8124 30.4937 19.8124 30.3417V28.4329C19.8124 28.2853 19.6917 28.1602 19.5397 28.1602Z" fill="white"></path><path d="M13.9874 32.1621H11.9668C11.8148 32.1621 11.6941 32.2828 11.6941 32.4348V34.3437C11.6941 34.4957 11.8148 34.6164 11.9668 34.6164H13.9874C14.1394 34.6164 14.2601 34.4957 14.2601 34.3437V32.4348C14.2601 32.2828 14.1394 32.1621 13.9874 32.1621Z" fill="white"></path><path d="M4.6621 18.4914H25.8164C25.9684 18.4914 26.0891 18.3707 26.0891 18.2187V16.3098C26.0891 16.1578 25.9684 16.0371 25.8164 16.0371H4.6621C4.51011 16.0371 4.3894 16.1578 4.3894 16.3098V18.2187C4.3894 18.3662 4.51011 18.4914 4.6621 18.4914Z" fill="white"></path><path d="M28.0514 18.4914H30.072C30.224 18.4914 30.3447 18.3707 30.3447 18.2187V16.3098C30.3447 16.1578 30.224 16.0371 30.072 16.0371H28.0514C27.8994 16.0371 27.7787 16.1578 27.7787 16.3098V18.2187C27.7742 18.3662 27.8994 18.4914 28.0514 18.4914Z" fill="white"></path><path d="M34.422 25.0577V2.24487C34.422 1.28372 33.6441 0.505859 32.6829 0.505859H2.24797C1.29129 0.505859 0.513428 1.28372 0.513428 2.24487V45.0541C0.513428 46.0153 1.29129 46.7931 2.24797 46.7931H24.0192C26.5763 49.4173 30.2421 50.9551 34.2521 50.6333C40.4705 50.1371 45.5087 45.1033 46.005 38.8849C46.5727 31.75 41.2707 25.7014 34.422 25.0577ZM32.1554 48.0538C30.7338 47.9108 29.3882 47.4682 28.1946 46.7931C27.0814 46.1673 26.0935 45.3402 25.2843 44.3612C24.0236 42.8368 23.1921 40.9458 22.991 38.8893C22.4187 33.1761 26.5629 28.2809 31.99 27.6416C32.7232 27.5522 33.4832 27.5433 34.2565 27.6193C34.3102 27.6237 34.3683 27.6327 34.422 27.6372C39.1472 28.1915 42.9471 32.0361 43.421 36.7837C44.0737 43.2704 38.6421 48.702 32.1554 48.0538ZM3.21806 2.9378H31.7173C31.8693 2.9378 31.99 3.06297 31.99 3.2105V7.91343H2.94536V3.2105C2.94536 3.06297 3.06607 2.9378 3.21806 2.9378ZM3.21806 44.3612C3.06607 44.3612 2.94536 44.236 2.94536 44.0885V10.3722H31.99V25.0577C25.8476 25.6299 20.8988 30.6324 20.407 36.7882C20.188 39.5599 20.8541 42.1707 22.155 44.3612H3.21806Z" fill="white"></path><path d="M40.1755 38.9474C40.1308 38.7775 39.9564 38.6881 39.791 38.7418L37.0059 39.7387C36.8494 39.7968 36.769 39.9622 36.8271 40.1187L37.0014 40.6015C37.0551 40.7535 37.2205 40.8339 37.377 40.7803L38.1816 40.4942C37.2205 42.1259 35.8793 43.248 34.422 43.6637C34.2432 43.7129 34.0643 43.7532 33.8855 43.7845V37.3067H34.422H36.3935C36.6796 37.3067 36.912 37.0743 36.912 36.7882V36.2249C36.912 35.9388 36.6796 35.7063 36.3935 35.7063H34.422H33.8855V33.8332C34.0777 33.7617 34.261 33.6588 34.422 33.5381C34.8109 33.2475 35.106 32.8273 35.2311 32.3535C35.4859 31.3878 35.1104 30.4848 34.422 29.9707C33.9034 29.5728 33.206 29.4029 32.4773 29.5996C32.3074 29.6443 32.142 29.7114 31.99 29.7963C31.4804 30.078 31.0915 30.5653 30.935 31.142C30.6534 32.2149 31.1541 33.2118 31.99 33.6901C32.0839 33.7438 32.1823 33.7885 32.2851 33.8287V35.7063H31.99H29.7727C29.4866 35.7063 29.2541 35.9388 29.2541 36.2249V36.7882C29.2541 37.0743 29.4866 37.3067 29.7727 37.3067H31.99H32.2851V43.771C32.1867 43.7576 32.0884 43.7353 31.99 43.7174C30.3136 43.3463 28.8652 42.1751 27.904 40.4048L28.6104 40.6551C28.7489 40.7043 28.9054 40.6328 28.9591 40.4897L29.1468 39.9622C29.196 39.8236 29.1245 39.6671 28.9814 39.6135L26.1516 38.6032C25.9996 38.5495 25.8342 38.6345 25.794 38.7909L25.0653 41.5358C25.0295 41.6833 25.1145 41.8309 25.262 41.8711L25.7984 42.0141C25.946 42.0544 26.0935 41.965 26.1337 41.8219L26.3707 40.9233C27.1262 42.4165 28.1678 43.5878 29.4016 44.3611C30.5193 45.0675 31.7978 45.443 33.1613 45.443C33.5771 45.443 33.9928 45.3983 34.3996 45.3134C36.4739 44.8887 38.356 43.4089 39.6256 41.1916L39.8223 41.9337C39.867 42.0901 40.0279 42.184 40.1844 42.1393L40.6851 42.0097C40.8416 41.965 40.9355 41.804 40.8907 41.6476L40.1755 38.9474ZM33.0853 31.1196C33.4295 31.1196 33.7112 31.4012 33.7112 31.7455C33.7112 32.0942 33.4295 32.3713 33.0853 32.3713C32.7366 32.3713 32.455 32.0942 32.455 31.7455C32.455 31.4012 32.7366 31.1196 33.0853 31.1196Z" fill="white"></path></svg>