<svg xmlns="http://www.w3.org/2000/svg" width="52" height="55" viewBox="0 0 52 55" fill="none"><path d="M9.0863 18.1905H10.6503V18.7305C10.6503 18.7713 10.6809 18.8018 10.7216 18.8018H10.8133H12.199C12.2347 18.8018 12.2703 18.7713 12.2703 18.7305V18.1905H12.6575H12.7696H13.8496C13.9056 18.1905 13.9464 18.1497 13.9464 18.0937V14.5582C13.9464 14.5021 13.9056 14.4614 13.8496 14.4614H12.7696H12.6575H10.8133H10.6095V13.9672H10.8133H12.6575H12.7696H13.8496C13.9056 13.9672 13.9464 13.9214 13.9464 13.8704V12.444C13.9464 12.3879 13.9056 12.3472 13.8496 12.3472H12.7696H12.6575H12.2703V11.797C12.2703 11.7664 12.2397 11.7358 12.2092 11.7358H10.8133H10.7114C10.6758 11.7358 10.6503 11.7664 10.6503 11.797V12.3472H9.0863C9.03535 12.3472 8.9895 12.3879 8.9895 12.444V15.9846C8.9895 16.0355 9.03535 16.0763 9.0863 16.0763H10.8133H12.3264V16.5705H10.8133H9.0863C9.03535 16.5705 8.9895 16.6163 8.9895 16.6673V18.0937C8.9895 18.1497 9.03535 18.1905 9.0863 18.1905Z" fill="white"></path><path d="M7.90957 28.8125H5.55085C5.47443 28.8125 5.4082 28.8787 5.4082 28.9551V31.3139C5.4082 31.3903 5.47443 31.4514 5.55085 31.4514H7.90957C7.98599 31.4514 8.04712 31.3903 8.04712 31.3139V28.9551C8.04712 28.8787 7.98599 28.8125 7.90957 28.8125Z" fill="white"></path><path d="M12.6575 31.4514H12.7695H13.0141C13.0905 31.4514 13.1516 31.3903 13.1516 31.3139V28.9551C13.1516 28.8787 13.0905 28.8125 13.0141 28.8125H12.7695H12.6575H10.8133H10.6553C10.5789 28.8125 10.5127 28.8787 10.5127 28.9551V31.3139C10.5127 31.3903 10.5789 31.4514 10.6553 31.4514H10.8133H12.6575Z" fill="white"></path><path d="M15.7296 31.4514H18.0883C18.1647 31.4514 18.231 31.3903 18.231 31.3139V28.9551C18.231 28.8787 18.1647 28.8125 18.0883 28.8125H15.7296C15.6532 28.8125 15.592 28.8787 15.592 28.9551V31.3139C15.592 31.3903 15.6532 31.4514 15.7296 31.4514Z" fill="white"></path><path d="M44.35 7.77758V1.812C44.35 1.03256 43.7132 0.395752 42.9338 0.395752H9.68749C8.90295 0.395752 8.26614 1.03256 8.26614 1.812V8.59269C5.77496 9.78479 4.05305 12.3269 4.05305 15.2715C4.05305 18.211 5.77496 20.7531 8.26614 21.9452V24.3345H1.94395C1.36319 24.3345 0.889404 24.8083 0.889404 25.389V34.8494C0.889404 35.4302 1.36319 35.9039 1.94395 35.9039H8.26614V53.1384C8.26614 53.9179 8.90295 54.5547 9.68749 54.5547H42.9338C43.7132 54.5547 44.35 53.9179 44.35 53.1384V27.4115C48.2727 25.9698 51.0899 22.1133 51.0899 17.5946C51.0899 13.0809 48.2727 9.2244 44.35 7.77758ZM48.3797 14.2475H46.6323C46.1382 12.5562 45.3078 11.1501 44.3857 10.0089C46.1636 10.875 47.5901 12.383 48.3797 14.2475ZM41.8385 9.84592C42.7453 10.7069 43.6775 11.8226 44.35 13.2235C44.5079 13.5496 44.6506 13.8909 44.7779 14.2475H44.35H41.8385V9.84592ZM41.8385 16.0102H44.35H45.2262C45.4046 17.1157 45.374 18.2314 45.1447 19.3572H44.35H41.8385V16.0102ZM6.24365 15.2715C6.24365 13.5954 7.03329 12.1079 8.26614 11.1552C8.98955 10.5897 9.8607 10.2127 10.8134 10.0956C11.0273 10.0701 11.2413 10.0548 11.4604 10.0548C11.873 10.0548 12.2755 10.1006 12.6575 10.1974C12.6983 10.2025 12.734 10.2127 12.7696 10.2229C13.763 10.4827 14.6444 11.0278 15.3168 11.7665C15.3576 11.8124 15.3983 11.8582 15.434 11.9041C16.2084 12.8109 16.672 13.9877 16.672 15.2715C16.672 16.5502 16.2084 17.727 15.434 18.6338C15.3983 18.6797 15.3576 18.7255 15.3168 18.7714C14.6444 19.5101 13.763 20.0552 12.7696 20.315C12.734 20.3252 12.6983 20.3354 12.6575 20.3405C12.2755 20.4372 11.873 20.4831 11.4604 20.4831C11.2413 20.4831 11.0273 20.4678 10.8134 20.4423C9.8607 20.3252 8.98955 19.9482 8.26614 19.3827C7.03329 18.4351 6.24365 16.9425 6.24365 15.2715ZM15.434 40.2801V35.9039H18.8575L23.6208 39.358L24.1455 39.735L25.2765 39.1491V35.9039H30.0703C30.6511 35.9039 31.13 35.4251 31.13 34.8443V25.3839L31.1249 25.2107C31.1096 24.7217 30.7071 24.3345 30.2181 24.3345H15.434V21.5122C17.4922 20.1978 18.8626 17.89 18.8626 15.2715C18.8626 14.1303 18.6027 13.0503 18.1392 12.0824H32.3221C31.3439 13.682 30.7733 15.5721 30.7733 17.5946C30.7733 21.986 33.4326 25.7507 37.1821 27.2791V40.2801H15.434ZM37.1821 43.0616V45.079H15.434V43.0616H37.1821ZM32.9589 16.0102H34.7929C34.64 17.1819 34.6808 18.3027 34.8642 19.3572H32.9894C32.8723 18.7867 32.8111 18.2008 32.8111 17.5946C32.8111 17.0545 32.8621 16.5196 32.9589 16.0102ZM33.4836 14.2475C34.2325 12.4899 35.5417 11.0431 37.1821 10.1618V10.3095C36.3568 11.3895 35.6283 12.7039 35.1698 14.2475H33.4836ZM33.5651 21.1199H35.3023C35.7761 22.5871 36.4842 23.8607 37.1821 24.8898V25.0324C35.5978 24.1766 34.3191 22.8011 33.5651 21.1199ZM36.6625 19.3572C36.4333 18.2314 36.4027 17.1157 36.581 16.0102H37.1821H37.2993H39.8465H39.9637V19.3572H39.8465H37.2993H37.1821H36.6625ZM37.1821 21.1199H37.2993H39.8465H39.9637H40.0197V25.6387C39.9994 25.6183 39.979 25.5979 39.9637 25.5775C39.9229 25.5368 39.8873 25.496 39.8465 25.4502C39.3065 24.8337 38.5831 23.9116 37.9514 22.7705C37.7018 22.3222 37.4827 21.8688 37.2993 21.4205C37.2586 21.3237 37.2178 21.2269 37.1821 21.1301V21.1199ZM39.9637 14.2475H39.8465H37.2993H37.1821H37.0293C37.0752 14.1049 37.1261 13.9673 37.1821 13.8298C37.2178 13.7381 37.2586 13.6464 37.2993 13.5547C37.9514 12.062 38.9041 10.8699 39.8465 9.958C39.8873 9.91725 39.928 9.88158 39.9637 9.84592V14.2475ZM37.1821 7.91004C36.204 8.3074 35.3074 8.8627 34.5025 9.53516H16.137C15.9129 9.35176 15.6785 9.17855 15.434 9.02572V7.52286H37.1821V7.91004ZM12.6575 22.5718V24.3345H10.8134V22.6431C11.0273 22.6635 11.2413 22.6737 11.4604 22.6737C11.8679 22.6737 12.2653 22.638 12.6575 22.5718ZM8.26614 33.8662H2.92718V26.3723H8.26614H10.8134H12.6575H12.7696H15.3168H15.434H29.0922V33.8662H24.2779L23.2387 33.8916V36.5662L19.8305 34.0954L19.535 33.8662H15.434H15.3168H12.7696H12.6575H10.8134H8.26614ZM41.8028 52.0074H10.8134V35.9039H12.6575V46.1794C12.6575 47.1015 13.4064 47.8555 14.3336 47.8555H38.2825C39.2097 47.8555 39.9637 47.1015 39.9637 46.1794V27.9719C40.2796 28.0076 40.6056 28.0229 40.9316 28.0229C41.2271 28.0229 41.5175 28.0076 41.8028 27.9821V52.0074ZM41.8028 7.2121C41.5175 7.18663 41.2271 7.17135 40.9316 7.17135C40.6056 7.17135 40.2796 7.18663 39.9637 7.22229V6.27473C39.9637 5.42905 39.276 4.7464 38.4354 4.7464H14.1859C13.3402 4.7464 12.6575 5.42905 12.6575 6.27473V7.96608C12.2653 7.89985 11.8679 7.86419 11.4604 7.86419C11.2413 7.86419 11.0273 7.87438 10.8134 7.89476V2.94297H41.8028V7.2121ZM43.8559 22.7705C43.1732 23.9983 42.3937 24.9713 41.8385 25.5877V21.1199H44.35H44.6302C44.5436 21.3441 44.4519 21.5631 44.35 21.7873C44.2023 22.1133 44.0392 22.4445 43.8559 22.7705ZM44.4366 25.1598C45.1957 24.09 45.9802 22.7196 46.505 21.1199H48.2982C47.5035 22.8877 46.1331 24.3192 44.4366 25.1598ZM46.938 19.3572C47.1214 18.3078 47.1672 17.187 47.0093 16.0102H48.9044C49.0012 16.5196 49.0522 17.0545 49.0522 17.5946C49.0522 18.2008 48.991 18.7867 48.8739 19.3572H46.938Z" fill="white"></path><path d="M29.0922 49.0679H23.524C23.4272 49.0679 23.3457 49.1494 23.3457 49.2462V50.7796C23.3457 50.8764 23.4272 50.9579 23.524 50.9579H29.0973C29.1941 50.9579 29.2756 50.8764 29.2756 50.7796V49.2462C29.2705 49.1443 29.1941 49.0679 29.0922 49.0679Z" fill="white"></path></svg>