<svg xmlns="http://www.w3.org/2000/svg" width="43" height="44" viewBox="0 0 43 44" fill="none"><path d="M20.5049 23.7779V20.1233C20.5049 19.6657 20.1346 19.2954 19.677 19.2954H16.0163C15.5618 19.2954 15.1885 19.6657 15.1885 20.1233V23.7779C15.1885 24.2355 15.5618 24.6088 16.0163 24.6088H19.674C20.1346 24.6088 20.5049 24.2355 20.5049 23.7779ZM19.0569 23.1608H16.6395V20.7434H19.0569V23.1608Z" fill="#808080"></path><path d="M12.3916 21.0596C12.3886 19.2835 10.9887 17.8354 9.26977 17.8354C7.55082 17.8354 6.15097 19.2805 6.14796 21.0596C6.14194 23.3355 8.15591 24.8738 8.77305 25.2892C8.92056 25.3916 9.09516 25.4428 9.26676 25.4428C9.4534 25.4428 9.63704 25.3856 9.79358 25.2652C10.4047 24.8106 12.3946 23.1639 12.3946 21.0656C12.3916 21.0626 12.3916 21.0626 12.3916 21.0596ZM9.2517 23.8473C8.65865 23.3746 7.59296 22.3481 7.59597 21.0626C7.59597 20.0842 8.34858 19.2835 9.26977 19.2835C9.73036 19.2835 10.1518 19.4821 10.4529 19.8043C10.7569 20.1294 10.9466 20.5719 10.9466 21.0626C10.9405 22.0681 10.0916 23.1338 9.2517 23.8473Z" fill="#808080"></path><path d="M8.74634 28.748L8.7373 29.5638C8.7373 29.6541 8.80956 29.7294 8.89987 29.7294L10.387 29.7414C10.4773 29.7414 10.5526 29.6692 10.5526 29.5789V29.1634V28.7601C10.5526 28.6697 10.4803 28.5975 10.39 28.5975L8.91492 28.5854C8.8216 28.5854 8.74935 28.6577 8.74634 28.748Z" fill="#808080"></path><path d="M9.72733 27.7938C9.81764 27.7938 9.8929 27.7216 9.8929 27.6312V26.2043C9.8929 26.114 9.82065 26.0417 9.73034 26.0417L8.9115 26.0327C8.82119 26.0327 8.74593 26.105 8.74593 26.1953L8.73389 27.6192C8.73389 27.7095 8.80614 27.7818 8.89645 27.7848L9.31189 27.7908L9.72733 27.7938Z" fill="#808080"></path><path d="M11.3985 29.1669L11.3955 29.5673C11.3955 29.6576 11.4678 29.7328 11.5581 29.7328L12.994 29.7449C13.0844 29.7449 13.1596 29.6726 13.1596 29.5823V29.1669V28.7635C13.1596 28.6732 13.0874 28.6009 12.9971 28.6009L11.5701 28.5889C11.4798 28.5889 11.4076 28.6611 11.4045 28.7514L11.3985 29.1669Z" fill="#808080"></path><path d="M14.0055 29.1669L14.0024 29.5673C14.0024 29.6576 14.0747 29.7328 14.165 29.7328L15.601 29.7449C15.6913 29.7449 15.7665 29.6726 15.7665 29.5823V29.1669V28.7635C15.7665 28.6732 15.6943 28.6009 15.604 28.6009L14.177 28.5889C14.0867 28.5889 14.0145 28.6611 14.0115 28.7514L14.0055 29.1669Z" fill="#808080"></path><path d="M16.6124 29.1669L16.6094 29.5673C16.6094 29.6576 16.6816 29.7328 16.7719 29.7328L18.2079 29.7449C18.2982 29.7449 18.3735 29.6726 18.3735 29.5823V29.1669V28.7635C18.3735 28.6732 18.3012 28.6009 18.2109 28.6009L16.784 28.5889C16.6937 28.5889 16.6214 28.6611 16.6184 28.7514L16.6124 29.1669Z" fill="#808080"></path><path d="M19.2193 29.1669L19.2163 29.5673C19.2163 29.6576 19.2886 29.7328 19.3789 29.7328L20.8148 29.7449C20.9052 29.7449 20.9804 29.6726 20.9804 29.5823V29.1669V28.7635C20.9804 28.6732 20.9082 28.6009 20.8179 28.6009L19.3909 28.5889C19.3006 28.5889 19.2284 28.6611 19.2253 28.7514L19.2193 29.1669Z" fill="#808080"></path><path d="M21.8263 29.1669L21.8232 29.5673C21.8232 29.6576 21.8955 29.7328 21.9858 29.7328L23.4218 29.7449C23.5121 29.7449 23.5873 29.6726 23.5873 29.5823V29.1669V28.7605C23.5873 28.6732 23.5151 28.6009 23.4278 28.6009L22.0009 28.5889C21.9105 28.5889 21.8353 28.6611 21.8353 28.7514L21.8263 29.1669Z" fill="#808080"></path><path d="M41.3251 22.4445C41.0331 20.7105 39.6091 19.3347 37.8661 19.0909C36.1953 18.856 34.6781 19.6418 33.8472 20.9122C33.3625 20.7616 32.8598 20.6593 32.339 20.6141V12.4288C32.339 11.9562 31.9567 11.5738 31.484 11.5738H25.8124V9.84284C25.8124 9.40031 25.4541 9.03906 25.0086 9.03906H23.0187C22.5792 9.03906 22.2179 9.3973 22.2179 9.84284V11.5738H13.3763V9.84284C13.3763 9.40031 13.0151 9.03906 12.5726 9.03906H10.5827C10.1432 9.03906 9.77889 9.3973 9.77889 9.84284V11.5738H4.22467C3.75203 11.5738 3.3667 11.9592 3.3667 12.4318V33.014C3.3667 33.4837 3.75203 33.869 4.22166 33.869H26.3211C27.8956 35.3682 30.1083 36.2021 32.5015 35.9341C36.3639 35.5006 39.3201 32.1561 39.3141 28.2696C39.3141 27.7669 39.2629 27.2762 39.1696 26.7975C40.6748 26.0118 41.6412 24.3169 41.3251 22.4445ZM31.6135 34.5343C30.605 34.5343 29.6537 34.2935 28.8108 33.869C28.0943 33.5108 27.4591 33.017 26.9323 32.421C25.9569 31.3162 25.3608 29.8651 25.3608 28.2817C25.3608 26.921 25.7973 25.6566 26.5439 24.63C27.0196 23.9707 27.6217 23.4078 28.314 22.9803C29.0787 22.4986 29.9547 22.1826 30.891 22.0772C31.1288 22.0471 31.3696 22.035 31.6165 22.035C31.8633 22.035 32.1042 22.0501 32.342 22.0772C32.6641 22.1133 32.9772 22.1765 33.2812 22.2608C33.215 22.5498 33.1789 22.8509 33.1789 23.1609C33.1789 23.4499 33.209 23.7329 33.2662 24.0039H32.342H30.894H28.2839H27.9528C27.6096 24.0039 27.3326 24.2808 27.3326 24.624V24.633V31.9484C27.3326 32.138 27.42 32.3126 27.5584 32.427C27.6668 32.5173 27.8023 32.5685 27.9528 32.5685H32.339H35.2771C35.6203 32.5685 35.8973 32.2915 35.8973 31.9484V27.0263C36.3278 27.1829 36.7944 27.2672 37.2821 27.2672C37.4507 27.2672 37.6193 27.2551 37.7818 27.234C37.842 27.5772 37.8721 27.9264 37.8721 28.2847C37.8661 31.7286 35.0604 34.5343 31.6135 34.5343ZM26.863 22.2247C26.4958 22.5107 26.1556 22.8298 25.8485 23.179H24.4426V20.7616H26.86L26.863 22.2247ZM34.7353 26.37V29.6424H32.336H30.888H28.4886V25.1568H30.2528V26.7132C30.2528 27.0564 30.5297 27.3334 30.8729 27.3334H30.888H32.336H32.354C32.6942 27.3334 32.9712 27.0564 32.9712 26.7162V25.1568H33.6967C33.9586 25.6295 34.3168 26.0419 34.7353 26.37ZM28.4917 30.8014H30.891H32.339H34.7383V31.4005H32.339H30.891H28.4917V30.8014ZM31.8122 25.1568V26.1744H31.4118V25.1568V24.8197H31.8122V25.1568ZM38.2454 25.9335C37.9865 26.0178 37.7096 26.066 37.4236 26.072C37.3935 26.075 37.3664 26.075 37.3363 26.075C36.7673 26.075 36.2345 25.9155 35.7829 25.6355C35.5421 25.488 35.3223 25.3074 35.1326 25.0966C35.0152 24.9702 34.9129 24.8377 34.8196 24.6902C34.6931 24.4885 34.5847 24.2718 34.5125 24.04C34.4132 23.745 34.356 23.4259 34.356 23.0947C34.356 22.9653 34.365 22.8388 34.3831 22.7154C34.4192 22.4294 34.4944 22.1615 34.6028 21.9056C34.7142 21.6557 34.8557 21.4209 35.0273 21.2132C35.5722 20.5449 36.403 20.1144 37.3333 20.1144C38.3086 20.1144 39.1726 20.581 39.7115 21.3065L39.3713 21.6467L37.6554 23.3656L37.3453 23.6757C37.2731 23.748 37.1587 23.748 37.0864 23.6757L36.0538 22.6311C35.9816 22.5589 35.8642 22.5589 35.7919 22.6281L35.1296 23.2814C35.0574 23.3536 35.0574 23.471 35.1266 23.5433L37.0744 25.5151C37.1466 25.5873 37.264 25.5873 37.3363 25.5151L38.405 24.4464L40.2624 22.589C40.2925 22.7515 40.3076 22.9201 40.3076 23.0917C40.3076 24.1273 39.7747 25.0425 38.9679 25.5723C38.7512 25.7318 38.5073 25.8492 38.2454 25.9335ZM23.669 10.4871H24.3644V11.5738V13.0218V13.4283H23.669V13.0218V11.5738V10.4871ZM11.2299 10.4871H11.9283V11.5738V13.0218V13.4283H11.2299V13.0218V11.5738V10.4871ZM9.7819 13.0218V14.0725C9.7819 14.515 10.1432 14.8763 10.5857 14.8763H12.5756C13.0181 14.8763 13.3794 14.515 13.3794 14.0725V13.0218H22.224V14.0725C22.224 14.515 22.5852 14.8763 23.0278 14.8763H25.0146C25.4572 14.8763 25.8184 14.518 25.8184 14.0725V13.0218H30.897V15.4001H4.81471V13.0218H9.7819ZM4.81471 32.418V16.8481H30.888V20.6141C29.9728 20.6984 29.1028 20.9453 28.311 21.3246V20.1385C28.311 19.6809 27.9408 19.3106 27.4832 19.3106H23.8255C23.3679 19.3106 22.9976 19.6809 22.9976 20.1385V23.7931C22.9976 24.2507 23.3709 24.624 23.8285 24.624H24.834C24.247 25.7108 23.9128 26.9571 23.9128 28.2756C23.9128 28.5315 23.9249 28.7814 23.952 29.0282C23.955 29.0794 23.961 29.1306 23.97 29.1788C24.1055 30.3589 24.5119 31.4577 25.129 32.415H4.81471V32.418Z" fill="#808080"></path></svg>