<svg xmlns="http://www.w3.org/2000/svg" width="44" height="43" viewBox="0 0 44 43" fill="none"><path d="M24.6882 21.2613L24.6891 21.2613L27.2083 21.2389H27.2088H32.0689H32.0694L34.0957 21.2613H34.0968H37.129C37.6261 21.2613 38.029 21.6642 38.029 22.1613V34.9462C38.029 35.4433 37.6261 35.8462 37.129 35.8462H20.9839C20.4868 35.8462 20.0839 35.4433 20.0839 34.9462V22.1613C20.0839 21.6642 20.4868 21.2613 20.9839 21.2613L24.6882 21.2613ZM40.8172 35.8462H40.4731C39.9761 35.8462 39.5731 35.4433 39.5731 34.9462V20.8172C39.5731 20.2097 39.0806 19.7172 38.4731 19.7172H19.6398C19.0323 19.7172 18.5398 20.2097 18.5398 20.8172V35.2742C18.5398 35.5901 18.2837 35.8462 17.9677 35.8462C17.6518 35.8462 17.3957 35.5901 17.3957 35.2742V17.457C17.3957 16.9599 17.7986 16.557 18.2957 16.557H18.3837C18.8885 16.557 19.3284 16.2135 19.4509 15.7238L19.7442 14.5505C19.8443 14.1499 20.2043 13.8688 20.6173 13.8688H23.3441C24.1406 13.8688 24.7882 13.2212 24.7882 12.4247V2.34409C24.7882 1.54758 24.1406 0.9 23.3441 0.9H5.87096C5.07445 0.9 4.42687 1.54758 4.42687 2.34409V12.4247C4.42687 13.2212 5.07445 13.8688 5.87096 13.8688H8.59773C9.01072 13.8688 9.3707 14.1499 9.47086 14.5505L9.76417 15.7238C9.88659 16.2135 10.3266 16.557 10.8313 16.557H10.9193C11.4164 16.557 11.8193 16.9599 11.8193 17.457V34.9462C11.8193 35.4433 11.4164 35.8462 10.9193 35.8462H3.18279C2.01613 35.8462 1.06666 36.7957 1.06666 37.9624C1.06666 39.129 2.01613 40.0785 3.18279 40.0785C3.28148 40.0785 3.36399 40.1356 3.41207 40.224C3.46062 40.3134 3.46853 40.426 3.42227 40.5217C3.20656 40.9677 3.08279 41.4657 3.08279 41.9946C3.08279 42.421 3.42844 42.7667 3.85483 42.7667H40.1452C40.5715 42.7667 40.9172 42.421 40.9172 41.9946C40.9172 41.4657 40.7934 40.9677 40.5777 40.5217C40.5315 40.426 40.5394 40.3134 40.5879 40.224C40.636 40.1356 40.7185 40.0785 40.8172 40.0785C41.9839 40.0785 42.9333 39.129 42.9333 37.9624C42.9333 36.7957 41.9839 35.8462 40.8172 35.8462ZM6.87096 2.44409H22.3441C22.8412 2.44409 23.2441 2.84699 23.2441 3.34403L23.2447 11.4247C23.2447 11.9218 22.8417 12.3247 22.3447 12.3247H6.87096C6.3739 12.3247 5.97096 11.9218 5.97096 11.4247V3.34409C5.97096 2.84703 6.3739 2.44409 6.87096 2.44409ZM11.6247 13.8688H17.5904C17.9625 13.8688 18.2356 14.2186 18.1453 14.5796C18.0817 14.8343 17.8528 15.0129 17.5904 15.0129H11.6247C11.3622 15.0129 11.1334 14.8343 11.0697 14.5796C10.9795 14.2186 11.2525 13.8688 11.6247 13.8688ZM14.2634 16.557H14.9516C15.4487 16.557 15.8516 16.9599 15.8516 17.457V34.9462C15.8516 35.4433 15.4487 35.8462 14.9516 35.8462H14.2634C13.7664 35.8462 13.3634 35.4433 13.3634 34.9462V17.457C13.3634 16.9599 13.7664 16.557 14.2634 16.557ZM37.9423 41.2226H6.05769C5.74557 41.2226 5.49946 41.0599 5.39758 40.8716C5.34719 40.7785 5.33328 40.6823 5.35739 40.5947C5.3813 40.5079 5.4461 40.4169 5.57705 40.3402C5.86077 40.1739 6.19078 40.0785 6.543 40.0785H37.457C37.8092 40.0785 38.1392 40.1739 38.4229 40.3402C38.5539 40.4169 38.6187 40.5079 38.6426 40.5947C38.6667 40.6823 38.6528 40.7785 38.6024 40.8716C38.5005 41.0599 38.2544 41.2226 37.9423 41.2226ZM40.8172 38.5344H3.18279C2.8678 38.5344 2.61074 38.2779 2.61074 37.9624C2.61074 37.6469 2.8678 37.3903 3.18279 37.3903H40.8172C41.1322 37.3903 41.3892 37.6469 41.3892 37.9624C41.3892 38.2779 41.1322 38.5344 40.8172 38.5344Z" fill="white" stroke="white" stroke-width="0.2"></path><path d="M21.3056 30.7612H21.2056V30.8612V32.2501V32.3501H21.3056H22.6944H22.7944V32.2501V30.8612V30.7612H22.6944H21.3056Z" fill="white" stroke="white" stroke-width="0.2"></path><path d="M24.0833 30.7612H23.9833V30.8612V32.2501V32.3501H24.0833H31.0278H31.1278V32.2501V30.8612V30.7612H31.0278H24.0833Z" fill="white" stroke="white" stroke-width="0.2"></path><path d="M21.3056 33.5389H21.2056V33.6389V35.0278V35.1278H21.3056H22.6944H22.7944V35.0278V33.6389V33.5389H22.6944H21.3056Z" fill="white" stroke="white" stroke-width="0.2"></path><path d="M24.0833 33.5389H23.9833V33.6389V35.0278V35.1278H24.0833H31.0278H31.1278V35.0278V33.6389V33.5389H31.0278H24.0833Z" fill="white" stroke="white" stroke-width="0.2"></path></svg>