<svg xmlns="http://www.w3.org/2000/svg" width="40" height="44" viewBox="0 0 40 44" fill="none"><path d="M6.53689 14.586H7.77208V15.0124C7.77208 15.0446 7.79623 15.0688 7.82841 15.0688H7.90083H8.99521C9.02337 15.0688 9.05153 15.0446 9.05153 15.0124V14.586H9.35731H9.44583H10.2988C10.3431 14.586 10.3752 14.5538 10.3752 14.5095V11.7173C10.3752 11.673 10.3431 11.6408 10.2988 11.6408H9.44583H9.35731H7.90083H7.7399V11.2505H7.90083H9.35731H9.44583H10.2988C10.3431 11.2505 10.3752 11.2143 10.3752 11.1741V10.0475C10.3752 10.0033 10.3431 9.97109 10.2988 9.97109H9.44583H9.35731H9.05153V9.53656C9.05153 9.51242 9.02739 9.48828 9.00325 9.48828H7.90083H7.82037C7.7922 9.48828 7.77208 9.51242 7.77208 9.53656V9.97109H6.53689C6.49666 9.97109 6.46045 10.0033 6.46045 10.0475V12.8438C6.46045 12.8841 6.49666 12.9162 6.53689 12.9162H7.90083H9.09579V13.3065H7.90083H6.53689C6.49666 13.3065 6.46045 13.3427 6.46045 13.383V14.5095C6.46045 14.5538 6.49666 14.586 6.53689 14.586Z" fill="white"></path><path d="M5.60758 22.9746H3.74474C3.68438 22.9746 3.63208 23.0269 3.63208 23.0873V24.9501C3.63208 25.0105 3.68438 25.0587 3.74474 25.0587H5.60758C5.66793 25.0587 5.71621 25.0105 5.71621 24.9501V23.0873C5.71621 23.0269 5.66793 22.9746 5.60758 22.9746Z" fill="white"></path><path d="M9.35744 25.0587H9.44595H9.63908C9.69943 25.0587 9.74771 25.0105 9.74771 24.9501V23.0873C9.74771 23.0269 9.69943 22.9746 9.63908 22.9746H9.44595H9.35744H7.90096H7.77623C7.71588 22.9746 7.66357 23.0269 7.66357 23.0873V24.9501C7.66357 25.0105 7.71588 25.0587 7.77623 25.0587H7.90096H9.35744Z" fill="white"></path><path d="M11.7834 25.0587H13.6463C13.7066 25.0587 13.7589 25.0105 13.7589 24.9501V23.0873C13.7589 23.0269 13.7066 22.9746 13.6463 22.9746H11.7834C11.7231 22.9746 11.6748 23.0269 11.6748 23.0873V24.9501C11.6748 25.0105 11.7231 25.0587 11.7834 25.0587Z" fill="white"></path><path d="M34.3871 6.36119V1.64976C34.3871 1.03418 33.8841 0.53125 33.2686 0.53125H7.01169C6.39208 0.53125 5.88915 1.03418 5.88915 1.64976V7.00494C3.9217 7.94642 2.56178 9.95411 2.56178 12.2797C2.56178 14.6012 3.9217 16.6089 5.88915 17.5503V19.4373H0.896082C0.437412 19.4373 0.0632324 19.8115 0.0632324 20.2702V27.7417C0.0632324 28.2003 0.437412 28.5745 0.896082 28.5745H5.88915V42.1858C5.88915 42.8014 6.39208 43.3043 7.01169 43.3043H33.2686C33.8841 43.3043 34.3871 42.8014 34.3871 42.1858V21.8675C37.4851 20.7288 39.7101 17.6831 39.7101 14.1143C39.7101 10.5496 37.4851 7.50385 34.3871 6.36119ZM37.5696 11.4709H36.1896C35.7993 10.1352 35.1435 9.0247 34.4152 8.12345C35.8194 8.80744 36.946 9.99837 37.5696 11.4709ZM32.4035 7.9947C33.1197 8.67466 33.856 9.55579 34.3871 10.6622C34.5118 10.9197 34.6245 11.1893 34.725 11.4709H34.3871H32.4035V7.9947ZM32.4035 12.8631H34.3871H35.0791C35.2199 13.7361 35.1958 14.6173 35.0147 15.5064H34.3871H32.4035V12.8631ZM4.29185 12.2797C4.29185 10.9559 4.91548 9.78111 5.88915 9.02872C6.46048 8.58212 7.14848 8.28439 7.90086 8.19185C8.06985 8.17174 8.23883 8.15966 8.41184 8.15966C8.73774 8.15966 9.05559 8.19588 9.35734 8.27232C9.38953 8.27634 9.4177 8.28439 9.44586 8.29244C10.2304 8.49763 10.9265 8.92814 11.4576 9.51154C11.4898 9.54775 11.5219 9.58396 11.5501 9.62017C12.1617 10.3363 12.5278 11.2657 12.5278 12.2797C12.5278 13.2895 12.1617 14.2189 11.5501 14.9351C11.5219 14.9713 11.4898 15.0075 11.4576 15.0437C10.9265 15.6271 10.2304 16.0577 9.44586 16.2628C9.4177 16.2709 9.38953 16.2789 9.35734 16.283C9.05559 16.3594 8.73774 16.3956 8.41184 16.3956C8.23883 16.3956 8.06985 16.3835 7.90086 16.3634C7.14848 16.2709 6.46048 15.9732 5.88915 15.5266C4.91548 14.7782 4.29185 13.5993 4.29185 12.2797ZM11.5501 32.0306V28.5745H14.2539L18.0158 31.3024L18.4302 31.6001L19.3234 31.1374V28.5745H23.1094C23.5681 28.5745 23.9463 28.1963 23.9463 27.7377V20.2662L23.9423 20.1294C23.9302 19.7431 23.6123 19.4373 23.2261 19.4373H11.5501V17.2083C13.1756 16.1703 14.2579 14.3477 14.2579 12.2797C14.2579 11.3784 14.0527 10.5254 13.6865 9.76099H24.8878C24.1153 11.0243 23.6646 12.517 23.6646 14.1143C23.6646 17.5825 25.7649 20.5558 28.7261 21.7629V32.0306H11.5501ZM28.7261 34.2274V35.8207H11.5501V34.2274H28.7261ZM25.3907 12.8631H26.8391C26.7184 13.7884 26.7506 14.6736 26.8955 15.5064H25.4148C25.3223 15.0558 25.274 14.5931 25.274 14.1143C25.274 13.6879 25.3142 13.2654 25.3907 12.8631ZM25.8051 11.4709C26.3965 10.0829 27.4306 8.94021 28.7261 8.24416V8.36084C28.0743 9.2138 27.499 10.2518 27.1369 11.4709H25.8051ZM25.8695 16.8985H27.2415C27.6156 18.0573 28.1749 19.0631 28.7261 19.8759V19.9885C27.4748 19.3126 26.4649 18.2263 25.8695 16.8985ZM28.3157 15.5064C28.1347 14.6173 28.1105 13.7361 28.2513 12.8631H28.7261H28.8186H30.8304H30.9229V15.5064H30.8304H28.8186H28.7261H28.3157ZM28.7261 16.8985H28.8186H30.8304H30.9229H30.9672V20.4673C30.9511 20.4512 30.935 20.4351 30.9229 20.419C30.8907 20.3869 30.8625 20.3547 30.8304 20.3185C30.4039 19.8316 29.8326 19.1034 29.3336 18.2021C29.1365 17.8481 28.9635 17.49 28.8186 17.1359C28.7865 17.0595 28.7543 16.983 28.7261 16.9066V16.8985ZM30.9229 11.4709H30.8304H28.8186H28.7261H28.6054C28.6416 11.3583 28.6819 11.2497 28.7261 11.141C28.7543 11.0686 28.7865 10.9962 28.8186 10.9238C29.3336 9.74489 30.086 8.80341 30.8304 8.08322C30.8625 8.05103 30.8947 8.02287 30.9229 7.9947V11.4709ZM28.7261 6.4658C27.9536 6.77963 27.2455 7.21818 26.6098 7.74928H12.1053C11.9283 7.60443 11.7432 7.46764 11.5501 7.34693V6.16002H28.7261V6.4658ZM9.35734 18.0452V19.4373H7.90086V18.1015C8.06985 18.1176 8.23883 18.1257 8.41184 18.1257C8.73371 18.1257 9.04754 18.0975 9.35734 18.0452ZM5.88915 26.9652H1.6726V21.0467H5.88915H7.90086H9.35734H9.44586H11.4576H11.5501H22.3369V26.9652H18.5348L17.714 26.9853V29.0976L15.0223 27.1462L14.789 26.9652H11.5501H11.4576H9.44586H9.35734H7.90086H5.88915ZM32.3754 41.2926H7.90086V28.5745H9.35734V36.6898C9.35734 37.418 9.94879 38.0135 10.681 38.0135H29.5952C30.3274 38.0135 30.9229 37.418 30.9229 36.6898V22.3101C31.1724 22.3382 31.4299 22.3503 31.6874 22.3503C31.9207 22.3503 32.15 22.3382 32.3754 22.3181V41.2926ZM32.3754 5.91459C32.15 5.89448 31.9207 5.88241 31.6874 5.88241C31.4299 5.88241 31.1724 5.89448 30.9229 5.92264V5.17428C30.9229 4.50639 30.3797 3.96726 29.7159 3.96726H10.5644C9.89648 3.96726 9.35734 4.50639 9.35734 5.17428V6.51006C9.04754 6.45776 8.73371 6.42959 8.41184 6.42959C8.23883 6.42959 8.06985 6.43764 7.90086 6.45373V2.54296H32.3754V5.91459ZM33.9968 18.2021C33.4577 19.1718 32.8421 19.9403 32.4035 20.4271V16.8985H34.3871H34.6084C34.54 17.0756 34.4675 17.2486 34.3871 17.4256C34.2704 17.6831 34.1416 17.9446 33.9968 18.2021ZM34.4555 20.0891C35.055 19.2442 35.6746 18.1619 36.089 16.8985H37.5052C36.8776 18.2947 35.7953 19.4253 34.4555 20.0891ZM36.431 15.5064C36.5758 14.6776 36.612 13.7925 36.4873 12.8631H37.984C38.0605 13.2654 38.1007 13.6879 38.1007 14.1143C38.1007 14.5931 38.0524 15.0558 37.9599 15.5064H36.431Z" fill="white"></path><path d="M22.337 38.9707H17.9394C17.863 38.9707 17.7986 39.0351 17.7986 39.1115V40.3226C17.7986 40.399 17.863 40.4634 17.9394 40.4634H22.341C22.4175 40.4634 22.4818 40.399 22.4818 40.3226V39.1115C22.4778 39.0311 22.4175 38.9707 22.337 38.9707Z" fill="white"></path></svg>