<svg xmlns="http://www.w3.org/2000/svg" width="48" height="45" viewBox="0 0 48 45" fill="none"><path d="M45.8159 4.55443H31.497C30.0262 1.85873 27.3662 0.0928952 24.2503 0.00348574C21.9749 -0.0635714 19.6636 0.839465 17.9648 2.48907C17.3345 3.10152 16.8025 3.79892 16.3823 4.55443H2.18854C1.37045 4.55443 0.704346 5.22053 0.704346 6.03862V36.6614C0.704346 37.4795 1.37045 38.1456 2.18854 38.1456H20.4281L19.601 41.9186H13.396C13.2574 41.9186 13.1412 42.0304 13.1412 42.1735V44.1271C13.1412 44.2656 13.253 44.3819 13.396 44.3819H34.6218C34.7604 44.3819 34.8766 44.2701 34.8766 44.1271V42.1735C34.8766 42.0349 34.7649 41.9186 34.6218 41.9186H29.065L28.1754 38.1456H45.8114C46.6295 38.1456 47.2956 37.4795 47.2956 36.6614V6.03862C47.3001 5.22053 46.634 4.55443 45.8159 4.55443ZM40.5944 10.6298V32.0702H35.5606V14.0855C35.5606 13.2674 34.8945 12.6013 34.0764 12.6013H31.9887C32.2659 11.8592 32.4358 11.1976 32.5431 10.6298H40.5944ZM7.41006 32.0702V10.6298H15.4703C15.5866 11.3004 15.7609 11.9575 15.9844 12.6013H13.928C13.1099 12.6013 12.4438 13.2674 12.4438 14.0855V32.0702H7.41006ZM19.3909 4.55443C19.4803 4.45161 19.5787 4.35326 19.677 4.25491C20.8617 3.10599 22.4308 2.45778 24.0089 2.45778H24.1788C25.8955 2.50695 27.4199 3.28928 28.5107 4.55443C29.1097 5.24735 29.5836 6.07886 29.8787 7.01319C30.0038 7.38424 30.0977 7.77317 30.1603 8.17104C30.1916 8.37668 30.2184 8.58679 30.2363 8.79691C30.2855 9.38254 30.2229 9.99946 30.0709 10.6298C29.9189 11.278 29.673 11.9396 29.3601 12.6013C28.9711 13.4373 28.4839 14.2688 27.9519 15.06C26.5616 17.1299 24.8851 18.9494 23.9553 19.8971C22.9986 18.9941 21.2909 17.2416 19.9095 15.06C19.4222 14.2866 18.9707 13.4596 18.6131 12.6013C18.3448 11.962 18.1258 11.3004 17.9783 10.6298C17.8352 9.99499 17.7547 9.34677 17.7547 8.69409C17.7547 8.51974 17.7637 8.34539 17.7816 8.17104C17.8128 7.77764 17.8888 7.38871 18.0051 7.01319C18.2688 6.11462 18.7427 5.26523 19.3909 4.55443ZM14.9026 15.06H17.0618C19.0646 18.8197 22.1716 21.6361 23.0209 22.3693C23.2981 22.6107 23.6423 22.7269 23.9821 22.7269C24.3532 22.7269 24.7197 22.5883 25.0058 22.3156C27.8938 19.5573 29.7132 17.1075 30.8532 15.06H33.1019V32.0702H14.9026V15.06ZM26.5392 41.9186H22.1134L22.9405 38.1456H25.6496L26.5392 41.9186ZM44.8413 35.6868H3.16311V7.01319H15.4703C15.3899 7.39318 15.3362 7.78211 15.3183 8.17104H6.43549C5.6174 8.17104 4.9513 8.83714 4.9513 9.65524V33.0448C4.9513 33.8628 5.6174 34.5289 6.43549 34.5289H13.928H34.0764H41.5689C42.387 34.5289 43.0531 33.8628 43.0531 33.0448V9.65524C43.0531 8.83714 42.387 8.17104 41.5689 8.17104H32.6459C32.5967 7.77764 32.5252 7.38871 32.4358 7.01319H44.8413V35.6868Z" fill="#EEF7FC"></path><path d="M21.1657 12.6011C21.9391 13.227 22.9226 13.5981 23.9955 13.5981C25.0639 13.5981 26.0474 13.227 26.8208 12.6011C27.4601 12.087 27.9563 11.4075 28.2424 10.6297C28.4168 10.1424 28.5151 9.6238 28.5151 9.0784C28.5151 8.76994 28.4838 8.46595 28.4213 8.1709C28.3408 7.76408 28.2022 7.37515 28.0144 7.01304C27.2634 5.55567 25.7434 4.55428 23.9955 4.55428C22.2431 4.55428 20.7231 5.55567 19.9765 7.01304C19.7843 7.37515 19.6457 7.76408 19.5653 8.1709C19.5027 8.46595 19.4714 8.76994 19.4714 9.0784C19.4714 9.6238 19.5697 10.1424 19.7485 10.6297C20.0347 11.4075 20.5264 12.087 21.1657 12.6011ZM23.9955 7.01304C24.8046 7.01304 25.511 7.48691 25.8463 8.1709C25.9804 8.4436 26.0564 8.75206 26.0564 9.0784C26.0564 9.69533 25.7837 10.2497 25.35 10.6297C24.9879 10.9471 24.5141 11.1393 23.9955 11.1393C23.4724 11.1393 22.9986 10.9471 22.6365 10.6297C22.2028 10.2497 21.9301 9.69533 21.9301 9.0784C21.9301 8.75206 22.0061 8.4436 22.1447 8.1709C22.4755 7.48691 23.1819 7.01304 23.9955 7.01304Z" fill="#EEF7FC"></path><path d="M18.9752 27.2108H16.874C16.3599 27.2108 15.9442 27.6265 15.9442 28.1406V30.2418C15.9442 30.7559 16.3599 31.1716 16.874 31.1716H18.9752C19.4893 31.1716 19.905 30.7559 19.905 30.2418V28.1406C19.905 27.6265 19.4893 27.2108 18.9752 27.2108ZM18.5058 29.7724H17.3479V28.6145H18.5058V29.7724Z" fill="#EEF7FC"></path><path d="M29.3556 29.6788H24.7376C24.59 29.6788 24.4693 29.7995 24.4693 29.947V30.8724C24.4693 31.02 24.59 31.1407 24.7376 31.1407H29.3556C29.5031 31.1407 29.6238 31.02 29.6238 30.8724V29.947C29.6238 29.7995 29.5031 29.6788 29.3556 29.6788Z" fill="#EEF7FC"></path><path d="M31.5149 29.6788H30.509C30.3615 29.6788 30.2408 29.7995 30.2408 29.947V30.8724C30.2408 31.02 30.3615 31.1407 30.509 31.1407H31.5149C31.6624 31.1407 31.7831 31.02 31.7831 30.8724V29.947C31.7831 29.7995 31.6669 29.6788 31.5149 29.6788Z" fill="#EEF7FC"></path><path d="M31.5148 27.4391H24.7376C24.59 27.4391 24.4693 27.5598 24.4693 27.7073V28.6327C24.4693 28.7802 24.59 28.9009 24.7376 28.9009H31.5193C31.6668 28.9009 31.7875 28.7802 31.7875 28.6327V27.7073C31.783 27.5598 31.6668 27.4391 31.5148 27.4391Z" fill="#EEF7FC"></path><path d="M38.5111 41.9187H36.4771C36.3385 41.9187 36.2223 42.0305 36.2223 42.1735V44.1271C36.2223 44.2657 36.334 44.3819 36.4771 44.3819H38.5111C38.6497 44.3819 38.766 44.2702 38.766 44.1271V42.1735C38.766 42.0305 38.6542 41.9187 38.5111 41.9187Z" fill="#EEF7FC"></path><path d="M11.5273 41.9187H9.49328C9.3547 41.9187 9.23846 42.0305 9.23846 42.1735V44.1271C9.23846 44.2657 9.35023 44.3819 9.49328 44.3819H11.5273C11.6659 44.3819 11.7822 44.2702 11.7822 44.1271V42.1735C11.7822 42.0305 11.6704 41.9187 11.5273 41.9187Z" fill="#EEF7FC"></path></svg>