<svg xmlns="http://www.w3.org/2000/svg" width="55" height="46" viewBox="0 0 55 46" fill="none"><path d="M13.5007 14.9434H8.39093C7.75612 14.9434 7.23755 15.4619 7.23755 16.0967V21.2065C7.23755 21.8413 7.75612 22.3599 8.39093 22.3599H13.5007C14.14 22.3599 14.6541 21.8413 14.6541 21.2065V16.0967C14.6541 15.4619 14.14 14.9434 13.5007 14.9434ZM12.6423 20.3482H9.24926V16.9551H12.6423V20.3482Z" fill="white"></path><path d="M19.4376 22.3599H24.5518C25.1866 22.3599 25.7052 21.8413 25.7052 21.2065V16.0967C25.7052 15.4619 25.1866 14.9434 24.5518 14.9434H19.4376C18.8028 14.9434 18.2842 15.4619 18.2842 16.0967V21.2065C18.2842 21.8413 18.8028 22.3599 19.4376 22.3599ZM20.2959 16.9551H23.6935V20.3482H20.2959V16.9551Z" fill="white"></path><path d="M35.3478 22.3599C35.9827 22.3599 36.5012 21.8413 36.5012 21.2065V16.0967C36.5012 15.4619 35.9827 14.9434 35.3478 14.9434H30.2381C29.6033 14.9434 29.0847 15.4619 29.0847 16.0967V21.2065C29.0847 21.8413 29.6033 22.3599 30.2381 22.3599H35.3478ZM31.0964 16.9551H34.4895V20.3482H31.0964V16.9551Z" fill="white"></path><path d="M43.9625 21.0959C43.9133 21.0914 43.8641 21.0825 43.815 21.0825V5.39113C43.815 4.59539 43.1712 3.95164 42.3755 3.95164H33.8011V1.51076C33.8011 0.893835 33.2959 0.388672 32.679 0.388672H29.6972C29.0803 0.388672 28.5751 0.893835 28.5751 1.51076V3.95164H15.1637V1.51076C15.1637 0.893835 14.663 0.388672 14.0416 0.388672H11.0643C10.4429 0.388672 9.9422 0.893835 9.9422 1.51076V3.95164H1.53324C0.741968 3.95164 0.09375 4.59539 0.09375 5.39113V37.8781C0.09375 38.6738 0.741968 39.3175 1.53324 39.3175H31.767C31.8967 39.5411 32.0308 39.7646 32.1694 39.9836C34.4493 43.56 38.3386 45.6924 42.5722 45.6924C49.3762 45.6924 54.9107 40.158 54.9107 33.3539C54.9107 27.0595 50.1988 21.7888 43.9625 21.0959ZM30.5868 2.40038H31.7894V6.96474H30.5868V2.40038ZM11.9539 2.40038H13.152V6.96474H11.9539V2.40038ZM2.57933 6.43722H9.9422V7.85436C9.9422 8.47576 10.4429 8.97645 11.0643 8.97645H14.0416C14.663 8.97645 15.1637 8.47576 15.1637 7.85436V6.43722H28.5751V7.85436C28.5751 8.47576 29.0803 8.97645 29.6972 8.97645H32.679C33.2959 8.97645 33.8011 8.47576 33.8011 7.85436V6.43722H41.3294V9.68278H2.57933V6.43722ZM2.57933 36.832V12.1684H41.3294V21.0825C41.2802 21.087 41.2355 21.0914 41.1908 21.0959C34.9456 21.7888 30.2337 27.0595 30.2337 33.3539C30.2337 34.5386 30.4036 35.7143 30.7388 36.832H2.57933ZM42.5722 43.2069C39.4652 43.2069 36.5907 41.7674 34.7354 39.3175C34.5656 39.103 34.4091 38.8794 34.2616 38.647C33.895 38.0748 33.591 37.4668 33.3585 36.832C33.3094 36.7023 33.2647 36.5727 33.22 36.4386C32.8891 35.4461 32.7193 34.409 32.7193 33.3539C32.7193 28.3783 36.4029 24.2029 41.3294 23.5815C41.3786 23.577 41.4277 23.5681 41.4769 23.5636C41.8256 23.5234 42.1922 23.501 42.5722 23.501C42.9522 23.501 43.3187 23.5234 43.6764 23.5636C43.7211 23.5681 43.7703 23.5725 43.815 23.5815C48.737 24.1984 52.4251 28.3738 52.4251 33.3539C52.4251 38.7856 48.0038 43.2069 42.5722 43.2069Z" fill="white"></path><path d="M13.5007 26.0898H8.39093C7.75612 26.0898 7.23755 26.6084 7.23755 27.2432V32.3574C7.23755 32.9923 7.75612 33.5108 8.39093 33.5108H13.5007C14.14 33.5108 14.6541 32.9923 14.6541 32.3574V27.2432C14.6541 26.6084 14.14 26.0898 13.5007 26.0898ZM12.6423 31.4991H9.24926V28.1016H12.6423V31.4991Z" fill="white"></path><path d="M20.7295 30.7781L18.7893 28.8111L17.3542 30.2193L19.8622 32.7675C20.0812 32.9955 20.3942 33.1296 20.716 33.1296C21.029 33.1296 21.324 33.0089 21.5565 32.7854L26.8093 27.6264L25.4011 26.1914L20.7295 30.7781Z" fill="white"></path><path d="M50.4088 37.296L49.6935 34.5958C49.6488 34.426 49.4745 34.3366 49.3091 34.3902L46.524 35.3871C46.3675 35.4452 46.287 35.6106 46.3452 35.7671L46.5195 36.2499C46.5732 36.4019 46.7386 36.4824 46.895 36.4287L47.6997 36.1426C46.7386 37.7743 45.3974 38.8964 43.94 39.3122C43.7612 39.3614 43.5824 39.4016 43.4036 39.4329V32.9552H43.94H45.9115C46.1976 32.9552 46.4301 32.7227 46.4301 32.4366V31.8733C46.4301 31.5872 46.1976 31.3547 45.9115 31.3547H43.94H43.4036V29.4816C43.5958 29.4101 43.7791 29.3073 43.94 29.1866C44.329 28.896 44.624 28.4758 44.7492 28.0019C45.004 27.0363 44.6285 26.1332 43.94 25.6191C43.4215 25.2213 42.7241 25.0514 41.9954 25.2481C41.8255 25.2928 41.6601 25.3598 41.5081 25.4448C40.9985 25.7264 40.6095 26.2137 40.4531 26.7904C40.1714 27.8633 40.6721 28.8602 41.5081 29.3386C41.602 29.3922 41.7003 29.4369 41.8032 29.4771V31.3547H41.5081H39.2908C39.0046 31.3547 38.7722 31.5872 38.7722 31.8733V32.4366C38.7722 32.7227 39.0046 32.9552 39.2908 32.9552H41.5081H41.8032V39.4195C41.7048 39.4061 41.6065 39.3837 41.5081 39.3658C39.8317 38.9948 38.3832 37.8235 37.4221 36.0532L38.1284 36.3036C38.267 36.3527 38.4235 36.2812 38.4771 36.1382L38.6649 35.6106C38.7141 35.472 38.6425 35.3156 38.4995 35.2619L35.6697 34.2516C35.5177 34.198 35.3523 34.2829 35.312 34.4394L34.5833 37.1842C34.5476 37.3318 34.6325 37.4793 34.78 37.5195L35.3165 37.6626C35.464 37.7028 35.6116 37.6134 35.6518 37.4704L35.8887 36.5718C36.6442 38.0649 37.6859 39.2362 38.9197 40.0096C40.0373 40.7159 41.3159 41.0914 42.6794 41.0914C43.0951 41.0914 43.5109 41.0467 43.9177 40.9618C45.992 40.5371 47.8741 39.0574 49.1437 36.84L49.3404 37.5821C49.3851 37.7386 49.546 37.8325 49.7025 37.7878L50.2032 37.6581C50.3596 37.6134 50.4535 37.4525 50.4088 37.296ZM42.6034 28.0198C42.2547 28.0198 41.973 27.7426 41.973 27.3939C41.973 27.0497 42.2547 26.768 42.6034 26.768C42.9476 26.768 43.2292 27.0497 43.2292 27.3939C43.2292 27.7426 42.9476 28.0198 42.6034 28.0198Z" fill="white"></path></svg>