<svg xmlns="http://www.w3.org/2000/svg" width="38" height="50" viewBox="0 0 38 50" fill="none"><path d="M36.0483 49.5017H1.95197C1.13387 49.5017 0.467773 48.8356 0.467773 48.0175V1.96271C0.467773 1.14462 1.13387 0.478516 1.95197 0.478516H25.3638C25.7393 0.478516 26.097 0.6171 26.3742 0.871917L37.0586 10.7517C37.3626 11.0333 37.5369 11.4312 37.5369 11.8425V48.0175C37.5369 48.8356 36.8708 49.5017 36.0483 49.5017ZM2.92653 47.043H35.0782V12.2672L24.9838 2.93728H2.92653V47.043Z" fill="white"></path><path d="M7.5442 12.9607H5.43861C5.27767 12.9607 5.14355 12.8311 5.14355 12.6657V10.797C5.14355 10.6361 5.2732 10.502 5.43861 10.502H7.5442C7.70514 10.502 7.83925 10.6316 7.83925 10.797V12.6657C7.83478 12.8311 7.70514 12.9607 7.5442 12.9607Z" fill="white"></path><path d="M19.0559 12.9607H9.27454C9.11361 12.9607 8.97949 12.8311 8.97949 12.6657V10.797C8.97949 10.6361 9.10914 10.502 9.27454 10.502H19.0559C19.2169 10.502 19.351 10.6316 19.351 10.797V12.6657C19.351 12.8311 19.2169 12.9607 19.0559 12.9607Z" fill="white"></path><path d="M16.839 6.3125H18.9446C19.1055 6.3125 19.2396 6.44214 19.2396 6.60755V8.47621C19.2396 8.63715 19.11 8.77126 18.9446 8.77126H16.839C16.6781 8.77126 16.5439 8.64162 16.5439 8.47621V6.60755C16.5484 6.44661 16.6781 6.3125 16.839 6.3125Z" fill="white"></path><path d="M5.32728 6.3125H15.1087C15.2696 6.3125 15.4037 6.44214 15.4037 6.60755V8.47621C15.4037 8.63715 15.2741 8.77126 15.1087 8.77126H5.32728C5.16634 8.77126 5.03223 8.64162 5.03223 8.47621V6.60755C5.03223 6.44661 5.16634 6.3125 5.32728 6.3125Z" fill="white"></path><path d="M36.3072 12.9598H25.739C24.9075 12.9598 24.2324 12.2847 24.2324 11.4532V1.70312H26.6912V10.4965H36.3027L36.3072 12.9598Z" fill="white"></path><path d="M14.8808 25.6298V28.0841C14.8808 28.2406 15.0104 28.3702 15.1669 28.3702H26.4235C26.58 28.3702 26.7097 28.4999 26.7097 28.6563V40.0471C26.7097 40.1991 26.5889 40.3243 26.4325 40.3243H21.0411C20.8891 40.3243 20.7639 40.445 20.7639 40.6014V42.2198C20.7639 42.3718 20.6432 42.4969 20.4868 42.4969H16.5706C16.4142 42.4969 16.2845 42.3673 16.2845 42.2108V40.6149C16.2845 40.4584 16.1549 40.3288 15.9984 40.3288H10.6875C10.531 40.3288 10.4014 40.1991 10.4014 40.0426V36.1265C10.4014 35.9745 10.5221 35.8493 10.6785 35.8493H21.962C22.114 35.8493 22.2392 35.7286 22.2392 35.5722L22.2347 33.1179C22.2347 32.9614 22.1051 32.8318 21.9486 32.8318H10.6875C10.531 32.8318 10.4014 32.7021 10.4014 32.5457V21.1549C10.4014 21.0029 10.5221 20.8777 10.6785 20.8777H16.0163C16.1683 20.8777 16.2934 20.757 16.2934 20.6006V18.9822C16.2934 18.8303 16.4142 18.7051 16.5706 18.7051H20.4868C20.6432 18.7051 20.7729 18.8347 20.7729 18.9912V20.5871C20.7729 20.7436 20.9025 20.8733 21.059 20.8733H26.428C26.5845 20.8733 26.7141 21.0029 26.7141 21.1594V25.0755C26.7141 25.2275 26.5934 25.3527 26.437 25.3527H15.1535C15.0015 25.3527 14.8808 25.4734 14.8808 25.6298Z" fill="white"></path></svg>