<svg xmlns="http://www.w3.org/2000/svg" width="55" height="38" viewBox="0 0 55 38" fill="none"><path d="M50.441 0.40719L49.3591 1.69021C49.2742 1.78857 49.2876 1.94056 49.3904 2.0255L50.1146 2.63796C50.2845 2.78101 50.1862 3.05371 49.9626 3.05371H28.8039C28.6742 3.05371 28.567 3.161 28.5714 3.29064L28.5848 4.97601C28.5848 5.10566 28.6921 5.21295 28.8218 5.21295H49.9179C50.1325 5.21295 50.2398 5.4767 50.0789 5.62423L49.3859 6.25904C49.2921 6.34845 49.2831 6.49597 49.3725 6.59432L50.5214 7.84159C50.6109 7.93994 50.7584 7.94441 50.8567 7.855L54.8533 4.18027C54.9562 4.08639 54.9517 3.91651 54.8444 3.8271L50.7718 0.380366C50.6734 0.295427 50.5259 0.308839 50.441 0.40719Z" fill="white"></path><path d="M22.1564 5.19604L23.7837 5.21393C23.9178 5.21393 24.0251 5.10663 24.0251 4.97252L24.0117 3.31398C24.0117 3.18433 23.9044 3.07704 23.7703 3.07257L22.1564 3.05469C22.0223 3.05469 21.915 3.15751 21.915 3.29162V4.95017C21.915 5.08428 22.0223 5.19157 22.1564 5.19604Z" fill="white"></path><path d="M19.0582 5.19604L20.6855 5.21393C20.8196 5.21393 20.9269 5.10663 20.9269 4.97252L20.9135 3.31398C20.9135 3.18433 20.8062 3.07704 20.6721 3.07257L19.0627 3.05469C18.9286 3.05469 18.8213 3.15751 18.8213 3.29162V4.95017C18.8213 5.08428 18.9286 5.19157 19.0582 5.19604Z" fill="white"></path><path d="M25.2586 5.19604L26.8858 5.21393C27.0199 5.21393 27.1272 5.10663 27.1272 4.97252L27.1138 3.31398C27.1138 3.18433 27.0065 3.07704 26.8724 3.07257L25.263 3.05469C25.1289 3.05469 25.0216 3.15751 25.0216 3.29162V4.95017C25.0171 5.08428 25.1244 5.19157 25.2586 5.19604Z" fill="white"></path><path d="M26.1442 33.0017H5.08377C4.86025 33.0017 4.74848 32.7246 4.91389 32.5726L5.57999 31.9601C5.67834 31.8662 5.68728 31.7143 5.5934 31.6114L4.4579 30.3821C4.36402 30.2792 4.20756 30.2748 4.10921 30.3642L0.130486 34.0255C0.0231946 34.1238 0.0276648 34.2982 0.139427 34.3965L4.19862 37.8299C4.30144 37.9193 4.4579 37.9059 4.54731 37.803L5.61576 36.5334C5.70516 36.4306 5.68728 36.2741 5.58446 36.1847L4.88707 35.5946C4.71272 35.4471 4.81554 35.161 5.04354 35.161H26.1665C26.3006 35.161 26.4124 35.0492 26.4124 34.9151L26.399 33.2476C26.39 33.109 26.2783 33.0017 26.1442 33.0017Z" fill="white"></path><path d="M35.9349 35.1567L34.3076 35.1388C34.1735 35.1388 34.0662 35.0271 34.0662 34.8974V33.2389C34.0662 33.1048 34.1735 33.002 34.3076 33.002L35.9214 33.0198C36.0511 33.0198 36.1584 33.1271 36.1628 33.2612L36.1763 34.9198C36.1763 35.0494 36.069 35.1567 35.9349 35.1567ZM32.8368 35.1567L31.214 35.1388C31.0799 35.1388 30.9726 35.0271 30.9726 34.8974V33.2389C30.9726 33.1048 31.0799 33.002 31.214 33.002L32.8234 33.0198C32.953 33.0198 33.0603 33.1271 33.0648 33.2612L33.0782 34.9198C33.0782 35.0494 32.9709 35.1567 32.8368 35.1567ZM29.7388 35.1567L28.1115 35.1388C27.9774 35.1388 27.8701 35.0271 27.8701 34.8974V33.2389C27.8701 33.1048 27.9774 33.002 28.1115 33.002L29.7254 33.0198C29.855 33.0198 29.9623 33.1271 29.9668 33.2612L29.9802 34.9198C29.9802 35.0494 29.8729 35.1567 29.7388 35.1567Z" fill="white"></path><path d="M46.9404 31.3024H8.41389C7.65838 31.3024 7.04145 30.6899 7.03698 29.9344L6.84475 8.11406C6.84028 7.35855 7.44379 6.74609 8.1993 6.74609H46.7258C47.4813 6.74609 48.0983 7.35855 48.1027 8.11406L48.295 29.9344C48.3039 30.6899 47.6959 31.3024 46.9404 31.3024ZM9.28116 29.0448H46.0329L45.8586 8.99921H9.10681L9.28116 29.0448Z" fill="white"></path><path d="M15.7507 26.2869H13.9491C13.8015 26.2869 13.6764 26.1662 13.6764 26.0142L13.5557 12.2004C13.5557 12.0529 13.6764 11.9277 13.8239 11.9277H15.6255C15.773 11.9277 15.8982 12.0484 15.8982 12.2004L16.0189 26.0142C16.0234 26.1617 15.9027 26.2869 15.7507 26.2869Z" fill="white"></path><path d="M24.2761 26.2869H22.4745C22.3269 26.2869 22.2018 26.1662 22.2018 26.0142L22.0811 12.2004C22.0811 12.0529 22.2018 11.9277 22.3493 11.9277H24.1509C24.2984 11.9277 24.4236 12.0484 24.4236 12.2004L24.5443 26.0142C24.5443 26.1617 24.4236 26.2869 24.2761 26.2869Z" fill="white"></path><path d="M41.3171 26.2869H39.5155C39.3679 26.2869 39.2428 26.1662 39.2428 26.0142L39.1221 12.2004C39.1221 12.0529 39.2428 11.9277 39.3903 11.9277H41.1919C41.3394 11.9277 41.4646 12.0484 41.4646 12.2004L41.5853 26.0142C41.5898 26.1617 41.4691 26.2869 41.3171 26.2869Z" fill="white"></path><path d="M32.7966 26.2869H30.995C30.8474 26.2869 30.7223 26.1662 30.7223 26.0142L30.6016 12.2004C30.6016 12.0529 30.7223 11.9277 30.8698 11.9277H32.6714C32.8189 11.9277 32.9441 12.0484 32.9441 12.2004L33.0648 26.0142C33.0648 26.1617 32.9441 26.2869 32.7966 26.2869Z" fill="white"></path></svg>