<svg xmlns="http://www.w3.org/2000/svg" width="17" height="16" viewBox="0 0 17 16" fill="none"><path d="M0 1.10451H4.36895V0H5.37392V1.08871H11.0987V0.00430774H12.1042V1.09474H16.4898V15.7876H0V1.10451ZM1.01832 5.23621V14.657H15.471V5.23621H1.01832ZM1.01314 4.06479H15.4713V2.2518H12.1062V3.33276H11.1002V2.25496H5.37053V3.32989H4.36403V2.25295H1.01314V4.06479Z" fill="#5A5A5A"></path><path d="M5.49656 7.21806H4.35651V6.12303H5.49656V7.21806Z" fill="#5A5A5A"></path><path d="M5.49774 10.3314H4.36261V9.23149H5.49774V10.3314Z" fill="#5A5A5A"></path><path d="M4.36566 12.3299H5.49574V13.4381H4.36566V12.3299Z" fill="#5A5A5A"></path><path d="M7.69568 6.11642H8.82506V7.21145H7.69568V6.11642Z" fill="#5A5A5A"></path><path d="M12.1416 7.21921H11.0206V6.12303H12.1416V7.21921Z" fill="#5A5A5A"></path><path d="M7.69263 10.3268V9.22748H8.82073V10.3268H7.69263Z" fill="#5A5A5A"></path><path d="M11.0206 10.3297V9.22833H12.1466V10.3297H11.0206Z" fill="#5A5A5A"></path><path d="M8.82286 13.4439H7.69769V12.3388H8.82286V13.4439Z" fill="#5A5A5A"></path><path d="M12.1521 12.3359V13.437H11.0267V12.3359H12.1521Z" fill="#5A5A5A"></path></svg>