<svg xmlns="http://www.w3.org/2000/svg" width="146" height="122" viewBox="0 0 146 122" fill="none"><g clip-path="url(#clip0_469_29401)"><path fill-rule="evenodd" clip-rule="evenodd" d="M95.4622 81.562C86.4952 81.562 78.3772 77.926 72.5032 72.052C66.6262 66.178 62.9932 58.057 62.9932 49.093C62.9932 40.129 66.6262 32.011 72.5032 26.134C78.3802 20.257 86.4952 16.624 95.4622 16.624C104.429 16.624 112.547 20.26 118.421 26.134C124.298 32.008 127.931 40.126 127.931 49.093C127.931 58.06 124.298 66.178 118.421 72.052C112.544 77.929 104.429 81.562 95.4622 81.562Z" fill="#0973B9"></path><path fill-rule="evenodd" clip-rule="evenodd" d="M76.964 71.4879C81.989 75.6429 88.433 78.1389 95.462 78.1389C103.034 78.1389 109.931 75.2409 115.1 70.4919C115.076 68.5749 116 68.3439 116.054 67.1769C116.12 65.8119 117.41 67.0389 118.991 65.2329C120.671 64.2789 120.143 63.2979 120.176 61.6239C120.188 60.9849 120.233 60.3399 120.899 59.5089C121.73 58.6719 122.066 59.1429 122.429 58.8879C122.765 58.6539 122.696 58.0179 123.026 57.9069C123.071 57.8919 123.119 57.8709 123.164 57.8499C124.037 55.0869 124.508 52.1469 124.508 49.0959C124.508 48.6159 124.496 48.1419 124.472 47.6679C124.172 48.0489 123.848 48.2649 123.866 48.5799C123.908 49.3359 123.332 49.6089 123.704 50.8779C123.89 51.5139 124.178 52.0149 123.176 53.2269C121.844 52.8519 122.885 51.6939 122.42 51.3699C121.352 50.6259 121.307 50.3649 121.442 48.9369C121.535 47.9199 121.346 47.0709 120.857 46.1679C120.098 44.7609 119.243 45.7839 117.668 44.6979C116.357 46.7139 117.569 48.2409 114.734 49.5309C113.738 49.9839 112.955 49.6809 111.785 50.1189C110.966 48.1239 110.204 48.1419 109.604 47.3769C108.338 45.7629 108.707 43.4169 108.2 43.9539C107.708 48.3699 109.208 48.4629 109.493 49.8819C109.658 50.6919 110.666 50.8419 111.443 51.0249C112.316 51.2319 113.891 50.5839 114.74 51.4209C115.385 52.3659 114.032 52.6989 114.614 53.2359C115.463 54.0159 114.128 55.2099 113.498 55.6629C111.302 57.2529 112.043 58.4589 110.111 59.1969C109.259 59.5239 109.028 61.1979 109.331 62.5479C111.773 64.1649 113.462 61.6239 112.574 64.5609C112.325 65.3889 112.367 66.3279 111.956 67.0209C111.635 67.5639 110.405 66.9009 110.138 68.1309C107.687 68.4579 108.185 66.8109 107.144 65.9019C106.976 67.4799 106.313 68.0859 105.761 69.0519C105.011 70.3659 103.775 71.2119 102.191 71.3469C99.461 71.5809 100.409 73.3149 99.68 73.0449C98.519 72.6159 97.052 70.8579 97.04 68.9109C97.031 67.2249 95.984 66.3519 96.224 65.4609C96.77 63.4239 96.677 62.4399 95.783 60.6309C95.426 59.9079 94.328 59.8659 93.677 57.8109C93.203 56.3079 92.327 54.7869 91.736 54.5349C90.212 53.8869 89.621 55.2579 86.645 54.7869C85.379 54.5859 84.683 54.3999 83.51 54.0999C82.325 53.7999 81.056 52.3449 81.605 51.7719C82.598 50.7399 81.44 50.0559 81.908 48.7869C82.19 48.0219 81.311 47.3799 82.349 46.0329C82.601 44.9439 82.46 43.9029 83.429 43.3329C84.482 42.7179 84.362 41.1669 85.148 41.0889C87.242 40.8819 87.929 39.6429 86.459 39.2619C84.533 38.7669 85.841 39.1689 85.64 36.4389C85.457 33.9249 87.071 36.2709 88.217 35.0979C90.233 33.0339 88.88 34.4109 87.776 33.0249C87.257 32.3709 86.714 32.9799 85.973 32.9199C86.234 31.5459 85.823 30.3339 89.69 28.4289C91.586 31.4469 89.168 30.0999 92.513 32.4729C93.539 29.7639 94.568 29.1129 94.049 27.3999C93.764 26.4549 94.325 24.5529 96.452 23.8899C96.92 23.7429 98.144 24.7029 98.69 24.5709C100.166 24.2109 101.894 22.9449 103.109 23.2689C103.994 23.5029 102.119 24.8229 105.173 25.9689C105.791 26.1999 106.418 26.8569 108.494 25.6809C108.986 25.4019 109.199 25.0989 109.853 24.6459C108.272 23.2089 106.883 22.4919 105.443 21.7959C102.332 20.6559 98.969 20.0349 95.462 20.0349C89.687 20.0349 84.302 21.7209 79.781 24.6279C80.051 25.2849 80.561 26.1489 80.561 26.6529C80.561 27.3489 79.655 28.0299 80.018 28.4739C81.344 30.0879 81.107 31.8069 80.576 31.4799C79.355 30.7269 78.932 31.9389 77.765 31.9329C74.996 31.9239 77.192 34.8249 75.239 35.6079C74.552 35.6229 73.199 35.6859 72.605 35.7879C71.828 35.9229 71.795 37.1769 71.183 37.4499C70.367 37.8159 69.695 37.8849 69.293 38.1489C68.849 38.4399 68.459 38.8179 68.12 39.2589C67.019 42.3249 66.416 45.6339 66.416 49.0809C66.416 49.6449 66.431 50.2059 66.464 50.7639C66.584 51.6249 66.74 52.2849 66.917 52.5729C68.225 54.2589 68.954 52.5249 69.92 54.2319C70.235 54.7899 69.347 55.6179 71.183 56.6139C72.413 59.1279 73.418 57.2289 74.105 57.6219C76.526 59.0079 77.168 59.3019 76.682 63.2529C76.295 66.4119 78.218 65.9799 76.508 67.7319C76.352 68.3949 74.819 69.4629 76.757 70.5069C77.045 70.6629 77.009 71.0349 76.961 71.4759L76.964 71.4879Z" fill="white"></path><path fill-rule="evenodd" clip-rule="evenodd" d="M94.1272 36.6189C94.4692 36.4929 94.5952 36.1209 95.2672 36.1899C95.6902 36.5379 96.0562 36.5529 96.4492 36.7359C97.5742 37.2189 97.5592 38.4009 98.0992 38.1309C98.7832 37.7919 99.8782 38.4459 100.502 38.6139C103.925 39.5409 104.141 38.7159 106.343 40.6329C105.956 43.8549 103.742 43.5459 102.65 41.1069C101.945 39.5289 98.9602 40.6119 97.8772 40.8369C96.5722 40.9599 95.9572 38.7489 95.3482 38.4039C93.9412 37.6089 93.4312 38.6949 91.4512 37.5519C92.7802 36.0459 91.5442 37.1559 94.1272 36.6159V36.6189Z" fill="white"></path><path fill-rule="evenodd" clip-rule="evenodd" d="M108.398 26.92C108.992 27.343 107.048 29.254 107.528 28.84C109.937 26.752 112.352 27.322 113.399 27.469C111.89 26.593 111.275 25.915 110.489 25.936C109.973 25.951 109.673 26.542 108.395 26.92H108.398Z" fill="white"></path><path d="M58.4874 47.5599C58.1394 47.6349 57.8754 47.9409 57.8664 48.3129C57.8574 48.7479 58.2024 49.1079 58.6374 49.1169C59.0724 49.1259 59.4324 48.7809 59.4414 48.3459C59.4504 47.9769 59.1984 47.6619 58.8564 47.5689C59.4864 32.6859 69.1734 19.7049 83.2614 14.8749C83.4474 15.1779 83.8194 15.3279 84.1704 15.2169C84.5844 15.0849 84.8154 14.6409 84.6834 14.2269C84.5514 13.8129 84.1074 13.5819 83.6934 13.7139C83.3394 13.8279 83.1234 14.1669 83.1474 14.5239C68.9094 19.4049 59.1204 32.5209 58.4874 47.5629V47.5599Z" fill="#0973B9" stroke="#0973B9" stroke-width="1.029" stroke-miterlimit="10"></path><path d="M95.0246 85.4979C95.0336 85.9329 95.3936 86.2809 95.8286 86.2719C96.2006 86.2659 96.5066 85.9989 96.5816 85.6509C103.194 85.3719 109.581 83.3169 115.104 79.6839C120.483 76.1439 124.821 71.2629 127.704 65.5329C128.055 65.6109 128.427 65.4399 128.586 65.1009C128.772 64.7079 128.604 64.2369 128.211 64.0509C127.818 63.8649 127.347 64.0329 127.161 64.4259C127.005 64.7589 127.104 65.1459 127.374 65.3709C121.44 77.1789 109.758 84.7269 96.5726 85.2789C96.4796 84.9369 96.1676 84.6879 95.7986 84.6939C95.3636 84.7029 95.0156 85.0629 95.0246 85.4979Z" fill="#0973B9" stroke="#0973B9" stroke-width="1.029" stroke-miterlimit="10"></path><path d="M131.405 49.1169C131.84 49.1049 132.185 48.7419 132.173 48.3099C132.164 47.9409 131.9 47.6409 131.555 47.5629C131.171 38.3859 127.4 29.7819 120.878 23.2599C114.356 16.7379 105.755 12.9669 96.5753 12.5829C96.4973 12.2379 96.1973 11.9769 95.8283 11.9649C95.3933 11.9529 95.0303 12.2979 95.0213 12.7329C95.0093 13.1679 95.3543 13.5309 95.7893 13.5399C96.1613 13.5489 96.4793 13.2969 96.5693 12.9489C115.406 13.7379 130.394 28.7259 131.183 47.5629C130.838 47.6529 130.583 47.9709 130.592 48.3429C130.604 48.7779 130.967 49.1229 131.399 49.1109L131.405 49.1169Z" fill="#0973B9" stroke="#0973B9" stroke-width="1.029" stroke-miterlimit="10"></path><path d="M66.8364 76.0449C67.1364 76.3599 67.6374 76.3689 67.9524 76.0689C68.2674 75.7689 68.2764 75.2679 67.9764 74.9529C68.0514 75.0309 68.1264 75.1089 67.9764 74.9529C67.9554 74.9319 67.9404 74.9169 67.9284 74.9019C67.9434 74.9169 67.9584 74.9349 67.9764 74.9529C67.7214 74.6859 67.3194 74.6409 67.0134 74.8179C62.1834 69.5589 58.9644 63.1359 57.6594 56.1489C57.9864 56.0109 58.1904 55.6629 58.1304 55.2969C58.0584 54.8679 57.6534 54.5769 57.2244 54.6489C56.7954 54.7209 56.5044 55.1259 56.5764 55.5549C56.6364 55.9209 56.9424 56.1849 57.2964 56.2089C58.6134 63.2679 61.8654 69.7599 66.7494 75.0729C66.5574 75.3729 66.5844 75.7749 66.8424 76.0449H66.8364Z" fill="#0973B9"></path><path d="M67.9764 74.9529C68.2764 75.2679 68.2674 75.7689 67.9524 76.0689C67.6374 76.3689 67.1364 76.3599 66.8364 76.0449H66.8424C66.5844 75.7749 66.5574 75.3729 66.7494 75.0729C61.8654 69.7599 58.6134 63.2679 57.2964 56.2089C56.9424 56.1849 56.6364 55.9209 56.5764 55.5549C56.5044 55.1259 56.7954 54.7209 57.2244 54.6489C57.6534 54.5769 58.0584 54.8679 58.1304 55.2969C58.1904 55.6629 57.9864 56.0109 57.6594 56.1489C58.9644 63.1359 62.1834 69.5589 67.0134 74.8179C67.3194 74.6409 67.7214 74.6859 67.9764 74.9529ZM67.9764 74.9529C68.0514 75.0309 68.1264 75.1089 67.9764 74.9529ZM67.9764 74.9529C67.9554 74.9319 67.9404 74.9169 67.9284 74.9019C67.9434 74.9169 67.9584 74.9349 67.9764 74.9529Z" stroke="#0973B9" stroke-width="1.029" stroke-miterlimit="10"></path><path d="M82.8925 7.96605C82.5415 8.07405 82.3225 8.40405 82.3375 8.75205C79.7365 9.56805 77.2045 10.639 74.8075 11.947C71.4745 13.762 68.4025 16.018 65.6665 18.658C65.3635 18.472 64.9615 18.511 64.7005 18.772C64.3915 19.078 64.3915 19.579 64.7005 19.888C65.0065 20.197 65.5075 20.197 65.8165 19.888C66.0775 19.627 66.1165 19.225 65.9305 18.919C68.6425 16.306 71.6875 14.071 74.9875 12.271C77.3605 10.978 79.8655 9.91605 82.4395 9.10605C82.6165 9.42105 82.9945 9.58005 83.3545 9.47205C83.7715 9.34605 84.0055 8.90205 83.8795 8.48805C83.7535 8.07105 83.3095 7.83705 82.8955 7.96305L82.8925 7.96605Z" fill="#0973B9" stroke="#0973B9" stroke-width="1.029" stroke-miterlimit="10"></path><path d="M88.0223 90.7689C101.456 92.9769 115.124 88.5669 124.76 78.9699C125.063 79.1439 125.456 79.1049 125.714 78.8439C126.02 78.5349 126.017 78.0339 125.708 77.7279C125.399 77.4219 124.898 77.4249 124.592 77.7339C124.328 78.0009 124.295 78.4089 124.49 78.7149C114.941 88.2249 101.396 92.5899 88.0823 90.4029C65.2673 86.6529 49.7543 65.0439 53.5043 42.2259C54.4013 36.7719 56.3123 31.6539 59.1893 27.0009C59.5283 27.1209 59.9183 26.9979 60.1163 26.6799C60.3503 26.3139 60.2393 25.8249 59.8703 25.5909C59.5043 25.3569 59.0153 25.4679 58.7813 25.8369C58.5863 26.1459 58.6343 26.5419 58.8773 26.7969C55.9733 31.4949 54.0413 36.6579 53.1383 42.1659C51.3053 53.3169 53.9273 64.5129 60.5153 73.6899C67.1033 82.8699 76.8743 88.9329 88.0223 90.7659V90.7689Z" fill="#0973B9" stroke="#0973B9" stroke-width="1.029" stroke-miterlimit="10"></path><path d="M95.8316 6.22893C95.3966 6.21993 95.0336 6.56493 95.0246 6.99993C95.0156 7.43493 95.3606 7.79793 95.7956 7.80693C96.1676 7.81593 96.4856 7.56093 96.5756 7.21593C116.559 7.95393 133.503 23.0679 136.485 42.8139C136.152 42.9429 135.933 43.2849 135.984 43.6569C136.044 44.0889 136.443 44.3889 136.872 44.3319C137.304 44.2719 137.604 43.8729 137.547 43.4439C137.496 43.0779 137.202 42.8079 136.851 42.7689C135.396 33.1119 130.602 24.2169 123.288 17.6469C115.92 11.0229 106.461 7.20693 96.5756 6.84693C96.4976 6.50193 96.1946 6.24093 95.8286 6.23193L95.8316 6.22893Z" fill="#0973B9" stroke="#0973B9" stroke-width="1.029" stroke-miterlimit="10"></path><path d="M107.423 3.54707C107.066 3.45107 106.7 3.61907 106.529 3.92807C102.788 2.98007 98.9213 2.49707 95.0243 2.49707C81.9623 2.49707 69.4913 7.99607 60.6683 17.6081C60.3563 17.4461 59.9633 17.5031 59.7173 17.7761C59.4263 18.0971 59.4503 18.5981 59.7743 18.8891C60.0953 19.1801 60.5963 19.1561 60.8873 18.8321C61.1393 18.5531 61.1543 18.1451 60.9473 17.8511C69.6983 8.32007 82.0703 2.86607 95.0243 2.86607C98.8883 2.86607 102.722 3.34307 106.433 4.28507C106.424 4.63907 106.655 4.97207 107.012 5.06807C107.003 5.06807 106.991 5.06207 106.982 5.05907C106.991 5.05907 107 5.06507 107.012 5.06807C107.072 5.08307 107.105 5.09207 107.12 5.09807C107.099 5.09207 107.057 5.08007 107.012 5.06807C107.432 5.18207 107.867 4.93307 107.978 4.51307C108.092 4.09307 107.843 3.65807 107.423 3.54707Z" fill="#0973B9"></path><path d="M107.012 5.06807C106.655 4.97207 106.424 4.63907 106.433 4.28507C102.722 3.34307 98.8883 2.86607 95.0243 2.86607C82.0703 2.86607 69.6983 8.32007 60.9473 17.8511C61.1543 18.1451 61.1393 18.5531 60.8873 18.8321C60.5963 19.1561 60.0953 19.1801 59.7743 18.8891C59.4503 18.5981 59.4263 18.0971 59.7173 17.7761C59.9633 17.5031 60.3563 17.4461 60.6683 17.6081C69.4913 7.99607 81.9623 2.49707 95.0243 2.49707C98.9213 2.49707 102.788 2.98007 106.529 3.92807C106.7 3.61907 107.066 3.45107 107.423 3.54707C107.843 3.65807 108.092 4.09307 107.978 4.51307C107.867 4.93307 107.432 5.18207 107.012 5.06807ZM107.012 5.06807C107.003 5.06807 106.991 5.06207 106.982 5.05907C106.991 5.05907 107 5.06507 107.012 5.06807ZM107.012 5.06807C107.072 5.08307 107.105 5.09207 107.12 5.09807C107.099 5.09207 107.057 5.08007 107.012 5.06807Z" stroke="#0973B9" stroke-width="1.029" stroke-miterlimit="10"></path><path d="M94.2534 94.7441C93.8784 94.7351 93.5604 94.9901 93.4704 95.3381C68.7504 94.5161 48.7734 73.9511 48.7734 49.1171C48.7734 42.8381 50.0094 36.7601 52.4424 31.0421C52.7964 31.1081 53.1624 30.9251 53.3124 30.5831C53.3124 30.5891 53.3064 30.5951 53.3034 30.6011C53.3034 30.5951 53.3094 30.5891 53.3124 30.5831C53.3424 30.5141 53.3574 30.4841 53.3604 30.4721C53.3544 30.4871 53.3334 30.5351 53.3124 30.5831C53.4864 30.1841 53.3004 29.7191 52.9014 29.5451C52.5024 29.3711 52.0374 29.5571 51.8634 29.9561C51.7164 30.2921 51.8274 30.6731 52.1034 30.8891C49.6494 36.6581 48.4014 42.7871 48.4014 49.1201C48.4014 61.4411 53.1624 73.0601 61.8114 81.8381C70.2594 90.4151 81.4764 95.3201 93.4674 95.7131C93.5454 96.0551 93.8454 96.3161 94.2144 96.3251C94.6494 96.3371 95.0124 95.9921 95.0214 95.5571C95.0334 95.1221 94.6884 94.7591 94.2534 94.7501V94.7441Z" fill="#0973B9"></path><path d="M53.3124 30.5831C53.1624 30.9251 52.7964 31.1081 52.4424 31.0421C50.0094 36.7601 48.7734 42.8381 48.7734 49.1171C48.7734 73.9511 68.7504 94.5161 93.4704 95.3381C93.5604 94.9901 93.8784 94.7351 94.2534 94.7441V94.7501C94.6884 94.7591 95.0334 95.1221 95.0214 95.5571C95.0124 95.9921 94.6494 96.3371 94.2144 96.3251C93.8454 96.3161 93.5454 96.0551 93.4674 95.7131C81.4764 95.3201 70.2594 90.4151 61.8114 81.8381C53.1624 73.0601 48.4014 61.4411 48.4014 49.1201C48.4014 42.7871 49.6494 36.6581 52.1034 30.8891C51.8274 30.6731 51.7164 30.2921 51.8634 29.9561C52.0374 29.5571 52.5024 29.3711 52.9014 29.5451C53.3004 29.7191 53.4864 30.1841 53.3124 30.5831ZM53.3124 30.5831C53.3124 30.5891 53.3064 30.5951 53.3034 30.6011C53.3034 30.5951 53.3094 30.5891 53.3124 30.5831ZM53.3124 30.5831C53.3424 30.5141 53.3574 30.4841 53.3604 30.4721C53.3544 30.4871 53.3334 30.5351 53.3124 30.5831Z" stroke="#0973B9" stroke-width="1.029" stroke-miterlimit="10"></path><path d="M114.632 2.44299C114.683 2.08299 114.491 1.71699 114.14 1.56999C113.723 1.39599 113.243 1.59399 113.069 2.01099C112.895 2.42799 113.093 2.90799 113.51 3.08199C113.87 3.23199 114.272 3.10299 114.491 2.79999C137.429 12.568 149.846 37.915 143.417 62.128C136.457 88.336 109.604 104.416 83.2883 98.314C83.2913 97.939 83.0393 97.597 82.6613 97.507C82.2233 97.402 81.7793 97.675 81.6743 98.113C81.5693 98.551 81.8423 98.995 82.2803 99.1C82.6493 99.187 83.0213 99.007 83.1923 98.686C95.9543 101.653 109.169 99.631 120.491 92.953C132.065 86.125 140.339 75.214 143.789 62.224C150.269 37.822 137.753 12.28 114.635 2.43999L114.632 2.44299Z" fill="#0973B9" stroke="#0973B9" stroke-width="1.029" stroke-miterlimit="10"></path><path d="M82.3525 100.021C83.3301 100.021 84.1225 99.2285 84.1225 98.251C84.1225 97.2734 83.3301 96.481 82.3525 96.481C81.375 96.481 80.5825 97.2734 80.5825 98.251C80.5825 99.2285 81.375 100.021 82.3525 100.021Z" fill="#0973B9" stroke="#0973B9" stroke-width="1.029" stroke-miterlimit="10"></path><path d="M94.2744 97.3271C95.2519 97.3271 96.0444 96.5347 96.0444 95.5571C96.0444 94.5796 95.2519 93.7871 94.2744 93.7871C93.2969 93.7871 92.5044 94.5796 92.5044 95.5571C92.5044 96.5347 93.2969 97.3271 94.2744 97.3271Z" fill="#0973B9" stroke="#0973B9" stroke-width="1.029" stroke-miterlimit="10"></path><path d="M96.0415 87.3371C97.019 87.3371 97.8115 86.5447 97.8115 85.5671C97.8115 84.5896 97.019 83.7971 96.0415 83.7971C95.0639 83.7971 94.2715 84.5896 94.2715 85.5671C94.2715 86.5447 95.0639 87.3371 96.0415 87.3371Z" fill="#0973B9" stroke="#0973B9" stroke-width="1.029" stroke-miterlimit="10"></path><path d="M67.1006 77.4011C68.0781 77.4011 68.8706 76.6086 68.8706 75.6311C68.8706 74.6535 68.0781 73.8611 67.1006 73.8611C66.123 73.8611 65.3306 74.6535 65.3306 75.6311C65.3306 76.6086 66.123 77.4011 67.1006 77.4011Z" fill="#0973B9" stroke="#0973B9" stroke-width="1.029" stroke-miterlimit="10"></path><path d="M57.8696 57.2441C58.8472 57.2441 59.6396 56.4516 59.6396 55.4741C59.6396 54.4966 58.8472 53.7041 57.8696 53.7041C56.8921 53.7041 56.0996 54.4966 56.0996 55.4741C56.0996 56.4516 56.8921 57.2441 57.8696 57.2441Z" fill="#0973B9" stroke="#0973B9" stroke-width="1.029" stroke-miterlimit="10"></path><path d="M58.9673 50.572C59.9448 50.572 60.7373 49.7795 60.7373 48.802C60.7373 47.8244 59.9448 47.032 58.9673 47.032C57.9897 47.032 57.1973 47.8244 57.1973 48.802C57.1973 49.7795 57.9897 50.572 58.9673 50.572Z" fill="#0973B9" stroke="#0973B9" stroke-width="1.029" stroke-miterlimit="10"></path><path d="M59.6513 27.976C60.6289 27.976 61.4213 27.1836 61.4213 26.206C61.4213 25.2285 60.6289 24.436 59.6513 24.436C58.6738 24.436 57.8813 25.2285 57.8813 26.206C57.8813 27.1836 58.6738 27.976 59.6513 27.976Z" fill="#0973B9" stroke="#0973B9" stroke-width="1.029" stroke-miterlimit="10"></path><path d="M52.7212 32.311C53.6987 32.311 54.4912 31.5185 54.4912 30.541C54.4912 29.5635 53.6987 28.771 52.7212 28.771C51.7436 28.771 50.9512 29.5635 50.9512 30.541C50.9512 31.5185 51.7436 32.311 52.7212 32.311Z" fill="#0973B9" stroke="#0973B9" stroke-width="1.029" stroke-miterlimit="10"></path><path d="M59.6362 20.4699C60.6138 20.4699 61.4062 19.6775 61.4062 18.6999C61.4062 17.7224 60.6138 16.9299 59.6362 16.9299C58.6587 16.9299 57.8662 17.7224 57.8662 18.6999C57.8662 19.6775 58.6587 20.4699 59.6362 20.4699Z" fill="#0973B9" stroke="#0973B9" stroke-width="1.029" stroke-miterlimit="10"></path><path d="M65.0576 20.863C66.0351 20.863 66.8276 20.0705 66.8276 19.093C66.8276 18.1155 66.0351 17.323 65.0576 17.323C64.0801 17.323 63.2876 18.1155 63.2876 19.093C63.2876 20.0705 64.0801 20.863 65.0576 20.863Z" fill="#0973B9" stroke="#0973B9" stroke-width="1.029" stroke-miterlimit="10"></path><path d="M83.4175 9.70016C84.395 9.70016 85.1875 8.9077 85.1875 7.93016C85.1875 6.95261 84.395 6.16016 83.4175 6.16016C82.4399 6.16016 81.6475 6.95261 81.6475 7.93016C81.6475 8.9077 82.4399 9.70016 83.4175 9.70016Z" fill="#0973B9" stroke="#0973B9" stroke-width="1.029" stroke-miterlimit="10"></path><path d="M96.0415 8.5151C97.019 8.5151 97.8115 7.72264 97.8115 6.7451C97.8115 5.76755 97.019 4.9751 96.0415 4.9751C95.0639 4.9751 94.2715 5.76755 94.2715 6.7451C94.2715 7.72264 95.0639 8.5151 96.0415 8.5151Z" fill="#0973B9" stroke="#0973B9" stroke-width="1.029" stroke-miterlimit="10"></path><path d="M107.366 6.74801C108.344 6.74801 109.136 5.95555 109.136 4.97801C109.136 4.00046 108.344 3.20801 107.366 3.20801C106.389 3.20801 105.596 4.00046 105.596 4.97801C105.596 5.95555 106.389 6.74801 107.366 6.74801Z" fill="#0973B9" stroke="#0973B9" stroke-width="1.029" stroke-miterlimit="10"></path><path d="M114.131 4.26705C115.109 4.26705 115.901 3.47459 115.901 2.49705C115.901 1.51951 115.109 0.727051 114.131 0.727051C113.154 0.727051 112.361 1.51951 112.361 2.49705C112.361 3.47459 113.154 4.26705 114.131 4.26705Z" fill="#0973B9" stroke="#0973B9" stroke-width="1.029" stroke-miterlimit="10"></path><path d="M95.3965 14.3352C96.374 14.3352 97.1665 13.5427 97.1665 12.5652C97.1665 11.5876 96.374 10.7952 95.3965 10.7952C94.4189 10.7952 93.6265 11.5876 93.6265 12.5652C93.6265 13.5427 94.4189 14.3352 95.3965 14.3352Z" fill="#0973B9" stroke="#0973B9" stroke-width="1.029" stroke-miterlimit="10"></path><path d="M84.122 15.7961C85.0996 15.7961 85.8921 15.0036 85.8921 14.0261C85.8921 13.0486 85.0996 12.2561 84.122 12.2561C83.1445 12.2561 82.3521 13.0486 82.3521 14.0261C82.3521 15.0036 83.1445 15.7961 84.122 15.7961Z" fill="#0973B9" stroke="#0973B9" stroke-width="1.029" stroke-miterlimit="10"></path><path d="M125.129 80.32C126.107 80.32 126.899 79.5276 126.899 78.55C126.899 77.5725 126.107 76.78 125.129 76.78C124.152 76.78 123.359 77.5725 123.359 78.55C123.359 79.5276 124.152 80.32 125.129 80.32Z" fill="#0973B9" stroke="#0973B9" stroke-width="1.029" stroke-miterlimit="10"></path><path d="M128.174 65.854C129.152 65.854 129.944 65.0615 129.944 64.084C129.944 63.1064 129.152 62.314 128.174 62.314C127.197 62.314 126.404 63.1064 126.404 64.084C126.404 65.0615 127.197 65.854 128.174 65.854Z" fill="#0973B9" stroke="#0973B9" stroke-width="1.029" stroke-miterlimit="10"></path><path d="M131.714 50.572C132.692 50.572 133.484 49.7795 133.484 48.802C133.484 47.8244 132.692 47.032 131.714 47.032C130.737 47.032 129.944 47.8244 129.944 48.802C129.944 49.7795 130.737 50.572 131.714 50.572Z" fill="#0973B9" stroke="#0973B9" stroke-width="1.029" stroke-miterlimit="10"></path><path d="M137.024 45.415C138.002 45.415 138.794 44.6225 138.794 43.645C138.794 42.6675 138.002 41.875 137.024 41.875C136.047 41.875 135.254 42.6675 135.254 43.645C135.254 44.6225 136.047 45.415 137.024 45.415Z" fill="#0973B9" stroke="#0973B9" stroke-width="1.029" stroke-miterlimit="10"></path><path d="M49.529 66.7422C49.529 66.7422 9.56297 105.238 1.32797 119.323C0.901972 120.055 1.43297 120.973 2.27897 120.973L21.743 121.234C22.613 121.246 23.03 120.166 22.376 119.593C21.491 118.819 20.621 117.946 20.441 117.391C20.441 117.391 45.374 90.6162 56.195 82.3212L73.394 96.6702L53.564 118.804C52.799 119.632 53.387 120.973 54.512 120.973H75.701C76.157 120.973 76.352 120.394 75.989 120.118L72.401 117.391C72.401 117.391 89.984 103.762 88.235 94.5582C86.486 85.3542 62.795 67.6062 62.795 67.6062L49.523 66.7452L49.529 66.7422Z" fill="white"></path><path d="M49.5292 66.7422L62.8012 67.6032C62.8012 67.6032 86.4922 85.3542 88.2412 94.5552C89.8642 103.108 75.5992 114.703 72.7402 117.109C71.9812 117.13 71.2252 117.196 70.4692 117.247C68.5612 117.37 66.6502 117.484 64.7362 117.511C62.7982 117.538 60.8632 117.454 58.9312 117.31C57.7072 117.217 56.4862 117.1 55.2652 116.974L73.4032 96.6702L56.2042 82.3212C45.3832 90.6162 20.4502 117.391 20.4502 117.391C20.4712 117.454 9.65321 117.352 8.07821 117.235C6.43721 117.112 4.76621 116.926 3.13721 116.575C14.7532 100.243 49.5322 66.7452 49.5322 66.7452L49.5292 66.7422Z" fill="#00ADE5"></path><path d="M72.1796 53.8514C71.0816 53.4284 68.2256 53.2754 64.8926 53.2814L72.1796 53.8514Z" fill="#EC1C24"></path><path d="M56.4444 53.5454C53.0424 53.7374 50.2554 53.9984 49.5294 54.1934C45.6144 55.2524 41.5104 62.5364 40.7094 64.6994C39.9084 66.8594 43.0014 69.8504 52.9404 76.3814C52.9404 76.3814 57.9384 71.5814 57.9384 71.5844C57.9384 71.5874 53.5434 68.3564 53.5434 68.3564H63.6984L68.0034 63.7724" fill="#EC1C24"></path><path d="M71.4233 53.4133C73.6703 50.6323 75.9173 49.1923 75.9173 49.1923L73.1333 41.0533C73.1333 41.0533 75.9233 40.7443 77.5583 38.4553C77.5583 38.4553 83.3393 49.3663 83.2703 51.1123C79.8413 57.7573 71.6723 61.0483 71.6723 61.0483L68.0063 63.7693L63.6833 63.3703L59.3843 57.3973L66.4163 53.0413" fill="#EC1C24"></path><path d="M64.8893 53.2812C62.1623 53.2842 59.1143 53.3953 56.4443 53.5453L64.8893 53.2812Z" fill="white"></path><path d="M62.5073 57.0914L61.3703 55.9814L60.1973 56.8814C60.1973 56.8814 61.4603 59.5964 62.5043 57.0914H62.5073Z" fill="#F9A534"></path><path d="M57.6078 71.3262C57.6078 71.3262 60.1548 72.8502 60.5748 74.2992C60.9948 75.7482 60.6468 76.5552 59.8638 76.9302C59.8638 76.9302 59.5308 77.9862 58.5348 77.8842C58.5348 77.8842 58.4688 78.9012 57.5328 78.9342C57.5328 78.9342 57.3528 79.7382 56.4648 79.5762C55.5768 79.4142 55.3818 78.8712 55.6218 78.5232C55.6218 78.5232 53.5878 77.2482 52.9398 76.3812C52.2918 75.5142 54.6558 71.5572 57.6078 71.3292V71.3262Z" fill="white"></path><path d="M68.6546 48.0732L62.7146 54.9462L55.4756 54.2982L63.5696 44.6382L68.6546 48.0732Z" fill="white"></path><path d="M65.8134 52.4623L62.7144 52.7413L61.6644 54.7273L61.4784 52.4623L55.8684 51.7573L53.5464 54.3373L60.0624 58.2133L61.6644 55.5043L63.6474 58.2133L66.8154 54.9463L65.8134 52.4623Z" fill="#EC1C24"></path><path d="M69.8694 36.4662C70.1004 35.5092 70.0164 34.4352 69.4464 33.6342C68.7924 32.7102 67.5894 32.2872 66.4584 32.3352C65.3274 32.3832 64.2534 32.8422 63.2604 33.3912C60.5724 34.8732 58.3164 37.0362 56.3334 39.3762C55.8924 39.8952 55.4544 40.4442 55.2564 41.0982C55.0614 41.7522 55.1634 42.5382 55.6764 42.9882C56.1894 43.4352 56.6934 43.2432 57.4134 42.7152C56.7174 43.4082 56.0094 44.1192 55.5924 45.0042C55.1754 45.8922 55.1004 47.0052 55.6554 47.8122C56.2134 48.6192 57.5034 48.9042 58.2084 48.2232C57.8064 48.4872 57.5004 48.7482 57.6474 49.1442C57.7944 49.5402 58.2384 49.7652 58.6614 49.7712C59.0844 49.7772 59.4864 49.6062 59.8644 49.4142C60.7434 48.9732 61.5534 48.4122 62.3544 47.8392C63.8844 46.7412 65.3904 45.5742 66.5574 44.1012C67.4484 42.9732 68.1384 41.6472 68.3904 40.2222C68.5074 39.5532 68.5314 39.1752 68.8944 38.6052C69.3174 37.9452 69.6864 37.2312 69.8694 36.4662Z" fill="black"></path><path d="M67.8893 49.4502C66.7763 49.4502 65.6393 49.1232 64.6043 48.5022C64.4963 48.4392 64.3913 48.3702 64.2833 48.3042C64.0403 48.1512 63.8093 48.0042 63.5753 47.9052C63.3293 47.8002 63.0533 47.7372 62.7623 47.6712C62.6003 47.6352 62.4413 47.5962 62.2823 47.5542C61.4843 47.3352 60.8873 46.9692 60.5093 46.4652C59.9723 45.7572 59.9453 44.7852 60.4433 44.1582C60.7763 43.7382 61.3343 43.4832 61.9403 43.4772C62.2223 43.4772 62.4983 43.5552 62.7653 43.6332C62.9813 43.6962 63.2063 43.7592 63.3563 43.7592C63.3923 43.7592 63.4103 43.7562 63.4163 43.7532C63.4163 43.7472 63.4373 43.7112 63.4553 43.6182C63.5003 43.3992 63.4043 43.1262 63.2723 42.7902C63.0293 42.1632 62.6633 41.2182 63.0053 40.3122C63.3353 39.4362 64.1483 38.9832 64.9523 38.5932L66.9713 37.6182C67.1693 37.5222 67.4183 37.4022 67.7153 37.3722C67.7633 37.3692 67.8083 37.3662 67.8533 37.3662C68.6483 37.3662 69.2243 38.0352 69.5033 38.3532C70.5113 39.5232 71.5553 40.7292 72.1943 42.2202C72.9323 43.9392 72.9143 45.7662 72.1463 47.1132C71.4473 48.3372 70.1363 49.1952 68.6333 49.4022C68.3903 49.4352 68.1383 49.4532 67.8863 49.4532L67.8893 49.4502Z" fill="white"></path><path d="M67.8534 37.9182C68.3454 37.9182 68.7534 38.3322 69.0804 38.7132C70.0734 39.8622 71.0814 41.0382 71.6814 42.4362C72.2814 43.8342 72.4134 45.5142 71.6604 46.8342C71.0274 47.9442 69.8214 48.6732 68.5554 48.8502C68.3334 48.8802 68.1084 48.8952 67.8864 48.8952C66.8364 48.8952 65.7894 48.5682 64.8864 48.0252C64.5234 47.8092 64.1784 47.5572 63.7884 47.3922C63.3534 47.2092 62.8824 47.1402 62.4264 47.0172C61.8624 46.8612 61.3014 46.5972 60.9474 46.1292C60.5934 45.6612 60.5094 44.9592 60.8724 44.5002C61.1214 44.1852 61.5384 44.0352 61.9404 44.0292C61.9404 44.0292 61.9464 44.0292 61.9494 44.0292C62.3424 44.0292 62.9094 44.3082 63.3534 44.3082C63.6594 44.3082 63.9054 44.1732 63.9984 43.7232C64.0764 43.3392 63.9324 42.9492 63.7914 42.5862C63.5334 41.9172 63.2724 41.1732 63.5244 40.5042C63.7884 39.8022 64.5204 39.4152 65.1954 39.0882C65.8674 38.7642 66.5394 38.4372 67.2114 38.1132C67.3884 38.0262 67.5714 37.9392 67.7664 37.9212C67.7964 37.9212 67.8234 37.9182 67.8504 37.9182M67.8534 36.8082C67.7904 36.8082 67.7244 36.8112 67.6614 36.8172C67.2654 36.8562 66.9414 37.0122 66.7284 37.1142L64.8174 38.0382L64.7124 38.0892C64.0434 38.4132 62.9214 38.9562 62.4864 40.1142C62.0724 41.2182 62.5014 42.3252 62.7564 42.9882C62.7654 43.0092 62.7744 43.0302 62.7834 43.0572C62.5284 42.9852 62.2464 42.9192 61.9524 42.9192C61.9494 42.9192 61.9374 42.9192 61.9344 42.9192C61.1514 42.9252 60.4494 43.2522 60.0054 43.8102C59.3544 44.6322 59.3784 45.8892 60.0654 46.7982C60.5214 47.3982 61.2144 47.8332 62.1324 48.0852C62.3064 48.1332 62.4744 48.1722 62.6364 48.2112C62.9034 48.2742 63.1554 48.3312 63.3564 48.4152C63.5514 48.4962 63.7614 48.6312 63.9834 48.7722C64.0944 48.8412 64.2024 48.9102 64.3134 48.9792C65.4354 49.6512 66.6714 50.0052 67.8834 50.0052C68.1594 50.0052 68.4354 49.9872 68.7054 49.9482C70.3764 49.7172 71.8404 48.7572 72.6234 47.3832C73.4754 45.8892 73.5024 43.8762 72.6984 41.9982C72.0264 40.4292 70.9074 39.1332 69.9174 37.9872C69.6114 37.6332 68.8974 36.8052 67.8474 36.8052L67.8534 36.8082Z" fill="black"></path><path d="M55.2589 116.971L53.5669 118.801C52.8019 119.629 53.3899 120.97 54.5149 120.97H75.7039C76.1599 120.97 76.3549 120.391 75.9919 120.115L72.4039 117.388" stroke="black" stroke-width="1.11" stroke-linecap="round" stroke-linejoin="round"></path><path d="M3.13097 116.572C2.41397 117.58 1.80797 118.501 1.32797 119.32C0.901972 120.052 1.43297 120.97 2.27897 120.97L21.743 121.231C22.613 121.243 23.03 120.163 22.376 119.59C21.491 118.816 20.621 117.943 20.441 117.388" stroke="black" stroke-width="1.11" stroke-linecap="round" stroke-linejoin="round"></path><path d="M3.13086 116.572C12.3739 103.579 34.0969 81.8262 45.0199 71.1282" stroke="black" stroke-width="1.11" stroke-linecap="round" stroke-linejoin="round"></path><path d="M20.4438 117.388C20.4648 117.451 9.64678 117.349 8.07178 117.232" stroke="black" stroke-width="1.11" stroke-linecap="round" stroke-linejoin="round"></path><path d="M66.2869 90.7361L56.1979 82.3181C50.4889 86.6951 39.1939 97.8161 29.7979 107.347" stroke="black" stroke-width="1.11" stroke-linecap="round" stroke-linejoin="round"></path><path d="M63.7307 68.3142C68.1317 71.7102 86.6987 86.4492 88.2377 94.5552C89.8607 103.108 75.5957 114.703 72.7367 117.109C71.9777 117.13 71.2217 117.196 70.4657 117.247C68.5577 117.37 66.6467 117.484 64.7327 117.511C62.7947 117.538 60.8597 117.454 58.9277 117.31" stroke="black" stroke-width="1.11" stroke-linecap="round" stroke-linejoin="round"></path><path d="M66.1284 53.2871C69.3444 53.2901 71.1114 53.4401 72.1794 53.8511" stroke="black" stroke-width="1.11" stroke-linecap="round" stroke-linejoin="round"></path><path d="M57.9385 71.581L53.5435 68.353H63.6985L68.0035 63.769" stroke="black" stroke-width="1.11" stroke-linecap="round" stroke-linejoin="round"></path><path d="M53.2824 53.7402C51.1944 53.8902 50.0994 54.0372 49.5294 54.1932C45.6144 55.2522 41.5104 62.5362 40.7094 64.6992C39.9084 66.8592 43.0014 69.8502 52.9404 76.3812" stroke="black" stroke-width="1.11" stroke-linecap="round" stroke-linejoin="round"></path><path d="M57.6078 71.3262C57.6078 71.3262 60.1548 72.8502 60.5748 74.2992C60.9948 75.7482 60.6468 76.5552 59.8638 76.9302C59.8638 76.9302 59.5308 77.9862 58.5348 77.8842C58.5348 77.8842 58.4688 78.9012 57.5328 78.9342C57.5328 78.9342 57.3528 79.7382 56.4648 79.5762C55.5768 79.4142 55.3818 78.8712 55.6218 78.5232C55.6218 78.5232 53.5878 77.2482 52.9398 76.3812C52.2918 75.5142 54.6558 71.5572 57.6078 71.3292V71.3262Z" stroke="black" stroke-width="1.11" stroke-linecap="round" stroke-linejoin="round"></path><path d="M57.6055 51.7573L61.1575 47.5183" stroke="black" stroke-width="1.11" stroke-linecap="round" stroke-linejoin="round"></path><path d="M67.0732 49.9004L64.7812 52.5554" stroke="black" stroke-width="1.11" stroke-linecap="round" stroke-linejoin="round"></path><path d="M65.8134 52.4623L62.7144 52.7413L61.6644 54.7273L61.4784 52.4623L55.8684 51.7573L53.5464 54.3373L60.0624 58.2133L61.6644 55.5043L63.6474 58.2133L66.8154 54.9463L65.8134 52.4623Z" stroke="black" stroke-width="1.11" stroke-linecap="round" stroke-linejoin="round"></path><path d="M53.5458 68.3533L48.2568 64.2583" stroke="black" stroke-width="1.11" stroke-linecap="round" stroke-linejoin="round"></path><path d="M33.1432 58.6691C33.1552 58.6481 33.1762 58.6301 33.1972 58.6181C35.9482 57.4061 39.0352 57.1031 42.0352 57.3281C45.0472 57.5531 47.9962 58.2911 50.9092 59.0831C52.3732 59.4821 53.8432 59.8961 55.3552 59.9981C56.8672 60.0971 58.4482 59.8601 59.7202 59.0381C60.5212 58.5191 61.1752 57.7451 61.5202 56.8631C61.5682 56.7371 61.7542 56.7821 61.7422 56.9171C61.5922 58.5821 61.0372 62.0351 59.7982 63.1121C58.3822 64.3451 56.3572 64.6121 54.4822 64.4891C51.4912 64.2941 48.6172 63.2621 45.6412 62.9081C41.5312 62.4191 37.2742 63.2741 33.6712 65.3111C33.6322 65.3321 30.3472 62.1581 30.3472 62.1581L33.1372 58.6691H33.1432Z" fill="#F9A534"></path><path d="M74.9302 40.3843C74.7832 40.3843 74.6362 40.3723 74.4922 40.3483C73.5052 40.1863 72.7552 39.5263 72.3952 39.1513C71.6812 39.2443 70.3882 39.2803 69.5542 39.2803C69.0052 39.2803 68.2762 39.2683 67.9252 39.2023C67.4542 39.1183 67.1092 38.7943 67.0012 38.3443C66.8662 37.7653 67.1482 37.0783 67.6912 36.6733C68.3572 36.1753 72.2902 36.0883 74.5762 36.0793H74.6482C75.5602 36.0793 76.2682 36.3463 76.7602 36.8773C77.2732 37.4323 77.4172 38.1613 77.3782 38.6563C77.3152 39.4543 76.2322 40.3843 74.9272 40.3843H74.9302Z" fill="white"></path><path d="M74.651 36.6342C76.601 36.6342 76.871 38.0622 76.829 38.6142C76.79 39.1182 75.953 39.8292 74.93 39.8292C74.816 39.8292 74.699 39.8202 74.582 39.8022C73.412 39.6102 72.608 38.5512 72.608 38.5512C72.218 38.6622 70.754 38.7282 69.557 38.7282C68.876 38.7282 68.285 38.7072 68.024 38.6592C67.31 38.5302 67.403 37.5822 68.024 37.1202C68.645 36.6582 74.582 36.6342 74.582 36.6342C74.606 36.6342 74.63 36.6342 74.651 36.6342ZM74.651 35.5242C74.621 35.5242 74.591 35.5242 74.561 35.5242C68.273 35.5482 67.634 36.0252 67.361 36.2292C66.635 36.7692 66.275 37.6692 66.461 38.4702C66.617 39.1332 67.139 39.6252 67.826 39.7482C68.141 39.8052 68.723 39.8352 69.554 39.8352C69.635 39.8352 71.156 39.8352 72.188 39.7332C72.647 40.1682 73.412 40.7352 74.402 40.8972C74.576 40.9242 74.753 40.9392 74.93 40.9392C76.439 40.9392 77.843 39.8922 77.936 38.6982C77.984 38.0862 77.807 37.1862 77.171 36.4992C76.757 36.0522 75.986 35.5212 74.651 35.5212V35.5242Z" fill="black"></path><path d="M71.4229 53.4133C73.6699 50.6323 75.9169 49.1923 75.9169 49.1923L73.1329 41.0533C73.1329 41.0533 75.9229 40.7443 77.5579 38.4553C77.5579 38.4553 83.3388 49.3663 83.2698 51.1123C81.7038 54.1483 79.1479 56.4853 76.8319 58.1263" stroke="black" stroke-width="1.11" stroke-linecap="round" stroke-linejoin="round"></path><path d="M84.6266 45.0434L76.3736 44.4044H76.3346C75.2186 44.4044 74.4206 43.2914 74.3066 41.5664C74.1956 39.9074 74.7626 38.1404 76.0616 37.9634C76.1246 37.9514 76.1996 37.9454 76.2686 37.9454L84.5636 37.1714C84.5816 37.1714 84.5966 37.1714 84.6146 37.1714C84.7526 37.1714 84.8846 37.2224 84.9866 37.3154C85.1006 37.4204 85.1696 37.5674 85.1696 37.7234L85.2236 44.4884C85.2236 44.6444 85.1606 44.7914 85.0466 44.8994C84.9446 44.9954 84.8066 45.0494 84.6686 45.0494C84.6536 45.0494 84.6416 45.0494 84.6266 45.0494V45.0434Z" fill="#F9A534"></path><path d="M84.6145 37.7233L84.6685 44.4883L76.3855 43.8493C76.3675 43.8493 76.3525 43.8493 76.3345 43.8493C74.3875 43.8493 74.3845 38.7523 76.1365 38.5153C76.1875 38.5063 76.2385 38.5003 76.2925 38.5003C76.2925 38.5003 76.2955 38.5003 76.2985 38.5003L84.6175 37.7233M84.6145 36.6133C84.5815 36.6133 84.5455 36.6133 84.5125 36.6193L76.2385 37.3933C76.1515 37.3933 76.0615 37.4053 75.9685 37.4203C74.2705 37.6663 73.6315 39.7573 73.7545 41.6053C73.8925 43.6453 74.9035 44.9623 76.3375 44.9623C76.3435 44.9623 76.3525 44.9623 76.3585 44.9623L84.5875 45.5983C84.6175 45.5983 84.6445 45.6013 84.6745 45.6013C84.9535 45.6013 85.2265 45.4963 85.4305 45.3043C85.6585 45.0913 85.7845 44.7943 85.7845 44.4853L85.7305 37.7203C85.7305 37.4083 85.5955 37.1143 85.3645 36.9043C85.1605 36.7183 84.8935 36.6193 84.6205 36.6193L84.6145 36.6133Z" fill="black"></path><path d="M84.6626 45.0464C83.3216 45.0464 82.6046 43.0724 82.5896 41.1254C82.5746 39.1694 83.2616 37.1834 84.6086 37.1714C85.9586 37.1714 86.6756 39.1454 86.6906 41.0924C86.7056 43.0484 86.0186 45.0374 84.6716 45.0464H84.6626Z" fill="white"></path><path d="M84.6205 37.7233C85.4455 37.7233 86.1235 39.2293 86.1385 41.0953C86.1535 42.9643 85.4965 44.4823 84.6685 44.4913C84.6685 44.4913 84.6655 44.4913 84.6625 44.4913C83.8375 44.4913 83.1595 42.9853 83.1445 41.1193C83.1295 39.2503 83.7865 37.7323 84.6145 37.7233C84.6145 37.7233 84.6175 37.7233 84.6205 37.7233ZM84.6205 36.6133C84.6205 36.6133 84.6085 36.6133 84.6055 36.6133C83.0725 36.6253 82.0135 38.4823 82.0345 41.1283C82.0555 43.7623 83.1355 45.6013 84.6625 45.6013C85.1785 45.5983 86.1115 45.3763 86.7355 43.9333C87.0715 43.1533 87.2545 42.1423 87.2455 41.0893C87.2245 38.4553 86.1445 36.6163 84.6175 36.6163L84.6205 36.6133Z" fill="black"></path><path d="M74.8701 43.9183L68.7981 43.5013H68.7831C67.8831 43.5013 67.2201 42.6763 67.1331 41.4433C67.0521 40.2913 67.5111 39.0493 68.5521 38.8993C68.6031 38.8903 68.6631 38.8843 68.7231 38.8843L74.8251 38.3743C74.8401 38.3743 74.8551 38.3743 74.8701 38.3743C75.0081 38.3743 75.1401 38.4253 75.2451 38.5183C75.3591 38.6233 75.4251 38.7703 75.4251 38.9233L75.4641 43.3603C75.4641 43.5163 75.4011 43.6633 75.2901 43.7683C75.1881 43.8643 75.0501 43.9183 74.9091 43.9183C74.8971 43.9183 74.8851 43.9183 74.8701 43.9183Z" fill="#F9A534"></path><path d="M74.8703 38.9263L74.9093 43.3633L71.5463 43.1323L71.3663 43.1203L68.8103 42.9463C68.8103 42.9463 68.7893 42.9463 68.7803 42.9463C67.3523 42.9463 67.3133 39.6373 68.6273 39.4483C68.6633 39.4423 68.7023 39.4393 68.7413 39.4393C68.7413 39.4393 68.7443 39.4393 68.7473 39.4393L71.4233 39.2143L71.6153 39.1993L74.8703 38.9263ZM74.8703 37.8163C74.8403 37.8163 74.8073 37.8163 74.7773 37.8193L71.5223 38.0923L71.3303 38.1073L68.6933 38.3293C68.6183 38.3293 68.5403 38.3383 68.4593 38.3503C67.2563 38.5243 66.4613 39.8413 66.5783 41.4823C66.6893 43.0213 67.5743 44.0533 68.7833 44.0563L71.2943 44.2273L71.4713 44.2393L74.8343 44.4703C74.8583 44.4703 74.8853 44.4703 74.9093 44.4703C75.1913 44.4703 75.4643 44.3623 75.6713 44.1673C75.8963 43.9543 76.0223 43.6603 76.0193 43.3483L75.9803 38.9113C75.9803 38.6023 75.8453 38.3083 75.6173 38.1013C75.4133 37.9153 75.1463 37.8103 74.8703 37.8103V37.8163Z" fill="black"></path><path d="M81.2784 45.0763L73.0254 44.4373H72.9864C71.8704 44.4373 71.0724 43.3243 70.9584 41.5993C70.8474 39.9403 71.4144 38.1733 72.7134 37.9963C72.7764 37.9843 72.8514 37.9783 72.9204 37.9783L81.2154 37.2043C81.2334 37.2043 81.2484 37.2043 81.2664 37.2043C81.4044 37.2043 81.5364 37.2553 81.6384 37.3483C81.7524 37.4533 81.8214 37.6003 81.8214 37.7563L81.8754 44.5213C81.8754 44.6773 81.8124 44.8243 81.6984 44.9323C81.5964 45.0283 81.4584 45.0823 81.3204 45.0823C81.3054 45.0823 81.2934 45.0823 81.2784 45.0823V45.0763Z" fill="#F9A534"></path><path d="M81.2663 37.7562L81.3203 44.5212L73.0373 43.8822C73.0193 43.8822 73.0043 43.8822 72.9863 43.8822C71.0393 43.8822 71.0363 38.7852 72.7853 38.5482C72.8363 38.5392 72.8873 38.5332 72.9413 38.5332C72.9413 38.5332 72.9443 38.5332 72.9473 38.5332L81.2663 37.7562ZM81.2663 36.6462C81.2333 36.6462 81.1973 36.6462 81.1643 36.6522L72.8903 37.4262C72.8033 37.4262 72.7133 37.4382 72.6203 37.4532C70.9223 37.6992 70.2833 39.7902 70.4063 41.6382C70.5443 43.6782 71.5553 44.9952 72.9893 44.9952C72.9953 44.9952 73.0043 44.9952 73.0103 44.9952L81.2393 45.6312C81.2693 45.6312 81.2963 45.6342 81.3263 45.6342C81.6053 45.6342 81.8783 45.5292 82.0823 45.3372C82.3103 45.1242 82.4363 44.8272 82.4363 44.5182L82.3823 37.7532C82.3823 37.4412 82.2473 37.1472 82.0163 36.9372C81.8123 36.7512 81.5453 36.6522 81.2723 36.6522L81.2663 36.6462Z" fill="black"></path><path d="M81.3174 45.0793C79.9764 45.0793 79.2594 43.1053 79.2444 41.1583C79.2294 39.2023 79.9164 37.2163 81.2634 37.2043C82.6134 37.2043 83.3304 39.1783 83.3454 41.1253C83.3604 43.0813 82.6734 45.0703 81.3264 45.0793H81.3174Z" fill="white"></path><path d="M81.2724 37.7562C82.0974 37.7562 82.7754 39.2622 82.7904 41.1282C82.8054 42.9972 82.1484 44.5152 81.3204 44.5242C81.3204 44.5242 81.3174 44.5242 81.3144 44.5242C80.4894 44.5242 79.8114 43.0182 79.7964 41.1522C79.7814 39.2832 80.4384 37.7652 81.2664 37.7562C81.2664 37.7562 81.2694 37.7562 81.2724 37.7562ZM81.2724 36.6462C81.2724 36.6462 81.2604 36.6462 81.2574 36.6462C80.7564 36.6492 79.8204 36.8712 79.1964 38.3142C78.8604 39.0942 78.6774 40.1052 78.6864 41.1582C78.7074 43.7922 79.7874 45.6312 81.3144 45.6312C81.8304 45.6282 82.7634 45.4062 83.3874 43.9632C83.7234 43.1832 83.9064 42.1722 83.8974 41.1192C83.8764 38.4852 82.7964 36.6462 81.2694 36.6462H81.2724Z" fill="black"></path></g><defs><clipPath id="clip0_469_29401"><rect width="145.377" height="121.572" fill="white" transform="translate(0.623047 0.214111)"></rect></clipPath></defs></svg>