<svg xmlns="http://www.w3.org/2000/svg" width="14" height="16" viewBox="0 0 14 16" fill="none"><path d="M12.494 6.4655C12.482 7.4865 12.0445 8.7531 11.1698 9.86638C10.8536 10.2685 10.847 10.4257 11.1407 10.8267C12.0194 12.0264 12.8978 13.2261 13.7755 14.4264C14.1131 14.8886 14.0785 15.104 13.6127 15.4513C13.4769 15.5527 13.3404 15.6525 13.203 15.7514C12.7377 16.0865 12.5113 16.0542 12.1756 15.5965C11.3182 14.4263 10.4625 13.2547 9.6068 12.0831C9.22569 11.5617 9.16832 11.5435 8.55187 11.7609C4.94444 13.0337 1.22081 10.9052 0.487169 7.15092C-0.155653 3.85918 2.19005 0.582199 5.54186 0.0913545C9.21446 -0.446853 12.4828 2.36479 12.494 6.4655ZM11.5045 6.09428C11.5135 3.29826 9.26647 1.03203 6.47521 1.02153C3.67076 1.01079 1.39806 3.24651 1.3839 6.03056C1.36901 8.85722 3.60167 11.125 6.41295 11.1392C9.23033 11.1534 11.4957 8.90874 11.5045 6.09428Z" fill="#808080"></path></svg>