<svg xmlns="http://www.w3.org/2000/svg" width="80" height="81" viewBox="0 0 80 81" fill="none"><path d="M61.1358 53.064H61.3503V48.0235L58.274 47.9952L58.2458 52.8382C56.1743 53.335 54.622 55.1977 54.622 57.4216C54.622 57.4273 54.622 57.4273 54.622 57.4329L51.2748 57.416L51.2466 60.4922L55.7848 60.5205C56.6484 61.5139 57.9184 62.1461 59.3408 62.1461C61.943 62.1461 64.0597 60.0294 64.0597 57.4273C64.0653 55.4573 62.8517 53.7696 61.1358 53.064ZM59.3465 59.036C58.4547 59.036 57.7322 58.3134 57.7322 57.4216C57.7322 56.5298 58.4547 55.8073 59.3465 55.8073C60.2383 55.8073 60.9608 56.5298 60.9608 57.4216C60.9608 58.3134 60.2327 59.036 59.3465 59.036Z" fill="#808080"></path><path d="M32.7721 43.9933H35.3009V40.917L32.8737 40.8888C32.8568 40.8606 32.8398 40.8041 32.8398 40.7251V40.6969H29.7636L29.7354 40.7251C29.7354 42.2999 30.8755 43.9538 32.7721 43.9933Z" fill="#808080"></path><path d="M23.6956 60.4922L28.7643 60.5204V57.4441L23.7238 57.4159L23.6956 60.4922Z" fill="#808080"></path><path d="M21.7257 57.4159H19.7106C19.3324 55.9483 18.2656 54.763 16.877 54.2098C18.6212 52.3358 21.4886 48.7459 21.5789 45.3535C21.6692 41.8822 18.7454 38.8341 15.3191 38.8341C11.8929 38.8341 8.81098 41.8822 8.72067 45.3535C8.62471 48.9886 11.4188 52.5785 13.0613 54.3679C11.5034 55.1412 10.431 56.7442 10.431 58.5956C10.431 61.1978 12.5477 63.3145 15.1498 63.3145C17.0689 63.3145 18.7171 62.163 19.4566 60.5204H21.7313V60.4922L21.8781 60.5148V57.4385L21.7257 57.4159ZM15.2627 40.8436C17.6221 40.8436 19.6372 42.9546 19.5751 45.3592C19.4961 48.3959 16.3464 51.9464 14.924 53.397C13.575 51.9972 10.6342 48.5596 10.7188 45.3592C10.7809 42.9546 12.9033 40.8436 15.2627 40.8436ZM15.1442 60.2156C14.2523 60.2156 13.5298 59.4931 13.5298 58.6013C13.5298 57.7094 14.2523 56.9869 15.1442 56.9869C16.036 56.9869 16.7585 57.7094 16.7585 58.6013C16.7585 59.4931 16.036 60.2156 15.1442 60.2156Z" fill="#808080"></path><path d="M52.1496 24.9091L47.109 24.8809L47.0808 27.9571L52.1496 27.9854V24.9091Z" fill="#808080"></path><path d="M30.582 60.4922L35.6508 60.5204V57.4441L30.6103 57.4159L30.582 60.4922Z" fill="#808080"></path><path d="M59.0361 24.9091H59.0079V24.8809V24.9091L53.9955 24.8809L53.9673 27.9571L59.0361 27.9854V24.9091Z" fill="#808080"></path><path d="M45.2578 24.9091L40.2172 24.8809L40.189 27.9571L45.2578 27.9854V24.9091Z" fill="#808080"></path><path d="M32.8398 38.8793V33.8388L29.7636 33.8105L29.7354 38.8511L32.8398 38.8793Z" fill="#808080"></path><path d="M42.1872 40.917L37.1466 40.8888L37.1184 43.9651L42.1872 43.9933V40.917Z" fill="#808080"></path><path d="M44.3604 60.4922L49.4291 60.5204V57.4441L44.3886 57.4159L44.3604 60.4922Z" fill="#808080"></path><path d="M61.3559 46.1721V44.1513C61.3503 42.5765 60.2158 40.9283 58.3192 40.8888H57.8112L57.783 43.9651L58.2176 43.9933C58.2289 44.0215 58.2515 44.078 58.2515 44.1513V46.1439L61.3559 46.1721Z" fill="#808080"></path><path d="M55.9655 40.917L50.925 40.8888L50.8967 43.9651L55.9655 43.9933V40.917Z" fill="#808080"></path><path d="M37.4739 60.4922L42.5427 60.5204V57.4441L37.5021 57.4159L37.4739 60.4922Z" fill="#808080"></path><path d="M49.0791 40.917L44.0329 40.8888L44.0046 43.9651L49.0791 43.9933V40.917Z" fill="#808080"></path><path d="M29.7352 30.3222V31.9648L32.8397 31.993V30.4238C34.0871 30.0344 35.1144 29.1312 35.6732 27.9685L38.3713 27.9854V24.9091L36.0345 24.8978C35.566 22.7868 33.6807 21.2063 31.4342 21.2063C28.832 21.2063 26.7154 23.323 26.7154 25.9251C26.7097 27.9289 27.9684 29.6392 29.7352 30.3222ZM31.4285 24.3108C32.3204 24.3108 33.0429 25.0333 33.0429 25.9251C33.0429 26.817 32.3204 27.5395 31.4285 27.5395C30.5367 27.5395 29.8142 26.817 29.8142 25.9251C29.8142 25.0333 30.5367 24.3108 31.4285 24.3108Z" fill="#808080"></path><path d="M15.0651 48.317C16.685 48.317 18.0397 46.9962 18.0792 45.3762C18.1188 43.7562 16.8374 42.4354 15.2175 42.4354C13.5975 42.4354 12.2428 43.7562 12.2033 45.3762C12.1638 46.9962 13.4451 48.317 15.0651 48.317ZM15.1667 44.4392C15.686 44.4392 16.0924 44.8626 16.0811 45.3819C16.0698 45.9012 15.6352 46.3189 15.1159 46.3189C14.5966 46.3189 14.1845 45.8955 14.2014 45.3819C14.2184 44.8682 14.653 44.4392 15.1667 44.4392Z" fill="#808080"></path><path d="M71.8378 28.7022L69.484 26.4105L71.6967 24.1358C71.9394 23.8874 72.0692 23.5657 72.0636 23.2214C72.0579 22.877 71.9168 22.5553 71.6741 22.3126L69.1228 19.8234C68.6091 19.3266 67.7963 19.3379 67.2996 19.8459L65.0869 22.1207L62.7332 19.8234C62.2252 19.3266 61.4067 19.3379 60.91 19.8459L58.4941 22.3295C58.003 22.8375 58.0087 23.6504 58.5223 24.1527L60.8761 26.4444L58.6635 28.7135C58.4207 28.9562 58.2909 29.2836 58.2966 29.6279C58.3022 29.9722 58.4377 30.2996 58.686 30.5423L61.2317 33.0259C61.4744 33.263 61.7962 33.3928 62.1348 33.3928C62.4792 33.3928 62.8178 33.2517 63.0549 33.0033L65.2676 30.7286L67.6213 33.0259C68.1293 33.517 68.9478 33.5057 69.4445 33.0033L71.8604 30.5198C72.3627 30.0174 72.3515 29.2046 71.8378 28.7022ZM68.5075 30.7399L66.1538 28.4426C65.6457 27.9458 64.8273 27.9571 64.3306 28.4651L62.1179 30.7399L60.9551 29.6053L63.1678 27.3306C63.6645 26.8226 63.6532 26.0041 63.1396 25.5074L60.7858 23.2157L61.8526 22.1207L64.2064 24.418C64.7144 24.9091 65.5329 24.8978 66.0296 24.3954L68.2422 22.1207L69.405 23.2552L67.1923 25.53C66.7013 26.038 66.7069 26.8508 67.2206 27.3532L69.5743 29.6448L68.5075 30.7399Z" fill="#808080"></path></svg>