<svg xmlns="http://www.w3.org/2000/svg" width="81" height="81" viewBox="0 0 81 81" fill="none"><path d="M67.7333 18.6739H49.6028C47.7405 15.2607 44.3725 13.0248 40.4272 12.9116C37.546 12.8266 34.6195 13.9701 32.4685 16.0588C31.6704 16.8343 30.9968 17.7173 30.4647 18.6739H12.4927C11.4568 18.6739 10.6134 19.5173 10.6134 20.5532V59.3275C10.6134 60.3634 11.4568 61.2068 12.4927 61.2068H35.5874L34.5403 65.9842H26.6835C26.508 65.9842 26.3609 66.1257 26.3609 66.3069V68.7805C26.3609 68.956 26.5024 69.1031 26.6835 69.1031H53.5595C53.735 69.1031 53.8821 68.9616 53.8821 68.7805V66.3069C53.8821 66.1314 53.7406 65.9842 53.5595 65.9842H46.5235L45.3971 61.2068H67.7277C68.7635 61.2068 69.6069 60.3634 69.6069 59.3275V20.5532C69.6126 19.5173 68.7692 18.6739 67.7333 18.6739ZM61.1219 26.3665V53.5142H54.7482V30.7421C54.7482 29.7062 53.9048 28.8628 52.8689 28.8628H50.2255C50.5764 27.9232 50.7915 27.0854 50.9274 26.3665H61.1219ZM19.1041 53.5142V26.3665H29.31C29.4571 27.2156 29.6779 28.0477 29.9609 28.8628H27.3571C26.3212 28.8628 25.4778 29.7062 25.4778 30.7421V53.5142H19.1041ZM34.2742 18.6739C34.3874 18.5437 34.512 18.4192 34.6365 18.2947C36.1365 16.8399 38.1233 16.0192 40.1215 16.0192H40.3366C42.5102 16.0814 44.4404 17.072 45.8216 18.6739C46.5801 19.5513 47.1801 20.6041 47.5537 21.7872C47.7122 22.257 47.8311 22.7495 47.9103 23.2533C47.9499 23.5136 47.9839 23.7797 48.0065 24.0457C48.0688 24.7872 47.9896 25.5684 47.7971 26.3665C47.6047 27.1873 47.2933 28.025 46.8971 28.8628C46.4046 29.9213 45.7876 30.9742 45.114 31.9761C43.3536 34.5969 41.2309 36.9007 40.0536 38.1007C38.8422 36.9573 36.6799 34.7384 34.9308 31.9761C34.3138 30.9968 33.7421 29.9496 33.2893 28.8628C32.9497 28.0533 32.6723 27.2156 32.4855 26.3665C32.3044 25.5627 32.2025 24.742 32.2025 23.9155C32.2025 23.6948 32.2138 23.474 32.2364 23.2533C32.2761 22.7551 32.3723 22.2627 32.5195 21.7872C32.8534 20.6494 33.4534 19.5739 34.2742 18.6739ZM28.5911 31.9761H31.3251C33.861 36.7365 37.795 40.3026 38.8705 41.2309C39.2215 41.5366 39.6573 41.6838 40.0875 41.6838C40.5574 41.6838 41.0215 41.5083 41.3838 41.163C45.0405 37.6705 47.3443 34.5686 48.7877 31.9761H51.6349V53.5142H28.5911V31.9761ZM43.3253 65.9842H37.7214L38.7686 61.2068H42.1989L43.3253 65.9842ZM66.4993 58.0935H13.7267V21.7872H29.31C29.2081 22.2683 29.1402 22.7608 29.1175 23.2533H17.8701C16.8343 23.2533 15.9909 24.0967 15.9909 25.1325V54.7482C15.9909 55.784 16.8343 56.6274 17.8701 56.6274H27.3571H52.8689H62.3559C63.3917 56.6274 64.2351 55.784 64.2351 54.7482V25.1325C64.2351 24.0967 63.3917 23.2533 62.3559 23.2533H51.0575C50.9953 22.7551 50.9047 22.2627 50.7915 21.7872H66.4993V58.0935Z" fill="#808080"></path><path d="M36.5214 28.8627C37.5007 29.6552 38.746 30.125 40.1045 30.125C41.4574 30.125 42.7027 29.6552 43.6819 28.8627C44.4914 28.2118 45.1197 27.3514 45.482 26.3665C45.7027 25.7495 45.8273 25.0929 45.8273 24.4023C45.8273 24.0117 45.7876 23.6268 45.7084 23.2532C45.6065 22.7381 45.431 22.2456 45.1933 21.7871C44.2423 19.9418 42.3178 18.6739 40.1045 18.6739C37.8856 18.6739 35.961 19.9418 35.0157 21.7871C34.7723 22.2456 34.5969 22.7381 34.495 23.2532C34.4157 23.6268 34.3761 24.0117 34.3761 24.4023C34.3761 25.0929 34.5006 25.7495 34.7271 26.3665C35.0893 27.3514 35.712 28.2118 36.5214 28.8627ZM40.1045 21.7871C41.1291 21.7871 42.0234 22.3872 42.448 23.2532C42.6178 23.5985 42.714 23.9891 42.714 24.4023C42.714 25.1834 42.3687 25.8853 41.8196 26.3665C41.3611 26.7684 40.7611 27.0118 40.1045 27.0118C39.4422 27.0118 38.8422 26.7684 38.3837 26.3665C37.8347 25.8853 37.4894 25.1834 37.4894 24.4023C37.4894 23.9891 37.5856 23.5985 37.7611 23.2532C38.18 22.3872 39.0743 21.7871 40.1045 21.7871Z" fill="#808080"></path><path d="M33.7478 47.3612H31.0874C30.4364 47.3612 29.91 47.8876 29.91 48.5386V51.199C29.91 51.8499 30.4364 52.3764 31.0874 52.3764H33.7478C34.3988 52.3764 34.9252 51.8499 34.9252 51.199V48.5386C34.9252 47.8876 34.3988 47.3612 33.7478 47.3612ZM33.1535 50.6046H31.6874V49.1386H33.1535V50.6046Z" fill="#808080"></path><path d="M46.8914 50.4857H41.0441C40.8573 50.4857 40.7045 50.6386 40.7045 50.8254V51.9971C40.7045 52.1839 40.8573 52.3367 41.0441 52.3367H46.8914C47.0782 52.3367 47.231 52.1839 47.231 51.9971V50.8254C47.231 50.6386 47.0782 50.4857 46.8914 50.4857Z" fill="#808080"></path><path d="M49.6254 50.4857H48.3518C48.165 50.4857 48.0122 50.6386 48.0122 50.8254V51.9971C48.0122 52.1839 48.165 52.3367 48.3518 52.3367H49.6254C49.8122 52.3367 49.9651 52.1839 49.9651 51.9971V50.8254C49.9651 50.6386 49.8179 50.4857 49.6254 50.4857Z" fill="#808080"></path><path d="M49.6254 47.6499H41.0441C40.8573 47.6499 40.7045 47.8027 40.7045 47.9895V49.1612C40.7045 49.348 40.8573 49.5009 41.0441 49.5009H49.6311C49.8178 49.5009 49.9707 49.348 49.9707 49.1612V47.9895C49.965 47.8027 49.8178 47.6499 49.6254 47.6499Z" fill="#808080"></path><path d="M58.4841 65.9841H55.9086C55.7331 65.9841 55.5859 66.1256 55.5859 66.3068V68.7804C55.5859 68.9559 55.7274 69.1031 55.9086 69.1031H58.4841C58.6596 69.1031 58.8067 68.9615 58.8067 68.7804V66.3068C58.8067 66.1256 58.6652 65.9841 58.4841 65.9841Z" fill="#808080"></path><path d="M24.3174 65.9841H21.7419C21.5664 65.9841 21.4193 66.1256 21.4193 66.3068V68.7804C21.4193 68.9559 21.5608 69.1031 21.7419 69.1031H24.3174C24.4929 69.1031 24.6401 68.9615 24.6401 68.7804V66.3068C24.6401 66.1256 24.4986 65.9841 24.3174 65.9841Z" fill="#808080"></path></svg>