<svg xmlns="http://www.w3.org/2000/svg" width="20" height="20" viewBox="0 0 20 20" fill="none"><path d="M14.5079 16.465H5.47098C5.21133 16.465 5.00107 16.2547 5.00107 15.9951V8.50334C5.00107 8.24369 5.21274 8.03344 5.47098 8.03344H14.5079C14.7675 8.03344 14.9778 8.24511 14.9778 8.50334V15.9951C14.9778 16.2547 14.7661 16.465 14.5079 16.465ZM5.77719 15.6888H14.2017V8.80956H5.77719V15.6888Z" fill="#808080"></path><path d="M16.166 10.6003L14.2384 8.67406C14.2073 8.64302 14.2073 8.59222 14.2384 8.56117L14.6744 8.12513C14.7055 8.09409 14.7563 8.09409 14.7873 8.12513L16.7135 10.0513C16.7445 10.0824 16.7445 10.1332 16.7135 10.1642L16.2775 10.6003C16.2478 10.6327 16.197 10.6327 16.166 10.6003Z" fill="#808080"></path><path d="M3.72116 10.5791L3.28512 10.1431C3.25408 10.112 3.25408 10.0612 3.28512 10.0302L5.21132 8.104C5.24237 8.07296 5.29317 8.07296 5.32421 8.104L5.76025 8.54004C5.7913 8.57109 5.7913 8.62189 5.76025 8.65294L3.83406 10.5791C3.80301 10.6102 3.75221 10.6102 3.72116 10.5791Z" fill="#808080"></path><path d="M9.32902 15.1681H8.81395C8.76033 15.1681 8.71658 15.1244 8.71658 15.0708V14.5374C8.71658 14.4837 8.76033 14.44 8.81395 14.44H9.32902C9.38264 14.44 9.42638 14.4837 9.42638 14.5374V15.0708C9.42638 15.1244 9.38264 15.1681 9.32902 15.1681Z" fill="#808080"></path><path d="M13.4566 15.1681H12.9415C12.8879 15.1681 12.8441 15.1244 12.8441 15.0708V14.5374C12.8441 14.4837 12.8879 14.44 12.9415 14.44H13.4566C13.5102 14.44 13.5539 14.4837 13.5539 14.5374V15.0708C13.5554 15.1244 13.5116 15.1681 13.4566 15.1681Z" fill="#808080"></path><path d="M12.3644 15.1681H9.90761C9.85399 15.1681 9.81024 15.1244 9.81024 15.0708V14.5374C9.81024 14.4837 9.85399 14.44 9.90761 14.44H12.3658C12.4194 14.44 12.4632 14.4837 12.4632 14.5374V15.0708C12.4632 15.1244 12.4194 15.1681 12.3644 15.1681Z" fill="#808080"></path><path d="M5.97899 7.39701L4.4973 6.09171C4.46061 6.05926 4.45779 6.00564 4.49025 5.96895L4.88819 5.51738C4.92064 5.48069 4.97427 5.47787 5.01095 5.51033L6.49265 6.81563C6.52933 6.84808 6.53216 6.90171 6.4997 6.9384L6.10176 7.38996C6.07072 7.42524 6.01568 7.42806 5.97899 7.39701Z" fill="#808080"></path><path d="M7.599 6.00141L6.79606 4.19798C6.77631 4.15423 6.79606 4.10202 6.83981 4.08367L7.39015 3.83814C7.43389 3.81838 7.48611 3.83814 7.50445 3.88188L8.30739 5.68531C8.32714 5.72906 8.30739 5.78127 8.26364 5.79961L7.7133 6.04515C7.66955 6.06491 7.61875 6.04515 7.599 6.00141Z" fill="#808080"></path><path d="M9.61406 5.40733L9.61124 3.43315C9.61124 3.38517 9.65075 3.34566 9.69873 3.34566L10.3013 3.34425C10.3493 3.34425 10.3888 3.38376 10.3888 3.43174L10.3916 5.40592C10.3916 5.4539 10.3521 5.49341 10.3041 5.49341L9.70155 5.49482C9.65357 5.49482 9.61406 5.45531 9.61406 5.40733Z" fill="#808080"></path><path d="M12.3235 6.06206L11.7759 5.81229C11.7322 5.79253 11.7124 5.74032 11.7336 5.69657L12.5535 3.9002C12.5732 3.85646 12.6254 3.8367 12.6692 3.85787L13.2167 4.10764C13.2604 4.12739 13.2802 4.1796 13.259 4.22335L12.4392 6.01972C12.418 6.06206 12.3672 6.08181 12.3235 6.06206Z" fill="#808080"></path><path d="M13.9716 7.47178L13.5822 7.01316C13.5511 6.97647 13.5554 6.92144 13.592 6.89039L15.0991 5.61332C15.1358 5.58227 15.1909 5.5865 15.2219 5.62319L15.6114 6.08181C15.6424 6.1185 15.6382 6.17354 15.6015 6.20458L14.0944 7.48166C14.0577 7.5127 14.0027 7.50847 13.9716 7.47178Z" fill="#808080"></path></svg>