<svg xmlns="http://www.w3.org/2000/svg" width="20" height="20" viewBox="0 0 20 20" fill="none"><path d="M8.32287 6.76491C8.12672 6.76491 7.93763 6.72822 7.77253 6.65343C7.35342 6.46151 7.06414 6.13413 6.93431 5.70515C6.79743 5.25499 6.85811 4.73711 7.08954 4.35328C7.36048 3.90595 7.83744 3.64912 8.04629 3.54611L8.05052 3.12983C8.05193 2.91533 8.22832 2.74176 8.44141 2.74176C8.65449 2.74176 8.82806 2.91533 8.82665 3.12983L8.82241 3.59268C8.821 3.81987 8.70952 4.03436 8.52466 4.16701C8.49362 4.18959 8.46681 4.20229 8.42588 4.22204C8.09286 4.38432 7.86707 4.56213 7.75136 4.75122C7.65682 4.90785 7.5919 5.20137 7.67516 5.47372C7.74007 5.68821 7.8826 5.84767 8.09991 5.94645C8.26078 6.01983 8.57687 6.00572 8.84499 5.83497C9.0115 5.72913 9.20906 5.52593 9.2133 5.16045C9.21471 4.94596 9.3911 4.77239 9.60418 4.77239C9.81726 4.77239 9.99083 4.94596 9.98942 5.16045C9.98519 5.71926 9.72554 6.19058 9.25986 6.48833C8.97482 6.66895 8.63896 6.76491 8.32287 6.76491Z" fill="#808080"></path><path d="M13.959 15.6593H2.7108C2.44974 15.6593 2.23948 15.4476 2.24231 15.1865L2.30157 8.44556C2.3044 8.18591 2.51748 7.97424 2.77854 7.97424H9.53081L9.52376 8.75036H3.07488L3.02125 14.8832H13.6626L13.6922 11.567H14.4684L14.4373 15.1865C14.4331 15.4476 14.22 15.6593 13.959 15.6593Z" fill="#808080"></path><path d="M4.88818 8.68123C4.76117 8.68123 4.6384 8.61914 4.56503 8.50625C4.44931 8.32703 4.50011 8.08714 4.68074 7.96861L7.86708 5.88577C8.14931 5.70091 8.50068 5.69527 8.78573 5.87307L10.2801 6.81289C10.4607 6.92578 10.5144 7.16567 10.3987 7.34771C10.2829 7.52974 10.0445 7.58478 9.86242 7.47189L8.36944 6.53348C8.35251 6.52219 8.32146 6.51373 8.2876 6.53489L8.14931 6.62521L5.10267 8.61773C5.03634 8.66006 4.96155 8.68123 4.88818 8.68123Z" fill="#808080"></path><path d="M7.49876 12.8328H6.8708C6.82988 12.8328 6.79742 12.8003 6.79742 12.7594L6.82565 9.44748C6.82565 9.40656 6.85951 9.37411 6.90044 9.37411H7.52839C7.56931 9.37411 7.60177 9.40656 7.60177 9.44748L7.57355 12.7594C7.57214 12.8003 7.53827 12.8328 7.49876 12.8328Z" fill="#808080"></path><path d="M9.79609 14.1804H9.16814C9.12721 14.1804 9.09476 14.148 9.09476 14.107L9.12298 10.7951C9.12298 10.7542 9.15685 10.7217 9.19777 10.7217H9.82573C9.86665 10.7217 9.8991 10.7542 9.8991 10.7951L9.87088 14.107C9.87088 14.148 9.83701 14.1804 9.79609 14.1804Z" fill="#808080"></path><path d="M12.2021 11.6136L12.1922 12.7594C12.1922 12.8003 12.1597 12.8342 12.1188 12.8342H11.4895C11.4499 12.8342 11.4161 12.8003 11.4161 12.7594L11.4274 11.4203C11.4288 11.4203 11.4288 11.4217 11.4302 11.4217C11.6729 11.5233 11.9326 11.5882 12.2021 11.6136Z" fill="#808080"></path><path d="M9.92309 9.65351L9.91885 10.0656C9.91885 10.1065 9.8864 10.1389 9.84547 10.1389H9.21752C9.1766 10.1389 9.14273 10.1065 9.14273 10.0656L9.14838 9.44748C9.14838 9.40797 9.18224 9.37411 9.22317 9.37411H9.85112C9.85676 9.37411 9.86241 9.37411 9.86805 9.37552C9.88216 9.47006 9.8991 9.56179 9.92309 9.65351Z" fill="#808080"></path><path d="M7.46067 14.1804H6.83272C6.79179 14.1804 6.75934 14.148 6.75934 14.107L6.76498 13.4904C6.76498 13.4495 6.79885 13.417 6.83977 13.417H7.46773C7.50865 13.417 7.54111 13.4495 7.54111 13.4904L7.53546 14.107C7.53405 14.148 7.50159 14.1804 7.46067 14.1804Z" fill="#808080"></path><path d="M12.1061 14.1804H11.4782C11.4372 14.1804 11.4048 14.148 11.4048 14.107L11.4104 13.4904C11.4104 13.4495 11.4443 13.417 11.4852 13.417H12.1132C12.1541 13.417 12.1866 13.4495 12.1866 13.4904L12.1809 14.107C12.1795 14.148 12.147 14.1804 12.1061 14.1804Z" fill="#808080"></path><path d="M5.21131 10.1389H4.58336C4.54244 10.1389 4.50998 10.1065 4.50998 10.0656L4.51562 9.44748C4.51562 9.40656 4.54949 9.37411 4.59041 9.37411H5.21837C5.25929 9.37411 5.29175 9.40656 5.29175 9.44748L5.2861 10.0641C5.2861 10.1051 5.25224 10.1389 5.21131 10.1389Z" fill="#808080"></path><path d="M5.17603 14.1804H4.54808C4.50716 14.1804 4.4747 14.148 4.4747 14.107L4.50292 10.7951C4.50292 10.7542 4.53679 10.7217 4.57771 10.7217H5.20567C5.24659 10.7217 5.27905 10.7542 5.27905 10.7951L5.25082 14.107C5.25082 14.148 5.21696 14.1804 5.17603 14.1804Z" fill="#808080"></path><path d="M15.1203 6.44035C14.4797 5.77712 13.6132 5.41304 12.6776 5.41304C11.4824 5.41304 10.4043 6.01842 9.74812 6.93707C9.44473 7.35618 9.23024 7.8402 9.13146 8.36231C9.099 8.53588 9.07783 8.7151 9.07219 8.89713C9.06231 9.18783 9.0863 9.47288 9.14698 9.74664C9.17379 9.87928 9.21048 10.0105 9.25564 10.1389C9.32619 10.3407 9.4151 10.5369 9.52093 10.7217C9.62818 10.908 9.75377 11.083 9.89629 11.2467L9.8977 11.2481C9.9358 11.2918 9.97249 11.3328 10.0134 11.3751C10.4071 11.7843 10.8911 12.0792 11.4217 12.2458C11.6715 12.3234 11.9297 12.3728 12.1964 12.3925C12.2825 12.3996 12.3686 12.4024 12.4561 12.4024C13.0347 12.4024 13.5878 12.2599 14.0761 12.0087C14.3216 11.8831 14.5516 11.7293 14.7619 11.5515C14.9651 11.3821 15.1499 11.1902 15.3136 10.9786C15.3969 10.8713 15.4731 10.7598 15.5422 10.6441C15.6791 10.4197 15.792 10.1813 15.8753 9.93008C15.9853 9.60976 16.0488 9.26967 16.0615 8.9183C16.0926 7.98272 15.7596 7.10217 15.1203 6.44035ZM12.4617 11.6263C12.3742 11.6263 12.2882 11.622 12.2021 11.6136C11.9326 11.5882 11.6743 11.5233 11.4302 11.4217C11.4288 11.4217 11.4288 11.4202 11.4274 11.4202C11.1099 11.2862 10.8192 11.0872 10.5736 10.8332C10.2519 10.5002 10.0318 10.0952 9.9231 9.6535C9.90053 9.56178 9.88218 9.47006 9.86948 9.37551C9.85114 9.22593 9.84267 9.07353 9.84831 8.9183C9.90053 7.41262 11.1677 6.18917 12.672 6.18917C13.3959 6.18917 14.0662 6.46998 14.5601 6.98081C15.0526 7.49306 15.3108 8.17322 15.2854 8.89713C15.2318 10.4014 13.966 11.6263 12.4617 11.6263Z" fill="#808080"></path><path d="M19.0955 12.2261C19.0715 12.1019 18.9981 11.9918 18.8937 11.9227L15.8738 9.93016L15.4971 9.68039L15.0653 10.3295L15.5408 10.6442L18.205 12.4011L17.9919 12.7073L15.3122 10.9786L14.8127 10.6569L14.3879 11.3102L14.7619 11.5515L17.8127 13.5187C17.8918 13.5695 17.9821 13.5935 18.0696 13.5935C18.2205 13.5935 18.3687 13.5215 18.4619 13.386L19.0193 12.5873C19.0912 12.4829 19.118 12.3503 19.0955 12.2261Z" fill="#808080"></path><path d="M12.5563 10.3182C11.457 10.3182 10.6174 9.15538 10.5821 9.10599L10.4791 8.96205L10.5835 8.81812C10.6202 8.76873 11.481 7.60172 12.5803 7.60172C13.6795 7.60172 14.5164 8.76873 14.5516 8.81812L14.6532 8.96205L14.5488 9.10599C14.5121 9.15538 13.6541 10.3182 12.5563 10.3182ZM11.1 8.96064C11.3371 9.23864 11.9142 9.82426 12.5605 9.82426C13.2068 9.82426 13.791 9.24005 14.0323 8.96064C13.7953 8.68124 13.2223 8.09421 12.5746 8.09421C11.9255 8.09562 11.3413 8.68124 11.1 8.96064Z" fill="#808080"></path><path d="M12.5591 9.66479C12.1696 9.66479 11.8563 9.3487 11.8606 8.95923C11.8634 8.56975 12.1837 8.25366 12.5718 8.25366C12.9613 8.25366 13.2745 8.56975 13.2717 8.95923C13.2675 9.3487 12.9486 9.66479 12.5591 9.66479ZM12.5676 8.74897C12.4504 8.74897 12.3559 8.84351 12.3545 8.96064C12.3531 9.07776 12.4476 9.17231 12.5633 9.17231C12.679 9.17231 12.775 9.07776 12.7764 8.96064C12.7778 8.84351 12.6847 8.74897 12.5676 8.74897Z" fill="#808080"></path></svg>