<svg xmlns="http://www.w3.org/2000/svg" width="20" height="20" viewBox="0 0 20 20" fill="none"><path d="M12.5408 9.15677H13.1518C13.2393 9.15677 13.3112 9.0848 13.3112 8.99731V8.37923C13.3112 8.29174 13.2393 8.21978 13.1518 8.21978H12.5408C12.4533 8.21978 12.3813 8.29174 12.3813 8.37923V8.99731C12.3813 9.0848 12.4533 9.15677 12.5408 9.15677Z" fill="white"></path><path d="M6.17937 9.15677H6.7918C6.87929 9.15677 6.95126 9.0848 6.95126 8.99731V8.37923C6.95126 8.29174 6.87929 8.21978 6.7918 8.21978H6.17937C6.09188 8.21978 6.01991 8.29174 6.01991 8.37923V8.99731C6.01991 9.0848 6.09047 9.15677 6.17937 9.15677Z" fill="white"></path><path d="M17.0733 14.0901L16.506 11.7363C16.4877 11.6587 16.4186 11.6037 16.3367 11.6037C16.3198 11.6037 16.3014 11.6065 16.2845 11.6121L13.7938 12.3995C13.7501 12.4137 13.7134 12.4433 13.6922 12.4842C13.6711 12.5251 13.6668 12.5717 13.681 12.6169L13.8588 13.1785C13.8813 13.2505 13.9477 13.2999 14.0239 13.2999C14.0422 13.2999 14.0591 13.297 14.0761 13.2914L15.0215 12.9922L15.0371 12.9979C15.0399 13.0035 15.0385 13.0092 15.0356 13.0134C13.8983 14.8338 12.1188 15.9514 10.1418 16.0897L10.1404 9.15535H11.9608C12.0483 9.15535 12.1202 9.08479 12.1202 8.99589V8.37782C12.1202 8.29033 12.0483 8.21836 11.9608 8.21836L10.1418 8.21977V6.04098C11.0153 5.81238 11.5981 4.97557 11.505 4.06821C11.4175 3.21448 10.7359 2.52726 9.88501 2.4313C9.81445 2.42283 9.7439 2.42001 9.67334 2.42001C8.65732 2.42001 7.83181 3.24552 7.83181 4.26154C7.83181 5.0927 8.40614 5.83072 9.20484 6.04098L9.20625 8.21977H7.39436C7.30687 8.21977 7.2349 8.29174 7.2349 8.37923V8.9973C7.2349 9.08479 7.30546 9.15676 7.39436 9.15676L9.20767 9.15535V16.0854C7.1333 15.9217 5.33975 14.7985 4.27857 12.9894L5.26496 13.345C5.2833 13.3521 5.30165 13.3549 5.31999 13.3549C5.38773 13.3549 5.44982 13.3111 5.47239 13.2476L5.67983 12.6733C5.69394 12.6324 5.69253 12.5886 5.67419 12.5491C5.65584 12.5096 5.62339 12.48 5.58246 12.4659L3.10451 11.5698C3.08617 11.5627 3.06782 11.5599 3.04948 11.5599C2.97751 11.5599 2.9126 11.6079 2.89284 11.6785L2.22396 14.028C2.19997 14.1141 2.24936 14.2044 2.33544 14.2284L2.92389 14.3949C2.938 14.3991 2.95352 14.4005 2.96763 14.4005C3.0396 14.4005 3.10451 14.3526 3.12427 14.282L3.39662 13.3408C4.70191 15.6579 7.0698 17.0408 9.7312 17.0408C12.2275 17.0408 14.5389 15.6691 15.9134 13.3718C15.9148 13.369 15.919 13.3648 15.9261 13.3648C15.936 13.3648 15.9374 13.3718 15.9388 13.3746L16.1631 14.3088C16.1815 14.3864 16.2506 14.4415 16.3325 14.4415C16.3466 14.4415 16.3593 14.44 16.3734 14.4372L16.9463 14.2989C16.9915 14.2876 17.0296 14.2608 17.0536 14.2213C17.0776 14.1818 17.0846 14.1352 17.0733 14.0901ZM8.78715 4.43934C8.73494 4.1684 8.80549 3.89323 8.97765 3.6858C9.15122 3.47695 9.40522 3.357 9.67616 3.357C9.73543 3.357 9.7947 3.36265 9.85396 3.37394C10.211 3.44167 10.496 3.72672 10.5638 4.08374C10.616 4.35467 10.5454 4.62985 10.3733 4.83869C10.1997 5.04754 9.94569 5.16749 9.67616 5.16749C9.61689 5.16749 9.55763 5.16184 9.49836 5.15055C9.14134 5.08141 8.85488 4.79636 8.78715 4.43934Z" fill="white"></path></svg>