<svg xmlns="http://www.w3.org/2000/svg" width="20" height="19" viewBox="0 0 20 19" fill="none"><path d="M14.5079 15.6417H5.47098C5.21133 15.6417 5.00107 15.442 5.00107 15.1953V8.07818C5.00107 7.83151 5.21274 7.63176 5.47098 7.63176H14.5079C14.7675 7.63176 14.9778 7.83285 14.9778 8.07818V15.1953C14.9778 15.442 14.7661 15.6417 14.5079 15.6417ZM5.77719 14.9044H14.2017V8.36908H5.77719V14.9044Z" fill="#FFFEFE"></path><path d="M16.166 10.0702L14.2384 8.24036C14.2073 8.21087 14.2073 8.16261 14.2384 8.13311L14.6744 7.71888C14.7055 7.68938 14.7563 7.68938 14.7873 7.71888L16.7135 9.54877C16.7445 9.57826 16.7445 9.62652 16.7135 9.65601L16.2775 10.0702C16.2478 10.1011 16.197 10.1011 16.166 10.0702Z" fill="#FFFEFE"></path><path d="M3.72116 10.0502L3.28512 9.63594C3.25408 9.60645 3.25408 9.55818 3.28512 9.52869L5.21132 7.6988C5.24237 7.66931 5.29317 7.66931 5.32421 7.6988L5.76025 8.11304C5.7913 8.14254 5.7913 8.1908 5.76025 8.22029L3.83406 10.0502C3.80301 10.0797 3.75221 10.0797 3.72116 10.0502Z" fill="#FFFEFE"></path><path d="M9.32902 14.4097H8.81395C8.76033 14.4097 8.71658 14.3682 8.71658 14.3172V13.8105C8.71658 13.7596 8.76033 13.718 8.81395 13.718H9.32902C9.38264 13.718 9.42638 13.7596 9.42638 13.8105V14.3172C9.42638 14.3682 9.38264 14.4097 9.32902 14.4097Z" fill="#FFFEFE"></path><path d="M13.4566 14.4097H12.9415C12.8879 14.4097 12.8441 14.3682 12.8441 14.3172V13.8105C12.8441 13.7596 12.8879 13.718 12.9415 13.718H13.4566C13.5102 13.718 13.5539 13.7596 13.5539 13.8105V14.3172C13.5554 14.3682 13.5116 14.4097 13.4566 14.4097Z" fill="#FFFEFE"></path><path d="M12.3644 14.4097H9.90761C9.85399 14.4097 9.81024 14.3682 9.81024 14.3172V13.8105C9.81024 13.7596 9.85399 13.718 9.90761 13.718H12.3658C12.4194 13.718 12.4632 13.7596 12.4632 13.8105V14.3172C12.4632 14.3682 12.4194 14.4097 12.3644 14.4097Z" fill="#FFFEFE"></path><path d="M5.97899 7.02716L4.4973 5.78713C4.46061 5.7563 4.45779 5.70535 4.49025 5.6705L4.88819 5.24151C4.92064 5.20666 4.97427 5.20398 5.01095 5.23481L6.49265 6.47485C6.52933 6.50568 6.53216 6.55662 6.4997 6.59148L6.10176 7.02046C6.07072 7.05398 6.01568 7.05666 5.97899 7.02716Z" fill="#FFFEFE"></path><path d="M7.599 5.70134L6.79606 3.98808C6.77631 3.94652 6.79606 3.89692 6.83981 3.87949L7.39015 3.64623C7.43389 3.62746 7.48611 3.64623 7.50445 3.68779L8.30739 5.40105C8.32714 5.4426 8.30739 5.49221 8.26364 5.50963L7.7133 5.74289C7.66955 5.76166 7.61875 5.74289 7.599 5.70134Z" fill="#FFFEFE"></path><path d="M9.61406 5.13696L9.61124 3.26149C9.61124 3.21591 9.65075 3.17838 9.69873 3.17838L10.3013 3.17704C10.3493 3.17704 10.3888 3.21457 10.3888 3.26015L10.3916 5.13562C10.3916 5.1812 10.3521 5.21874 10.3041 5.21874L9.70155 5.22008C9.65357 5.22008 9.61406 5.18254 9.61406 5.13696Z" fill="#FFFEFE"></path><path d="M12.3235 5.75895L11.7759 5.52167C11.7322 5.5029 11.7124 5.4533 11.7336 5.41174L12.5535 3.70519C12.5732 3.66363 12.6254 3.64486 12.6692 3.66497L13.2167 3.90226C13.2604 3.92102 13.2802 3.97062 13.259 4.01218L12.4392 5.71874C12.418 5.75895 12.3672 5.77772 12.3235 5.75895Z" fill="#FFFEFE"></path><path d="M13.9716 7.09819L13.5822 6.6625C13.5511 6.62765 13.5554 6.57537 13.592 6.54587L15.0991 5.33265C15.1358 5.30316 15.1909 5.30718 15.2219 5.34203L15.6114 5.77772C15.6424 5.81258 15.6382 5.86486 15.6015 5.89435L14.0944 7.10757C14.0577 7.13707 14.0027 7.13305 13.9716 7.09819Z" fill="#FFFEFE"></path></svg>