<svg xmlns="http://www.w3.org/2000/svg" width="81" height="81" viewBox="0 0 81 81" fill="none"><path d="M23.6993 28.1906H25.2633V28.7306C25.2633 28.7713 25.2938 28.8019 25.3346 28.8019H25.4263H26.812C26.8476 28.8019 26.8833 28.7713 26.8833 28.7306V28.1906H27.2705H27.3825H28.4626C28.5186 28.1906 28.5594 28.1498 28.5594 28.0938V24.5582C28.5594 24.5022 28.5186 24.4615 28.4626 24.4615H27.3825H27.2705H25.4263H25.2225V23.9673H25.4263H27.2705H27.3825H28.4626C28.5186 23.9673 28.5594 23.9214 28.5594 23.8705V22.4441C28.5594 22.388 28.5186 22.3473 28.4626 22.3473H27.3825H27.2705H26.8833V21.7971C26.8833 21.7665 26.8527 21.7359 26.8222 21.7359H25.4263H25.3244C25.2887 21.7359 25.2633 21.7665 25.2633 21.7971V22.3473H23.6993C23.6483 22.3473 23.6025 22.388 23.6025 22.4441V25.9847C23.6025 26.0356 23.6483 26.0764 23.6993 26.0764H25.4263H26.9393V26.5705H25.4263H23.6993C23.6483 26.5705 23.6025 26.6164 23.6025 26.6673V28.0938C23.6025 28.1498 23.6483 28.1906 23.6993 28.1906Z" fill="#808080"></path><path d="M22.5225 38.8125H20.1638C20.0873 38.8125 20.0211 38.8787 20.0211 38.9551V41.3138C20.0211 41.3902 20.0873 41.4514 20.1638 41.4514H22.5225C22.5989 41.4514 22.66 41.3902 22.66 41.3138V38.9551C22.66 38.8787 22.5989 38.8125 22.5225 38.8125Z" fill="#808080"></path><path d="M27.2705 41.4514H27.3826H27.6271C27.7035 41.4514 27.7646 41.3902 27.7646 41.3138V38.9551C27.7646 38.8787 27.7035 38.8125 27.6271 38.8125H27.3826H27.2705H25.4263H25.2684C25.192 38.8125 25.1257 38.8787 25.1257 38.9551V41.3138C25.1257 41.3902 25.192 41.4514 25.2684 41.4514H25.4263H27.2705Z" fill="#808080"></path><path d="M30.3424 41.4514H32.7012C32.7776 41.4514 32.8438 41.3902 32.8438 41.3138V38.9551C32.8438 38.8787 32.7776 38.8125 32.7012 38.8125H30.3424C30.266 38.8125 30.2049 38.8787 30.2049 38.9551V41.3138C30.2049 41.3902 30.266 41.4514 30.3424 41.4514Z" fill="#808080"></path><path d="M58.963 17.7775V11.8119C58.963 11.0325 58.3261 10.3957 57.5467 10.3957H24.3004C23.5159 10.3957 22.8791 11.0325 22.8791 11.8119V18.5926C20.3879 19.7847 18.666 22.3268 18.666 25.2714C18.666 28.2109 20.3879 30.753 22.8791 31.9451V34.3344H16.5569C15.9761 34.3344 15.5023 34.8082 15.5023 35.389V44.8493C15.5023 45.4301 15.9761 45.9039 16.5569 45.9039H22.8791V63.1383C22.8791 63.9178 23.5159 64.5546 24.3004 64.5546H57.5467C58.3261 64.5546 58.963 63.9178 58.963 63.1383V37.4115C62.8857 35.9697 65.7029 32.1132 65.7029 27.5945C65.7029 23.0808 62.8857 19.2243 58.963 17.7775ZM62.9927 24.2474H61.2453C60.7511 22.5561 59.9207 21.15 58.9986 20.0089C60.7766 20.8749 62.203 22.3829 62.9927 24.2474ZM56.4514 19.8458C57.3582 20.7068 58.2905 21.8225 58.963 23.2235C59.1209 23.5495 59.2635 23.8908 59.3909 24.2474H58.963H56.4514V19.8458ZM56.4514 26.0101H58.963H59.8392C60.0175 27.1156 59.9869 28.2313 59.7577 29.3572H58.963H56.4514V26.0101ZM20.8566 25.2714C20.8566 23.5953 21.6462 22.1078 22.8791 21.1551C23.6025 20.5896 24.4736 20.2126 25.4263 20.0955C25.6403 20.07 25.8542 20.0547 26.0733 20.0547C26.4859 20.0547 26.8884 20.1006 27.2705 20.1974C27.3112 20.2025 27.3469 20.2126 27.3826 20.2228C28.376 20.4827 29.2573 21.0278 29.9298 21.7664C29.9705 21.8123 30.0113 21.8581 30.047 21.904C30.8213 22.8108 31.2849 23.9876 31.2849 25.2714C31.2849 26.5501 30.8213 27.7269 30.047 28.6337C30.0113 28.6796 29.9705 28.7254 29.9298 28.7713C29.2573 29.51 28.376 30.0551 27.3826 30.3149C27.3469 30.3251 27.3112 30.3353 27.2705 30.3404C26.8884 30.4372 26.4859 30.483 26.0733 30.483C25.8542 30.483 25.6403 30.4677 25.4263 30.4423C24.4736 30.3251 23.6025 29.9481 22.8791 29.3826C21.6462 28.4351 20.8566 26.9424 20.8566 25.2714ZM30.047 50.28V45.9039H33.4704L38.2337 49.3579L38.7584 49.7349L39.8894 49.149V45.9039H44.6833C45.264 45.9039 45.7429 45.425 45.7429 44.8442V35.3839L45.7378 35.2107C45.7225 34.7216 45.3201 34.3344 44.831 34.3344H30.047V31.5121C32.1051 30.1977 33.4755 27.89 33.4755 25.2714C33.4755 24.1303 33.2157 23.0502 32.7521 22.0823H46.935C45.9569 23.682 45.3863 25.572 45.3863 27.5945C45.3863 31.9859 48.0456 35.7507 51.7951 37.279V50.28H30.047ZM51.7951 53.0615V55.0789H30.047V53.0615H51.7951ZM47.5718 26.0101H49.4058C49.253 27.1818 49.2937 28.3026 49.4771 29.3572H47.6024C47.4852 28.7866 47.4241 28.2007 47.4241 27.5945C47.4241 27.0545 47.475 26.5196 47.5718 26.0101ZM48.0965 24.2474C48.8454 22.4899 50.1547 21.043 51.7951 20.1617V20.3094C50.9698 21.3895 50.2413 22.7038 49.7828 24.2474H48.0965ZM48.178 31.1198H49.9152C50.389 32.587 51.0971 33.8606 51.7951 34.8897V35.0323C50.2107 34.1765 48.932 32.801 48.178 31.1198ZM51.2755 29.3572C51.0462 28.2313 51.0156 27.1156 51.1939 26.0101H51.7951H51.9123H54.4595H54.5766V29.3572H54.4595H51.9123H51.7951H51.2755ZM51.7951 31.1198H51.9123H54.4595H54.5766H54.6327V35.6386C54.6123 35.6182 54.5919 35.5978 54.5766 35.5775C54.5359 35.5367 54.5002 35.4959 54.4595 35.4501C53.9195 34.8337 53.1961 33.9116 52.5643 32.7704C52.3147 32.3221 52.0957 31.8687 51.9123 31.4204C51.8715 31.3236 51.8307 31.2268 51.7951 31.13V31.1198ZM54.5766 24.2474H54.4595H51.9123H51.7951H51.6423C51.6881 24.1048 51.739 23.9672 51.7951 23.8297C51.8307 23.738 51.8715 23.6463 51.9123 23.5546C52.5643 22.0619 53.517 20.8698 54.4595 19.9579C54.5002 19.9172 54.541 19.8815 54.5766 19.8458V24.2474ZM51.7951 17.91C50.817 18.3073 49.9203 18.8626 49.1154 19.5351H30.75C30.5258 19.3517 30.2915 19.1785 30.047 19.0256V17.5228H51.7951V17.91ZM27.2705 32.5717V34.3344H25.4263V32.6431C25.6403 32.6634 25.8542 32.6736 26.0733 32.6736C26.4809 32.6736 26.8782 32.638 27.2705 32.5717ZM22.8791 43.8661H17.5401V36.3722H22.8791H25.4263H27.2705H27.3826H29.9298H30.047H43.7051V43.8661H38.8909L37.8516 43.8916V46.5661L34.4435 44.0953L34.148 43.8661H30.047H29.9298H27.3826H27.2705H25.4263H22.8791ZM56.4157 62.0074H25.4263V45.9039H27.2705V56.1793C27.2705 57.1014 28.0194 57.8554 28.9466 57.8554H52.8955C53.8227 57.8554 54.5766 57.1014 54.5766 56.1793V37.9718C54.8925 38.0075 55.2185 38.0228 55.5446 38.0228C55.8401 38.0228 56.1304 38.0075 56.4157 37.982V62.0074ZM56.4157 17.212C56.1304 17.1866 55.8401 17.1713 55.5446 17.1713C55.2185 17.1713 54.8925 17.1866 54.5766 17.2222V16.2747C54.5766 15.429 53.8889 14.7463 53.0483 14.7463H28.7988C27.9531 14.7463 27.2705 15.429 27.2705 16.2747V17.966C26.8782 17.8998 26.4809 17.8641 26.0733 17.8641C25.8542 17.8641 25.6403 17.8743 25.4263 17.8947V12.9429H56.4157V17.212ZM58.4688 32.7704C57.7861 33.9982 57.0067 34.9712 56.4514 35.5876V31.1198H58.963H59.2431C59.1565 31.344 59.0648 31.563 58.963 31.7872C58.8152 32.1132 58.6522 32.4444 58.4688 32.7704ZM59.0496 35.1597C59.8086 34.0899 60.5932 32.7195 61.1179 31.1198H62.9111C62.1164 32.8876 60.746 34.3191 59.0496 35.1597ZM61.5509 29.3572C61.7343 28.3077 61.7802 27.1869 61.6222 26.0101H63.5174C63.6142 26.5196 63.6651 27.0545 63.6651 27.5945C63.6651 28.2007 63.604 28.7866 63.4868 29.3572H61.5509Z" fill="#808080"></path><path d="M43.7051 59.0679H38.1369C38.0401 59.0679 37.9586 59.1494 37.9586 59.2462V60.7796C37.9586 60.8764 38.0401 60.9579 38.1369 60.9579H43.7102C43.807 60.9579 43.8885 60.8764 43.8885 60.7796V59.2462C43.8834 59.1443 43.807 59.0679 43.7051 59.0679Z" fill="#808080"></path></svg>