<svg xmlns="http://www.w3.org/2000/svg" width="80" height="81" viewBox="0 0 80 81" fill="none"><path d="M30.661 42.9602L28.2621 44.5576C28.1718 44.6141 28.121 44.7157 28.121 44.8229L28.0702 60.1591C28.0702 60.3454 28.2226 60.4978 28.4032 60.4978H30.8529C31.0279 60.4978 31.169 60.3567 31.169 60.1817V43.2481C31.1747 42.9772 30.8755 42.8135 30.661 42.9602Z" fill="#808080"></path><path d="M30.836 61.8469H28.3807C28.2057 61.8469 28.0646 61.988 28.0646 62.163V64.3475C28.0646 64.5281 28.217 64.6805 28.3976 64.6805H30.853C31.028 64.6805 31.1691 64.5394 31.1691 64.3644V62.18C31.1747 61.9993 31.0223 61.8469 30.836 61.8469Z" fill="#808080"></path><path d="M43.8524 27.3079L41.493 28.7472C41.397 28.8037 41.3349 28.9109 41.3349 29.0238C41.3293 31.4622 41.3011 56.8513 41.2954 60.1534C41.2954 60.3453 41.4535 60.4977 41.6397 60.4977H44.0274C44.208 60.4977 44.3547 60.351 44.3547 60.1703L44.3717 27.607C44.3717 27.3361 44.0782 27.1667 43.8524 27.3079Z" fill="#808080"></path><path d="M44.0217 61.8469H41.572C41.397 61.8469 41.2502 61.988 41.2502 62.163V64.3418C41.2502 64.5281 41.4026 64.6805 41.5889 64.6805H44.0386C44.2136 64.6805 44.3604 64.5394 44.3604 64.3644V62.1856C44.3547 61.9993 44.2023 61.8469 44.0217 61.8469Z" fill="#808080"></path><path d="M59.1038 55.5588L56.5977 54.1308C56.3832 54.0066 56.1235 54.159 56.1235 54.4017L56.1405 60.1648C56.1405 60.3454 56.2872 60.4921 56.4679 60.4921H58.9345C59.1095 60.4921 59.245 60.3567 59.245 60.1817L59.2675 55.8467C59.2732 55.7338 59.2111 55.6209 59.1038 55.5588Z" fill="#808080"></path><path d="M58.9233 61.8469H56.451C56.2816 61.8469 56.1405 61.9824 56.1405 62.1574V64.3587C56.1405 64.5394 56.2873 64.6861 56.4679 64.6861H58.9402C59.1095 64.6861 59.2506 64.5507 59.2506 64.3757V62.1743C59.245 61.9937 59.0982 61.8469 58.9233 61.8469Z" fill="#808080"></path><path d="M67.9432 66.2439H64.2347C64.0541 66.2439 63.9017 66.0915 63.9017 65.9108V52.3696C63.9017 51.7374 63.563 51.1391 63.0155 50.8117L50.0274 43.0392C49.9258 42.9771 49.8637 42.8698 49.8637 42.7513V16.0075C49.8637 15.3527 49.5081 14.7488 48.9437 14.427C48.3736 14.1053 47.6736 14.1109 47.1148 14.4496L33.6018 22.5326C33.0599 22.86 32.7213 23.4583 32.7213 24.0905V32.2073C32.7213 32.3202 32.6648 32.4218 32.5689 32.4783L19.5638 40.2621C19.022 40.5894 18.6833 41.1878 18.6833 41.82V65.9278C18.6833 66.1027 18.5422 66.2439 18.3672 66.2439H14.5176C14.3427 66.2439 14.2015 66.385 14.2015 66.56V69.0153C14.2015 69.196 14.3539 69.3484 14.5346 69.3484H20.5008H34.0082H34.5388H48.0462H48.5768H62.0841H67.9601C68.1351 69.3484 68.2762 69.2072 68.2762 69.0323V66.5769C68.2762 66.3963 68.1238 66.2439 67.9432 66.2439ZM21.9402 42.4578L32.2245 36.2996C32.439 36.1698 32.7213 36.3335 32.7213 36.5875V65.9278C32.7213 66.1027 32.5801 66.2439 32.4052 66.2439H22.1208C21.9402 66.2439 21.7878 66.0915 21.7878 65.9108V42.7287C21.7878 42.6158 21.8442 42.5142 21.9402 42.4578ZM35.8258 36.023V33.7313V24.9992C35.8258 24.8864 35.8822 24.7848 35.9782 24.7283L46.2625 18.5701C46.477 18.4403 46.7592 18.604 46.7592 18.858V44.281V65.9221C46.7592 66.0971 46.6181 66.2382 46.4431 66.2382H36.1588C35.9782 66.2382 35.8258 66.0858 35.8258 65.9052V36.023ZM50.1967 66.2439C50.0161 66.2439 49.8637 66.0915 49.8637 65.9108V52.9228V47.1202C49.8637 46.8718 50.1346 46.7251 50.3491 46.8492L60.6335 53.0074C60.7351 53.0695 60.7972 53.1768 60.7972 53.2953V65.9334C60.7972 66.1084 60.6561 66.2495 60.4811 66.2495H50.1967V66.2439Z" fill="#808080"></path><path d="M72.8596 66.2439H70.1164C69.9527 66.2439 69.8229 66.3737 69.8229 66.5374V69.0323C69.8229 69.2016 69.964 69.3427 70.1333 69.3427H72.8766C73.0403 69.3427 73.1701 69.2129 73.1701 69.0492V66.5543C73.1701 66.385 73.029 66.2439 72.8596 66.2439Z" fill="#808080"></path><path d="M12.0623 66.2439H9.35857C9.18359 66.2439 9.04248 66.385 9.04248 66.56V69.0154C9.04248 69.196 9.19488 69.3484 9.37551 69.3484H12.0792C12.2542 69.3484 12.3953 69.2073 12.3953 69.0323V66.5769C12.3953 66.3963 12.2486 66.2439 12.0623 66.2439Z" fill="#808080"></path></svg>