<svg xmlns="http://www.w3.org/2000/svg" width="20" height="18" viewBox="0 0 20 18" fill="none"><path d="M15.9952 16.1178H4.37594C4.12052 16.1178 3.91309 15.9311 3.91309 15.7025V2.00404C3.91309 1.77417 4.12052 1.58747 4.37594 1.58747H15.9952C16.2506 1.58747 16.4581 1.77417 16.4581 2.00404V15.7025C16.4567 15.9311 16.2492 16.1178 15.9952 16.1178ZM4.66663 15.4396H15.7031V2.26693H4.66663V15.4396Z" fill="white"></path><path d="M14.3653 2.94269H12.0271V3.63358H14.0464V14.1646H6.3233V3.63358H8.34263V2.94269H6.00297C5.75602 2.94269 5.55423 3.12303 5.55423 3.34655V14.4529C5.55423 14.6751 5.75602 14.8568 6.00297 14.8568H14.3653C14.6137 14.8568 14.8155 14.6751 14.8155 14.4529V3.34655C14.8155 3.12303 14.6137 2.94269 14.3653 2.94269Z" fill="white"></path><path d="M12.3502 1.62178H8.01947C7.7697 1.62178 7.5665 1.8072 7.5665 2.03581V4.01831C7.5665 4.28374 7.79934 4.49965 8.08721 4.49965H12.2811C12.569 4.49965 12.8032 4.28374 12.8032 4.01831V2.03581C12.8032 1.8072 12.6 1.62178 12.3502 1.62178ZM12.0271 3.80114H8.34262V2.32029H12.0271V3.80114Z" fill="white"></path><path d="M12.6409 5.52076H7.72878C7.68504 5.52076 7.64835 5.48901 7.64835 5.44837V4.91496C7.64835 4.87559 7.68362 4.84257 7.72878 4.84257H12.6409C12.6847 4.84257 12.7214 4.87432 12.7214 4.91496V5.44964C12.7214 5.48901 12.6861 5.52076 12.6409 5.52076Z" fill="white"></path><path d="M12.6409 6.54945H7.72878C7.68504 6.54945 7.64835 6.5177 7.64835 6.47706V5.94365C7.64835 5.90428 7.68362 5.87126 7.72878 5.87126H12.6409C12.6847 5.87126 12.7214 5.90301 12.7214 5.94365V6.47706C12.7214 6.5177 12.6861 6.54945 12.6409 6.54945Z" fill="white"></path><path d="M12.0398 10.2884L10.6329 11.4746C10.5807 11.519 10.496 11.486 10.4988 11.4225L10.5976 8.00109C10.599 7.96171 10.5637 7.92869 10.52 7.92869H9.90474C9.861 7.92869 9.8229 7.96044 9.8229 8.00109L9.72129 11.4746C9.71988 11.5394 9.63239 11.5711 9.583 11.5254L8.2523 10.2947C8.22126 10.2668 8.17046 10.2668 8.13941 10.2947L7.69349 10.6859C7.66104 10.7138 7.65963 10.7596 7.69067 10.7875L9.96401 12.8894C9.99364 12.9173 10.0444 12.9173 10.0769 12.8907L12.5661 10.7926C12.5986 10.7647 12.6014 10.7189 12.5718 10.691L12.1569 10.2909C12.1245 10.2617 12.0737 10.2617 12.0398 10.2884Z" fill="white"></path></svg>