<svg xmlns="http://www.w3.org/2000/svg" width="81" height="81" viewBox="0 0 81 81" fill="none"><path d="M22.3872 31.1779H15.9173C15.1135 31.1779 14.4568 31.8346 14.4568 32.6384V39.1083C14.4568 39.9121 15.1135 40.5687 15.9173 40.5687H22.3872C23.1966 40.5687 23.8476 39.9121 23.8476 39.1083V32.6384C23.8476 31.8346 23.1966 31.1779 22.3872 31.1779ZM21.3004 38.0215H17.0041V33.7252H21.3004V38.0215Z" fill="#808080"></path><path d="M29.9043 40.5687H36.3799C37.1837 40.5687 37.8403 39.9121 37.8403 39.1083V32.6384C37.8403 31.8346 37.1837 31.1779 36.3799 31.1779H29.9043C29.1005 31.1779 28.4439 31.8346 28.4439 32.6384V39.1083C28.4439 39.9121 29.1005 40.5687 29.9043 40.5687ZM30.9911 33.7252H35.2931V38.0215H30.9911V33.7252Z" fill="#808080"></path><path d="M50.05 40.5687C50.8537 40.5687 51.5104 39.9121 51.5104 39.1083V32.6384C51.5104 31.8346 50.8537 31.1779 50.05 31.1779H43.58C42.7762 31.1779 42.1196 31.8346 42.1196 32.6384V39.1083C42.1196 39.9121 42.7762 40.5687 43.58 40.5687H50.05ZM44.6668 33.7252H48.9631V38.0215H44.6668V33.7252Z" fill="#808080"></path><path d="M60.9577 38.9668C60.8954 38.9611 60.8332 38.9498 60.7709 38.9498V19.0815C60.7709 18.074 59.9558 17.2589 58.9482 17.2589H48.0914V14.1682C48.0914 13.3871 47.4518 12.7475 46.6706 12.7475H42.8951C42.114 12.7475 41.4743 13.3871 41.4743 14.1682V17.2589H24.4929V14.1682C24.4929 13.3871 23.8589 12.7475 23.0721 12.7475H19.3022C18.5154 12.7475 17.8814 13.3871 17.8814 14.1682V17.2589H7.23408C6.23217 17.2589 5.4114 18.074 5.4114 19.0815V60.2163C5.4114 61.2238 6.23217 62.0389 7.23408 62.0389H45.5159C45.6801 62.3219 45.8499 62.605 46.0253 62.8823C48.9122 67.4107 53.8368 70.1108 59.1973 70.1108C67.8125 70.1108 74.8202 63.1031 74.8202 54.4878C74.8202 46.5179 68.8541 39.8442 60.9577 38.9668ZM44.0215 15.2947H45.5442V21.074H44.0215V15.2947ZM20.4287 15.2947H21.9457V21.074H20.4287V15.2947ZM8.55863 20.4061H17.8814V22.2005C17.8814 22.9873 18.5154 23.6212 19.3022 23.6212H23.0721C23.8589 23.6212 24.4929 22.9873 24.4929 22.2005V20.4061H41.4743V22.2005C41.4743 22.9873 42.114 23.6212 42.8951 23.6212H46.6706C47.4518 23.6212 48.0914 22.9873 48.0914 22.2005V20.4061H57.6237V24.5156H8.55863V20.4061ZM8.55863 58.8917V27.6628H57.6237V38.9498C57.5614 38.9555 57.5048 38.9611 57.4482 38.9668C49.5405 39.8442 43.5744 46.5179 43.5744 54.4878C43.5744 55.9879 43.7895 57.4766 44.214 58.8917H8.55863ZM59.1973 66.9635C55.2633 66.9635 51.6236 65.1409 49.2745 62.0389C49.0594 61.7672 48.8612 61.4842 48.6745 61.1899C48.2103 60.4653 47.8254 59.6955 47.531 58.8917C47.4688 58.7275 47.4122 58.5634 47.3556 58.3936C46.9367 57.1369 46.7216 55.8237 46.7216 54.4878C46.7216 48.1877 51.3858 42.9008 57.6237 42.114C57.6859 42.1084 57.7482 42.0971 57.8105 42.0914C58.252 42.0404 58.7161 42.0121 59.1973 42.0121C59.6784 42.0121 60.1426 42.0404 60.5954 42.0914C60.652 42.0971 60.7143 42.1027 60.7709 42.114C67.0031 42.8952 71.673 48.1821 71.673 54.4878C71.673 61.3653 66.0748 66.9635 59.1973 66.9635Z" fill="#808080"></path><path d="M22.3872 45.2896H15.9173C15.1135 45.2896 14.4568 45.9462 14.4568 46.75V53.2256C14.4568 54.0294 15.1135 54.686 15.9173 54.686H22.3872C23.1966 54.686 23.8476 54.0294 23.8476 53.2256V46.75C23.8476 45.9462 23.1966 45.2896 22.3872 45.2896ZM21.3004 52.1388H17.0041V47.8368H21.3004V52.1388Z" fill="#808080"></path><path d="M31.5402 51.2274L29.0835 48.7368L27.2665 50.5198L30.442 53.7463C30.7194 54.035 31.1156 54.2048 31.5232 54.2048C31.9194 54.2048 32.293 54.052 32.5874 53.7689L39.2384 47.2368L37.4554 45.4197L31.5402 51.2274Z" fill="#808080"></path><path d="M69.1201 59.4804L68.2144 56.0614C68.1578 55.8463 67.9371 55.7331 67.7276 55.8011L64.2012 57.0633C64.003 57.1369 63.9011 57.3464 63.9747 57.5445L64.1955 58.1558C64.2634 58.3483 64.4729 58.4502 64.671 58.3822L65.6899 58.02C64.4729 60.086 62.7747 61.5068 60.9294 62.0332C60.703 62.0955 60.4766 62.1465 60.2501 62.1861V53.984H60.9294H63.4257C63.7879 53.984 64.0823 53.6897 64.0823 53.3274V52.6142C64.0823 52.2519 63.7879 51.9576 63.4257 51.9576H60.9294H60.2501V49.5858C60.4935 49.4953 60.7256 49.3651 60.9294 49.2123C61.4219 48.8443 61.7954 48.3122 61.9539 47.7122C62.2766 46.4896 61.8011 45.3461 60.9294 44.6952C60.2728 44.1914 59.3897 43.9763 58.4671 44.2254C58.252 44.282 58.0425 44.3669 57.8501 44.4744C57.2048 44.831 56.7123 45.448 56.5142 46.1782C56.1576 47.5368 56.7916 48.799 57.8501 49.4047C57.969 49.4726 58.0935 49.5292 58.2237 49.5802V51.9576H57.8501H55.0425C54.6802 51.9576 54.3859 52.2519 54.3859 52.6142V53.3274C54.3859 53.6897 54.6802 53.984 55.0425 53.984H57.8501H58.2237V62.1691C58.0992 62.1521 57.9746 62.1238 57.8501 62.1012C55.7274 61.6313 53.8934 60.1483 52.6764 57.9068L53.5708 58.2237C53.7462 58.286 53.9444 58.1954 54.0123 58.0143L54.25 57.3464C54.3123 57.1709 54.2217 56.9728 54.0406 56.9048L50.4575 55.6256C50.265 55.5576 50.0556 55.6652 50.0047 55.8633L49.082 59.3389C49.0367 59.5256 49.1443 59.7124 49.3311 59.7634L50.0103 59.9445C50.1971 59.9955 50.3839 59.8823 50.4349 59.7011L50.7349 58.5634C51.6915 60.454 53.0104 61.937 54.5727 62.9163C55.9878 63.8106 57.6067 64.2861 59.3331 64.2861C59.8596 64.2861 60.386 64.2295 60.9011 64.122C63.5276 63.5842 65.9106 61.7106 67.5182 58.903L67.7673 59.8426C67.8239 60.0408 68.0276 60.1596 68.2258 60.103L68.8597 59.9389C69.0578 59.8823 69.1767 59.6785 69.1201 59.4804ZM59.2369 47.7349C58.7954 47.7349 58.4388 47.3839 58.4388 46.9424C58.4388 46.5065 58.7954 46.1499 59.2369 46.1499C59.6728 46.1499 60.0294 46.5065 60.0294 46.9424C60.0294 47.3839 59.6728 47.7349 59.2369 47.7349Z" fill="#808080"></path></svg>