<svg xmlns="http://www.w3.org/2000/svg" width="82" height="82" viewBox="0 0 82 82" fill="none"><path d="M70.6807 19.9225L69.3108 21.5471C69.2033 21.6716 69.2203 21.864 69.3505 21.9716L70.2675 22.7471C70.4826 22.9282 70.358 23.2735 70.075 23.2735H43.2839C43.1198 23.2735 42.9839 23.4094 42.9896 23.5735L43.0066 25.7075C43.0066 25.8717 43.1424 26.0075 43.3066 26.0075H70.0184C70.2901 26.0075 70.4259 26.3415 70.2222 26.5283L69.3448 27.3321C69.2259 27.4453 69.2146 27.6321 69.3278 27.7566L70.7826 29.3359C70.8958 29.4604 71.0826 29.4661 71.2071 29.3529L76.2676 24.6999C76.3977 24.5811 76.3921 24.366 76.2562 24.2528L71.0995 19.8885C70.975 19.781 70.7882 19.798 70.6807 19.9225Z" fill="#808080"></path><path d="M34.8668 25.9848L36.9272 26.0075C37.097 26.0075 37.2329 25.8716 37.2329 25.7018L37.2159 23.6018C37.2159 23.4376 37.0801 23.3018 36.9102 23.2961L34.8668 23.2735C34.697 23.2735 34.5611 23.4037 34.5611 23.5735V25.6735C34.5611 25.8433 34.697 25.9792 34.8668 25.9848Z" fill="#808080"></path><path d="M30.9441 25.9848L33.0045 26.0075C33.1743 26.0075 33.3102 25.8716 33.3102 25.7018L33.2932 23.6018C33.2932 23.4376 33.1573 23.3018 32.9875 23.2961L30.9498 23.2735C30.7799 23.2735 30.6441 23.4037 30.6441 23.5735V25.6735C30.6441 25.8433 30.7799 25.9792 30.9441 25.9848Z" fill="#808080"></path><path d="M38.7952 25.9848L40.8556 26.0075C41.0254 26.0075 41.1613 25.8716 41.1613 25.7018L41.1443 23.6018C41.1443 23.4376 41.0084 23.3018 40.8386 23.2961L38.8008 23.2735C38.631 23.2735 38.4952 23.4037 38.4952 23.5735V25.6735C38.4895 25.8433 38.6254 25.9792 38.7952 25.9848Z" fill="#808080"></path><path d="M39.9159 61.1931H13.2494C12.9664 61.1931 12.8249 60.8421 13.0343 60.6497L13.8777 59.8742C14.0023 59.7553 14.0136 59.5628 13.8947 59.4327L12.457 57.876C12.3381 57.7458 12.14 57.7402 12.0154 57.8534L6.97761 62.4893C6.84176 62.6138 6.84742 62.8346 6.98893 62.9591L12.1287 67.3064C12.2588 67.4196 12.457 67.4026 12.5702 67.2724L13.923 65.6648C14.0362 65.5346 14.0136 65.3365 13.8834 65.2233L13.0004 64.4761C12.7796 64.2893 12.9098 63.9271 13.1985 63.9271H39.9442C40.1141 63.9271 40.2556 63.7856 40.2556 63.6157L40.2386 61.5044C40.2273 61.3289 40.0858 61.1931 39.9159 61.1931Z" fill="#808080"></path><path d="M52.3124 63.9213L50.252 63.8987C50.0822 63.8987 49.9463 63.7571 49.9463 63.593V61.493C49.9463 61.3231 50.0822 61.1929 50.252 61.1929L52.2954 61.2156C52.4596 61.2156 52.5954 61.3514 52.6011 61.5213L52.6181 63.6213C52.6181 63.7854 52.4822 63.9213 52.3124 63.9213ZM48.3897 63.9213L46.3349 63.8987C46.1651 63.8987 46.0293 63.7571 46.0293 63.593V61.493C46.0293 61.3231 46.1651 61.1929 46.3349 61.1929L48.3727 61.2156C48.5369 61.2156 48.6727 61.3514 48.6784 61.5213L48.6954 63.6213C48.6954 63.7854 48.5595 63.9213 48.3897 63.9213ZM44.467 63.9213L42.4066 63.8987C42.2367 63.8987 42.1009 63.7571 42.1009 63.593V61.493C42.1009 61.3231 42.2367 61.1929 42.4066 61.1929L44.45 61.2156C44.6141 61.2156 44.75 61.3514 44.7557 61.5213L44.7726 63.6213C44.7726 63.7854 44.6368 63.9213 44.467 63.9213Z" fill="#808080"></path><path d="M66.2485 59.0421H17.4665C16.5099 59.0421 15.7287 58.2666 15.7231 57.3099L15.4797 29.6811C15.474 28.7245 16.2382 27.949 17.1948 27.949H65.9768C66.9334 27.949 67.7146 28.7245 67.7202 29.6811L67.9636 57.3099C67.975 58.2666 67.2051 59.0421 66.2485 59.0421ZM18.5646 56.1835H65.0994L64.8787 30.8019H18.3439L18.5646 56.1835Z" fill="#808080"></path><path d="M26.7553 52.691H24.4741C24.2874 52.691 24.1289 52.5382 24.1289 52.3457L23.976 34.8548C23.976 34.668 24.1289 34.5096 24.3157 34.5096H26.5968C26.7836 34.5096 26.9421 34.6624 26.9421 34.8548L27.095 52.3457C27.1006 52.5325 26.9478 52.691 26.7553 52.691Z" fill="#808080"></path><path d="M37.5499 52.691H35.2687C35.0819 52.691 34.9234 52.5382 34.9234 52.3458L34.7706 34.8549C34.7706 34.6681 34.9234 34.5096 35.1102 34.5096H37.3914C37.5782 34.5096 37.7367 34.6624 37.7367 34.8549L37.8895 52.3458C37.8895 52.5325 37.7367 52.691 37.5499 52.691Z" fill="#808080"></path><path d="M59.1276 52.691H56.8464C56.6597 52.691 56.5012 52.5382 56.5012 52.3458L56.3483 34.8549C56.3483 34.6681 56.5012 34.5096 56.688 34.5096H58.9691C59.1559 34.5096 59.3144 34.6624 59.3144 34.8549L59.4672 52.3458C59.4729 52.5325 59.3201 52.691 59.1276 52.691Z" fill="#808080"></path><path d="M48.3387 52.691H46.0576C45.8708 52.691 45.7123 52.5382 45.7123 52.3458L45.5594 34.8549C45.5594 34.6681 45.7123 34.5096 45.8991 34.5096H48.1803C48.367 34.5096 48.5255 34.6624 48.5255 34.8549L48.6784 52.3458C48.6784 52.5325 48.5255 52.691 48.3387 52.691Z" fill="#808080"></path></svg>