<svg xmlns="http://www.w3.org/2000/svg" width="20" height="20" viewBox="0 0 20 20" fill="none"><path d="M14.5925 8.82332C14.5336 8.72398 14.4389 8.65258 14.3256 8.62464L13.5277 8.42905V8.40577L12.6584 8.21484L11.5253 7.93544L9.92804 7.54427C9.85974 7.52875 9.78989 7.52875 9.72004 7.54427L7.43047 8.10153L6.9648 8.21484L6.08933 8.4275L5.28527 8.62308C5.17196 8.65103 5.07261 8.72243 5.01207 8.82177C4.94998 8.92112 4.9298 9.04064 4.95619 9.1524L6.4122 15.4157H7.3125L5.90617 9.36816L6.95083 9.1136L9.37078 8.52529L9.24971 15.4188H10.1221L10.2431 8.52529L11.5098 8.83574L13.6798 9.36816L12.0624 15.4173H12.9627L14.6376 9.15395C14.6671 9.04219 14.6515 8.92267 14.5925 8.82332Z" fill="white"></path><path d="M16.2348 15.8535L16.2302 16.1205C16.2286 16.2152 16.1525 16.2897 16.0579 16.2897H5.54759C5.44825 16.2897 5.36753 16.2074 5.36909 16.1081L5.37374 15.852L5.3784 15.585C5.37995 15.4903 5.45601 15.4158 5.5507 15.4158H16.061C16.1603 15.4158 16.241 15.4981 16.2395 15.5974L16.2348 15.8535Z" fill="white"></path><path d="M17.6132 15.599L17.6039 16.1221C17.6024 16.2168 17.5263 16.2913 17.4316 16.2913H16.9085C16.8092 16.2913 16.7284 16.209 16.73 16.1097L16.7393 15.5866C16.7409 15.4919 16.8169 15.4174 16.9116 15.4174H17.4347C17.5341 15.4174 17.6148 15.4996 17.6132 15.599Z" fill="white"></path><path d="M4.07296 17.2753L4.06831 17.5314C4.06675 17.6308 4.14747 17.713 4.24681 17.713H14.7571C14.8518 17.713 14.9278 17.6385 14.9294 17.5438L14.934 17.2769L14.9387 17.0207C14.9402 16.9214 14.8595 16.8391 14.7602 16.8391H4.24992C4.15523 16.8391 4.07917 16.9136 4.07762 17.0083L4.07296 17.2753Z" fill="white"></path><path d="M2.70231 17.0083L2.693 17.5314C2.69145 17.6308 2.77216 17.713 2.87151 17.713H3.39462C3.4893 17.713 3.56536 17.6385 3.56692 17.5438L3.57623 17.0207C3.57778 16.9214 3.49706 16.8391 3.39772 16.8391H2.87461C2.77993 16.8391 2.70387 16.9136 2.70231 17.0083Z" fill="white"></path><path d="M13.1629 4.45997H11.4197L11.4384 3.35787C11.443 3.11727 11.2505 2.92169 11.0099 2.92169H8.79955C8.55895 2.92169 8.36026 3.11727 8.35561 3.35787L8.33698 4.45997H6.59536C6.35476 4.45997 6.15607 4.65555 6.15141 4.89615L6.08932 8.42906L6.96479 8.2164L7.01602 5.33233H12.7097L12.66 8.21485L13.5292 8.40578L13.5898 4.89615C13.5944 4.65555 13.4035 4.45997 13.1629 4.45997ZM10.5489 4.45997H9.20934L9.22021 3.7956H10.5598L10.5489 4.45997Z" fill="white"></path><path d="M11.8295 6.26219L11.8202 6.78685C11.8187 6.87999 11.7426 6.9545 11.6495 6.9545H11.1248C11.027 6.9545 10.9463 6.87223 10.9479 6.77444L10.9572 6.24978C10.9587 6.15664 11.0348 6.08213 11.1279 6.08213H11.6526C11.7519 6.08213 11.8311 6.1644 11.8295 6.26219Z" fill="white"></path></svg>