<svg xmlns="http://www.w3.org/2000/svg" width="43" height="44" viewBox="0 0 43 44" fill="none"><path d="M10.1607 10.1083H11.5214C11.6237 10.1083 11.705 10.027 11.705 9.92465V8.6392C11.705 8.53685 11.6237 8.45557 11.5214 8.45557H10.1607C10.0583 8.45557 9.97705 8.53685 9.97705 8.6392V9.92465C9.97705 10.024 10.0583 10.1083 10.1607 10.1083Z" fill="#808080"></path><path d="M12.8282 10.1083H14.1889C14.2912 10.1083 14.3725 10.027 14.3725 9.92465V8.6392C14.3725 8.53685 14.2912 8.45557 14.1889 8.45557H12.8282C12.7258 8.45557 12.6445 8.53685 12.6445 8.6392V9.92465C12.6445 10.024 12.7288 10.1083 12.8282 10.1083Z" fill="#808080"></path><path d="M15.4982 10.1083H16.8589C16.9612 10.1083 17.0425 10.027 17.0425 9.92465V8.6392C17.0425 8.53685 16.9612 8.45557 16.8589 8.45557H15.4982C15.3958 8.45557 15.3145 8.53685 15.3145 8.6392V9.92465C15.3115 10.024 15.3958 10.1083 15.4982 10.1083Z" fill="#808080"></path><path d="M10.1607 15.3764H20.1794C20.2817 15.3764 20.363 15.2951 20.363 15.1927V13.9073C20.363 13.8049 20.2817 13.7236 20.1794 13.7236H10.1607C10.0583 13.7236 9.97705 13.8049 9.97705 13.9073V15.1927C9.97705 15.2951 10.0583 15.3764 10.1607 15.3764Z" fill="#808080"></path><path d="M21.6397 15.3764H23.0004C23.1028 15.3764 23.184 15.2951 23.184 15.1927V13.9073C23.184 13.8049 23.1028 13.7236 23.0004 13.7236H21.6397C21.5373 13.7236 21.4561 13.8049 21.4561 13.9073V15.1927C21.4561 15.2951 21.5373 15.3764 21.6397 15.3764Z" fill="#808080"></path><path d="M10.1607 20.7621H19.6254C19.7278 20.7621 19.8091 20.6808 19.8091 20.5785V19.293C19.8091 19.1907 19.7278 19.1094 19.6254 19.1094H10.1607C10.0583 19.1094 9.97705 19.1907 9.97705 19.293V20.5785C9.97705 20.6778 10.0583 20.7621 10.1607 20.7621Z" fill="#808080"></path><path d="M10.1607 23.4535H13.6889C13.7913 23.4535 13.8725 23.3722 13.8725 23.2699V21.9844C13.8725 21.8821 13.7913 21.8008 13.6889 21.8008H10.1607C10.0583 21.8008 9.97705 21.8821 9.97705 21.9844V23.2699C9.97705 23.3722 10.0583 23.4535 10.1607 23.4535Z" fill="#808080"></path><path d="M22.4491 19.1064H21.0884C20.9861 19.1064 20.9048 19.1877 20.9048 19.2901V20.5755C20.9048 20.6779 20.9861 20.7592 21.0884 20.7592H22.4491C22.5515 20.7592 22.6328 20.6779 22.6328 20.5755V19.2901C22.6328 19.1877 22.5515 19.1064 22.4491 19.1064Z" fill="#808080"></path><path d="M15.0796 21.7974C14.9773 21.7974 14.896 21.8786 14.896 21.981V23.2665C14.896 23.3688 14.9773 23.4501 15.0796 23.4501H16.4403C16.5427 23.4501 16.624 23.3688 16.624 23.2665V21.981C16.624 21.8786 16.5427 21.7974 16.4403 21.7974H15.0796Z" fill="#808080"></path><path d="M17.6235 24.582H10.1607C10.0583 24.582 9.97705 24.6633 9.97705 24.7657V26.0511C9.97705 26.1535 10.0583 26.2348 10.1607 26.2348H17.6235C17.7259 26.2348 17.8071 26.1535 17.8071 26.0511V24.7657C17.8071 24.6663 17.7259 24.582 17.6235 24.582Z" fill="#808080"></path><path d="M13.6889 27.2764H10.1607C10.0583 27.2764 9.97705 27.3576 9.97705 27.46V28.7455C9.97705 28.8478 10.0583 28.9291 10.1607 28.9291H13.6889C13.7913 28.9291 13.8725 28.8478 13.8725 28.7455V27.46C13.8725 27.3576 13.7882 27.2764 13.6889 27.2764Z" fill="#808080"></path><path d="M20.1796 24.582H18.8189C18.7165 24.582 18.6353 24.6633 18.6353 24.7657V26.0511C18.6353 26.1535 18.7165 26.2348 18.8189 26.2348H20.1796C20.282 26.2348 20.3632 26.1535 20.3632 26.0511V24.7657C20.3632 24.6663 20.282 24.582 20.1796 24.582Z" fill="#808080"></path><path d="M16.4403 27.2764H15.0796C14.9773 27.2764 14.896 27.3576 14.896 27.46V28.7455C14.896 28.8478 14.9773 28.9291 15.0796 28.9291H16.4403C16.5427 28.9291 16.624 28.8478 16.624 28.7455V27.46C16.624 27.3576 16.5427 27.2764 16.4403 27.2764Z" fill="#808080"></path><path d="M10.1607 18.0707H24.406C24.5083 18.0707 24.5896 17.9894 24.5896 17.8871V16.6016C24.5896 16.4993 24.5083 16.418 24.406 16.418H10.1607C10.0583 16.418 9.97705 16.4993 9.97705 16.6016V17.8871C9.97705 17.9864 10.0583 18.0707 10.1607 18.0707Z" fill="#808080"></path><path d="M25.9113 18.0707H27.272C27.3743 18.0707 27.4556 17.9894 27.4556 17.8871V16.6016C27.4556 16.4993 27.3743 16.418 27.272 16.418H25.9113C25.8089 16.418 25.7276 16.4993 25.7276 16.6016V17.8871C25.7246 17.9864 25.8089 18.0707 25.9113 18.0707Z" fill="#808080"></path><path d="M30.2012 22.4932V7.13101C30.2012 6.48377 29.6774 5.95996 29.0302 5.95996H8.53523C7.891 5.95996 7.36719 6.48377 7.36719 7.13101V35.9588C7.36719 36.606 7.891 37.1298 8.53523 37.1298H23.196C24.9179 38.897 27.3865 39.9325 30.0868 39.7158C34.2743 39.3816 37.6671 35.9919 38.0012 31.8044C38.3835 26.9998 34.8132 22.9267 30.2012 22.4932ZM28.6749 37.9788C27.7176 37.8824 26.8115 37.5844 26.0077 37.1298C25.2581 36.7084 24.5928 36.1515 24.0479 35.4922C23.199 34.4656 22.639 33.1922 22.5036 31.8074C22.1182 27.9601 24.9089 24.6637 28.5635 24.2332C29.0573 24.173 29.569 24.167 30.0898 24.2182C30.126 24.2212 30.1651 24.2272 30.2012 24.2302C33.3832 24.6035 35.9421 27.1924 36.2612 30.3895C36.7007 34.7576 33.0431 38.4153 28.6749 37.9788ZM9.18849 7.59763H28.3799C28.4823 7.59763 28.5635 7.68192 28.5635 7.78126V10.9482H9.00486V7.78126C9.00486 7.68192 9.08614 7.59763 9.18849 7.59763ZM9.18849 35.4922C9.08614 35.4922 9.00486 35.4079 9.00486 35.3085V12.604H28.5635V22.4932C24.4272 22.8785 21.0947 26.2472 20.7636 30.3925C20.616 32.259 21.0646 34.0171 21.9406 35.4922H9.18849Z" fill="#808080"></path><path d="M34.0757 31.8461C34.0456 31.7317 33.9282 31.6715 33.8168 31.7077L31.9413 32.379C31.836 32.4181 31.7818 32.5295 31.8209 32.6349L31.9383 32.96C31.9745 33.0624 32.0858 33.1165 32.1912 33.0804L32.7331 32.8877C32.0858 33.9866 31.1827 34.7422 30.2013 35.0221C30.0809 35.0552 29.9605 35.0823 29.8401 35.1034V30.7413H30.2013H31.5289C31.7216 30.7413 31.8781 30.5848 31.8781 30.3921V30.0128C31.8781 29.8201 31.7216 29.6636 31.5289 29.6636H30.2013H29.8401V28.4022C29.9695 28.3541 30.0929 28.2848 30.2013 28.2035C30.4632 28.0079 30.6619 27.7249 30.7462 27.4058C30.9178 26.7555 30.6649 26.1474 30.2013 25.8012C29.8521 25.5333 29.3825 25.4189 28.8918 25.5514C28.7774 25.5815 28.666 25.6266 28.5636 25.6838C28.2205 25.8735 27.9586 26.2016 27.8532 26.5899C27.6635 27.3124 28.0007 27.9838 28.5636 28.3059C28.6269 28.342 28.6931 28.3721 28.7623 28.3992V29.6636H28.5636H27.0705C26.8778 29.6636 26.7213 29.8201 26.7213 30.0128V30.3921C26.7213 30.5848 26.8778 30.7413 27.0705 30.7413H28.5636H28.7623V35.0944C28.6961 35.0854 28.6299 35.0703 28.5636 35.0583C27.4347 34.8084 26.4594 34.0197 25.8121 32.8275L26.2878 32.9961C26.3811 33.0292 26.4865 32.9811 26.5226 32.8847L26.649 32.5295C26.6821 32.4362 26.634 32.3308 26.5376 32.2947L24.632 31.6143C24.5297 31.5782 24.4183 31.6354 24.3912 31.7408L23.9005 33.5892C23.8764 33.6885 23.9336 33.7879 24.033 33.815L24.3942 33.9113C24.4936 33.9384 24.5929 33.8782 24.62 33.7818L24.7796 33.1767C25.2883 34.1822 25.9897 34.971 26.8206 35.4918C27.5732 35.9674 28.4342 36.2203 29.3524 36.2203C29.6323 36.2203 29.9123 36.1902 30.1863 36.133C31.5831 35.847 32.8505 34.8505 33.7054 33.3574L33.8379 33.8571C33.868 33.9625 33.9764 34.0257 34.0817 33.9956L34.4189 33.9083C34.5243 33.8782 34.5875 33.7698 34.5574 33.6644L34.0757 31.8461ZM29.3012 26.5749C29.533 26.5749 29.7227 26.7646 29.7227 26.9964C29.7227 27.2312 29.533 27.4178 29.3012 27.4178C29.0664 27.4178 28.8767 27.2312 28.8767 26.9964C28.8767 26.7646 29.0664 26.5749 29.3012 26.5749Z" fill="#808080"></path></svg>