<svg xmlns="http://www.w3.org/2000/svg" width="20" height="20" viewBox="0 0 20 20" fill="none"><path d="M5.00812 14.1678H5.97333C6.0199 14.1678 6.058 14.2059 6.058 14.2525V14.8254C6.058 14.872 6.0199 14.9101 5.97333 14.9101H5.00812V14.1678Z" fill="#808080"></path><path d="M6.43762 14.1678H6.99078C7.04158 14.1678 7.08392 14.2087 7.08392 14.2609V14.8169C7.08392 14.8677 7.04299 14.9101 6.99078 14.9101H6.43762C6.38682 14.9101 6.34448 14.8691 6.34448 14.8169V14.2595C6.34448 14.2087 6.38682 14.1678 6.43762 14.1678Z" fill="#808080"></path><path d="M7.51431 14.1678H8.06747C8.11827 14.1678 8.16061 14.2087 8.16061 14.2609V14.8169C8.16061 14.8677 8.11968 14.9101 8.06747 14.9101H7.51431C7.46351 14.9101 7.42117 14.8691 7.42117 14.8169V14.2595C7.42117 14.2087 7.4621 14.1678 7.51431 14.1678Z" fill="#808080"></path><path d="M8.591 14.1678H9.14275C9.19355 14.1678 9.23589 14.2087 9.23589 14.2609V14.8169C9.23589 14.8677 9.19496 14.9101 9.14275 14.9101H8.591C8.5402 14.9101 8.49786 14.8691 8.49786 14.8169V14.2595C8.49786 14.2087 8.53879 14.1678 8.591 14.1678Z" fill="#808080"></path><path d="M9.10606 7.94321V10.4818H13.434C13.6894 10.4818 13.8969 10.6893 13.8969 10.9447V14.4471C13.8969 14.7025 13.6894 14.91 13.434 14.91H9.6564C9.60136 14.91 9.55762 14.8662 9.55762 14.8112V14.2665C9.55762 14.2115 9.60136 14.1677 9.6564 14.1677H13.1546V11.2241H8.82665C8.57124 11.2241 8.3638 11.0167 8.3638 10.7612V7.66381C8.3638 7.40839 8.57124 7.20095 8.82665 7.20095H10.8418C10.8996 7.20095 10.9462 7.24752 10.9462 7.30538V7.8402C10.9462 7.89805 10.8996 7.94462 10.8418 7.94462H9.10606V7.94321Z" fill="#808080"></path><path d="M4.85431 15.6057H3.54195C3.28654 15.6057 3.0791 15.3983 3.0791 15.1429V13.8291C3.0791 13.5737 3.28654 13.3663 3.54195 13.3663H4.85431C5.10972 13.3663 5.31716 13.5737 5.31716 13.8291V15.1415C5.31716 15.3983 5.10972 15.6057 4.85431 15.6057ZM3.82136 14.8635H4.57631V14.1085H3.82136V14.8635Z" fill="#808080"></path><path d="M16.7925 8.53311H15.6128C15.3574 8.53311 15.1499 8.32567 15.1499 8.07025V6.89055C15.1499 6.63513 15.3574 6.42769 15.6128 6.42769H16.7925C17.0479 6.42769 17.2553 6.63513 17.2553 6.89055V8.07025C17.2553 8.32567 17.0479 8.53311 16.7925 8.53311ZM15.8922 7.79085H16.5131V7.16995H15.8922V7.79085Z" fill="#808080"></path><path d="M4.20377 13.8023L3.98363 13.6075C3.90743 13.5412 2.1167 11.9396 2.1167 10.3111C2.1167 9.18646 3.08897 8.20149 4.19812 8.20149C5.30727 8.20149 6.27954 9.18788 6.27954 10.3111C6.27954 11.8592 4.49446 13.5328 4.41826 13.6033L4.20377 13.8023ZM4.19812 8.84779C3.4347 8.84779 2.76441 9.53078 2.76441 10.3111C2.76441 11.3469 3.74515 12.4589 4.19389 12.9133C4.64263 12.4434 5.63183 11.2947 5.63183 10.3111C5.63183 9.53219 4.96154 8.84779 4.19812 8.84779Z" fill="#808080"></path><path d="M4.19811 11.2692C3.67317 11.2692 3.24701 10.8417 3.24701 10.3181C3.24701 9.7932 3.67458 9.36704 4.19811 9.36704C4.72306 9.36704 5.14922 9.79461 5.14922 10.3181C5.14922 10.8417 4.72306 11.2692 4.19811 11.2692ZM4.19811 10.0133C4.03019 10.0133 3.89331 10.1502 3.89331 10.3181C3.89331 10.4861 4.03019 10.6229 4.19811 10.6229C4.36604 10.6229 4.50292 10.4861 4.50292 10.3181C4.50292 10.1488 4.36604 10.0133 4.19811 10.0133Z" fill="#808080"></path><path d="M16.2069 6.88206L16.0375 6.73248C15.9782 6.68027 14.5953 5.44412 14.5953 4.18539C14.5953 3.31754 15.3461 2.55553 16.2026 2.55553C17.0592 2.55553 17.8099 3.31754 17.8099 4.18539C17.8099 5.38062 16.4312 6.67322 16.3734 6.72825L16.2069 6.88206ZM16.2026 3.05507C15.6128 3.05507 15.0949 3.58283 15.0949 4.18397C15.0949 4.98409 15.8527 5.84206 16.1984 6.19343C16.5441 5.83077 17.3089 4.94458 17.3089 4.18397C17.3104 3.58283 16.7925 3.05507 16.2026 3.05507Z" fill="#808080"></path><path d="M16.2026 4.9248C15.7976 4.9248 15.4674 4.5946 15.4674 4.1896C15.4674 3.78461 15.7976 3.4544 16.2026 3.4544C16.6076 3.4544 16.9378 3.78461 16.9378 4.1896C16.9378 4.5946 16.6076 4.9248 16.2026 4.9248ZM16.2026 3.95535C16.0728 3.95535 15.967 4.06119 15.967 4.19101C15.967 4.32084 16.0728 4.42526 16.2026 4.42526C16.3325 4.42526 16.4369 4.31943 16.4369 4.19101C16.4369 4.0626 16.3325 3.95535 16.2026 3.95535Z" fill="#808080"></path><path d="M16.2069 6.87922L16.0389 6.73105C15.9797 6.67884 14.5982 5.44269 14.5982 4.18678C14.5982 3.32034 15.3475 2.55974 16.2026 2.55974C17.0578 2.55974 17.8071 3.32034 17.8071 4.18678C17.8071 5.3806 16.4298 6.67319 16.3706 6.72682L16.2069 6.87922ZM16.2026 3.05364C15.6114 3.05364 15.0935 3.58281 15.0935 4.18537C15.0935 4.98689 15.8541 5.84768 16.1998 6.19764C16.5455 5.83639 17.3118 4.94738 17.3118 4.18537C17.3118 3.58281 16.7939 3.05364 16.2026 3.05364Z" fill="#808080"></path><path d="M16.2026 4.92194C15.799 4.92194 15.4702 4.59315 15.4702 4.18956C15.4702 3.78598 15.799 3.45719 16.2026 3.45719C16.6062 3.45719 16.935 3.78598 16.935 4.18956C16.935 4.59456 16.6062 4.92194 16.2026 4.92194ZM16.2026 3.95249C16.0714 3.95249 15.9656 4.05833 15.9656 4.18956C15.9656 4.3208 16.0714 4.42664 16.2026 4.42664C16.3339 4.42664 16.4397 4.3208 16.4397 4.18956C16.4397 4.05833 16.3339 3.95249 16.2026 3.95249Z" fill="#808080"></path><path d="M15.5069 7.94318H14.5516C14.4994 7.94318 14.4571 7.90085 14.4571 7.84863V7.29547C14.4571 7.24326 14.4994 7.20092 14.5516 7.20092H15.5069V7.94318Z" fill="#808080"></path><path d="M14.0859 7.94323H13.5144C13.4678 7.94323 13.4297 7.90513 13.4297 7.85856V7.28423C13.4297 7.23766 13.4678 7.19956 13.5144 7.19956H14.0859C14.1325 7.19956 14.1706 7.23766 14.1706 7.28423V7.85856C14.1706 7.90513 14.1325 7.94323 14.0859 7.94323Z" fill="#808080"></path><path d="M13.0092 7.94323H12.4377C12.3912 7.94323 12.3531 7.90513 12.3531 7.85856V7.28423C12.3531 7.23766 12.3912 7.19956 12.4377 7.19956H13.0092C13.0558 7.19956 13.0939 7.23766 13.0939 7.28423V7.85856C13.0939 7.90513 13.0558 7.94323 13.0092 7.94323Z" fill="#808080"></path><path d="M11.9325 7.94323H11.3624C11.3159 7.94323 11.2778 7.90513 11.2778 7.85857V7.28423C11.2778 7.23767 11.3159 7.19957 11.3624 7.19957H11.9325C11.9791 7.19957 12.0172 7.23767 12.0172 7.28423V7.85857C12.0172 7.90513 11.9791 7.94323 11.9325 7.94323Z" fill="#808080"></path></svg>