<svg xmlns="http://www.w3.org/2000/svg" width="98" height="81" viewBox="0 0 98 81" fill="none"><path d="M17.9265 71.9955H23.9108C24.1996 71.9955 24.4358 72.2317 24.4358 72.5204V76.0725C24.4358 76.3612 24.1996 76.5975 23.9108 76.5975H17.9265V71.9955Z" fill="#04246A"></path><path d="M26.7893 71.9955H30.219C30.5339 71.9955 30.7964 72.2492 30.7964 72.5729V76.02C30.7964 76.335 30.5427 76.5975 30.219 76.5975H26.7893C26.4744 76.5975 26.2119 76.3437 26.2119 76.02V72.5642C26.2119 72.2492 26.4744 71.9955 26.7893 71.9955Z" fill="#04246A"></path><path d="M33.4649 71.9955H36.8945C37.2095 71.9955 37.4719 72.2492 37.4719 72.5729V76.02C37.4719 76.335 37.2182 76.5975 36.8945 76.5975H33.4649C33.1499 76.5975 32.8875 76.3437 32.8875 76.02V72.5642C32.8875 72.2492 33.1412 71.9955 33.4649 71.9955Z" fill="#04246A"></path><path d="M40.1402 71.9955H43.5611C43.876 71.9955 44.1385 72.2492 44.1385 72.5729V76.02C44.1385 76.335 43.8848 76.5975 43.5611 76.5975H40.1402C39.8252 76.5975 39.5627 76.3437 39.5627 76.02V72.5642C39.5627 72.2492 39.8165 71.9955 40.1402 71.9955Z" fill="#04246A"></path><path d="M43.3337 33.4033V49.1428H70.1669C71.7505 49.1428 73.0366 50.4289 73.0366 52.0125V73.7276C73.0366 75.3112 71.7505 76.5973 70.1669 76.5973H46.7458C46.4046 76.5973 46.1334 76.3261 46.1334 75.9848V72.6077C46.1334 72.2665 46.4046 71.9953 46.7458 71.9953H68.4346V53.7448H41.6014C40.0178 53.7448 38.7317 52.4587 38.7317 50.8751V31.671C38.7317 30.0874 40.0178 28.8013 41.6014 28.8013H54.095C54.4537 28.8013 54.7424 29.0901 54.7424 29.4488V32.7646C54.7424 33.1234 54.4537 33.4121 54.095 33.4121H43.3337V33.4033Z" fill="#04246A"></path><path d="M16.9731 80.9096H8.83648C7.2529 80.9096 5.9668 79.6235 5.9668 78.0399V69.8946C5.9668 68.311 7.2529 67.0249 8.83648 67.0249H16.9731C18.5567 67.0249 19.8428 68.311 19.8428 69.8946V78.0312C19.8428 79.6235 18.5567 80.9096 16.9731 80.9096ZM10.5688 76.3076H15.2495V71.6269H10.5688V76.3076Z" fill="#04246A"></path><path d="M90.99 37.0589H83.6758C82.0923 37.0589 80.8062 35.7728 80.8062 34.1892V26.875C80.8062 25.2914 82.0923 24.0053 83.6758 24.0053H90.99C92.5736 24.0053 93.8597 25.2914 93.8597 26.875V34.1892C93.8597 35.7728 92.5736 37.0589 90.99 37.0589ZM85.4081 32.4569H89.2577V28.6073H85.4081V32.4569Z" fill="#04246A"></path><path d="M12.9398 69.7298L11.575 68.5225C11.1025 68.1113 0 58.1811 0 48.0847C0 41.1118 6.02808 35.0049 12.9048 35.0049C19.7816 35.0049 25.8096 41.1205 25.8096 48.0847C25.8096 57.6824 14.7421 68.0588 14.2697 68.4962L12.9398 69.7298ZM12.9048 39.012C8.17159 39.012 4.01581 43.2465 4.01581 48.0847C4.01581 54.5065 10.0964 61.4008 12.8786 64.218C15.6608 61.3045 21.7938 54.1828 21.7938 48.0847C21.7938 43.2553 17.638 39.012 12.9048 39.012Z" fill="#04246A"></path><path d="M12.9047 54.0243C9.65002 54.0243 7.00781 51.3733 7.00781 48.1274C7.00781 44.8728 9.65877 42.2306 12.9047 42.2306C16.1593 42.2306 18.8015 44.8816 18.8015 48.1274C18.8015 51.3733 16.1593 54.0243 12.9047 54.0243ZM12.9047 46.2376C11.8635 46.2376 11.0149 47.0863 11.0149 48.1274C11.0149 49.1686 11.8635 50.0172 12.9047 50.0172C13.9458 50.0172 14.7944 49.1686 14.7944 48.1274C14.7944 47.0776 13.9458 46.2376 12.9047 46.2376Z" fill="#04246A"></path><path d="M87.3591 26.8245L86.3092 25.8971C85.9417 25.5734 77.3677 17.9093 77.3677 10.1051C77.3677 4.72448 82.0222 0 87.3328 0C92.6435 0 97.298 4.72448 97.298 10.1051C97.298 17.5156 88.7502 25.5297 88.3915 25.8709L87.3591 26.8245ZM87.3328 3.09716C83.6757 3.09716 80.4648 6.36929 80.4648 10.0964C80.4648 15.0571 85.1631 20.3765 87.3066 22.555C89.4501 20.3065 94.1921 14.8121 94.1921 10.0964C94.2008 6.36929 90.9899 3.09716 87.3328 3.09716Z" fill="#04246A"></path><path d="M87.3327 14.6884C84.8217 14.6884 82.7744 12.6411 82.7744 10.1301C82.7744 7.61917 84.8217 5.5719 87.3327 5.5719C89.8436 5.5719 91.8909 7.61917 91.8909 10.1301C91.8909 12.6411 89.8436 14.6884 87.3327 14.6884ZM87.3327 8.67781C86.5277 8.67781 85.8716 9.33398 85.8716 10.1389C85.8716 10.9438 86.5277 11.5912 87.3327 11.5912C88.1376 11.5912 88.785 10.9351 88.785 10.1389C88.785 9.34273 88.1376 8.67781 87.3327 8.67781Z" fill="#04246A"></path><path d="M87.3591 26.8043L86.318 25.8856C85.9506 25.5619 77.3853 17.8978 77.3853 10.1111C77.3853 4.73923 82.031 0.0234985 87.3329 0.0234985C92.6348 0.0234985 97.2806 4.73923 97.2806 10.1111C97.2806 17.5128 88.7415 25.5269 88.374 25.8594L87.3591 26.8043ZM87.3329 3.08566C83.6671 3.08566 80.4562 6.36655 80.4562 10.1024C80.4562 15.0718 85.1719 20.4087 87.3154 22.5785C89.4589 20.3387 94.2096 14.8269 94.2096 10.1024C94.2096 6.36655 90.9987 3.08566 87.3329 3.08566Z" fill="#04246A"></path><path d="M87.3327 14.6702C84.8305 14.6702 82.792 12.6317 82.792 10.1294C82.792 7.62721 84.8305 5.58868 87.3327 5.58868C89.835 5.58868 91.8735 7.62721 91.8735 10.1294C91.8735 12.6404 89.835 14.6702 87.3327 14.6702ZM87.3327 8.65959C86.5191 8.65959 85.8629 9.31577 85.8629 10.1294C85.8629 10.9431 86.5191 11.5993 87.3327 11.5993C88.1464 11.5993 88.8026 10.9431 88.8026 10.1294C88.8026 9.31577 88.1464 8.65959 87.3327 8.65959Z" fill="#04246A"></path><path d="M83.02 33.4026H77.0969C76.7732 33.4026 76.5107 33.1401 76.5107 32.8164V29.3868C76.5107 29.0631 76.7732 28.8006 77.0969 28.8006H83.02V33.4026Z" fill="#04246A"></path><path d="M74.2094 33.4025H70.6661C70.3773 33.4025 70.1411 33.1663 70.1411 32.8776V29.3167C70.1411 29.028 70.3773 28.7918 70.6661 28.7918H74.2094C74.4981 28.7918 74.7344 29.028 74.7344 29.3167V32.8776C74.7344 33.1663 74.4981 33.4025 74.2094 33.4025Z" fill="#04246A"></path><path d="M67.5339 33.4025H63.9905C63.7018 33.4025 63.4656 33.1663 63.4656 32.8776V29.3167C63.4656 29.028 63.7018 28.7918 63.9905 28.7918H67.5339C67.8226 28.7918 68.0588 29.028 68.0588 29.3167V32.8776C68.0588 33.1663 67.8226 33.4025 67.5339 33.4025Z" fill="#04246A"></path><path d="M60.8584 33.4025H57.3238C57.0351 33.4025 56.7988 33.1663 56.7988 32.8775V29.3167C56.7988 29.028 57.0351 28.7917 57.3238 28.7917H60.8584C61.1471 28.7917 61.3833 29.028 61.3833 29.3167V32.8775C61.3833 33.1663 61.1471 33.4025 60.8584 33.4025Z" fill="#04246A"></path></svg>