<svg xmlns="http://www.w3.org/2000/svg" width="89" height="88" viewBox="0 0 89 88" fill="none"><path d="M21.1374 85.9425C19.8551 85.9425 18.4389 85.8947 17.0132 85.7798C5.84623 84.8325 1.51151 78.3544 1.18617 72.6034L3.62624 72.4312L1.18617 72.5939C0.946944 68.4218 2.67892 62.9197 8.2576 59.982C12.0469 57.9821 16.8888 57.9534 20.8886 59.8863C29.6729 64.1445 29.0891 78.6797 28.7064 83.0336C28.5724 84.4785 27.4337 85.6172 25.9888 85.7416C25.1085 85.8181 23.3095 85.9425 21.1374 85.9425ZM14.5635 63.3598C13.1282 63.3598 11.7216 63.6756 10.5159 64.3072C6.10459 66.6324 5.99933 70.9863 6.07589 72.2685V72.2781C6.20985 74.5938 7.57821 80.0576 17.4725 80.8997C19.903 81.1006 22.2856 81.0624 23.9506 80.9762C24.209 75.1775 23.3574 66.5463 18.726 64.2976C17.4342 63.6661 15.9893 63.3598 14.5635 63.3598Z" fill="#04246A"></path><path d="M44.9748 15.9C30.3726 15.9 18.3923 27.775 18.2679 42.3772C18.2296 46.6832 19.2344 50.75 21.0429 54.3575C21.0429 54.3575 21.0525 54.3575 21.0525 54.3671C25.3585 62.96 34.2384 68.8544 44.5155 68.8544C59.1176 68.8544 71.0979 56.9794 71.2223 42.3772C71.3467 27.775 59.5769 15.9 44.9748 15.9ZM44.4389 54.9795C45.5489 49.8601 46.2379 48.2525 48.41 48.1855C49.7784 48.1281 50.831 48.5013 51.6826 49.3147C54.4384 51.9461 54.515 58.4243 54.5533 61.1897C54.5533 61.3045 54.5533 61.3907 54.5533 61.4959C51.5486 63.0652 48.1517 63.9551 44.5537 63.9551C43.3959 63.9551 42.2668 63.8594 41.1663 63.6872C43.0897 61.2184 43.8169 57.8693 44.4389 54.9795ZM59.3569 58.0989C59.1463 54.1757 58.3521 48.8937 55.0796 45.755C53.2806 44.0326 50.9745 43.2097 48.2952 43.2863C41.9127 43.4872 40.6018 49.5539 39.6449 53.9843C38.7071 58.3382 37.932 61.0749 35.5398 61.9552C32.6691 60.6156 30.1429 58.6635 28.1335 56.2617C28.9755 56.2234 29.8176 56.1373 30.6501 55.9459C34.2576 55.1422 36.956 53.0944 38.2478 50.1759C40.0563 46.09 39.5013 42.4442 39.0995 39.784C38.7741 37.6789 38.6306 36.4445 39.2238 35.679C43.3289 30.4256 43.3576 26.4067 42.6495 23.9762C42.3337 22.8757 41.8075 21.9284 41.1855 21.1055C42.4007 20.895 43.6447 20.7706 44.9269 20.7706C47.4818 20.7706 49.9315 21.2203 52.1993 22.0433C48.6397 23.603 46.324 26.3301 45.214 28.9903C43.616 32.8274 44.1806 36.7698 46.6589 39.0377C49.1181 41.2864 52.2567 40.9132 54.7733 40.6165C57.1082 40.339 58.2756 40.2912 58.9167 41.0184C59.0507 41.1811 59.1463 41.3533 59.2995 41.6691C59.6439 42.3581 60.1511 43.3915 61.5099 44.1953C62.505 44.7886 63.6533 45.0756 64.9451 45.0756C65.3279 45.0756 65.7298 45.0469 66.1317 44.9895C65.4618 50.1472 62.9835 54.7307 59.3569 58.0989ZM35.8269 22.8088C36.7072 23.3159 37.5971 24.1771 37.9512 25.3828C38.5062 27.3062 37.6163 29.8419 35.3771 32.703C33.4442 35.1814 33.8748 38.0521 34.2576 40.5783C34.6212 42.9801 35.004 45.468 33.7696 48.243C32.9084 50.1855 30.8032 50.9223 29.6262 51.1806C27.6359 51.6208 25.8369 51.3624 24.8896 50.9892C23.7605 48.3482 23.1385 45.4297 23.1672 42.3676C23.2437 33.7173 28.4301 26.244 35.8269 22.8088ZM64.0361 39.9945C63.9212 39.9276 63.9117 39.918 63.7012 39.4874C63.4811 39.0472 63.1844 38.4348 62.6199 37.7937C60.2276 35.0666 56.7733 35.4684 54.2471 35.7747C52.1132 36.0234 50.7544 36.1287 49.9889 35.4302C49.0894 34.6072 48.9841 32.6839 49.7401 30.8562C50.2568 29.6218 52.362 25.7369 58.5435 25.6699C62.7921 29.1721 65.6532 34.2723 66.2274 40.052C64.8877 40.3582 64.2657 40.1381 64.0361 39.9945Z" fill="#04246A"></path><path d="M35.6702 86.7964C37.0864 86.9399 38.5026 87.0356 39.9188 87.0739C40.1963 87.0834 40.4355 86.8538 40.4451 86.5763L40.5599 82.7104C40.5695 82.433 40.359 82.2129 40.0815 82.2033C38.7992 82.165 37.517 82.0789 36.2348 81.9449C35.9668 81.9162 35.718 82.1076 35.6893 82.3851L35.23 86.2222C35.1917 86.5189 35.3927 86.7677 35.6702 86.7964Z" fill="#04246A"></path><path d="M43.66 82.642L43.8609 86.4983C43.8801 86.7758 44.1193 86.9959 44.3968 86.9768C45.813 86.8811 47.2388 86.728 48.6263 86.527C48.9038 86.4888 49.0951 86.2304 49.0569 85.9529L48.5114 82.1349C48.4732 81.867 48.2244 81.6756 47.9564 81.7139C46.6933 81.8957 45.4111 82.0296 44.1289 82.1158C43.8514 82.1349 43.6504 82.3741 43.66 82.642Z" fill="#04246A"></path><path d="M51.5171 81.5325L52.2826 85.3122C52.34 85.5897 52.608 85.7619 52.8855 85.7045C54.2634 85.3983 55.6317 85.0443 56.9714 84.6519C57.2393 84.5754 57.3924 84.2883 57.3159 84.0204L56.2154 80.3268C56.1389 80.0684 55.8614 79.9153 55.603 80.0014C54.3973 80.3555 53.163 80.6808 51.919 80.9488C51.6319 80.9966 51.4597 81.255 51.5171 81.5325Z" fill="#04246A"></path><path d="M76.1851 13.3733C68.1089 5.11531 57.2195 0.464816 45.5262 0.283007C45.2966 0.283007 45.0573 0.273438 44.8277 0.273438C20.9819 0.273438 1.24124 19.1625 0.676678 42.7021C0.447024 52.3093 4.22675 61.7155 9.32698 69.0549C9.40354 69.1697 9.43224 69.3037 9.40354 69.4472L8.18828 74.8823C8.13087 75.1503 8.29354 75.4182 8.57104 75.4756L12.3699 76.289C12.6378 76.3464 12.9058 76.1742 12.9727 75.9062L13.3651 74.136C14.4846 75.3799 15.6425 76.5186 16.7908 77.5521C17.0013 77.7339 17.317 77.7052 17.5084 77.4947L20.0538 74.557C20.2356 74.3465 20.2164 74.0403 20.0059 73.8585C18.9342 72.9111 17.9199 71.8873 16.9343 70.806H19.1543C19.4318 70.806 19.6614 70.5859 19.6614 70.3084L19.6997 66.4138C19.6997 66.1364 19.4796 65.9163 19.2021 65.9163H13.3746C13.2024 65.9163 13.0493 65.8301 12.9536 65.6962C8.21699 58.6152 5.36545 50.185 5.54726 42.7786C6.05441 21.6983 23.9196 4.84738 45.421 5.15359C55.832 5.31626 65.5157 9.45004 72.702 16.799C79.8691 24.1288 83.6871 33.7934 83.4383 43.9939C83.0747 59.0553 73.7546 72.5475 59.65 78.509C59.4012 78.6142 59.2768 78.9013 59.3725 79.1501L60.8078 82.7289C60.9131 82.9872 61.2097 83.1116 61.4681 83.0064C77.3812 76.2985 87.8879 61.0744 88.2993 44.0704C88.5673 32.5494 84.2708 21.6408 76.1851 13.3733Z" fill="#04246A"></path></svg>