<svg xmlns="http://www.w3.org/2000/svg" width="124" height="124" viewBox="0 0 124 124" fill="none"><path fill-rule="evenodd" clip-rule="evenodd" d="M18.4047 109.892H85.1335C86.7433 109.892 88.047 108.588 88.047 106.987V95.6334H83.235V105.08H20.312V18.762H63.4797L83.235 37.0212V50.6834H88.047V36.19C88.047 35.3851 87.7057 34.6065 87.1108 34.0553L66.2006 14.7199C65.6582 14.2212 64.9583 13.95 64.2233 13.95H18.4047C16.8036 13.95 15.5 15.2536 15.5 16.8547V106.987C15.5 108.588 16.8036 109.892 18.4047 109.892Z" fill="#04246A"></path><path d="M31.7018 38.912H25.6483C25.1856 38.912 24.8 38.6582 24.8 38.3345V34.6774C24.8 34.3625 25.1728 34.1 25.6483 34.1H31.7018C32.1645 34.1 32.55 34.3537 32.55 34.6774V38.3345C32.5372 38.6582 32.1645 38.912 31.7018 38.912Z" fill="#04246A"></path><path d="M53.7649 38.912H37.685C37.4204 38.912 37.2 38.6582 37.2 38.3345V34.6774C37.2 34.3625 37.4131 34.1 37.685 34.1H53.7649C54.0295 34.1 54.2499 34.3537 54.2499 34.6774V38.3345C54.2499 38.6582 54.0295 38.912 53.7649 38.912Z" fill="#04246A"></path><path d="M50.109 24.8H53.7411C54.0188 24.8 54.2501 25.0452 54.2501 25.358V28.892C54.2501 29.1964 54.0265 29.45 53.7411 29.45H50.109C49.8314 29.45 49.6001 29.2048 49.6001 28.892V25.358C49.6078 25.0536 49.8314 24.8 50.109 24.8Z" fill="#04246A"></path><path d="M45.4589 89.9H49.091C49.3686 89.9 49.6 90.1452 49.6 90.458V93.992C49.6 94.2964 49.3763 94.55 49.091 94.55H45.4589C45.1813 94.55 44.95 94.3048 44.95 93.992V90.458C44.9577 90.1536 45.1813 89.9 45.4589 89.9Z" fill="#04246A"></path><path d="M53.2089 89.9H56.841C57.1186 89.9 57.35 90.1452 57.35 90.458V93.992C57.35 94.2964 57.1263 94.55 56.841 94.55H53.2089C52.9313 94.55 52.7 94.3048 52.7 93.992V90.458C52.7077 90.1536 52.9313 89.9 53.2089 89.9Z" fill="#04246A"></path><path d="M25.4174 24.8H45.8827C46.2194 24.8 46.5 25.0452 46.5 25.358V28.892C46.5 29.1964 46.2288 29.45 45.8827 29.45H25.4174C25.0807 29.45 24.8 29.2048 24.8 28.892V25.358C24.8 25.0536 25.0807 24.8 25.4174 24.8Z" fill="#04246A"></path><path d="M25.726 52.7H56.4241C56.9291 52.7 57.35 52.9452 57.35 53.258V56.792C57.35 57.0964 56.9432 57.35 56.4241 57.35H25.726C25.221 57.35 24.8 57.1048 24.8 56.792V53.258C24.8 52.9536 25.221 52.7 25.726 52.7Z" fill="#04246A"></path><path d="M25.5938 62H51.9063C52.3393 62 52.7 62.2452 52.7 62.558V66.092C52.7 66.3964 52.3513 66.65 51.9063 66.65H25.5938C25.1608 66.65 24.8 66.4048 24.8 66.092V62.558C24.8 62.2536 25.1608 62 25.5938 62Z" fill="#04246A"></path><path d="M25.5938 71.3H51.9063C52.3393 71.3 52.7 71.5452 52.7 71.858V75.392C52.7 75.6964 52.3513 75.95 51.9063 75.95H25.5938C25.1608 75.95 24.8 75.7048 24.8 75.392V71.858C24.8 71.5536 25.1608 71.3 25.5938 71.3Z" fill="#04246A"></path><path d="M25.5938 80.6H51.9063C52.3393 80.6 52.7 80.8452 52.7 81.158V84.692C52.7 84.9964 52.3513 85.25 51.9063 85.25H25.5938C25.1608 85.25 24.8 85.0048 24.8 84.692V81.158C24.8 80.8536 25.1608 80.6 25.5938 80.6Z" fill="#04246A"></path><path d="M25.241 89.9H39.8591C40.0996 89.9 40.3 90.1452 40.3 90.458V93.992C40.3 94.2964 40.1063 94.55 39.8591 94.55H25.241C25.0005 94.55 24.8 94.3048 24.8 93.992V90.458C24.8 90.1536 25.0005 89.9 25.241 89.9Z" fill="#04246A"></path><path d="M85.6409 38.3774H64.9582C63.3309 38.3774 62.0098 37.0563 62.0098 35.429V16.3474H66.8217V33.5567H85.6321L85.6409 38.3774Z" fill="#04246A"></path><path d="M88.3732 99.2H81.9837C80.4864 99.2 79.2466 98.027 79.1608 96.5297L78.9987 93.5066C78.0164 93.1919 77.0532 92.7914 76.1282 92.3241L73.7154 94.4031C72.5996 95.3663 70.9116 95.309 69.8721 94.26L65.3518 89.7397C64.2932 88.6811 64.2455 86.974 65.2469 85.8487L67.3068 83.5504C66.8013 82.5776 66.3913 81.5668 66.0575 80.5273L63.0725 80.3079C61.6039 80.203 60.45 78.9633 60.45 77.4851V71.0955C60.45 69.5983 61.623 68.3585 63.1202 68.2727L66.1147 68.1106C66.4294 67.1474 66.8204 66.2128 67.2877 65.3068L65.2564 62.9513C64.2932 61.845 64.3504 60.1475 65.3995 59.108L69.9198 54.5876C70.9879 53.5195 72.695 53.4814 73.8108 54.4827L76.071 56.514C77.0437 56.0181 78.045 55.6081 79.075 55.2743L79.2943 52.2226C79.3992 50.7539 80.639 49.6 82.1172 49.6H88.5067C90.004 49.6 91.2437 50.773 91.3296 52.2702L91.5012 55.3601C92.4644 55.6844 93.399 56.0754 94.305 56.5331L96.6891 54.4732C97.7954 53.51 99.4929 53.5672 100.532 54.6163L105.053 59.1366C106.111 60.1952 106.159 61.9022 105.158 63.0276L103.06 65.364C103.517 66.2605 103.899 67.1855 104.214 68.1392L107.332 68.3681C108.801 68.4825 109.955 69.7127 109.955 71.1909V77.5805C109.955 79.0777 108.782 80.3175 107.284 80.4033L104.242 80.575C103.918 81.5763 103.517 82.549 103.031 83.4836L105.158 85.9441C106.121 87.0599 106.054 88.7478 105.024 89.7873L100.504 94.3077C99.4452 95.3663 97.7382 95.414 96.6128 94.4126L94.2287 92.2764C93.3322 92.7342 92.3977 93.1252 91.4345 93.4399L91.2056 96.5583C91.0911 98.0461 89.8514 99.2 88.3732 99.2ZM83.624 94.6415H86.771L86.9713 91.9331C87.0571 90.7315 87.9059 89.7206 89.0789 89.4154C90.4617 89.053 91.7873 88.4999 93.0175 87.7656C94.0761 87.1362 95.4208 87.2601 96.3363 88.0898L98.4248 89.959L100.656 87.7274L98.7872 85.5626C97.9957 84.6471 97.8812 83.3215 98.5011 82.282C99.2545 81.0136 99.8172 79.6499 100.17 78.2385C100.485 77.0273 101.515 76.1786 102.754 76.1118L105.387 75.9688V72.8217L102.669 72.6214C101.457 72.5356 100.447 71.6868 100.141 70.5043C99.7885 69.131 99.2354 67.8149 98.5106 66.5847C97.8812 65.5166 98.0147 64.191 98.8349 63.266L100.656 61.2347L98.4248 59.0031L96.3363 60.8055C95.4208 61.5971 94.0952 61.7115 93.0461 61.0916C91.8159 60.3573 90.4808 59.8042 89.0884 59.4323C87.8964 59.1175 87.0476 58.0876 86.9809 56.8574L86.8378 54.1871H83.6907L83.4904 56.8478C83.3951 58.0685 82.5368 59.0794 81.3542 59.375C79.9142 59.7374 78.5219 60.3096 77.2344 61.0726C76.1568 61.7115 74.8217 61.578 73.9061 60.7483L71.9416 58.9936L69.7196 61.2156L71.4838 63.266C72.2754 64.191 72.3898 65.5071 71.7699 66.5466C71.0356 67.7863 70.4825 69.1119 70.1201 70.4947C69.8149 71.6868 68.7754 72.5356 67.5452 72.6023L64.9608 72.7454V75.8925L67.5547 76.0832C68.7659 76.169 69.7863 77.0273 70.0819 78.2099C70.4443 79.6594 71.0261 81.0423 71.7985 82.3392C72.4375 83.4073 72.3135 84.752 71.4743 85.6771L69.7196 87.6893L71.9511 89.9209L74.0587 88.0994C74.9742 87.3078 76.2903 87.1934 77.3298 87.8037C78.5886 88.5476 79.9428 89.1007 81.3447 89.4536C82.5559 89.7587 83.4142 90.7982 83.4714 92.038L83.624 94.6415ZM78.9319 92.2764C78.9319 92.2859 78.9319 92.2859 78.9319 92.2764ZM99.6455 57.9445C99.6455 57.9541 99.6455 57.9541 99.6455 57.9445ZM76.9483 57.3533L76.9579 57.3628C76.9579 57.3628 76.9579 57.3533 76.9483 57.3533ZM85.207 85.2956C82.327 85.2956 79.609 84.1798 77.5301 82.1104C75.0219 79.6022 73.9157 76.1309 74.4974 72.5928C75.2317 68.0915 78.8938 64.4294 83.4046 63.6856C86.9427 63.1039 90.414 64.2101 92.9222 66.7182C95.4303 69.2264 96.5366 72.6977 95.9548 76.2358C95.211 80.7371 91.5584 84.3991 87.0476 85.143C86.4373 85.2479 85.8174 85.2956 85.207 85.2956ZM85.2261 68.0915C84.8637 68.0915 84.5013 68.1201 84.1389 68.1773C81.5354 68.6065 79.4183 70.7236 78.9892 73.3271C78.6458 75.3966 79.2943 77.4279 80.7534 78.887C82.2125 80.3461 84.2343 80.985 86.3133 80.6513C88.9168 80.2221 91.0339 78.105 91.4631 75.5015C91.8064 73.432 91.1579 71.4007 89.6988 69.9416C88.4972 68.74 86.9046 68.0915 85.2261 68.0915Z" fill="#04246A"></path></svg>