<svg xmlns="http://www.w3.org/2000/svg" width="124" height="124" viewBox="0 0 124 124" fill="none"><circle cx="61.9999" cy="107.06" r="7.68832" stroke="#04246A" stroke-width="4.65"></circle><circle cx="61.9999" cy="16.9399" r="7.68832" stroke="#04246A" stroke-width="4.65"></circle><circle cx="22.9756" cy="39.4699" r="7.68832" transform="rotate(120 22.9756 39.4699)" stroke="#04246A" stroke-width="4.65"></circle><circle cx="101.022" cy="84.53" r="7.68832" transform="rotate(120 101.022 84.53)" stroke="#04246A" stroke-width="4.65"></circle><circle cx="22.9755" cy="84.53" r="7.68832" transform="rotate(60 22.9755 84.53)" stroke="#04246A" stroke-width="4.65"></circle><circle cx="101.022" cy="39.4699" r="7.68832" transform="rotate(60 101.022 39.4699)" stroke="#04246A" stroke-width="4.65"></circle><circle cx="61.9999" cy="62" r="24.025" stroke="#04246A" stroke-width="4.65"></circle><path d="M62 24.8V38.75" stroke="#04246A" stroke-width="4.65"></path><path d="M62 86.8L62 100.75" stroke="#04246A" stroke-width="4.65"></path><path d="M94.8872 43.7875L82.8062 50.7625" stroke="#04246A" stroke-width="4.65"></path><path d="M41.1938 74.7875L29.1128 81.7625" stroke="#04246A" stroke-width="4.65"></path><path d="M94.886 81.7622L82.8049 74.7872" stroke="#04246A" stroke-width="4.65"></path><path d="M41.1931 50.7628L29.1121 43.7878" stroke="#04246A" stroke-width="4.65"></path><circle cx="62" cy="58.9" r="11.625" stroke="#04246A" stroke-width="4.65"></circle><path d="M47.2749 81.375C49.5999 77.7583 51.9249 70.525 61.9999 70.525C72.0749 70.525 74.3999 77.7583 76.7249 81.375" stroke="#04246A" stroke-width="4.65"></path></svg>