<svg xmlns="http://www.w3.org/2000/svg" width="80" height="81" viewBox="0 0 80 81" fill="none"><path d="M61.5254 72.7915H18.4746C17.4416 72.7915 16.6006 71.9505 16.6006 70.9175V12.7675C16.6006 11.7346 17.4416 10.8936 18.4746 10.8936H48.035C48.5091 10.8936 48.9607 11.0685 49.3107 11.3903L62.8011 23.8647C63.1849 24.2203 63.4051 24.7227 63.4051 25.242V70.9175C63.4051 71.9505 62.564 72.7915 61.5254 72.7915ZM19.7051 69.687H60.3006V25.7782L47.5552 13.998H19.7051V69.687Z" fill="#808080"></path><path d="M25.5358 26.6531H22.8772C22.674 26.6531 22.5046 26.4894 22.5046 26.2805V23.9211C22.5046 23.7179 22.6683 23.5486 22.8772 23.5486H25.5358C25.739 23.5486 25.9083 23.7123 25.9083 23.9211V26.2805C25.9027 26.4894 25.739 26.6531 25.5358 26.6531Z" fill="#808080"></path><path d="M40.0704 26.6531H27.7202C27.517 26.6531 27.3477 26.4894 27.3477 26.2805V23.9211C27.3477 23.7179 27.5113 23.5486 27.7202 23.5486H40.0704C40.2736 23.5486 40.443 23.7123 40.443 23.9211V26.2805C40.443 26.4894 40.2736 26.6531 40.0704 26.6531Z" fill="#808080"></path><path d="M37.271 18.2595H39.9296C40.1328 18.2595 40.3021 18.4232 40.3021 18.6321V20.9915C40.3021 21.1947 40.1384 21.364 39.9296 21.364H37.271C37.0678 21.364 36.8984 21.2003 36.8984 20.9915V18.6321C36.9041 18.4289 37.0678 18.2595 37.271 18.2595Z" fill="#808080"></path><path d="M22.7361 18.2595H35.0863C35.2895 18.2595 35.4588 18.4232 35.4588 18.6321V20.9915C35.4588 21.1947 35.2952 21.364 35.0863 21.364H22.7361C22.5329 21.364 22.3635 21.2003 22.3635 20.9915V18.6321C22.3635 18.4289 22.5329 18.2595 22.7361 18.2595Z" fill="#808080"></path><path d="M61.8528 26.6529H48.5091C47.4593 26.6529 46.6069 25.8006 46.6069 24.7507V12.4399H49.7114V23.5427H61.8472L61.8528 26.6529Z" fill="#808080"></path><path d="M34.7986 42.6496V45.7485C34.7986 45.946 34.9623 46.1097 35.1599 46.1097H49.3728C49.5704 46.1097 49.7341 46.2734 49.7341 46.471V60.8533C49.7341 61.0452 49.5817 61.2032 49.3841 61.2032H42.5768C42.3849 61.2032 42.2269 61.3556 42.2269 61.5532V63.5965C42.2269 63.7884 42.0745 63.9465 41.8769 63.9465H36.9323C36.7347 63.9465 36.571 63.7828 36.571 63.5852V61.5701C36.571 61.3726 36.4073 61.2089 36.2098 61.2089H29.5041C29.3065 61.2089 29.1428 61.0452 29.1428 60.8476V55.903C29.1428 55.7111 29.2952 55.553 29.4928 55.553H43.7396C43.9315 55.553 44.0896 55.4006 44.0896 55.2031L44.0839 52.1042C44.0839 51.9067 43.9202 51.743 43.7227 51.743H29.5041C29.3065 51.743 29.1428 51.5793 29.1428 51.3817V36.9995C29.1428 36.8075 29.2952 36.6495 29.4928 36.6495H36.2324C36.4243 36.6495 36.5823 36.4971 36.5823 36.2995V34.2562C36.5823 34.0643 36.7347 33.9062 36.9323 33.9062H41.8769C42.0745 33.9062 42.2381 34.0699 42.2381 34.2675V36.2826C42.2381 36.4802 42.4018 36.6438 42.5994 36.6438H49.3785C49.576 36.6438 49.7397 36.8075 49.7397 37.0051V41.9497C49.7397 42.1416 49.5873 42.2997 49.3898 42.2997H35.143C34.951 42.2997 34.7986 42.4521 34.7986 42.6496Z" fill="#808080"></path></svg>