<svg xmlns="http://www.w3.org/2000/svg" width="61" height="37" viewBox="0 0 61 37" fill="none"><path d="M41.1445 -0.00341797H10.1251C9.79675 -0.00341797 9.53071 0.251303 9.51939 0.579611L9.4458 2.61172C9.43448 2.97399 9.72882 3.28532 10.0968 3.28532H39.3897L38.4727 29.4707H24.2932C23.6649 27.082 21.5139 25.3386 18.8988 25.3386C16.2837 25.3386 14.0138 27.082 13.2213 29.4707H9.10051C8.76654 29.4707 8.49484 29.7311 8.48352 30.0651L8.41559 32.0802C8.40427 32.4481 8.70428 32.7594 9.07787 32.7594H13.1081C13.7308 35.1425 15.8818 36.8859 18.4969 36.8859C21.1121 36.8859 23.3819 35.1425 24.18 32.7594H41.6483L42.7351 1.64378C42.769 0.738105 42.0558 -0.00341797 41.1445 -0.00341797ZM18.6101 33.6029C17.2403 33.6029 16.1648 32.4877 16.2101 31.1179C16.2554 29.7481 17.4101 28.6329 18.7856 28.6329C20.1554 28.6329 21.2309 29.7481 21.1856 31.1179C21.1347 32.4877 19.9856 33.6029 18.6101 33.6029Z" fill="white"></path><path d="M7.26079 10.9099L7.1872 12.9533C7.17588 13.2816 6.9155 13.5307 6.58719 13.5307H4.54942C4.18715 13.5307 3.8928 13.225 3.90412 12.8627L3.97205 10.8193C3.98337 10.491 4.24375 10.2419 4.57206 10.2419H6.60983C6.97777 10.2419 7.27211 10.5476 7.26079 10.9099Z" fill="white"></path><path d="M18.1913 10.9099L18.1234 12.9533C18.1121 13.2816 17.8517 13.5307 17.5234 13.5307H10.1534C9.79115 13.5307 9.49681 13.225 9.50813 12.8627L9.58172 10.8193C9.59304 10.491 9.85342 10.2419 10.1817 10.2419H17.546C17.9083 10.2419 18.2026 10.5476 18.1913 10.9099Z" fill="white"></path><path d="M3.41167 17.5554L3.33808 19.5988C3.32676 19.9271 3.06638 20.1762 2.73807 20.1762H0.700298C0.338027 20.1762 0.0436825 19.8705 0.0550035 19.5083L0.128589 17.4648C0.13991 17.1365 0.400293 16.8875 0.728601 16.8875H2.76637C3.12864 16.8931 3.42299 17.1988 3.41167 17.5554Z" fill="white"></path><path d="M22.4081 17.5554L22.3345 19.5988C22.3232 19.9271 22.0628 20.1762 21.7345 20.1762H6.30406C5.94179 20.1762 5.64744 19.8705 5.65876 19.5083L5.73235 17.4648C5.74367 17.1365 6.00405 16.8875 6.33236 16.8875H21.7572C22.1251 16.8931 22.4194 17.1988 22.4081 17.5554Z" fill="white"></path><path d="M60.6051 17.7989L53.0144 9.16665C52.7144 8.82702 52.2842 8.62891 51.8201 8.62891H42.4916L42.3784 11.9176H50.9823L55.6805 17.2611H52.3748C51.4691 17.2611 50.705 17.997 50.6767 18.9083C50.6427 19.814 51.3559 20.5499 52.2616 20.5499H57.656L57.3447 29.4708H55.0862C54.4635 27.0821 52.3125 25.3386 49.6974 25.3386C47.0823 25.3386 44.8124 27.0821 44.0143 29.4708H41.7614L41.6482 32.7595H43.9011C44.5294 35.1426 46.6804 36.886 49.2955 36.886C51.9106 36.886 54.1805 35.1426 54.973 32.7595H58.873C59.7844 32.7595 60.5429 32.0237 60.5768 31.1123L61.0014 18.9027C61.0127 18.4951 60.8712 18.0989 60.6051 17.7989ZM49.4087 33.6029C48.0389 33.6029 46.9634 32.4878 47.0087 31.118C47.054 29.7482 48.2087 28.633 49.5842 28.633C50.9597 28.633 52.0295 29.7482 51.9842 31.118C51.9333 32.4878 50.7785 33.6029 49.4087 33.6029Z" fill="white"></path><path d="M48.2145 15.1496L48.073 17.1931C48.0503 17.5214 47.7786 17.7704 47.4503 17.7704H45.4069C45.0446 17.7704 44.7616 17.4648 44.7842 17.1025L44.9257 15.0591C44.9484 14.7308 45.2201 14.4817 45.5484 14.4817H47.5918C47.9541 14.4873 48.2371 14.793 48.2145 15.1496Z" fill="white"></path></svg>