<svg xmlns="http://www.w3.org/2000/svg" width="125" height="99" fill="none"><path fill="#B3D5EB" stroke="white" stroke-miterlimit="10" stroke-width="0.463022" d="M124.169 34.7237C123.706 34.4621 123.196 34.1539 123.243 33.8175C123.284 33.4812 123.358 33.0281 123.094 33.2056C122.835 33.3785 122.835 33.6307 122.344 33.3504C121.849 33.0748 122.039 32.7525 121.46 32.533C120.881 32.3135 120.386 32.4162 120.214 31.8043C120.038 31.1877 119.969 31.0429 119.867 30.6926C119.765 30.3423 119.603 30.6319 119.487 29.9312C119.372 29.2306 119.011 29.3053 119.2 28.5859C119.386 27.8713 118.867 27.1846 119.344 26.6007C119.821 26.0122 120.085 26.0589 120.14 25.6618C120.201 25.2695 119.821 25.2274 119.997 24.8444C120.168 24.4661 120.099 24.069 119.765 23.8495C119.432 23.6299 118.895 23.1488 118.487 22.7097C118.085 22.2707 117.779 22.6257 117.705 22.0978C117.635 21.57 117.302 21.514 117.969 20.9301C118.603 20.3695 118.858 19.6689 118.886 19.5988C118.543 19.6035 118.191 19.6315 117.936 19.7716C117.436 20.0426 117.071 20.0612 116.357 20.1173C115.959 20.15 115.57 20.192 115.306 20.2201C115.093 20.2434 114.959 20.2574 114.959 20.2574C114.811 20.3789 114.677 20.4396 114.556 20.4443C114.297 20.4676 114.089 20.2714 113.922 20.0612C113.672 19.7529 113.172 19.7529 112.922 19.5194C112.672 19.2858 113.172 19.1878 113.306 18.7066C113.44 18.2208 113.306 18.7066 113.547 18.3189C113.788 17.9312 113.477 17.7724 113.112 17.6183C112.746 17.4641 112.903 17.2306 112.843 16.8849C112.788 16.5346 113.056 16.3991 112.843 16.1469C112.635 15.8946 112.769 15.8386 112.922 15.4509C113.075 15.0632 113.306 15.18 113.496 14.8296C113.69 14.4793 113.288 14.7316 112.69 14.7502C112.093 14.7689 112.153 14.9044 111.653 14.8296C111.153 14.7502 111.097 14.5587 110.537 14.5961C109.982 14.6335 110.403 15.3154 110.269 15.4509C110.134 15.5864 110 15.5677 109.963 15.7218C109.926 15.876 110 16.2029 109.616 16.2637C109.232 16.3197 109.444 16.3991 109.31 16.8055C109.176 17.2119 108.866 17.0391 108.231 17.0017C107.602 16.9597 107.579 17.0017 107.389 17.1932C107.199 17.3847 107.37 17.5622 106.81 17.6977C106.254 17.8331 106.717 18.2582 106.277 18.6599C105.842 19.0663 106.046 18.3937 105.546 18.3189C105.046 18.2395 105.143 18.4123 104.777 18.8608C104.411 19.3045 104.601 18.9962 104.046 19.0149C103.49 19.0336 103.874 19.2858 103.43 19.7109C102.99 20.1406 103.124 19.482 102.893 19.2111C102.661 18.9355 102.819 18.9962 102.545 18.8981C102.277 18.8001 102.045 18.6412 102.045 18.6412C102.045 18.6412 101.851 18.6879 101.226 18.6412C100.605 18.5992 100.411 18.5992 100.152 18.4264C99.8924 18.2535 99.6377 18.0574 99.3784 17.992C99.1191 17.9266 98.9894 17.7304 98.9061 17.4268C98.8181 17.1231 98.9246 16.7962 98.5588 16.2123C98.193 15.6284 97.8736 15.8666 97.4846 15.7779C97.0957 15.6891 96.5586 16.0161 96.7114 15.5163C96.8596 15.0165 96.6883 14.9558 96.2808 14.2177C96.1789 14.0356 96.0909 13.9235 96.0029 13.844H95.9983L94.2481 13.8581C94.2481 13.8581 94.2249 13.8674 94.2157 13.8674C93.6369 13.9795 93.9796 13.9982 93.1832 13.8674C92.3867 13.7366 92.2803 13.6105 91.7617 13.1761C91.2477 12.7417 90.9236 12.6109 90.4282 12.0457C89.9374 11.4805 89.8262 11.9383 89.053 11.4385C88.2797 10.9386 88.3863 11.1769 87.5899 10.8732C86.7935 10.5696 86.9879 10.8079 86.7286 10.5276C86.474 10.2473 85.8489 9.39719 85.7841 8.92074C85.7192 8.44429 85.4414 8.46765 85.1404 8.09864C84.8395 7.72963 84.5154 6.83744 84.5802 6.31895C84.645 5.79579 84.1496 5.99198 83.5893 5.53889C83.0337 5.08112 82.7744 5.42678 81.9132 5.53889C81.052 5.64632 81.5242 6.08074 80.7927 6.09942C80.0611 6.12278 80.1074 5.86119 79.8898 5.4081C79.6768 4.95033 78.9869 5.18856 78.8573 4.75415C78.7276 4.31974 78.5378 4.38513 78.2553 4.19362C77.9775 3.99743 78.5146 4.01612 78.7739 3.97408C79.0332 3.93204 78.9869 3.90869 78.9452 3.75921C78.9035 3.60507 79.3758 3.30144 78.9452 2.84835C78.5146 2.39058 78.5146 2.45598 78.1256 2.23644C77.7413 2.02157 77.6765 1.54512 76.9681 1.50308C76.255 1.45637 76.0421 1.58716 75.1577 1.18545C74.278 0.783737 74.4261 1.15275 73.4815 1.19946C72.5369 1.2415 72.2545 1.15275 71.9767 1.19946C71.6989 1.2415 71.222 2.32519 70.6432 2.32519C70.0645 2.32519 70.3191 2.49803 70.171 3.09125C70.0182 3.68448 69.8052 3.40888 69.5227 3.84329C69.2449 4.2777 69.9348 5.16988 69.6987 5.52955C69.4579 5.88922 68.9208 5.52955 68.9208 5.52955H66.6195C66.6195 5.52955 66.2121 5.64166 65.8741 5.66034C65.5314 5.67435 65.4018 5.62763 65.0962 5.26796C64.786 4.90829 63.4942 3.71717 63.0543 3.40421C62.6191 3.09592 62.2625 2.48868 62.0495 2.2271C61.8412 1.96552 61.517 2.09631 61.517 2.09631C61.517 2.09631 60.4799 2.0496 60.2021 2.0823C59.9289 2.115 59.9289 2.19441 59.5538 2.50737C59.5538 2.50737 59.3825 2.97915 60.0631 3.09125C60.7438 3.20336 60.04 3.5677 60.5493 3.68915C61.0587 3.8106 60.9105 3.98342 60.9845 4.32441C61.0586 4.67007 60.9336 4.61869 61.4198 4.76816C61.906 4.91297 60.8873 5.74442 61.4198 5.64633C61.9523 5.54824 62.5866 5.13251 63.0219 5.30534C63.4571 5.47816 62.5589 5.59961 62.5357 6.13679C62.5126 6.67396 62.0773 6.28159 61.7115 6.67395C61.3457 7.06632 60.716 7.55212 60.7762 7.83239C60.841 8.11732 60.5725 8.28548 60.3548 7.83239C60.1372 7.38396 59.5307 7.40731 59.1417 7.45869C58.7528 7.5054 58.9982 7.45869 58.4148 7.45869C57.8314 7.45869 57.6369 7.21112 57.4425 7.45869C57.2526 7.70159 57.0304 7.67357 56.91 7.83239C56.7896 7.99587 56.3543 7.52877 56.7896 7.99588C57.2248 8.45831 56.8127 9.00014 57.1044 9.19633C57.3961 9.38784 57.7619 9.02351 57.7851 9.51397C57.8082 9.99976 57.7851 9.95305 58.2203 9.90166C58.6556 9.85495 58.7759 10.1212 58.9009 10.4435C59.0213 10.7611 58.6556 10.9527 58.2203 11.1255C57.7851 11.2983 57.6369 11.1488 57.5397 11.6627C57.4424 12.1765 56.9841 12.1298 57.4425 12.1765C57.9055 12.2279 58.4611 11.5412 58.6556 11.5646C58.8501 11.5926 58.7528 11.9383 58.7065 12.1811C58.6556 12.424 58.5583 12.3073 59.188 12.1811C59.8224 12.055 60.0863 11.9756 60.1604 12.3213C60.2345 12.6669 59.4335 12.4941 60.1095 13.0359C60.7901 13.5731 60.7438 13.4237 60.5493 13.7693C60.3549 14.1103 60.0122 14.1337 60.1095 14.5027C60.2067 14.867 60.716 14.6989 60.6928 15.0398C60.6697 15.3808 60.2576 15.1847 60.4521 15.8199C60.6466 16.4599 59.7436 17.1325 60.4011 17.5342L61.0633 17.9359C61.0633 17.9359 60.9244 18.3376 60.4058 18.9822C59.8872 19.6268 60.3549 19.3839 59.7483 19.8183C59.1464 20.2528 58.6093 19.9912 57.8499 19.6782C57.0859 19.3652 56.8775 19.9211 56.1876 19.9211C55.4977 19.9211 55.4607 20.3602 54.8403 20.8553C54.2152 21.3505 54.3216 21.1636 53.8031 20.8553C53.2845 20.5517 53.0761 20.6545 52.4881 20.7946C51.9001 20.9347 51.863 20.8647 51.9695 20.2387C52.0714 19.6081 51.6038 19.7857 50.9648 19.6455C50.3258 19.5054 50.5341 19.2625 50.3443 18.8748C50.1545 18.4918 49.5988 18.8421 49.5479 18.4357C49.497 18.0246 48.7006 18.0387 47.9551 18.3516C47.2143 18.6693 47.594 17.9873 47.3717 17.6183C47.1448 17.2539 46.5892 17.637 46.1262 17.4454C45.6585 17.2539 45.9502 16.4692 45.7419 16.0488C45.5381 15.6331 45.1399 15.8433 45.2001 15.2967C45.2603 14.7502 45.2001 14.2504 45.2001 14.2504C45.8484 13.3536 45.5706 13.5778 45.8669 12.765C46.1632 11.9523 46.1817 11.9149 46.7605 11.2609C47.3347 10.607 47.242 10.8125 47.168 10.3641C47.0939 9.91567 47.5754 9.24305 48.0199 8.75259C48.4644 8.26679 49.0942 8.52837 49.798 8.45363C50.5018 8.37889 49.5757 7.96784 49.0942 7.66889C48.6126 7.36995 48.6867 7.08968 48.094 7.10836C47.5013 7.12705 47.3346 7.14574 47.205 6.62258C47.0753 6.09942 46.5012 6.43574 46.0891 6.09942C45.6817 5.76311 45.8484 5.50152 45.9039 4.86625C45.9595 4.23099 45.7743 4.41783 45.3112 4.08152C44.8482 3.7452 44.6074 4.08151 44.4963 3.70782C44.3852 3.33414 43.8481 3.12394 43.8481 3.12394C43.8573 3.29677 44.0194 3.53032 43.6166 3.70782C43.2137 3.88065 43.3851 4.09086 42.973 4.24033C42.5563 4.39448 42.7276 4.27769 42.7415 4.61401C42.7508 4.95033 42.6257 4.96435 42.1858 5.02974C41.7506 5.09981 41.4265 4.84757 40.8523 4.82422C40.2736 4.80086 39.9865 4.54395 39.7457 4.3104C39.5003 4.07684 38.3011 3.28744 38.2918 3.09125C38.2918 3.09125 37.8798 3.61441 37.4167 3.72651C36.9537 3.83862 37.3056 4.11888 37.4908 4.58599C37.676 5.05309 38.1761 4.92231 38.2687 5.33336C38.3613 5.74441 37.9538 5.78178 37.2685 5.78178C36.5833 5.78178 36.6759 5.46414 36.3425 5.37072C36.0091 5.2773 35.6202 5.46415 35.2683 5.04376C34.9164 4.61869 35.0831 4.77283 34.5275 4.77283C34.3932 4.77283 34.2867 4.78217 34.2033 4.80085H34.1987C34.1015 4.82421 34.0274 4.86625 33.9533 4.9223C33.9255 4.94099 33.8978 4.96435 33.8746 4.98771C33.7635 5.08113 33.6384 5.21191 33.4393 5.38941C33.4347 5.39408 33.4255 5.39876 33.4162 5.4081C32.8606 5.89389 33.0272 5.72573 32.2262 5.78178C31.4298 5.83783 31.578 6.09942 31.0038 6.15547C30.4297 6.21153 30.3186 6.02468 29.5963 6.006C29.036 5.99198 29.0916 6.34231 29.1425 6.50113C29.161 6.54784 29.1749 6.58054 29.1749 6.58054C29.2675 6.87015 29.425 7.05699 29.7028 7.20646C29.9806 7.35594 30.013 7.42599 29.7028 7.48672C29.3925 7.54277 29.1286 7.37928 28.8971 7.29988C28.6656 7.2158 28.9203 7.40264 29.0129 7.69692C29.1055 7.98653 28.7906 7.99587 29.1286 8.32284C29.462 8.64982 29.5546 8.81331 29.925 8.88338C30.1797 8.93009 30.1658 9.02818 30.2445 9.13562C30.2769 9.18233 30.3232 9.22903 30.4204 9.27574C30.7306 9.42989 31.3882 9.15896 31.6613 9.47192C31.9392 9.78955 31.9299 9.86897 31.8234 10.1259C31.7215 10.3828 31.9623 10.4622 31.5039 10.8219C31.0409 11.1815 30.7307 10.8592 30.6936 11.4057C30.6612 11.9523 31.1335 11.999 30.8789 12.3353C30.6242 12.6716 30.7631 13.1481 31.1104 13.6152C31.4576 14.0776 31.4576 14.0075 31.4345 14.6381C31.4113 15.2641 31.916 14.9885 31.8929 15.3808C31.8697 15.7779 31.5271 15.7078 31.5039 16.0581C31.4808 16.4038 31.5919 16.5813 31.8929 16.9643C32.1938 17.3473 32.0086 17.2072 32.2401 17.7537C32.4716 18.3002 32.5874 18.2208 32.4485 18.5665C32.3096 18.9168 32.2957 18.9962 31.9391 18.9869C31.5826 18.9776 30.5918 18.7533 30.2815 18.4497C29.9667 18.1508 29.4157 18.2769 29.1054 17.8472C28.7906 17.4174 29.0128 17.0904 28.4109 17.2446C27.8136 17.3941 27.684 17.3333 27.1654 17.9639C26.6468 18.5899 26.5218 18.6272 26.1977 18.6132C26.1699 18.6132 26.1468 18.6085 26.1236 18.6039H26.119C26.0958 18.5945 26.0727 18.5852 26.0541 18.5712C26.0125 18.5478 25.9754 18.5151 25.943 18.4778C25.9199 18.4497 25.8967 18.4264 25.8736 18.3983C25.8643 18.3843 25.8504 18.375 25.8412 18.361C25.8227 18.3423 25.8087 18.3236 25.7902 18.3049C25.7717 18.2862 25.7532 18.2722 25.7301 18.2582C25.7301 18.2535 25.7208 18.2489 25.7161 18.2489C25.693 18.2302 25.6698 18.2208 25.642 18.2115C25.6328 18.2068 25.6235 18.2068 25.6189 18.2068C25.5911 18.1975 25.5633 18.1928 25.5309 18.1928C25.5078 18.1928 25.4846 18.1928 25.4615 18.1975C25.0679 18.2535 25.0818 18.3843 24.7021 18.4497C24.3178 18.5198 23.8594 18.8374 23.364 18.6833C22.9982 18.5712 22.7111 18.2162 22.3824 18.1881C22.2712 18.1741 22.1509 18.2022 22.0259 18.2909C21.5304 18.6366 21.0905 18.2675 20.7108 18.6132C20.3312 18.9635 20.5025 19.1364 19.8821 19.2205C19.2616 19.2999 19.3079 19.1037 18.4745 19.5661C17.6457 20.0332 18.0855 19.7997 17.2289 20.0799C16.3769 20.3602 15.5481 20.4069 15.2009 20.3135C14.8582 20.2201 14.8675 19.837 14.4879 20.0099C14.1082 20.1827 14.0248 19.5801 13.5201 19.7296C13.0108 19.8837 13.1636 20.178 12.645 20.3555C12.1218 20.533 11.8115 20.1313 11.33 20.3555C10.8438 20.5797 10.3715 20.1733 10.1076 20.0566C9.8437 19.9398 9.71405 19.6268 9.24177 19.8137C8.76948 20.0005 8.43611 20.0939 8.2046 20.533C7.97309 20.9768 7.99625 21.0795 7.63046 21.4392C7.26004 21.7989 7.00539 21.9764 6.77388 22.1632C6.54237 22.3454 6.33866 22.1632 6.33866 22.1632C6.33866 22.1632 6.50996 22.677 6.37105 23.6907C6.23214 24.7043 6.40812 24.7743 6.50998 25.3302C6.61185 25.8907 6.87112 26.2224 7.30637 26.3065C7.30637 26.3065 7.41287 26.5447 7.02393 27.0258C6.63962 27.5023 6.25532 27.6984 6.04696 28.5206C5.8386 29.3473 5.46818 29.7631 5.00516 30.5291C4.54676 31.2905 4.61618 31.8884 4.61618 31.8884C4.61618 31.8884 3.99574 31.8931 3.99574 32.234C3.99574 32.575 3.47714 34.0184 3.10672 34.3921C2.7363 34.7658 2.55574 34.649 2.54184 35.3497C2.52795 36.055 2.67614 35.9055 2.21775 36.4894C1.75473 37.0733 1.88899 36.8631 1.44448 37.4189L1 37.9701C1 37.9701 1.05554 39.0351 1.32409 39.4555C1.59265 39.8759 1.60655 40.4738 1.86122 40.9222C2.11125 41.3707 2.02328 41.1932 2.21775 42.0013C2.40759 42.8093 2.66224 43.7669 2.83819 43.2578C2.83819 43.2578 2.73633 43.9911 2.61594 44.5003C2.49556 45.0094 2.23162 45.2944 1.84268 46.1211C1.48152 46.8919 1.05557 47.714 1.00463 47.8167V47.8261C1.00463 47.8261 2.39368 47.7233 2.94467 47.8261C3.49104 47.9288 3.30122 48.3072 3.89389 48.424C4.48656 48.5454 4.72267 48.9051 4.84305 49.2928C4.96344 49.6852 5.48207 49.7879 5.58393 50.4325C5.69043 51.0771 5.80618 51.8105 6.2692 52.1702C6.72759 52.5299 6.9637 52.5579 7.15817 53.0997C7.35264 53.6369 8.24166 56.2854 8.85285 56.8413C9.4594 57.3971 9.50573 57.4391 9.80206 58.3406C10.0984 59.2375 10.3947 59.8681 10.8716 60.167C11.3439 60.466 11.4041 60.2885 11.6726 60.7649C11.9412 61.2461 11.8069 61.1713 12.2653 61.3068C12.7237 61.4376 12.6821 61.4095 13.1543 61.8439C13.6313 62.2784 13.7516 62.2784 13.8674 62.7735C13.9877 63.2686 14.048 63.4742 14.4925 63.9693C14.937 64.4644 15.0573 64.7026 15.1453 65.1978C15.2333 65.6929 15.6361 66.0666 15.562 66.5477C15.488 67.0242 15.099 67.3838 15.4139 67.8042C15.7241 68.2246 15.0574 68.3741 15.1731 69.0327C15.2935 69.6914 15.488 69.7941 15.8584 70.2005C16.2288 70.6069 16.465 70.4994 16.5113 71.2188C16.5576 71.9381 16.4974 72.0409 16.9882 72.5968C17.4744 73.1526 17.9235 73.0452 18.1735 73.587C18.4282 74.1242 18.1874 74.1989 18.6504 74.4558C19.1088 74.7081 19.5394 74.5586 20.1043 74.993C20.6692 75.4274 20.771 75.292 20.9331 75.7123C21.0998 76.1328 21.1878 75.9973 21.4702 76.4317C21.7527 76.8661 21.7202 77.1043 21.7387 77.4173C21.7526 77.7349 21.7943 77.436 21.7387 78.0479C21.6786 78.6598 21.9147 78.7345 22.0953 78.9774C22.2712 79.2157 22.3592 79.2764 22.4472 79.7855C22.5398 80.2947 22.85 80.6824 23.0445 80.8926C23.2343 81.1028 23.7251 81.5092 24.1141 81.6726C24.4984 81.8361 25.1374 82.0603 25.179 82.6582C25.2253 83.2608 25.6837 83.3495 26.0125 83.7372C26.3366 84.1296 26.4569 84.0969 26.6051 84.5781C26.7533 85.0545 27.17 85.8066 27.17 85.8066C27.17 85.8066 27.3645 87.2452 27.0728 87.8385C26.7811 88.427 27.2904 89.2772 26.9246 89.9778C26.5588 90.6785 27.4571 91.0335 27.5821 91.3838C27.7118 91.7341 27.7303 92.1919 27.5821 92.5983C27.4386 93.0047 27.6377 93.0607 27.8414 93.411C28.0405 93.7614 27.5497 94.7797 27.3645 95.1113C27.1839 95.443 27.383 95.6251 27.9155 95.9568C28.4434 96.2931 28.0776 96.0876 28.2072 96.55C28.3322 97.0125 28.3508 96.9003 28.7906 97.2133C29.2305 97.5263 28.9943 97.5636 29.3046 97.7318C29.6148 97.8953 29.5407 97.7318 30.2167 97.3394C30.8974 96.947 30.8048 97.3814 31.2817 97.3394C31.754 97.302 31.8836 97.1012 32.305 97.1385C32.7263 97.1759 32.9069 97.288 33.3097 97.3254C33.7126 97.3628 33.6199 97.3628 33.8607 96.9564C34.0968 96.55 34.208 96.55 34.4071 96.3305C34.6108 96.1062 34.6849 95.9054 34.8099 95.6625C34.9396 95.4243 35.56 95.3682 36.0554 95.4056C36.5509 95.443 36.8426 95.2935 37.0046 95.186C37.1713 95.0739 37.5 94.9432 37.7732 94.9618C38.051 94.9805 38.3983 94.8871 38.653 94.406C38.9076 93.9202 39.0002 94.2051 39.2364 94.3639C39.4772 94.5181 39.9541 94.1864 40.4078 94.3359C40.8662 94.4807 40.9588 93.9856 41.0699 93.9295C41.1764 93.8735 41.6534 93.724 42.0192 93.7053C42.3849 93.6866 42.2368 93.6866 42.4961 93.4484C42.7507 93.2102 43.0239 93.2662 43.7046 93.2662C44.3852 93.2662 44.4361 93.4671 44.7278 93.4484C45.0195 93.4297 45.1862 93.4858 45.0936 92.8225C45.001 92.1592 45.4409 92.3974 45.4965 92.1218C45.552 91.8416 45.6956 91.9163 46.0429 91.7528C46.3901 91.5847 46.191 91.5286 46.3716 91.2343C46.5568 90.9401 46.9781 90.9587 47.2513 90.9774C47.5245 90.9961 47.7467 91.0335 47.8718 90.6458C48.0014 90.2581 48.7886 90.202 49.2655 90.1646C49.7378 90.1273 49.7238 90.1833 50.3999 90.3094C51.0759 90.4402 50.9833 90.2908 51.1685 89.9404C51.3491 89.5901 51.6408 89.5901 51.863 89.3566C52.0806 89.123 52.3214 89.3145 52.7752 89.3519C53.2336 89.3892 53.5253 89.2585 53.7197 89.095C53.9142 88.9268 54.0207 88.9081 54.5347 88.9081C55.0486 88.9081 54.7893 88.726 54.8403 88.2822C54.8958 87.8385 55.0255 87.9692 54.9005 87.689C54.7708 87.4134 54.9005 87.2312 54.9005 86.7314C54.9005 86.2316 55.4468 86.2877 55.7061 85.8439C55.9608 85.4001 56.0163 85.6057 56.3636 85.5496C56.7109 85.4936 56.6136 84.536 56.6136 84.536C56.6136 84.536 57.1183 84.4986 57.5397 84.5127C57.9657 84.5267 57.7527 84.877 58.0953 84.9424C58.4333 85.0078 58.6926 84.5266 58.9195 84.2604C59.1464 83.9941 59.6187 84.3211 59.7483 84.1436C59.8733 83.9615 60.1094 83.7933 60.4243 83.9054C60.7345 84.0222 60.6743 84.0969 61.1744 83.9334C61.6745 83.7653 62.1745 84.209 62.9524 84.1343C63.7303 84.0596 63.3923 83.7793 63.5034 83.1721C63.6145 82.5648 63.5775 82.9572 63.9062 82.5929C64.2304 82.2238 63.9433 82.1398 64.0035 81.9109C64.0683 81.682 64.5035 81.6213 64.8832 81.7334C65.2583 81.8455 65.3185 81.5559 65.8093 81.2523C66.2954 80.9486 66.5732 81.2523 67.1335 81.2523C67.6938 81.2523 67.5595 80.7991 67.8605 80.4675C68.1614 80.1405 67.9114 80.0518 68.0133 79.6874C68.1105 79.3184 68.2355 79.281 68.6615 79.0054C69.0875 78.7252 68.7263 78.5757 68.9902 78.3468C69.2541 78.118 69.5505 78.3468 69.9672 78.3468C70.3839 78.3468 70.3145 78.1974 70.4904 77.9685C70.6664 77.7396 71.2822 77.8424 71.6943 77.6882C72.1063 77.5388 71.7684 77.1978 71.8425 76.5298C71.9212 75.8572 71.9073 75.8712 72.1203 75.39C72.3333 74.9089 72.6852 74.9603 72.7731 74.4325C72.8611 73.9 72.7731 74.0401 73.0463 73.573C73.3241 73.1059 73.4491 73.0032 73.7964 73.0172C74.1483 73.0265 74.5743 72.2091 75.0882 71.7513C75.6022 71.2982 75.6531 71.2608 75.6901 70.6396C75.7272 70.023 75.8892 70.364 76.0883 69.9062C76.2921 69.4531 76.7644 69.0841 76.7921 68.4675C76.8153 67.8463 77.2922 67.7482 77.5932 67.0522C77.8941 66.3562 77.4913 66.4449 77.0931 66.1927C76.6903 65.9405 76.5653 65.3332 76.2134 64.8007C75.8661 64.2729 75.6392 64.5625 75.2873 64.0954C74.94 63.6283 74.3242 62.8576 73.9631 62.8809C73.5973 62.909 73.4584 62.9697 73.0833 62.7828C72.7083 62.5913 72.9074 63.0071 72.4583 63.0351C72.0091 63.0584 72.1064 62.7828 72.0832 62.4699C72.0555 62.1569 72.0832 62.0215 71.8841 62.1242C71.6804 62.227 71.4304 62.4512 71.3331 62.1476C71.2313 61.8486 71.0692 62.0635 70.8284 62.3484C70.5923 62.638 70.3423 62.3624 70.0043 61.9748C69.6663 61.5824 69.3144 61.872 69.0782 61.5403C68.8375 61.2087 68.6754 61.1012 68.3235 60.9378C67.9762 60.7743 68.0132 60.3072 67.9252 59.9241C67.8373 59.5458 67.9855 59.3216 67.8003 59.018C67.6151 58.7143 67.6845 58.3126 67.6845 58.3126C67.6845 58.3126 67.8095 57.8175 67.7632 57.3084C67.7123 56.8039 67.9392 56.5797 67.6613 56.3274C67.3882 56.0705 67.4113 55.4399 66.9344 55.1456C66.4575 54.8514 66.6983 55.3512 66.4112 55.6408C66.1241 55.9304 66.2445 55.8697 65.6565 56.4769C65.0684 57.0841 65.6194 56.9674 64.6795 57.4391C63.7396 57.9062 63.8182 58.7237 63.3552 59.018C62.8876 59.3076 63.1793 59.3589 62.9524 59.826C62.7255 60.2931 62.7765 60.2792 62.0773 60.4613C61.3735 60.6482 61.3874 60.7463 60.5493 60.4613C59.7066 60.1811 59.6464 60.849 58.6185 60.863C57.5906 60.8724 57.4425 60.9611 56.9655 60.7276C56.4886 60.4894 56.4284 60.835 55.9145 60.9611C55.4005 61.0873 55.1227 60.8116 54.5347 60.7322C53.9466 60.6575 54.2476 61.0873 53.9327 60.9892C53.6225 60.8864 53.4327 61.1386 53.4327 61.1386C53.4327 61.1386 52.7057 60.5548 52.5252 59.9101C52.3492 59.2655 52.201 59.1487 51.8445 59.0413C51.488 58.9385 51.5296 58.9853 50.9231 58.5649C50.3119 58.1445 50.048 57.8642 49.4368 57.1822C48.8302 56.4956 48.0292 56.2574 48.1912 55.7482C48.2885 55.4399 48.395 55.1363 48.4182 54.8514C48.4182 54.8514 48.9367 54.1881 48.9089 53.6696C48.8812 53.1558 48.8395 53.2305 48.8997 52.8895C48.9645 52.5485 48.7145 52.6746 48.5015 52.5112C48.2885 52.343 47.8718 52.2309 47.8718 52.2309C47.7699 52.0487 47.631 51.9179 47.4782 51.8245C47.1217 51.6143 46.3206 50.895 45.7882 50.4746C45.2511 50.0589 44.9825 50.0262 44.6584 49.4283C44.3296 48.8304 44.2694 48.8163 43.8573 48.4987C43.4406 48.1857 43.1721 47.1067 43.1721 47.1067C43.1721 47.1067 43.2832 46.5882 43.1721 46.2005C43.0656 45.8082 42.8943 45.6961 42.8526 45.1262C42.8109 44.5563 43.0332 44.1967 43.1443 43.6922C43.2601 43.1877 42.9684 43.1363 42.8943 42.8093C42.8248 42.4824 43.0378 42.1274 43.0378 42.1274C43.348 42.2115 43.6768 41.5155 43.7092 41.4454C43.9685 41.5248 44.325 41.5996 44.4315 41.3987C44.6028 41.0671 44.7927 41.067 45.3298 41.2585C45.8669 41.4501 46.2651 41.2025 46.955 40.9783C47.6449 40.7494 47.631 41.1511 47.9922 41.7444C48.3533 42.3376 48.5108 42.1974 49.1683 42.4777C49.8257 42.758 49.7378 42.9822 49.7378 43.5053C49.7378 44.0285 50.1545 44.1172 50.8444 44.7618C51.5389 45.4065 51.0157 45.1122 51.1546 45.9857C51.2935 46.8545 51.3815 47.046 52.0575 48.0082C52.7289 48.9658 53.4743 48.7743 54.1642 49.1573C54.8588 49.5404 54.9236 49.5964 56.4145 50.1709C57.9008 50.7455 58.0907 50.8156 58.8315 51.3387C59.577 51.8619 59.5075 52.3524 60.1141 53.0156C60.716 53.6789 61.0633 53.4314 61.8782 53.3286C62.6885 53.2212 62.8459 53.7443 63.7442 53.5715C64.6425 53.3987 64.3646 52.7541 65.2305 52.0394C66.0963 51.32 66.388 51.6891 66.9622 51.5816C67.5317 51.4789 67.8419 50.8529 68.3791 50.8529C68.9162 50.8529 69.4857 51.1285 69.4162 51.5816C69.3468 52.0394 70.1432 52.0534 69.9348 52.7681C69.7264 53.4827 69.5042 53.693 69.4162 54.3936C69.3282 55.0896 70.0922 55.211 70.9395 55.51C71.7869 55.8043 71.7174 56.1172 72.111 56.589C72.5092 57.0608 73.7547 56.9206 74.5697 56.9393C75.38 56.958 77.5608 56.902 77.9914 56.5189C78.4267 56.1359 78.6489 56.5376 79.5842 56.3788C80.5149 56.2247 81.2418 56.5049 81.8669 56.972C82.4874 57.4438 83.5245 56.972 83.5245 56.972C83.5245 56.972 84.27 57.3364 84.821 57.1822C85.372 57.0281 85.2238 57.0888 85.7748 57.2196C86.3258 57.3504 86.4554 57.1308 86.9925 57.4064C87.5296 57.6867 88.2242 57.4812 88.4186 57.4064C88.6177 57.3364 87.9927 56.986 88.7891 56.8833C89.5855 56.7805 89.3678 56.8366 89.8031 56.4722C90.2383 56.1079 90.3124 55.8089 90.8773 56.0892C91.4422 56.3694 91.294 56.7058 91.9191 56.7665C92.5396 56.8225 92.2941 57.1869 92.8173 57.1822C93.3406 57.1729 92.8174 56.6918 93.4841 56.7058C94.1509 56.7198 94.5861 57.1916 95.0769 57.0561C95.5677 56.9253 95.5677 56.1826 96.0631 56.2387C96.5539 56.2994 96.7299 56.547 97.1651 56.3554C97.5957 56.1639 97.8134 55.6641 97.8875 56.0892C97.9616 56.5189 97.8875 56.6777 98.1467 56.6777C98.406 56.6777 98.67 56.986 98.67 57.1822C98.67 57.3784 98.7117 57.5979 98.9293 57.7287C99.1469 57.8595 99.6423 58.009 99.6284 58.2706C99.6099 58.5322 99.3969 58.8545 99.6284 59.1488C99.86 59.4384 100.337 59.7326 100.439 60.1717C100.541 60.6108 100.527 60.5221 100.874 60.9892C101.221 61.4563 101.105 61.7038 101.684 61.7505C102.263 61.7926 102.305 61.7646 102.698 62.1009C103.087 62.4372 103.597 62.3344 103.597 62.3344C103.597 62.3344 103.263 61.3675 103.597 61.3675C103.93 61.3675 104.277 61.4282 104.611 61.2507C104.944 61.0779 104.365 60.7556 105.018 60.7556C105.671 60.7556 105.379 60.9611 106.032 60.7276C106.68 60.494 107.028 60.48 107.393 60.6669C107.755 60.8584 108.088 61.0032 108.727 60.9892C109.361 60.9751 108.81 60.5641 109.421 60.3773C110.028 60.1857 110.273 59.5878 110.491 59.9101C110.709 60.2278 110.621 60.9471 110.926 60.6108C111.232 60.2745 111.028 60.1857 111.389 60.0549C111.75 59.9242 111.653 59.7046 111.709 59.06C111.769 58.4154 112.199 58.1118 111.709 57.8922C111.218 57.6727 111.028 57.3364 110.838 56.8693C110.653 56.4022 110.824 56.2994 110.403 56.0472C109.986 55.7996 110.246 55.3932 109.741 55.3792C109.232 55.3605 108.755 55.3932 108.87 54.9401C108.986 54.487 108.81 53.5061 108.606 53.3893C108.407 53.2725 108.393 53.3146 107.972 53.095C107.551 52.8755 107.347 52.5719 107.129 52.3056C106.912 52.0441 106.611 51.9413 106.842 51.5769C107.074 51.2126 107.639 50.7875 107.611 50.3952C107.579 49.9981 107.523 49.8814 108.042 49.8393C108.565 49.7926 108.81 49.6618 109.056 49.2227C109.306 48.7837 109.102 48.4941 109.551 48.466C110 48.4333 110.158 48.1577 110.477 48.466C110.797 48.7696 110.769 48.7276 111.056 49.134C111.348 49.545 111.185 49.9421 111.519 49.545C111.852 49.1527 111.635 48.8444 112.102 48.8724C112.565 48.9004 112.348 48.9331 112.764 49.0499C113.186 49.1667 113.315 48.8164 113.635 48.6996C113.954 48.5828 114.13 48.8023 114.417 48.5828C114.709 48.3633 114.478 48.4473 114.765 47.8775C115.056 47.3076 114.931 47.4711 115.13 47.1208C115.33 46.7704 114.913 46.635 115.26 46.2706C115.607 45.9063 115.941 45.6727 116.33 45.6307C116.723 45.584 116.867 45.612 116.996 45.2757C117.126 44.9394 117.214 44.8086 117.575 44.7805C117.941 44.7525 117.983 45.0001 118.126 44.4582C118.27 43.9164 118.038 43.8183 118.358 43.5521C118.677 43.2905 118.719 43.6828 118.936 42.9962C119.154 42.3095 118.779 42.2675 119.228 42.0059C119.677 41.7397 120.154 41.7397 120.488 41.2726C120.821 40.8055 120.617 40.5299 120.983 40.3103C121.344 40.0908 121.298 39.8853 121.793 39.4041C122.284 38.9184 122.358 39.1706 122.4 38.498C122.446 37.8253 122.168 37.0639 122.4 36.5968C122.631 36.1297 122.414 35.7607 122.807 35.7187C123.196 35.6766 124.011 35.6906 124.169 35.5458C124.326 35.3964 124.632 34.99 124.169 34.7237Z" class="middle-east-svg svg-g"></path></svg>