<svg xmlns="http://www.w3.org/2000/svg" width="202" height="141" fill="none"><g fill="#B3D5EB" stroke="white" stroke-miterlimit="10" stroke-width="0.463022" class="oceania-svg svg-g"><path d="M126.48 2.321C126.531 2.326 126.527 2.307 126.545 2.26 126.564 2.214 126.554 2.158 126.55 2.092 126.55 2.027 126.578 2.05 126.596 1.985 126.615 1.919 126.605 1.84 126.628 1.807 126.656 1.775 126.642 1.723 126.638 1.662 126.638 1.602 126.638 1.62 126.619 1.588 126.601 1.555 126.596 1.56 126.559 1.55 126.522 1.541 126.517 1.471 126.517 1.41 126.517 1.349 126.545 1.326 126.554 1.27 126.568 1.214 126.503 1.233 126.49 1.144 126.476 1.055 126.406 1.065 126.332 1.013 126.263.962 126.23 1.074 126.184 1.125 126.133 1.177 126.105 1.209 126.073 1.284 126.04 1.359 126.073 1.317 126.133 1.289 126.189 1.261 126.156 1.335 126.184 1.382 126.184 1.382 126.184 1.443 126.161 1.48 126.138 1.518 126.184 1.532 126.216 1.583 126.249 1.634 126.179 1.644 126.138 1.667 126.091 1.69 126.11 1.714 126.138 1.765 126.161 1.817 126.184 1.817 126.212 1.882 126.24 1.947 126.203 2.017 126.24 2.083 126.277 2.148 126.263 2.153 126.304 2.214 126.346 2.27 126.346 2.279 126.337 2.33 126.328 2.377 126.369 2.377 126.388 2.344 126.406 2.312 126.434 2.307 126.48 2.312V2.321ZM126.485 2.542C126.434 2.496 126.471 2.482 126.439 2.449 126.406 2.416 126.388 2.463 126.388 2.463 126.388 2.463 126.365 2.519 126.378 2.561 126.392 2.603 126.416 2.603 126.462 2.636 126.508 2.673 126.48 2.678 126.476 2.725 126.476 2.771 126.494 2.79 126.503 2.748 126.517 2.711 126.559 2.697 126.564 2.631 126.564 2.566 126.531 2.584 126.48 2.533L126.485 2.542ZM130.546 6.14C130.546 6.088 130.518 6.093 130.5 6.051 130.481 6.013 130.49 5.803 130.477 5.761 130.463 5.719 130.412 5.686 130.351 5.612 130.287 5.537 130.282 5.509 130.25 5.448 130.222 5.387 130.138 5.303 130.097 5.252 130.06 5.196 130.014 5.219 129.944 5.159 129.875 5.098 129.652 4.762 129.606 4.729 129.555 4.696 129.55 4.748 129.55 4.794 129.55 4.841 129.449 4.822 129.351 4.794 129.254 4.766 129.203 4.78 129.134 4.715 129.064 4.649 128.93 4.453 128.907 4.411 128.879 4.369 128.851 4.336 128.842 4.257 128.828 4.178 128.842 4.196 128.823 4.168 128.805 4.14 128.805 4.126 128.763 4.098 128.726 4.066 128.736 4.061 128.712 4.019 128.689 3.972 128.62 3.986 128.56 3.977 128.504 3.972 128.527 3.953 128.495 3.897 128.458 3.837 128.374 3.767 128.333 3.725 128.291 3.687 128.296 3.692 128.231 3.725 128.166 3.757 128.175 3.692 128.157 3.65 128.134 3.608 128.106 3.612 128.11 3.57 128.11 3.528 128.092 3.51 128.05 3.477 128.009 3.444 128.078 3.37 128.083 3.318 128.087 3.267 128.027 3.257 127.953 3.187 127.874 3.117 127.916 3.122 127.897 3.066 127.879 3.015 127.833 2.963 127.786 2.907 127.745 2.846 127.735 2.842 127.712 2.8 127.684 2.758 127.712 2.772 127.74 2.753 127.768 2.734 127.768 2.706 127.717 2.692 127.666 2.678 127.661 2.692 127.634 2.711 127.601 2.734 127.62 2.772 127.559 2.739 127.499 2.706 127.421 2.697 127.37 2.674 127.319 2.65 127.282 2.697 127.212 2.706 127.143 2.72 127.166 2.641 127.106 2.58 127.045 2.519 127.055 2.566 127.004 2.557 126.953 2.547 126.967 2.519 126.92 2.505 126.874 2.491 126.842 2.426 126.805 2.37 126.768 2.314 126.689 2.249 126.647 2.267 126.606 2.286 126.615 2.319 126.582 2.337 126.55 2.361 126.606 2.393 126.61 2.403 126.61 2.403 126.624 2.426 126.629 2.431 126.629 2.435 126.675 2.496 126.731 2.505 126.786 2.515 126.777 2.622 126.786 2.632 126.795 2.641 126.842 2.716 126.832 2.767 126.823 2.818 126.791 2.795 126.758 2.767 126.726 2.739 126.731 2.767 126.726 2.809 126.726 2.846 126.758 2.846 126.726 2.935 126.694 3.019 126.726 3.094 126.703 3.145 126.675 3.197 126.703 3.309 126.694 3.36 126.68 3.412 126.675 3.472 126.726 3.538 126.777 3.603 126.782 3.608 126.805 3.678 126.833 3.748 126.805 3.785 126.782 3.846 126.763 3.907 126.883 3.986 126.953 4.042 127.022 4.098 127.018 4.103 127.041 4.159 127.064 4.215 127.083 4.196 127.124 4.224 127.166 4.248 127.291 4.308 127.444 4.416 127.596 4.523 127.499 4.565 127.536 4.654 127.578 4.738 127.578 4.696 127.652 4.748 127.726 4.799 127.708 4.79 127.745 4.85 127.786 4.911 127.823 4.888 127.902 4.916 127.981 4.948 128.004 4.958 128.055 4.967 128.11 4.972 128.185 5.042 128.254 5.107 128.323 5.173 128.305 5.159 128.314 5.219 128.323 5.28 128.328 5.402 128.328 5.43 128.328 5.458 128.347 5.495 128.323 5.556 128.296 5.616 128.319 5.602 128.282 5.63 128.245 5.663 128.296 5.7 128.263 5.728 128.235 5.761 128.226 5.724 128.203 5.7 128.18 5.677 128.143 5.733 128.138 5.761 128.138 5.789 128.171 5.808 128.254 5.892 128.342 5.981 128.624 6.322 128.666 6.373 128.708 6.42 128.736 6.406 128.847 6.406 128.958 6.406 128.902 6.457 128.921 6.495 128.939 6.532 128.981 6.56 129.032 6.588 129.083 6.621 129.124 6.635 129.199 6.686 129.273 6.737 129.305 6.709 129.37 6.728 129.435 6.742 129.462 6.77 129.504 6.779 129.546 6.789 129.615 6.845 129.675 6.836 129.736 6.826 129.717 6.826 129.745 6.798 129.777 6.77 129.796 6.812 129.824 6.84 129.851 6.868 129.898 6.84 129.963 6.775 130.027 6.709 130.115 6.639 130.143 6.583 130.171 6.523 130.189 6.555 130.222 6.541 130.254 6.527 130.25 6.504 130.301 6.509 130.351 6.509 130.324 6.565 130.356 6.593 130.389 6.621 130.379 6.541 130.412 6.527 130.444 6.513 130.444 6.485 130.458 6.443 130.467 6.401 130.477 6.434 130.49 6.481 130.504 6.527 130.481 6.56 130.472 6.597 130.463 6.635 130.495 6.625 130.514 6.597 130.532 6.569 130.56 6.551 130.578 6.495 130.597 6.438 130.597 6.415 130.615 6.368 130.634 6.322 130.625 6.294 130.592 6.252 130.56 6.21 130.56 6.196 130.56 6.144L130.546 6.14ZM134.306 9.416C134.259 9.449 134.287 9.459 134.306 9.468 134.329 9.477 134.38 9.412 134.407 9.379 134.435 9.346 134.435 9.393 134.528 9.431 134.62 9.468 134.597 9.459 134.602 9.575 134.602 9.692 134.634 9.664 134.671 9.627 134.708 9.589 134.741 9.58 134.866 9.627 134.991 9.673 135.042 9.664 135.074 9.706 135.107 9.748 135.148 9.645 135.199 9.608 135.25 9.571 135.245 9.692 135.199 9.757 135.153 9.823 135.255 9.795 135.366 9.795 135.472 9.795 135.459 9.795 135.496 9.823 135.533 9.851 135.588 9.846 135.653 9.86 135.718 9.874 135.732 9.818 135.787 9.753 135.843 9.687 135.843 9.739 135.894 9.729 135.94 9.72 135.912 9.627 135.894 9.557 135.875 9.487 135.857 9.501 135.806 9.482 135.755 9.463 135.746 9.51 135.662 9.547 135.579 9.58 135.616 9.529 135.546 9.505 135.477 9.482 135.523 9.552 135.472 9.547 135.421 9.547 135.449 9.524 135.375 9.477 135.301 9.43 135.315 9.421 135.236 9.402 135.158 9.384 135.158 9.323 135.121 9.253 135.083 9.183 135.102 9.211 135.023 9.192 134.945 9.174 134.806 9.033 134.704 8.935 134.602 8.837 134.681 8.795 134.667 8.706 134.653 8.618 134.653 8.566 134.574 8.445 134.495 8.323 134.426 8.286 134.356 8.23 134.287 8.174 134.296 8.193 134.255 8.132 134.213 8.071 134.134 8.09 134.051 8.071 133.963 8.048 133.981 8.062 133.921 8.015 133.861 7.968 133.75 7.903 133.708 7.842 133.671 7.782 133.639 7.842 133.565 7.805 133.491 7.768 133.5 7.758 133.426 7.74 133.352 7.721 133.352 7.637 133.292 7.529 133.231 7.422 133.204 7.501 133.125 7.483 133.046 7.464 133.065 7.441 132.981 7.371 132.898 7.3 132.884 7.347 132.801 7.329 132.717 7.31 132.745 7.329 132.722 7.352 132.699 7.375 132.68 7.427 132.657 7.459 132.634 7.492 132.694 7.548 132.685 7.581 132.676 7.613 132.713 7.646 132.69 7.698 132.666 7.744 132.703 7.744 132.731 7.768 132.759 7.786 132.75 7.791 132.754 7.819 132.754 7.847 132.884 7.875 132.926 7.898 132.967 7.922 132.991 7.94 132.991 7.987 132.991 8.034 133.014 8.057 133.014 8.057 133.014 8.057 133.092 8.09 133.102 8.113 133.106 8.137 133.139 8.151 133.199 8.151 133.259 8.151 133.236 8.16 133.268 8.188 133.301 8.216 133.292 8.235 133.366 8.263 133.44 8.291 133.403 8.314 133.458 8.389 133.514 8.464 133.579 8.506 133.62 8.562 133.662 8.622 133.657 8.646 133.727 8.72 133.796 8.795 133.912 8.963 133.912 8.963 133.912 8.963 133.958 9.09 134 9.136 134.046 9.183 134.13 9.253 134.194 9.304 134.259 9.36 134.329 9.304 134.361 9.318 134.394 9.328 134.366 9.374 134.319 9.407L134.306 9.416ZM135.852 9.794C135.81 9.799 135.82 9.85 135.852 9.864 135.885 9.878 135.945 9.864 135.945 9.864 135.945 9.864 135.991 9.864 135.977 9.902 135.968 9.939 136.033 9.939 136.074 9.902 136.116 9.864 136.13 9.92 136.181 9.948 136.232 9.976 136.213 9.93 136.181 9.892 136.148 9.855 136.176 9.85 136.121 9.813 136.07 9.775 136.079 9.78 136.047 9.789 136.009 9.799 135.963 9.803 135.912 9.794 135.861 9.785 135.894 9.789 135.852 9.794ZM136.482 9.977C136.533 10.019 136.612 10.014 136.612 10.014 136.695 10.028 136.686 9.939 136.644 9.892 136.603 9.846 136.612 9.771 136.561 9.771 136.51 9.771 136.51 9.804 136.441 9.776 136.367 9.748 136.394 9.86 136.413 9.925 136.431 9.991 136.436 9.925 136.487 9.972L136.482 9.977ZM142.335 12.836C142.418 12.827 142.428 12.864 142.451 12.887 142.474 12.911 142.502 12.976 142.557 12.981 142.613 12.985 142.604 13.013 142.594 13.06 142.585 13.107 142.604 13.093 142.655 13.111 142.701 13.13 142.696 13.191 142.724 13.238 142.752 13.284 142.793 13.238 142.858 13.289 142.923 13.336 142.914 13.373 142.965 13.378 143.016 13.382 143.085 13.452 143.145 13.485 143.206 13.518 143.182 13.443 143.09 13.364 142.997 13.28 143.104 13.331 143.09 13.247 143.076 13.163 143.044 13.177 142.969 13.121 142.895 13.065 142.988 13.069 142.946 13.027 142.905 12.985 142.849 13.097 142.831 13.069 142.812 13.041 142.831 12.948 142.78 12.934 142.724 12.92 142.803 12.911 142.835 12.948 142.868 12.985 142.9 12.957 142.942 12.901 142.983 12.845 143.011 12.855 143.057 12.785 143.104 12.714 143.057 12.756 142.983 12.752 142.909 12.747 142.946 12.733 142.877 12.626 142.807 12.518 142.807 12.584 142.761 12.546 142.715 12.509 142.756 12.458 142.687 12.401 142.617 12.345 142.641 12.401 142.562 12.369 142.483 12.331 142.511 12.331 142.46 12.303 142.414 12.275 142.409 12.289 142.367 12.233 142.326 12.173 142.243 12.135 142.173 12.112 142.104 12.084 142.164 12.009 142.15 11.962 142.141 11.916 142.071 11.93 141.992 11.92 141.918 11.911 141.877 11.841 141.826 11.79 141.775 11.738 141.71 11.752 141.654 11.682 141.599 11.612 141.557 11.677 141.497 11.631 141.437 11.584 141.451 11.663 141.377 11.701 141.307 11.734 141.27 11.654 141.205 11.57 141.136 11.486 141.066 11.528 140.992 11.505 140.918 11.481 140.992 11.416 140.992 11.383 140.992 11.35 140.914 11.365 140.872 11.421 140.83 11.477 140.84 11.477 140.756 11.421 140.673 11.365 140.636 11.393 140.608 11.332 140.585 11.271 140.571 11.257 140.52 11.22 140.469 11.182 140.451 11.22 140.39 11.182 140.33 11.145 140.344 11.14 140.326 11.061 140.312 10.981 140.279 11.038 140.228 10.972 140.182 10.902 140.201 10.925 140.103 10.902 140.006 10.879 140.011 10.902 139.937 10.823 139.863 10.743 139.705 10.575 139.613 10.505 139.515 10.435 139.483 10.463 139.39 10.444 139.293 10.426 139.293 10.384 139.182 10.332 139.075 10.281 139.145 10.332 139.099 10.388 139.052 10.444 139.089 10.426 139.015 10.37 138.941 10.318 138.946 10.337 138.862 10.342 138.779 10.342 138.784 10.309 138.71 10.253 138.636 10.197 138.649 10.271 138.682 10.351 138.71 10.43 138.733 10.384 138.821 10.43 138.909 10.477 138.895 10.458 138.913 10.486 138.932 10.514 138.941 10.533 138.955 10.547 138.955 10.547 139.025 10.603 139.052 10.622 139.08 10.64 139.099 10.669 139.062 10.701 139.025 10.734 139.075 10.748 139.103 10.785 139.131 10.823 139.085 10.827 139.066 10.851 139.048 10.874 139.108 10.935 139.145 10.935 139.182 10.935 139.233 10.958 139.307 10.995 139.381 11.028 139.358 11.07 139.362 11.154 139.362 11.238 139.418 11.168 139.487 11.178 139.557 11.187 139.529 11.201 139.525 11.252 139.525 11.304 139.566 11.304 139.645 11.276 139.724 11.248 139.7 11.318 139.691 11.379 139.682 11.439 139.714 11.463 139.775 11.453 139.835 11.439 139.812 11.453 139.821 11.5 139.83 11.547 139.83 11.589 139.876 11.528 139.923 11.472 139.9 11.477 139.918 11.481 139.941 11.481 139.951 11.542 139.951 11.603 139.951 11.663 139.988 11.645 140.052 11.654 140.117 11.663 140.154 11.729 140.219 11.743 140.279 11.757 140.242 11.799 140.279 11.818 140.316 11.836 140.298 11.776 140.349 11.776 140.4 11.776 140.353 11.855 140.39 11.869 140.427 11.883 140.455 11.902 140.511 11.958 140.571 12.014 140.566 11.958 140.636 11.916 140.705 11.869 140.701 11.99 140.668 12.046 140.636 12.103 140.682 12.07 140.747 12.056 140.812 12.042 140.835 12.056 140.877 12.079 140.918 12.107 140.941 12.126 141.006 12.121 141.071 12.121 141.034 12.196 141.062 12.238 141.085 12.28 141.159 12.308 141.228 12.303 141.298 12.299 141.289 12.28 141.326 12.28 141.363 12.28 141.326 12.35 141.289 12.383 141.256 12.415 141.33 12.42 141.358 12.406 141.391 12.392 141.423 12.35 141.479 12.406 141.529 12.458 141.497 12.448 141.502 12.523 141.502 12.598 141.502 12.565 141.553 12.546 141.603 12.528 141.603 12.514 141.65 12.56 141.696 12.607 141.701 12.584 141.793 12.574 141.886 12.565 141.793 12.574 141.826 12.626 141.858 12.677 142.085 12.761 142.173 12.822 142.261 12.883 142.256 12.864 142.34 12.85L142.335 12.836Z"></path><path d="M138.77 10.441C138.752 10.404 138.645 10.418 138.645 10.418 138.645 10.418 138.576 10.413 138.548 10.381 138.52 10.348 138.525 10.348 138.483 10.348 138.441 10.348 138.418 10.325 138.409 10.348 138.4 10.371 138.391 10.381 138.353 10.376 138.316 10.376 138.298 10.348 138.279 10.348 138.261 10.348 138.279 10.381 138.307 10.399 138.335 10.418 138.354 10.404 138.395 10.432 138.432 10.46 138.418 10.479 138.4 10.497 138.381 10.516 138.409 10.525 138.455 10.521 138.506 10.521 138.511 10.563 138.543 10.553 138.576 10.549 138.553 10.53 138.516 10.497 138.479 10.465 138.516 10.474 138.553 10.479 138.59 10.479 138.58 10.488 138.613 10.521 138.645 10.553 138.636 10.539 138.687 10.521 138.733 10.502 138.733 10.544 138.752 10.586 138.77 10.628 138.803 10.586 138.835 10.614 138.872 10.638 138.9 10.619 138.891 10.591 138.881 10.563 138.863 10.549 138.826 10.521 138.793 10.493 138.793 10.483 138.775 10.446L138.77 10.441ZM138.21 10.089C138.256 10.108 138.367 10.187 138.395 10.234 138.418 10.28 138.525 10.285 138.525 10.285 138.525 10.285 138.543 10.299 138.557 10.304 138.571 10.308 138.594 10.294 138.58 10.271 138.567 10.248 138.58 10.238 138.58 10.201 138.58 10.164 138.571 10.173 138.525 10.136 138.479 10.098 138.469 10.103 138.418 10.108 138.367 10.112 138.354 10.117 138.303 10.08 138.247 10.042 138.196 9.986 138.155 9.963 138.113 9.939 138.131 9.995 138.141 10.038 138.154 10.08 138.164 10.075 138.21 10.094V10.089ZM138.001 9.964C138.033 9.996 138.097 10.001 138.074 9.973 138.074 9.973 138.042 9.889 138.074 9.885 138.107 9.88 138.148 9.843 138.121 9.82 138.097 9.796 138.079 9.773 138.047 9.796 138.015 9.82 138.005 9.838 137.973 9.848 137.945 9.857 137.89 9.848 137.908 9.885 137.927 9.922 137.964 9.936 137.996 9.968L138.001 9.964ZM142.441 13.411C142.511 13.425 142.529 13.458 142.543 13.411 142.557 13.364 142.575 13.373 142.612 13.341 142.649 13.308 142.557 13.299 142.473 13.247 142.39 13.191 142.441 13.182 142.464 13.14 142.487 13.098 142.45 13.107 142.409 13.042 142.372 12.976 142.441 12.981 142.39 12.948 142.339 12.916 142.316 12.92 142.251 12.948 142.186 12.976 142.21 12.944 142.149 12.948 142.089 12.953 142.131 12.986 142.098 13.051 142.066 13.117 142.126 13.149 142.126 13.149 142.126 13.149 142.177 13.215 142.191 13.257 142.205 13.299 142.228 13.294 142.27 13.257 142.316 13.219 142.335 13.271 142.33 13.322 142.325 13.369 142.367 13.397 142.432 13.411H142.441ZM147.645 16.685C147.728 16.723 147.724 16.76 147.756 16.811 147.789 16.863 147.812 16.718 147.812 16.648 147.812 16.578 147.752 16.564 147.738 16.48 147.724 16.396 147.715 16.433 147.654 16.349 147.594 16.265 147.65 16.256 147.608 16.209 147.566 16.162 147.511 16.134 147.506 16.073 147.502 16.013 147.46 15.952 147.423 15.873 147.386 15.793 147.363 15.789 147.386 15.779 147.404 15.77 147.428 15.775 147.423 15.7 147.423 15.625 147.39 15.662 147.358 15.625 147.326 15.592 147.33 15.56 147.363 15.518 147.395 15.476 147.395 15.494 147.418 15.452 147.437 15.405 147.386 15.373 147.339 15.321 147.298 15.275 147.238 15.279 147.224 15.256 147.214 15.228 147.284 15.237 147.279 15.191 147.275 15.144 147.228 15.172 147.177 15.172 147.127 15.172 147.131 15.135 147.14 15.093 147.154 15.05 147.154 15.046 147.122 15.008 147.089 14.971 147.145 14.976 147.14 14.92 147.136 14.864 147.043 14.887 147.001 14.854 146.96 14.817 147.015 14.798 147.057 14.761 147.099 14.724 146.941 14.649 146.867 14.574 146.793 14.499 146.812 14.551 146.751 14.523 146.691 14.495 146.775 14.49 146.724 14.448 146.673 14.406 146.64 14.364 146.599 14.355 146.557 14.35 146.562 14.425 146.488 14.387 146.413 14.35 146.474 14.331 146.423 14.294 146.367 14.256 146.367 14.247 146.39 14.191 146.413 14.135 146.344 14.088 146.39 13.999 146.441 13.911 146.404 13.929 146.404 13.878 146.404 13.827 146.497 13.845 146.566 13.85 146.636 13.85 146.599 13.817 146.585 13.757 146.571 13.696 146.562 13.687 146.529 13.607 146.497 13.528 146.455 13.476 146.376 13.439 146.298 13.402 146.279 13.332 146.274 13.285 146.265 13.238 146.205 13.238 146.136 13.191 146.066 13.149 146.089 13.154 146.08 13.089 146.075 13.019 146.062 13.023 145.983 12.958 145.904 12.892 145.978 12.902 145.941 12.855 145.904 12.813 145.913 12.79 145.849 12.776 145.788 12.766 145.774 12.743 145.724 12.706 145.677 12.664 145.626 12.682 145.58 12.71 145.534 12.738 145.603 12.715 145.649 12.72 145.696 12.724 145.728 12.78 145.724 12.841 145.719 12.902 145.691 12.892 145.608 12.832 145.529 12.771 145.561 12.79 145.464 12.79 145.367 12.79 145.339 12.72 145.27 12.673 145.2 12.626 145.265 12.724 145.237 12.766 145.21 12.808 145.242 12.818 145.288 12.874 145.33 12.93 145.335 12.92 145.353 12.953 145.372 12.986 145.335 12.986 145.353 13.023 145.372 13.061 145.409 13.042 145.432 13.065 145.455 13.089 145.473 13.112 145.487 13.121 145.487 13.121 145.571 13.168 145.571 13.233 145.571 13.299 145.603 13.261 145.649 13.318 145.696 13.374 145.691 13.383 145.663 13.458 145.631 13.532 145.612 13.514 145.562 13.551 145.511 13.588 145.534 13.579 145.524 13.63 145.515 13.682 145.589 13.729 145.64 13.817 145.687 13.906 145.663 13.915 145.617 14.009 145.571 14.102 145.705 14.135 145.714 14.186 145.724 14.233 145.714 14.238 145.756 14.303 145.793 14.369 145.844 14.364 145.835 14.443 145.825 14.523 145.886 14.476 145.9 14.541 145.913 14.607 145.876 14.616 145.844 14.681 145.811 14.747 145.816 14.705 145.862 14.77 145.909 14.836 145.918 14.803 145.909 14.859 145.9 14.915 145.923 14.896 145.978 14.938 146.034 14.98 146.015 14.98 146.001 15.022 145.987 15.064 146.001 15.069 146.034 15.093 146.066 15.116 146.099 15.107 146.099 15.149 146.099 15.186 146.108 15.181 146.145 15.242 146.182 15.303 146.201 15.335 146.27 15.415 146.339 15.494 146.358 15.415 146.432 15.48 146.506 15.541 146.488 15.583 146.525 15.639 146.562 15.695 146.64 15.737 146.765 15.77 146.89 15.803 146.844 15.807 146.918 15.84 146.988 15.873 147.002 15.919 147.071 15.98 147.14 16.041 147.127 16.045 147.168 16.055 147.21 16.059 147.205 16.073 147.224 16.12 147.242 16.167 147.228 16.167 147.316 16.251 147.4 16.335 147.358 16.293 147.372 16.354 147.386 16.414 147.386 16.433 147.441 16.48 147.497 16.527 147.502 16.517 147.506 16.573 147.511 16.629 147.562 16.657 147.645 16.695V16.685Z"></path><path d="M147.762 16.133C147.794 16.175 147.789 16.185 147.743 16.241 147.697 16.297 147.775 16.273 147.826 16.287 147.877 16.301 147.813 16.376 147.766 16.423 147.72 16.47 147.826 16.488 147.831 16.54 147.84 16.596 147.845 16.6 147.859 16.68 147.873 16.764 147.873 16.792 147.822 16.857 147.775 16.923 147.822 16.946 147.873 17.021 147.919 17.095 147.933 17.058 147.965 17.007 148.002 16.955 148.03 16.983 148.081 17.035 148.127 17.081 148.164 17.142 148.164 17.217 148.164 17.292 148.225 17.236 148.243 17.292 148.262 17.348 148.285 17.32 148.308 17.25 148.326 17.18 148.336 17.119 148.326 17.058 148.322 17.002 148.289 17.007 148.271 16.946 148.252 16.885 148.303 16.834 148.271 16.801 148.238 16.764 148.192 16.736 148.183 16.703 148.174 16.67 148.192 16.638 148.164 16.605 148.132 16.572 148.127 16.572 148.1 16.502 148.067 16.432 148.058 16.451 148.007 16.39 147.956 16.329 148.007 16.315 147.988 16.259 147.975 16.203 147.938 16.213 147.887 16.161 147.831 16.11 147.84 16.119 147.808 16.068 147.775 16.016 147.794 16.035 147.738 16.012 147.683 15.988 147.711 15.946 147.678 15.9 147.646 15.858 147.646 15.979 147.678 16.054 147.711 16.128 147.757 16.128 147.757 16.128L147.762 16.133ZM150.595 20.557C150.498 20.557 150.544 20.552 150.488 20.505 150.428 20.459 150.502 20.431 150.544 20.417 150.59 20.398 150.618 20.379 150.572 20.319 150.525 20.258 150.572 20.225 150.549 20.146 150.521 20.066 150.442 20.113 150.363 20.062 150.285 20.01 150.363 20.015 150.363 19.945 150.363 19.88 150.326 19.88 150.252 19.852 150.178 19.823 150.229 19.791 150.248 19.707 150.266 19.627 150.238 19.655 150.174 19.613 150.109 19.571 150.113 19.543 150.076 19.487 150.039 19.436 150.044 19.37 149.975 19.361 149.905 19.352 149.933 19.422 149.859 19.459 149.789 19.496 149.859 19.459 149.845 19.51 149.831 19.562 149.697 19.459 149.599 19.398 149.498 19.333 149.502 19.426 149.437 19.398 149.373 19.37 149.312 19.389 149.201 19.398 149.085 19.408 149.132 19.375 149.085 19.314 149.044 19.249 149.021 19.258 148.923 19.258 148.826 19.258 148.84 19.254 148.785 19.193 148.734 19.132 148.757 19.132 148.683 19.141 148.609 19.151 148.502 18.997 148.391 18.903 148.28 18.81 148.289 18.782 148.229 18.796 148.169 18.81 148.095 18.716 148.044 18.656 147.993 18.6 148.007 18.6 147.886 18.618 147.766 18.637 147.854 18.586 147.775 18.572 147.696 18.558 147.706 18.562 147.645 18.572 147.59 18.581 147.655 18.646 147.595 18.651 147.534 18.66 147.525 18.656 147.511 18.702 147.497 18.749 147.539 18.772 147.52 18.829 147.502 18.88 147.516 18.885 147.557 18.945 147.599 19.001 147.562 19.015 147.557 19.057 147.553 19.095 147.826 19.057 147.826 19.057L147.919 19.081C147.919 19.081 147.946 19.095 148.034 19.104 148.118 19.118 148.155 19.17 148.155 19.212 148.155 19.254 148.136 19.244 148.164 19.263 148.192 19.282 148.127 19.347 148.164 19.426 148.201 19.501 148.22 19.417 148.289 19.468 148.358 19.52 148.271 19.585 148.224 19.599 148.178 19.613 148.275 19.655 148.28 19.697 148.289 19.744 148.335 19.767 148.377 19.753 148.423 19.739 148.442 19.763 148.465 19.795 148.493 19.833 148.497 19.837 148.497 19.884 148.497 19.931 148.521 19.968 148.604 19.95 148.687 19.931 148.692 19.926 148.697 19.95 148.706 19.973 148.706 19.982 148.757 19.992 148.808 20.001 148.794 20.001 148.794 20.048 148.794 20.094 148.798 20.099 148.859 20.113 148.919 20.132 148.97 20.136 149.016 20.207 149.062 20.281 149.039 20.235 149.155 20.272 149.271 20.314 149.275 20.342 149.391 20.398 149.511 20.449 149.53 20.421 149.687 20.417 149.845 20.417 149.761 20.421 149.873 20.51 149.984 20.599 149.979 20.547 150.081 20.576 150.183 20.604 150.183 20.576 150.206 20.524 150.229 20.473 150.252 20.491 150.285 20.529 150.322 20.566 150.354 20.561 150.447 20.59 150.539 20.618 150.674 20.59 150.803 20.608 150.933 20.632 150.845 20.585 150.776 20.557 150.706 20.524 150.683 20.557 150.586 20.557H150.595ZM148.886 18.816C148.886 18.873 148.961 18.859 148.961 18.859 148.961 18.859 149.025 18.774 149.002 18.714 148.979 18.658 148.914 18.597 148.882 18.574 148.849 18.55 148.854 18.616 148.882 18.681 148.91 18.742 148.882 18.76 148.882 18.816H148.886ZM149.501 17.436C149.501 17.436 149.585 17.488 149.594 17.436 149.608 17.385 149.557 17.329 149.548 17.268 149.538 17.207 149.566 17.207 149.52 17.128 149.473 17.053 149.589 17.067 149.608 17.021 149.626 16.974 149.557 17.002 149.497 16.974 149.441 16.941 149.46 16.946 149.436 16.974 149.413 17.002 149.372 17.067 149.376 17.165 149.381 17.263 149.409 17.207 149.427 17.315 149.446 17.427 149.487 17.418 149.492 17.432L149.501 17.436ZM146.089 17.273C146.08 17.194 146.089 17.189 146.001 17.1 145.913 17.016 145.899 17.044 145.821 17.002 145.742 16.955 145.696 17.049 145.612 17.049 145.529 17.049 145.575 17.04 145.552 16.909 145.524 16.778 145.487 16.839 145.455 16.736 145.423 16.633 145.399 16.666 145.325 16.605 145.251 16.544 145.191 16.507 145.117 16.502 145.043 16.498 145.047 16.516 145.047 16.432 145.047 16.348 144.973 16.288 144.913 16.283 144.853 16.278 144.816 16.227 144.751 16.171 144.686 16.115 144.696 16.157 144.584 16.171 144.473 16.185 144.506 16.138 144.413 16.129 144.321 16.115 144.334 16.129 144.237 16.143 144.145 16.161 144.191 16.115 144.075 16.101 143.959 16.087 143.932 16.171 143.867 16.161 143.802 16.152 143.793 16.115 143.64 16.166 143.487 16.217 143.584 16.18 143.492 16.129 143.399 16.077 143.367 16.105 143.279 16.096 143.191 16.087 143.177 16.04 143.154 15.928 143.131 15.816 143.043 15.825 142.918 15.783 142.792 15.741 142.802 15.657 142.709 15.615 142.617 15.573 142.663 15.671 142.589 15.648 142.515 15.624 142.524 15.685 142.445 15.727 142.371 15.774 142.362 15.876 142.362 15.876 142.362 15.876 142.334 16.003 142.376 16.045 142.413 16.087 142.376 16.129 142.348 16.208 142.32 16.283 142.38 16.269 142.404 16.297 142.427 16.325 142.431 16.367 142.385 16.39 142.339 16.418 142.343 16.432 142.362 16.498 142.38 16.563 142.515 16.647 142.603 16.717 142.691 16.787 142.603 16.811 142.556 16.867 142.51 16.923 142.677 16.909 142.718 16.946 142.76 16.984 142.797 17.007 142.774 17.04 142.751 17.077 142.876 17.11 142.955 17.128 143.033 17.152 143.01 17.236 143.07 17.329 143.131 17.423 143.186 17.315 143.228 17.278 143.269 17.24 143.334 17.264 143.371 17.306 143.408 17.348 143.473 17.339 143.603 17.357 143.733 17.376 143.682 17.427 143.867 17.399 144.052 17.371 144.01 17.432 144.158 17.385 144.307 17.339 144.344 17.395 144.58 17.39 144.816 17.39 144.672 17.441 144.807 17.507 144.941 17.572 144.89 17.633 144.918 17.694 144.941 17.754 145.089 17.698 145.26 17.694 145.427 17.689 145.376 17.736 145.501 17.75 145.631 17.768 145.788 17.754 145.955 17.637 146.122 17.521 146.117 17.591 146.159 17.516 146.2 17.446 146.168 17.432 146.122 17.371 146.075 17.31 146.103 17.339 146.094 17.254L146.089 17.273ZM144.506 15.416C144.618 15.453 144.641 15.373 144.692 15.336 144.743 15.299 144.798 15.271 144.692 15.196 144.585 15.126 144.594 15.187 144.553 15.159 144.511 15.126 144.516 15.023 144.488 15.032 144.456 15.042 144.474 15.121 144.442 15.187 144.405 15.252 144.386 15.261 144.377 15.28 144.377 15.28 144.4 15.373 144.511 15.416H144.506ZM143.836 15.078C143.905 15.134 143.864 15.185 143.975 15.129 144.086 15.078 144.053 15.012 144.095 15.101 144.137 15.19 144.169 15.241 144.192 15.26 144.215 15.278 144.276 15.274 144.299 15.232 144.299 15.232 144.354 15.12 144.378 15.068 144.405 15.017 144.424 15.017 144.336 14.956 144.252 14.9 144.294 14.853 144.215 14.858 144.137 14.858 144.114 14.909 144.063 14.891 144.012 14.872 144.012 14.825 143.956 14.858 143.901 14.891 143.901 14.867 143.887 14.928 143.868 14.993 143.877 14.989 143.836 14.998 143.79 15.007 143.766 15.017 143.836 15.073V15.078ZM133.611 10.739C133.527 10.725 133.523 10.725 133.453 10.65 133.384 10.575 133.37 10.529 133.264 10.44 133.162 10.351 133.106 10.276 133.027 10.332 132.949 10.384 132.81 10.482 132.884 10.561 132.958 10.645 132.949 10.599 132.99 10.744 133.032 10.888 133 10.898 133.101 10.926 133.203 10.954 133.231 10.944 133.222 11.028 133.213 11.113 133.097 11.211 133.185 11.248 133.273 11.285 133.324 11.243 133.319 11.313 133.314 11.383 133.402 11.477 133.453 11.402 133.453 11.402 133.551 11.29 133.541 11.206 133.532 11.122 133.514 11.141 133.592 11.094 133.671 11.042 133.796 10.944 133.768 10.86 133.74 10.776 133.699 10.758 133.615 10.739H133.611ZM132.995 11.529C133.028 11.622 133.056 11.622 133.051 11.748 133.051 11.879 133.019 11.851 133.074 11.94 133.134 12.024 133.134 12.066 133.162 12.141 133.19 12.215 133.227 12.318 133.255 11.968 133.255 11.968 133.208 11.687 133.167 11.571 133.125 11.449 132.958 11.431 132.991 11.529H132.995ZM134.588 12.017C134.588 12.017 134.667 12.068 134.783 12.021 134.899 11.975 134.824 12.049 134.875 12.087 134.926 12.12 134.949 12.087 134.968 12.017 134.987 11.942 135.065 11.928 135.056 11.839 135.047 11.751 135.028 11.596 134.991 11.466 134.959 11.335 134.95 11.466 134.889 11.367 134.834 11.269 134.783 11.302 134.746 11.241 134.709 11.181 134.676 11.199 134.616 11.241 134.551 11.283 134.542 11.269 134.505 11.246 134.463 11.223 134.426 11.265 134.357 11.353 134.283 11.442 134.283 11.452 134.283 11.573 134.283 11.694 134.352 11.737 134.422 11.891 134.491 12.04 134.454 11.933 134.542 11.947 134.625 11.961 134.593 12.017 134.593 12.017H134.588ZM135.001 12.407C134.964 12.355 135.005 12.332 134.978 12.215 134.945 12.099 134.899 12.173 134.82 12.159 134.741 12.145 134.765 12.187 134.797 12.267 134.829 12.346 134.862 12.304 134.862 12.388 134.862 12.472 134.917 12.463 134.936 12.463 134.936 12.463 134.991 12.505 135.005 12.496 135.019 12.486 135.042 12.458 135.005 12.407H135.001ZM134.764 12.443C134.764 12.349 134.709 12.302 134.667 12.284 134.626 12.27 134.533 12.265 134.528 12.284 134.528 12.302 134.621 12.373 134.667 12.452 134.709 12.531 134.871 12.77 134.889 12.746 134.913 12.723 134.848 12.634 134.848 12.634 134.834 12.611 134.76 12.536 134.764 12.443ZM137.112 13.154C137.075 13.14 137.033 13.023 137.01 12.948 136.987 12.873 136.959 12.855 136.908 12.841 136.857 12.827 136.876 12.719 136.867 12.649 136.853 12.584 136.816 12.584 136.756 12.56 136.695 12.537 136.709 12.444 136.672 12.401 136.64 12.359 136.598 12.359 136.543 12.35 136.487 12.341 136.441 12.401 136.427 12.392 136.413 12.387 136.33 12.369 136.306 12.313 136.283 12.257 136.316 12.229 136.269 12.205 136.223 12.182 136.265 12.103 136.237 11.99 136.214 11.878 136.269 11.888 136.269 11.79 136.269 11.691 136.177 11.715 136.08 11.645 135.987 11.575 135.996 11.565 135.904 11.533 135.811 11.5 135.806 11.537 135.755 11.607 135.704 11.677 135.704 11.607 135.644 11.645 135.584 11.682 135.644 11.729 135.552 11.757 135.459 11.79 135.496 11.832 135.487 11.888 135.482 11.948 135.478 11.981 135.399 12.093 135.32 12.205 135.348 12.191 135.297 12.261 135.246 12.331 135.255 12.308 135.135 12.308 135.015 12.308 135.13 12.42 135.177 12.481 135.228 12.542 135.209 12.518 135.2 12.612 135.191 12.705 135.311 12.668 135.339 12.668 135.339 12.668 135.413 12.626 135.436 12.546 135.459 12.467 135.459 12.509 135.529 12.495 135.598 12.481 135.621 12.523 135.723 12.495 135.825 12.467 135.792 12.444 135.862 12.42 135.931 12.397 135.885 12.504 135.955 12.476 136.024 12.453 136.01 12.43 136.149 12.467 136.288 12.509 136.191 12.574 136.214 12.728 136.237 12.883 136.306 12.785 136.316 12.859 136.325 12.934 136.265 12.855 136.172 12.803 136.08 12.752 136.117 12.78 136.112 12.855 136.107 12.929 136.251 12.92 136.251 12.976 136.251 13.027 136.279 13.069 136.343 13.107 136.408 13.149 136.408 13.228 136.519 13.266 136.631 13.303 136.631 13.177 136.691 13.149 136.746 13.121 136.756 13.186 136.705 13.242 136.654 13.298 136.788 13.354 136.844 13.406 136.894 13.457 136.899 13.42 136.982 13.406 137.066 13.392 137.047 13.387 137.066 13.336 137.08 13.284 137.089 13.284 137.121 13.228 137.154 13.177 137.158 13.154 137.121 13.14L137.112 13.154ZM137.663 13.235C137.551 13.249 137.593 13.309 137.519 13.277 137.445 13.244 137.362 13.3 137.338 13.333 137.315 13.365 137.426 13.384 137.422 13.445 137.417 13.51 137.385 13.506 137.348 13.445 137.311 13.384 137.264 13.496 137.237 13.496 137.204 13.496 137.149 13.482 137.112 13.548 137.075 13.613 137.13 13.627 137.088 13.692 137.047 13.758 137.149 13.837 137.149 13.837 137.149 13.837 137.19 13.917 137.241 13.945 137.292 13.973 137.283 13.954 137.352 13.996 137.422 14.038 137.436 14.08 137.468 14.033 137.501 13.987 137.63 13.982 137.653 13.931 137.676 13.884 137.676 13.875 137.746 13.837 137.815 13.8 137.778 13.762 137.769 13.706 137.764 13.65 137.764 13.664 137.802 13.641 137.839 13.622 137.829 13.58 137.751 13.566 137.672 13.552 137.639 13.548 137.667 13.529 137.7 13.51 137.806 13.496 137.815 13.421 137.825 13.347 137.866 13.337 137.838 13.272 137.811 13.202 137.774 13.221 137.663 13.235ZM138.19 14.055C138.158 14.003 138.167 13.957 138.153 13.9 138.14 13.849 138.103 13.868 138.042 13.9 137.982 13.933 137.991 13.966 137.894 14.022 137.797 14.073 137.927 14.181 137.927 14.181 137.927 14.181 137.991 14.312 138.075 14.269 138.158 14.227 138.209 14.232 138.269 14.181 138.334 14.129 138.227 14.106 138.195 14.055H138.19ZM135.491 12.934C135.389 12.924 135.421 12.98 135.333 13.074 135.245 13.167 135.31 13.153 135.222 13.153 135.129 13.153 135.18 13.284 135.055 13.368 134.93 13.457 135.064 13.499 135.171 13.578 135.277 13.658 135.333 13.751 135.333 13.751 135.333 13.751 135.398 13.868 135.463 13.868 135.532 13.868 135.592 13.928 135.634 13.91 135.671 13.891 135.56 13.812 135.504 13.751 135.449 13.69 135.504 13.709 135.472 13.639 135.444 13.569 135.481 13.559 135.491 13.499 135.5 13.438 135.523 13.461 135.602 13.447 135.68 13.433 135.662 13.335 135.69 13.195 135.717 13.055 135.69 13.092 135.639 13.013 135.588 12.929 135.588 12.948 135.491 12.938V12.934ZM136.213 13.887C136.121 13.873 136.153 13.859 136.144 13.831 136.135 13.803 136.107 13.807 136.024 13.868 135.94 13.929 135.922 13.835 135.862 13.868 135.797 13.901 135.912 13.957 135.912 13.957 135.912 13.957 136.042 13.985 136.112 13.98 136.186 13.971 136.255 14.036 136.385 14.116 136.514 14.195 136.426 14.088 136.385 14.022 136.343 13.957 136.301 13.901 136.209 13.887H136.213ZM130.94 8.696C130.829 8.635 130.903 8.673 130.824 8.57 130.75 8.467 130.685 8.542 130.676 8.598 130.662 8.654 130.648 8.687 130.62 8.804 130.593 8.92 130.63 8.911 130.778 8.934 130.926 8.958 130.778 8.934 130.866 9.014 130.954 9.093 131.042 8.939 131.042 8.939 131.171 8.981 131.116 8.92 131.093 8.836 131.069 8.752 131.051 8.757 130.944 8.696H130.94ZM131.815 8.306C131.801 8.222 131.796 8.268 131.727 8.212 131.657 8.156 131.713 8.058 131.681 8.063 131.648 8.063 131.634 8.147 131.667 8.236 131.699 8.324 131.671 8.31 131.616 8.362 131.56 8.413 131.685 8.427 131.662 8.474 131.639 8.525 131.57 8.558 131.57 8.558 131.477 8.642 131.57 8.558 131.662 8.591 131.755 8.623 131.662 8.591 131.736 8.605 131.81 8.619 131.741 8.567 131.769 8.446 131.792 8.324 131.824 8.399 131.81 8.315L131.815 8.306ZM145.4 23.411C145.326 23.365 145.238 23.379 145.15 23.365 145.066 23.351 145.228 23.425 145.293 23.439 145.358 23.453 145.478 23.523 145.404 23.509 145.33 23.495 145.321 23.561 145.242 23.575 145.164 23.589 145.136 23.594 145.006 23.528 144.876 23.463 144.918 23.449 144.816 23.379 144.714 23.309 144.863 23.327 144.974 23.351 145.085 23.379 145.043 23.332 144.951 23.281 144.858 23.229 144.784 23.257 144.566 23.253 144.349 23.253 144.474 23.215 144.316 23.206 144.163 23.196 144.08 23.178 143.987 23.098 143.895 23.024 143.798 23.038 143.705 23.061 143.608 23.084 143.548 23.061 143.478 23.145 143.409 23.229 143.557 23.21 143.599 23.327 143.64 23.444 143.677 23.369 143.788 23.369 143.9 23.369 143.858 23.407 143.918 23.444 143.978 23.481 144.14 23.444 144.14 23.444L144.247 23.435C144.353 23.425 144.316 23.332 144.451 23.295 144.585 23.257 144.52 23.374 144.511 23.449 144.501 23.523 144.594 23.444 144.724 23.435 144.853 23.425 144.802 23.523 144.881 23.636 144.96 23.748 145.039 23.659 145.154 23.678 145.27 23.701 145.298 23.729 145.316 23.64 145.335 23.551 145.423 23.598 145.529 23.58 145.636 23.561 145.465 23.458 145.39 23.411H145.4ZM121.323 72.705C121.323 72.201 121.466 72.224 121.457 71.771 121.448 71.318 121.508 71.43 121.457 71.014 121.406 70.598 120.873 70.813 121.165 70.435 121.457 70.057 121.244 70.08 120.874 69.781 120.503 69.477 120.674 69.263 120.475 68.772 120.276 68.282 120.355 67.712 120.554 67.147 120.753 66.581 120.313 66.502 120.29 65.937 120.262 65.372 120.461 64.965 120.874 64.573 121.286 64.176 120.809 63.923 120.739 63.494 120.674 63.064 120.406 63.078 120.397 63.293 120.383 63.508 120.355 63.821 119.971 64.302 119.586 64.783 119.494 64.531 119.151 64.302 118.808 64.073 118.646 63.419 118.596 63.041 118.545 62.662 118.054 62.686 117.614 62.461 117.174 62.237 116.924 62.069 116.817 61.555 116.711 61.037 116.368 60.85 116.128 60.397 115.887 59.944 115.743 60.168 115.308 60.018 114.873 59.869 114.845 59.453 114.776 59.112 114.711 58.771 114.419 58.734 114.113 58.837 113.808 58.939 113.465 58.813 113.479 58.458 113.493 58.103 113.187 57.865 113.238 57.73 113.289 57.59 113.822 56.898 113.609 56.772 113.396 56.646 113.173 56.37 113.183 55.941 113.197 55.511 112.72 55.413 112.173 55.221 111.632 55.034 112.039 55.399 111.882 55.422 111.724 55.445 111.27 55.184 110.872 54.866 110.474 54.553 110.46 54.852 110.581 55.044 110.701 55.231 110.738 55.6 110.738 55.852 110.738 56.104 110.368 55.777 110.127 55.371 109.886 54.969 110.113 54.932 109.914 54.539 109.715 54.147 109.21 53.418 109.516 53.101 109.821 52.783 109.381 52.722 109.066 52.321 108.747 51.919 108.733 51.793 108.534 51.312 108.335 50.83 107.714 50.746 107.367 50.457 107.025 50.167 107.353 49.864 107.659 49.803 107.964 49.742 107.687 49.49 107.367 49.224 107.048 48.957 106.89 48.794 106.756 48.542 106.622 48.289 106.293 48.43 106.066 48.416 105.839 48.402 105.163 48.103 104.927 47.86 104.686 47.621 104.728 47.369 104.501 47.28 104.274 47.192 103.876 47.206 103.705 46.977 103.533 46.748 103.478 46.421 103.2 46.421 102.922 46.421 102.445 46.22 102.297 45.94 102.153 45.664 101.862 45.865 101.556 45.711 101.251 45.562 101.223 45.347 101.052 44.982 100.88 44.618 100.626 45.085 100.334 44.982 100.042 44.88 100.042 44.87 100.042 44.202 100.042 43.534 99.7 43.861 99.732 43.474 99.769 43.081 99.579 43.17 99.352 42.992 99.125 42.815 99.153 42.74 99.473 42.264 99.792 41.783 99.644 41.871 99.459 41.582 99.274 41.292 99.538 41.026 99.459 40.624 99.38 40.222 99.024 39.98 98.954 39.681 98.889 39.377 99.047 39.405 99.112 39.125 99.176 38.849 98.449 39.064 98.13 38.896 97.81 38.728 98.357 38.569 98.13 38.242 97.903 37.915 97.852 38.078 97.681 37.434 97.51 36.789 97.88 36.602 97.63 36.327 97.38 36.051 97.389 36.037 97.709 35.822 98.028 35.607 97.722 35.584 97.347 35.215 96.972 34.851 96.861 34.599 97.153 34.258 97.445 33.917 97.394 34.019 97.102 33.804 96.81 33.59 97.037 33.678 97.236 33.403 97.435 33.127 96.681 32.912 96.31 32.823 95.94 32.735 96.111 32.422 95.528 32.118 94.944 31.815 94.893 31.539 94.893 31.287 94.893 31.034 94.324 31.161 93.754 31.436 93.185 31.712 93.199 32.081 92.828 31.931 92.458 31.782 92.338 30.717 92.324 30.301 92.31 29.885 91.925 30.086 91.898 29.671 91.87 29.255 92.375 29.484 92.532 29.189 92.689 28.895 92.597 28.797 92.134 28.535 91.671 28.269 91.976 28.307 92.185 28.18 92.398 28.054 92.305 27.839 92.05 27.727 91.796 27.615 92.185 27.653 92.185 27.125 92.185 26.597 91.694 26.546 91.393 26.317 91.092 26.088 91.152 25.836 91.342 25.485 91.532 25.13 91.152 25.196 90.911 24.803 90.671 24.411 91.509 24.663 91.31 24.299 91.111 23.934 90.356 24.612 90.036 24.425 89.717 24.238 89.796 22.785 89.717 22.36 89.638 21.931 89.305 21.706 89.106 21.328 88.907 20.95 88.508 21.113 87.911 21.58 87.314 22.047 87.263 22.173 87.541 22.589 87.818 23.005 87.476 23.056 87.3 23.444 87.129 23.836 86.874 24.187 87.008 24.476 87.142 24.766 86.943 25.004 86.689 24.957 86.439 24.906 86.304 25.56 86.027 25.84 85.749 26.116 85.948 26.181 86.346 26.242 86.744 26.303 86.795 26.391 86.851 26.821 86.906 27.251 86.425 27.349 86.003 27.727 85.582 28.106 86.216 28.307 86.189 28.61 86.161 28.914 85.804 29.582 85.554 30.096 85.304 30.614 86.202 31.119 86.189 31.595 86.175 32.076 85.605 32.314 85.739 32.753 85.874 33.193 86.216 33.384 85.846 34.141 85.476 34.897 85.619 35.766 85.605 36.285 85.591 36.803 85.564 36.939 85.392 37.14 85.221 37.34 85.151 37.77 84.994 38.326 84.837 38.882 84.744 39.008 84.462 39.26 84.179 39.512 84.211 40.232 84.012 40.596 83.813 40.961 83.563 40.951 83.003 41.026 82.447 41.101 81.637 41.493 81.438 41.479 81.239 41.465 80.405 40.876 80.128 40.699 79.85 40.521 79.211 40.321 79.04 39.793 78.868 39.265 78.947 39.438 78.243 38.985 77.539 38.532 76.627 38.732 76.122 38.583 75.618 38.433 75.368 38.405 74.821 37.7 74.28 36.995 73.854 37.107 73.548 36.971 73.242 36.836 72.728 36.43 72.335 36.037 71.946 35.645 72.034 35.635 71.534 35.659 71.029 35.682 71.27 35.673 70.9 35.407 70.529 35.14 69.788 34.561 69.149 34.019 68.515 33.477 67.797 33.477 67.663 33.375 67.529 33.272 67.478 32.936 68.033 32.324 68.589 31.712 69.335 30.516 69.705 30.147 70.075 29.783 69.89 29.918 69.677 29.871 69.464 29.825 69.784 29.381 69.385 29.493 68.987 29.605 68.788 29.432 68.96 29.189 69.131 28.947 69.316 28.862 69.302 28.662 69.288 28.461 69.501 28.512 70.02 28.134 70.538 27.755 70.617 28.185 70.738 28.26 70.858 28.335 71.108 27.779 71.057 27.48 71.006 27.176 71.974 26.419 72.224 26.041 72.474 25.663 72.303 25.499 71.747 25.485 71.191 25.471 71.414 25.382 71.321 25.158 71.228 24.929 70.886 24.729 70.978 24.528 71.071 24.327 70.738 24.49 70.344 24.63 69.946 24.771 70.117 24.883 70.265 25.186 70.409 25.49 70.358 25.752 70.108 25.84 69.858 25.929 69.603 25.714 69.524 25.439 69.446 25.163 69.39 25.326 68.987 25.439 68.584 25.551 68.862 25.415 68.964 25.163 69.066 24.911 68.77 24.747 68.941 24.458 69.112 24.168 68.316 24.584 67.932 24.836 67.547 25.088 67.64 25.616 67.098 25.593 66.556 25.569 66.742 25.238 66.464 25.14 66.186 25.037 66.066 24.785 65.802 24.635 65.538 24.486 65.737 24.747 65.269 24.911 64.806 25.074 64.792 24.85 64.343 24.733 63.894 24.621 64.102 24.532 63.811 24.43 63.519 24.327 63.385 24.518 63.255 24.229 63.121 23.939 63.084 23.888 62.75 24.205 62.417 24.518 62.218 24.145 61.931 24.028 61.639 23.916 61.824 23.827 61.773 23.547 61.722 23.266 61.639 23.486 61.269 23.65 60.898 23.813 60.898 23.575 60.449 23.21 60 22.846 60 23.084 59.653 23.01 59.31 22.935 59.361 22.823 59.463 22.253 59.565 21.688 59.204 21.977 59.018 22.103 58.833 22.23 58.676 22.571 58.407 22.659 58.143 22.748 57.944 22.683 57.504 22.482 57.069 22.281 57.12 22.659 57.37 23.01 57.62 23.365 57.69 23.388 58.088 23.388 58.486 23.388 58.444 23.388 59.069 23.64 59.694 23.892 59.389 24.243 59.389 24.598 59.389 24.953 59.361 25.191 58.727 25.354 58.092 25.518 58.25 25.644 57.824 25.607 57.398 25.569 57.532 25.42 56.921 25.63 56.31 25.845 56.402 25.667 56.018 25.481 55.634 25.294 55.592 25.495 55.009 25.28 54.425 25.065 54.717 25.34 54.504 25.607 54.291 25.873 54.689 26.149 54.661 26.349 54.634 26.55 54.661 26.349 54.342 26.237 54.022 26.125 54.05 26.111 53.731 26.111 53.411 26.111 53.559 26.223 53.36 26.541 53.161 26.859 53.096 26.69 52.726 26.77 52.356 26.845 52.541 26.957 52.462 27.349 52.383 27.741 52.462 27.349 52.064 27.676 51.666 28.003 52.105 28.293 52.263 28.484 52.42 28.671 52.263 28.774 51.837 29.04 51.411 29.306 51.096 29.18 50.962 29.395 50.828 29.61 50.791 29.787 50.883 30.203 50.976 30.619 50.619 30.782 50.221 30.834 49.823 30.885 49.888 31.338 49.744 31.665 49.601 31.992 49.994 32.184 50.591 32.268 51.189 32.356 50.619 32.445 50.591 32.669 50.564 32.898 50.934 32.996 51.124 33.15 51.309 33.3 50.675 33.291 50.383 33.379 50.091 33.468 50.476 33.632 50.54 34.01 50.605 34.388 50.54 34.01 50.142 33.655 49.744 33.3 49.716 33.174 49.425 33.174 49.133 33.174 49.531 33.44 49.425 33.73 49.318 34.019 49.161 33.917 49.161 33.58 49.161 33.244 48.883 33.379 48.79 33.202 48.698 33.024 48.804 32.735 48.286 33.024 47.767 33.314 47.836 33.099 47.517 33.001 47.197 32.898 46.984 32.978 46.799 33.277 46.693 33.449 46.808 33.557 46.873 33.599 46.855 33.59 46.836 33.58 46.799 33.566 46.48 33.44 46.799 33.566 46.373 33.678 45.947 33.79 46.295 33.491 46.452 33.249 46.609 33.01 46.586 32.922 46.295 32.693 46.003 32.464 45.859 32.212 45.368 31.861 44.878 31.506 44.466 30.703 44.229 30.437 43.989 30.17 43.368 30.259 43.063 30.11 42.757 29.96 42.757 29.628 42.266 29.932 41.775 30.236 41.803 30.866 41.363 30.74 40.928 30.614 41.72 30.222 41.363 30.236 41.007 30.25 40.979 30.801 40.567 30.866 40.155 30.927 40.183 30.427 39.905 30.437 39.627 30.451 39.877 30.964 39.771 31.217 39.664 31.469 39.877 32.286 39.4 32.197 38.923 32.109 39.201 31.656 38.817 31.39 38.432 31.123 38.497 31.992 38.206 32.221 37.914 32.45 37.743 32.197 37.28 32.043 36.816 31.894 37.372 32.408 37.229 32.875 37.085 33.342 37.692 33.491 37.678 33.678 37.664 33.865 37.506 33.832 37.201 33.72 36.895 33.608 36.83 33.744 36.83 33.921 36.83 34.099 36.441 33.795 36.377 33.921 36.312 34.047 36.668 34.412 36.803 34.678 36.937 34.944 36.604 34.641 36.14 34.323 35.715 34.033 35.927 34.664 35.423 34.701 34.918 34.739 35.529 35.08 35.664 35.341 35.798 35.603 35.543 35.57 35.214 35.383 34.886 35.196 35.08 35.724 35.08 35.888 35.08 36.051 35.321 36.163 35.543 36.504 35.77 36.845 35.543 36.504 35.372 36.616 35.201 36.729 35.066 36.869 35.187 37.27 35.307 37.672 35.386 37.247 35.798 37.574 36.21 37.901 35.904 37.723 35.585 37.677 35.265 37.63 34.858 37.728 34.631 37.691 34.404 37.653 34.631 37.691 34.446 37.602 34.261 37.513 34.302 37.163 34.048 37.2 33.798 37.238 33.798 37.766 33.473 37.831 33.149 37.892 33.492 37.579 33.149 37.476 32.807 37.373 33.108 37.186 32.885 37.098 32.658 37.009 32.7 37.275 32.779 37.527 32.858 37.78 32.913 37.92 32.487 37.906 32.061 37.892 32.436 38.092 32.594 38.387 32.751 38.676 33.085 38.751 33.335 38.915 33.585 39.078 33.441 39.494 33.335 39.517 33.228 39.541 33.335 39.858 33.335 39.919 33.335 39.98 32.909 39.606 32.631 39.517 32.353 39.428 32.723 40.008 32.594 40.208 32.464 40.409 32.728 40.601 32.594 40.853 32.459 41.105 32.168 40.54 32.066 40.208 31.959 39.877 31.802 39.91 31.64 39.545 31.478 39.181 31.533 38.774 31.242 38.513 30.95 38.247 30.978 37.934 30.95 37.733 30.922 37.532 30.7 37.934 30.607 37.985 30.515 38.036 30.357 38.214 30.288 38.49 30.223 38.765 30.144 38.845 29.811 38.943 29.478 39.045 29.533 39.27 29.385 39.424 29.241 39.573 28.866 39.966 28.556 40.255 28.241 40.545 28.589 41.614 28.686 41.769 28.778 41.918 28.727 41.983 28.607 42.124 28.487 42.264 28.607 42.31 28.792 42.324 28.978 42.338 29.191 42.754 29.191 42.754 29.241 43.422 28.728 43.525 28.158 43.815 27.588 44.104 27.162 44.912 26.885 45.379 26.607 45.846 26.329 46.197 25.852 46.715 25.375 47.234 23.745 48.089 23.296 48.163 22.847 48.238 21.282 48.201 20.856 48.593 20.43 48.985 20.287 49.238 20.115 49.046 19.944 48.859 20.157 48.565 19.717 48.542 19.282 48.518 18.99 49.046 18.499 49.448 18.009 49.85 17.333 49.322 16.592 49.551 15.851 49.779 15.943 50.116 15.267 50.433 14.591 50.751 14.67 50.737 14.179 50.686 13.689 50.634 13.517 50.359 13.091 50.611 12.665 50.863 12.656 50.788 12.508 50.56 12.364 50.331 11.313 50.774 10.545 51.316 9.776 51.858 8.567 52.881 8.146 53.269 7.72 53.661 7.803 53.647 7.271 53.699 6.739 53.75 6.66 53.801 5.998 54.455 5.336 55.109 5.572 55.716 5.336 56.043 5.095 56.37 4.979 56.132 4.673 55.74 4.368 55.347 4.396 54.932 4.46 54.38 4.525 53.825 4.261 54.142 3.933 54.558 3.599 54.974 3.335 55.983 3.164 56.221 2.993 56.459 3.229 56.637 3.534 57.407 3.84 58.178 3.456 57.888 3.613 58.617 3.771 59.346 3.044 60.042 2.632 60.43 2.219 60.822 2.46 61.803 2.391 62.396 2.326 62.989 3.252 62.597 3.108 63.176 2.965 63.755 4.183 65.269 4.66 66.11 5.136 66.95 5.109 66.717 4.766 67.044 4.423 67.371 4.673 67.698 4.502 68.025 4.331 68.352 4.289 67.964 4.076 67.595 3.863 67.231 4.127 67.067 3.706 66.913 3.28 66.763 3.386 66.194 3.044 65.904 2.701 65.614 2.78 65.979 2.831 66.586 2.882 67.193 2.882 67.142 3.308 67.693 3.733 68.249 3.65 68.384 3.442 68.674 3.229 68.964 2.923 68.524 2.645 68.095 2.368 67.665 2.46 67.74 2.196 67.567 1.932 67.389 1.455 66.357 1.136 66.142.816 65.927 1.136 66.142 1.321 66.661 1.506 67.179 1.84 67.417 1.932 68.048 2.025 68.679 1.983 68.553 2.622 69.183 3.257 69.814 3.826 70.734 4.201 71.299 4.572 71.864 4.544 72.271 4.465 72.897 4.386 73.523 4.558 73.42 4.863 73.896 5.169 74.377 6.03 75.344 6.03 75.662 6.03 75.98 6.442 76.241 6.942 76.746 7.442 77.25 7.197 77.554 6.989 78.964 6.78 80.375 7.331 81.006 7.567 81.711 7.803 82.416 7.725 82.201 8.072 82.692 8.415 83.182 8.206 83.752 8.605 84.458 9.003 85.163 9.544 85.63 9.637 86.148 9.73 86.667 9.503 86.854 9.294 87.157 9.081 87.461 9.202 87.424 9.345 87.76 9.489 88.101 9.304 88.353 9.118 88.54 8.933 88.727 9.04 88.741 9.118 89.171 9.197 89.6 9.369 89.712 9.118 90.105 8.868 90.497 9.438 90.623 9.489 91.011 9.54 91.403 9.29 91.315 8.799 91.389 8.308 91.464 8.442 91.983 8.109 92.043 7.776 92.104 7.433 91.777 7.313 91.74 7.192 91.702 6.928 93.262 6.993 93.804 7.058 94.346 7.854 94.51 8.479 94.51 9.105 94.51 9.433 95.229 9.781 95.542 10.123 95.855 9.952 96.145 10.498 96.145 11.045 96.145 11.494 96.761 11.637 97.051 11.781 97.34 13.054 97.153 13.601 97.102 14.142 97.051 14.198 97.102 14.554 97.177 14.911 97.252 14.939 97.065 15.272 97.027 15.605 96.99 15.629 97.228 15.906 96.976 16.184 96.724 16.448 96.724 16.809 96.775 17.166 96.826 17.42 96.308 17.444 96.018 17.471 95.729 17.643 95.878 18.078 95.79 18.513 95.701 18.305 95.271 18.527 95.098 18.754 94.921 19.523 95.122 20.037 95.047 20.555 94.972 20.449 94.454 20.777 94.038 21.106 93.622 21.439 93.636 21.81 93.482 22.18 93.333 22.458 93.216 23.005 93.305 23.546 93.393 23.44 93.365 23.667 93.155 23.894 92.945 24.542 93.029 25.125 92.851 25.709 92.674 26.278 92.739 26.848 92.926 27.417 93.113 27.047 92.814 27.588 92.473 28.13 92.132 28.014 92.548 28.431 92.875 28.853 93.202 29.042 93.113 29.575 93.024 30.107 92.935 30.969 92.735 31.232 92.921 31.496 93.108 31.631 93.01 32.052 92.921 32.478 92.833 32.436 92.996 32.927 92.669 33.418 92.342 33.974 91.763 33.853 91.586 33.733 91.408 34.131 90.324 34.622 89.797 35.113 89.269 35.205 89.61 35.84 89.521 36.474 89.432 36.636 89.217 36.928 88.965 37.219 88.713 37.525 88.736 38.252 88.535 38.979 88.334 38.877 88.054 39.312 87.704 39.747 87.349 40.067 87.428 40.664 87.452 41.262 87.475 42.257 87.592 42.942 87.601 43.628 87.61 43.859 87.363 44.48 87.045 45.105 86.732 45.683 87.12 46.336 86.69 46.984 86.261 47.253 86.261 48.193 85.709 49.133 85.153 49.332 85.457 50.263 85.331 51.189 85.205 51.758 85.153 53.073 85.228 54.384 85.303 54.268 85.228 54.745 84.827 55.222 84.425 55.171 84.738 55.884 84.85 56.601 84.962 57.569 86.209 58.032 86.489 58.495 86.765 58.829 86.429 59.278 86.186 59.727 85.948 60.032 86.209 60.495 86.564 60.958 86.919 61.213 87.255 61.634 86.994 62.06 86.728 62.431 86.943 62.801 87.045 63.172 87.148 63.079 87.512 63.014 87.699 62.95 87.886 63.107 88.04 63.357 87.9 63.607 87.76 63.727 87.863 64.098 88.255 64.468 88.647 64.283 88.998 63.94 89.161 63.598 89.325 64.084 89.526 64.366 90.044 64.644 90.563 64.936 90.408 65.399 90.446 65.862 90.483 65.941 91.1 66.01 91.656 66.075 92.211 66.445 92.146 66.964 92.842 67.482 93.533 67.797 94.253 67.705 94.907 67.612 95.561 68.047 95.551 68.26 96.093 68.473 96.635 68.617 96.196 68.922 96.168 69.228 96.145 69.265 96.495 69.506 96.271 69.747 96.046 69.242 95.491 69.372 95.164 69.506 94.837 69.969 94.659 70.168 94.08 70.367 93.501 70.895 93.286 71.335 92.996 71.77 92.707 72.154 92.721 72.261 92.216 72.293 92.071 72.923 92.394 73.321 92.039 73.719 91.684 73.442 91.333 73.692 90.628 73.942 89.923 74.909 89.217 74.909 89.217 74.909 89.217 75.229 89.446 75.335 89.773 75.442 90.1 75.229 90.175 74.909 90.581 74.59 90.983 75.053 90.857 75.308 91.235 75.558 91.614 75.358 91.562 74.882 92.118 74.405 92.674 74.02 92.949 74.034 93.351 74.048 93.753 73.928 93.832 73.715 94.486 73.502 95.14 73.965 95.294 73.955 95.467 73.942 95.645 73.812 96.046 73.423 96.196 73.039 96.345 73.159 96.084 72.946 96.121 72.733 96.159 72.52 96.789 72.256 97.354 71.992 97.92 72.761 97.756 73.159 97.457 73.557 97.153 74.363 97.256 74.618 97.28 74.872 97.303 74.988 96.841 75.044 96.448 75.095 96.056 75.058 95.958 75.192 95.542 75.326 95.126 75.28 94.748 75.335 94.561 75.386 94.374 75.784 93.893 75.868 94.033 75.946 94.173 76.224 94.463 76.636 94.991 77.049 95.519 77.377 95.897 77.169 96.201 76.956 96.504 77.183 96.654 76.905 96.957 76.627 97.261 76.919 97.359 76.826 97.714 76.734 98.069 76.215 98.27 75.845 98.545 75.474 98.821 76.136 99.036 76.613 99.05 77.09 99.064 77.396 98.821 77.965 98.774 78.535 98.728 78.984 99.139 79.716 99.783 80.442 100.428 80.91 101.675 80.896 101.927 80.882 102.179 81.04 102.32 81.109 102.483 81.174 102.647 81.095 102.922 80.868 103.24 80.642 103.557 80.618 103.693 80.734 104.221 80.855 104.749 81.068 105.066 81.66 105.608 82.257 106.15 82.563 106.715 83.17 107.299 83.781 107.878 84.059 107.5 84.429 107.537 84.8 107.575 85.425 108.42 85.753 108.598 86.087 108.775 86.295 108.471 86.656 108.345 87.013 108.219 87.666 108.434 88.087 108.775 88.513 109.116 88.522 108.686 88.934 108.775 89.346 108.864 89.24 109.088 89.944 109.532 90.647 109.971 90.847 109.896 91.453 110.134 92.064 110.373 91.731 110.475 92.25 110.363 92.768 110.251 94.129 108.752 94.611 108.336 95.088 107.92 94.796 108.009 94.583 107.831 94.37 107.654 94.662 107.682 95.245 107.276 95.829 106.874 96.264 106.771 96.519 106.673 96.769 106.57 96.625 106.911 96.384 107.378 96.144 107.846 96.542 107.719 96.333 108.084 96.125 108.448 95.949 108.574 95.644 108.714 95.338 108.854 95.963 109.116 96.333 108.892 96.704 108.663 97.236 108.023 97.102 108.261 96.968 108.499 97.209 108.411 97.394 108.462 97.579 108.513 97.421 108.728 97.074 109.065 96.732 109.406 97.324 109.331 98 109.368 98.676 109.406 98.755 109.784 99.061 110.2 99.366 110.615 99.565 110.214 99.857 109.873 100.149 109.532 100.014 110.088 100.07 110.629 100.121 111.171 100.056 111.148 100.519 110.933 100.982 110.718 100.653 110.62 100.783 110.153 100.917 109.686 101.126 110.204 101.552 110.004 101.978 109.803 102.385 109.172 103.061 108.439 103.737 107.71 104.77 107.028 105.446 106.776 106.122 106.524 108.641 106.449 109.104 106.435 109.567 106.421 109.636 106.547 109.979 106.108 110.321 105.669 110.669 105.715 110.905 105.505 111.145 105.29 111.039 104.977 111.118 104.37 111.196 103.768 110.599 103.599 111.067 103.086 111.53 102.567 111.238 102.53 111.201 102.002 111.159 101.474 111.173 101.521 111.465 101.222 111.757 100.918 111.692 101.035 111.729 100.666 111.771 100.302 111.65 99.494 112.127 98.573 112.604 97.653 113.109 97.275 113.479 96.784 113.85 96.294 113.16 96.406 113.586 95.902 114.012 95.397 113.544 95.397 113.743 94.818 113.942 94.239 114.141 94.038 114.461 93.683 114.78 93.328 114.739 93.454 114.752 93.104 114.766 92.749 115.095 92.333 115.072 91.969 115.044 91.604 115.114 91.628 115.549 91.137 115.984 90.647 116.197 89.927 116.466 89.385 116.729 88.844 116.743 89.348 117.341 88.881 117.938 88.414 118.068 88.162 118.322 88.05 118.577 87.937 118.549 88.012 118.771 87.545 118.998 87.078 118.508 86.9 118.822 86.564 119.142 86.223 119.526 85.845 119.804 85.177 120.082 84.509 119.697 84.383 119.961 83.715 120.225 83.047 120.147 82.883 119.934 82.379 119.721 81.874 119.961 82.113 120.174 81.473 120.387 80.828 120.758 79.03 120.957 78.497 121.156 77.969 121.156 77.516 121.462 76.806 121.767 76.096 121.661 75.078 121.874 74.742 122.087 74.401 121.888 74.237 121.688 73.784 121.489 73.331 121.29 73.228 121.29 72.724L121.323 72.705Z"></path><path d="M72.08 29.619C72.163 29.204 71.621 29.68 71.043 30.292 70.459 30.904 71.251 31.161 71.251 31.161H72.038C72.307 31.161 72.538 30.708 72.371 30.311 72.205 29.918 71.996 30.035 72.08 29.619ZM52.87 23.953C53.536 24.247 53.907 25.06 54.657 24.425 54.657 24.425 54.675 24.644 55.402 23.794 56.129 22.944 55.819 22.57 55.402 22.766 54.986 22.963 55.301 23.084 54.657 23.005 54.013 22.925 53.911 22.986 53.328 23.28 52.745 23.575 52.208 23.654 52.87 23.953ZM79.415 38.765C79.772 38.774 80.017 38.251 80.452 37.858 80.888 37.461 79.869 37.583 78.998 38.213 78.128 38.844 79.415 38.765 79.415 38.765ZM105.292 113.927C104.959 113.787 105.042 113.198 104.75 113.768 104.459 114.342 105.292 114.557 105.292 114.557 105.292 114.557 105.626 114.062 105.292 113.927ZM105.835 114.44C105.617 114.272 105.441 114.837 105.441 114.837 105.441 114.837 105.303 115.014 105.441 115.234 105.58 115.453 105.534 115.411 105.71 115.552 105.886 115.692 106.094 115.425 105.979 115.178 105.863 114.93 106.053 114.617 105.835 114.449V114.44ZM105.562 115.977C105.228 116.117 105.622 116.262 105.705 116.631 105.789 116.995 105.705 116.631 105.807 116.472 105.909 116.313 106.326 116.225 106.349 116.099 106.367 115.972 106.182 115.902 105.89 115.842 105.599 115.781 105.557 115.982 105.557 115.982L105.562 115.977ZM93.667 113.862C93.547 113.727 93.621 113.563 93.662 113.353 93.704 113.147 93.486 113.035 93.185 113.353 92.884 113.671 93.042 113.671 93.102 114.04 93.162 114.409 93.102 114.497 93.394 114.558 93.685 114.619 93.662 114.409 93.662 114.409 93.662 114.409 93.787 113.997 93.667 113.862ZM106.251 118.35C106.232 117.986 105.658 117.453 105.274 117.304 104.889 117.155 104.991 117.612 104.695 117.622 104.394 117.631 104.218 117.738 103.885 118.019 103.551 118.294 103.274 118.187 102.699 118.107 102.13 118.028 102.273 118.49 101.829 118.43 101.384 118.369 101.06 118.757 100.5 118.962 99.94 119.168 99.514 118.901 98.861 118.546 98.208 118.191 97.884 118.131 97.467 117.794 97.051 117.458 97.092 117.467 96.824 117.519 96.555 117.57 96.449 117.43 96.222 117.225 95.995 117.019 95.555 117.519 95.555 117.519 95.555 117.519 95.513 117.766 95.235 117.981 94.958 118.201 95.398 118.22 95.273 118.635 95.147 119.051 95.347 119.256 95.648 119.976 95.949 120.695 96.435 121.429 96.801 121.756 97.166 122.083 97.041 122.279 97.361 122.863 97.68 123.446 97.402 123.297 97.217 123.236 97.032 123.176 97.134 123.404 96.967 124.124 96.801 124.843 97.37 125.053 97.713 125.446 98.055 125.843 98.407 126.333 98.791 126.926 99.176 127.52 99.125 127.165 99.477 127.361 99.829 127.557 99.361 127.412 99.375 127.758 99.384 128.104 99.708 128.015 100.227 128.015 100.745 128.015 100.912 128.043 101.245 128.174 101.579 128.3 101.806 128.402 102.056 128.033 102.306 127.669 102.232 127.006 102.482 126.936 102.732 126.866 102.824 127.211 102.834 127.529 102.843 127.847 102.959 127.678 103.227 127.272 103.496 126.866 103.579 126.819 103.394 126.581 103.209 126.343 103.111 126.165 103.167 125.852 103.218 125.534 103.676 125.992 103.875 126.207 104.075 126.427 104.116 126.347 104.459 126.623 104.802 126.898 104.936 126.968 105.075 126.623 105.209 126.277 105.227 126.305 105.075 125.95 104.922 125.595 104.857 125.712 105.075 125.119 105.292 124.525 105.417 124.754 105.561 124.329 105.704 123.904 105.362 124.213 105.269 123.914 105.177 123.619 105.26 122.708 105.704 122.213 106.149 121.718 106.093 122.274 106.246 122.629 106.399 122.984 106.538 122.321 106.362 121.877 106.186 121.433 106.278 118.705 106.255 118.341L106.251 118.35ZM184.349 117.449C183.997 117.323 184.034 117.267 184.071 116.87 184.108 116.473 183.839 116.692 183.7 116.958 183.562 117.225 183.052 117.71 182.538 117.739 182.024 117.767 182.066 118.187 181.784 118.037 181.501 117.888 181.598 117.388 181.473 116.781 181.348 116.169 180.936 116.697 180.733 116.248 180.529 115.8 180.807 115.627 180.811 115.426 180.811 115.225 180.357 115.492 179.756 115.786 179.149 116.08 179.024 116.192 178.603 116.477 178.181 116.758 178.468 117.739 178.454 118.061 178.44 118.383 178.19 118.42 177.76 118.761 177.334 119.107 177.075 119.724 176.482 119.714 175.889 119.705 176.144 120.326 175.75 121.209 175.352 122.092 174.801 123.054 174.352 123.442 173.903 123.83 173.658 124.161 173.056 124.241 172.454 124.32 172.583 124.516 171.792 125.072 170.995 125.628 170.245 126.277 169.764 126.291 169.282 126.305 168.138 127.076 167.708 127.44 167.277 127.809 167.402 127.51 166.823 127.361 166.245 127.211 165.564 128.132 165.564 128.132 165.143 128.58 165.717 128.622 165.402 128.823 165.087 129.024 164.925 129.346 164.772 129.561 164.619 129.776 164.05 130.047 163.513 130.304 162.976 130.561 162.758 130.785 162.48 131.126 162.202 131.467 162.23 131.84 161.999 131.696 161.762 131.551 161.586 132.41 161.123 132.597 160.66 132.784 161.123 132.597 161.244 132.733 161.364 132.868 161.758 132.887 161.637 133.106 161.517 133.326 160.684 133.232 160.42 133.419 160.156 133.611 160.767 133.606 160.809 133.826 160.85 134.045 160.489 133.9 160.1 134.003 159.711 134.106 160.216 134.55 160.679 134.671 161.147 134.793 160.841 135.04 160.642 135.25 160.443 135.461 161.781 135.619 162.735 135.451 163.693 135.283 163.527 135.802 163.615 136.273 163.703 136.74 164.383 136.516 165.3 136.586 166.217 136.656 165.578 136.951 165.272 137.231 164.967 137.511 165.374 137.38 165.948 137.418 166.522 137.455 166.508 137.609 166.735 137.801 166.967 137.992 168.203 138.156 168.99 138.016 169.777 137.875 169.875 137.731 169.865 137.483 169.856 137.236 170.032 136.946 170.227 136.81 170.421 136.675 170.75 136.521 170.921 136.11 171.092 135.694 171.727 135.587 172.338 135.414 172.949 135.241 172.639 135.213 172.458 134.839 172.278 134.47 172.745 134.237 173.014 133.849 173.282 133.461 173.31 133.508 173.343 133.144 173.375 132.779 173.676 132.56 174.097 132.139 174.514 131.719 174.491 130.056 174.829 129.505 175.167 128.954 175.908 128.856 176.788 128.463 177.667 128.071 177.339 128.239 177.825 127.949 178.316 127.66 179.089 127.655 179.904 127.931 180.719 128.206 180.455 128.043 180.431 127.58 180.408 127.118 180.033 126.898 179.793 126.66 179.552 126.422 180.219 125.441 180.487 125.25 180.751 125.058 181.274 124.572 181.575 124.217 181.872 123.862 182.205 123.311 182.659 122.877 183.112 122.442 183.863 122.176 183.816 121.788 183.77 121.401 184.46 121.064 184.784 120.621 185.108 120.177 184.645 120.009 184.395 119.476 184.15 118.944 184.756 119.159 184.714 118.892 184.673 118.626 184.65 118.547 185.025 118.402 185.4 118.252 185.316 118.276 185.071 117.916 184.826 117.556 184.705 117.575 184.353 117.449H184.349ZM164.259 138.889C164.051 138.838 164.319 138.436 164.333 138.1 164.347 137.763 163.68 137.661 163.68 137.661 163.296 137.544 163.379 137.857 163.481 138.02 163.583 138.184 163.505 138.315 163.254 138.707 163.004 139.099 163.662 138.777 163.662 139.268 163.662 139.758 162.773 139.613 162.602 140.057 162.43 140.501 163.37 139.931 164.037 139.949 164.699 139.968 164.574 139.45 164.667 139.179 164.759 138.912 164.472 138.945 164.264 138.894L164.259 138.889ZM197.782 106.319C197.009 105.954 196.616 106.805 195.856 107.178 195.097 107.547 195.666 107.809 195.162 107.884 194.662 107.958 193.347 107.374 192.782 106.889 192.217 106.403 192.008 106.524 191.536 106.095 191.064 105.665 191.036 105.081 191.166 104.432 191.291 103.782 191.124 103.829 190.907 103.334 190.689 102.839 191.096 102.736 190.712 102.577 190.332 102.418 190.23 102.087 189.804 101.694 189.379 101.302 189.726 101.993 189.957 102.507 190.189 103.021 189.98 102.97 189.744 103.376 189.508 103.782 189.971 103.951 189.911 104.404 189.851 104.857 189.675 104.628 189.439 104.175 189.203 103.722 189.105 103.88 189.017 103.367 188.934 102.853 189.008 102.951 188.684 103.026 188.36 103.1 188.073 103.226 187.772 102.909 187.471 102.587 187.814 102.619 187.818 102.082 187.818 101.545 187.999 101.9 188.036 101.517 188.073 101.138 187.587 100.475 187.531 99.84 187.476 99.205 187.943 99.494 187.823 99.191 187.702 98.887 187.434 98.233 187.272 97.663 187.11 97.093 186.795 97.481 186.684 97.579 186.577 97.677 186.443 97.495 186.299 97.112 186.156 96.729 186.063 96.612 185.637 96.402 185.211 96.192 184.989 96.281 184.873 96.112 184.758 95.949 184.415 96.084 184.058 96.005 183.702 95.926 183.859 95.51 183.54 95.22 183.22 94.931 183.095 94.702 183.16 94.323 183.23 93.945 182.743 94.207 182.41 94.253 182.077 94.3 182.605 94.977 183.234 95.655 183.864 96.327 183.419 96.15 183.345 96.589 183.271 97.028 183.211 96.776 183.29 97.168 183.369 97.561 183.767 97.733 184.012 97.911 184.257 98.088 184.901 99.714 185.133 100.045 185.364 100.377 185.98 101.064 186.184 101.157 186.387 101.255 185.883 100.471 186.406 100.531 186.929 100.597 186.392 100.84 186.707 101.176 187.022 101.512 186.827 101.662 186.471 101.923 186.119 102.18 186.651 102.278 186.735 102.563 186.818 102.848 186.943 103.198 187.36 103.698 187.777 104.198 187.61 103.843 187.378 104.193 187.147 104.539 187.573 104.749 187.605 105.291 187.638 105.833 187.383 106.421 187.401 106.776 187.42 107.131 187.601 107.272 187.272 107.472 186.938 107.673 187.388 108.005 186.962 108.304 186.536 108.603 186.86 109.201 186.846 109.551 186.832 109.901 186.6 110.434 186.008 110.331 185.42 110.228 185.795 110.541 185.096 110.611 184.396 110.682 184.086 111.008 183.929 111.452 183.771 111.896 184.346 112.12 184.934 112.377 185.522 112.634 185.355 112.461 185.573 112.592 185.79 112.718 185.711 113.064 186.355 113.405 186.999 113.741 187.031 113.423 187.235 113.858 187.443 114.292 187.661 114.054 187.957 114.418 188.253 114.783 188.003 115.208 187.832 115.605 187.661 116.002 187.86 116.039 187.749 116.52 187.638 117.001 186.837 118.155 186.837 118.155 186.503 118.664 186.383 118.926 186.915 119.085 187.443 119.244 187.295 119.258 187.369 119.865 187.443 120.472 187.994 120.08 188.615 119.585 189.24 119.089 190.133 118.347 190.782 117.581 191.43 116.815 191.745 116.642 192.444 116.021 193.148 115.395 192.893 115.297 193.036 114.633 193.18 113.97 193.93 113.55 193.708 113.101 193.486 112.648 193.203 112.671 193.435 112.153 193.666 111.639 194.551 111.536 194.852 111.457 195.157 111.377 196.074 111.452 196.171 111.826 196.268 112.2 196.421 112.172 196.708 111.387 196.995 110.602 196.843 110.845 197.546 110.177 198.25 109.509 198.574 109.047 198.394 108.168 198.213 107.29 198.482 107.239 198.759 107.066 199.042 106.893 198.546 106.692 197.773 106.328L197.782 106.319ZM160.629 56.911C160.916 56.739 161.041 56.883 161.383 56.911 161.721 56.935 161.573 56.851 161.383 56.468 161.193 56.08 161.059 56.267 160.504 55.86 159.953 55.449 159.749 55.099 159.096 54.506 158.443 53.908 157.98 53.945 157.466 53.572 156.952 53.198 156.711 52.88 156.614 52.544 156.512 52.203 156.299 52.217 155.785 51.937 155.271 51.656 154.757 51.119 154.281 50.816 153.804 50.512 153.577 50.895 152.989 50.638 152.401 50.381 152.989 50.638 153.077 50.979 153.165 51.32 153.503 51.4 153.554 51.68 153.605 51.96 154.054 52.357 154.054 52.357 154.378 52.488 154.48 52.675 154.73 53.034 154.98 53.399 155.558 53.899 155.558 53.899 155.558 53.899 156.137 54.24 156.461 54.366 156.785 54.496 156.924 54.693 157.392 55.02 157.855 55.347 157.716 55.197 158.221 55.3 158.721 55.403 158.763 55.697 158.897 56.024 159.036 56.351 159.601 56.701 159.874 56.916 160.152 57.131 160.337 57.089 160.629 56.916V56.911ZM162.597 52.793C162.245 52.531 162.264 52.069 162.014 51.994 161.764 51.915 162.013 51.994 161.583 52.573 161.152 53.153 162.889 53.615 162.889 53.615 163.259 53.732 162.949 53.055 162.597 52.788V52.793ZM168.579 48.901C168.579 48.901 168.954 48.821 168.579 48.55 168.204 48.279 168.561 48.069 168.204 48.205 167.852 48.34 168.579 48.901 168.579 48.901ZM168.111 46.889C168.616 47.23 168.208 46.366 168.111 46.114 168.014 45.861 167.75 45.726 167.5 46.114 167.25 46.501 168.111 46.889 168.111 46.889ZM160.272 35.368C160.355 35.85 160.48 36.433 160.647 36.952 160.814 37.475 161.207 36.798 161.517 37.223 161.828 37.648 161.976 37.223 161.976 37.223 161.976 37.223 162.286 36.606 161.976 36.293 161.666 35.985 162.017 35.677 161.476 35.382 160.934 35.093 161.476 35.382 161.184 35.751 160.892 36.12 160.707 35.093 160.272 34.668 159.837 34.243 160.189 34.883 160.272 35.364V35.368ZM162.114 38.361C162.114 38.623 162.536 38.651 162.536 38.651 162.814 38.73 162.596 38.814 162.554 38.959 162.513 39.099 162.823 39.356 162.892 39.716 162.962 40.076 163.087 39.987 163.323 39.814 163.559 39.641 163.726 39.651 163.656 39.408 163.582 39.165 163.48 39.109 163.263 38.964 163.045 38.819 163.045 38.665 162.804 38.502 162.564 38.338 162.628 38.203 162.411 38.02 162.193 37.838 162.11 38.109 162.114 38.366V38.361ZM164.967 39.968C164.684 39.828 164.907 40.099 164.967 40.3 165.027 40.5 165.518 40.542 165.569 40.552 165.865 40.603 165.62 40.253 165.383 40.239 165.147 40.225 165.249 40.103 164.967 39.968ZM164.829 39.213C165.259 39.474 165.268 38.961 165.268 38.961 165.268 38.961 165.301 38.732 165.157 38.732 165.014 38.732 165.065 38.676 164.829 38.596 164.597 38.517 164.791 38.811 164.449 38.75 164.106 38.694 164.398 38.951 164.829 39.213ZM165.264 38.112C165.523 38.271 165.347 37.543 165.264 37.318 165.181 37.094 164.986 37.085 164.824 37.183 164.662 37.281 164.755 37.398 165 37.552 165.246 37.706 165.056 37.785 165.005 37.954 164.954 38.126 165.264 38.112 165.264 38.112ZM163.865 36.391C163.624 36.428 163.614 36.48 163.675 36.708 163.735 36.937 163.846 36.722 164.031 36.797 164.216 36.877 164.406 36.606 164.406 36.606 164.406 36.606 164.374 36.125 164.198 36.125 164.022 36.125 164.105 36.358 163.865 36.395V36.391ZM164.781 36.238C164.689 36.439 165.073 36.472 165.073 36.472L165.263 36.355C165.263 36.355 165.388 35.958 165.073 35.804 164.758 35.65 165.008 35.285 164.827 35.159 164.647 35.033 164.781 35.458 164.827 35.738 164.874 36.019 164.874 36.037 164.781 36.243V36.238ZM165.486 34.533C165.745 34.701 165.486 34.113 165.486 34.113 165.245 34.057 165.227 34.365 165.486 34.533ZM164.027 34.014C164.267 34.014 164.027 33.743 164.027 33.743 164.027 33.743 163.763 33.697 163.675 33.743 163.587 33.79 163.781 34.014 164.027 34.014ZM162.893 32.855C162.763 32.855 162.713 33.164 162.703 33.378 162.694 33.593 163.027 33.561 163.037 33.378 163.046 33.196 163.328 33.009 163.328 33.009 163.532 32.827 163.027 32.855 162.898 32.855H162.893ZM163.036 32.389C163.036 32.389 163.356 32.198 163.37 32.062 163.388 31.927 163.022 31.6 162.805 31.735 162.587 31.871 162.754 31.889 162.805 32.104 162.856 32.319 163.036 32.394 163.036 32.394V32.389ZM162.018 31.539C162.161 31.604 162.226 31.347 162.226 31.347L161.916 31.231C161.606 31.114 161.874 31.474 162.018 31.539ZM163.375 30.437C163.375 30.437 163.704 30.39 163.649 30.222 163.593 30.054 163.815 30.021 163.658 29.895 163.5 29.769 163.496 29.96 163.227 30.11 162.959 30.255 163.38 30.437 163.38 30.437H163.375ZM160.189 30.245C160.263 30.362 160.458 30.437 160.458 30.437 160.726 30.628 160.467 30.119 160.458 29.993 160.448 29.867 160.323 29.848 160.055 29.993 159.791 30.138 160.11 30.129 160.184 30.245H160.189ZM192.748 43.386C192.391 43.531 192.739 43.783 193.146 44.049 193.554 44.315 193.85 44.502 194.517 44.638 195.179 44.773 195.105 44.932 195.591 44.638 196.077 44.343 196.086 44.53 196.54 44.502 196.994 44.474 197.193 44.465 197.36 44.208 197.526 43.951 197.485 43.974 197.151 43.601 196.818 43.227 197.077 43.12 196.753 42.853 196.424 42.587 196.091 42.293 195.744 42.069 195.396 41.844 195.387 42.059 194.924 42.241 194.461 42.424 194.642 42.283 194.123 42.241 193.609 42.204 193.364 42.751 193.364 42.751 193.364 42.751 193.109 43.241 192.753 43.386H192.748ZM200.892 39.928C200.73 39.662 200.93 39.554 200.559 39.321 200.189 39.087 201.013 38.919 200.874 38.732 200.735 38.545 200.054 38.793 199.651 38.947 199.253 39.106 198.915 39.456 198.512 39.456 198.11 39.456 198.049 39.573 197.735 39.811 197.42 40.045 197.133 39.979 196.767 40.143 196.396 40.311 196.924 40.456 197.082 40.75 197.239 41.044 197.452 40.965 197.452 40.965 197.679 41.012 198.23 40.83 198.346 40.503 198.462 40.18 198.346 40.503 198.832 40.199 199.318 39.895 199.022 40.129 199.485 40.297 199.948 40.465 199.716 40.236 199.971 40.021 200.226 39.807 200.212 39.942 200.689 40.255 201.161 40.568 201.059 40.185 200.892 39.923V39.928ZM192.934 41.499C193.239 41.569 193.332 41.144 193.332 41.144 193.401 40.967 192.975 40.985 192.591 41.144 192.211 41.303 192.623 41.429 192.929 41.499H192.934ZM193.865 40.457C194.119 40.378 194.119 40.242 193.971 40.163 193.823 40.083 193.749 40.2 193.675 40.359 193.601 40.518 193.865 40.457 193.865 40.457ZM195.318 47.023C194.971 47.266 195.309 47.298 195.573 47.182 195.837 47.065 195.971 47.065 196.393 47.046 196.814 47.027 196.643 46.593 196.643 46.593 196.481 46.378 195.666 46.78 195.318 47.023Z"></path></g></svg>