<svg xmlns="http://www.w3.org/2000/svg" width="143" height="106" viewBox="0 0 143 106" fill="none"><g clip-path="url(#clip0_469_29612)"><path d="M107.495 14.0376L108.317 22.7106L114.335 26.2266L113.378 14.1786L107.495 14.0376Z" fill="white"></path><path d="M115.031 11.2207C115.031 11.2207 116.081 9.81672 115.4 7.71072C114.716 5.60472 109.457 6.48672 109.457 6.48672L102.035 8.28672C102.035 8.28672 102.188 11.8927 103.256 12.1537" fill="black"></path><path d="M107.369 18.0367C106.583 18.0367 105.83 17.8417 105.191 17.4727C103.901 16.7257 102.995 15.2167 102.773 13.4287C102.581 11.8837 102.86 10.3777 103.127 8.91975C103.208 8.48475 103.376 7.58175 104.144 7.22475C104.408 7.10175 104.672 7.08075 104.885 7.06575L107.027 6.89775C107.249 6.87975 107.489 6.86475 107.735 6.86475C108.212 6.86475 108.917 6.91875 109.49 7.38375C110.216 7.97475 110.372 8.94075 110.477 9.57975C110.531 9.91575 110.585 10.1857 110.723 10.3417C110.789 10.4167 110.825 10.4287 110.825 10.4287C110.897 10.4047 111.14 10.1527 111.269 10.0177C111.458 9.81975 111.653 9.61575 111.884 9.48675C112.196 9.30675 112.541 9.21375 112.877 9.21375C113.087 9.21375 113.288 9.24975 113.474 9.32475C114.2 9.60675 114.653 10.4347 114.551 11.2927C114.479 11.8957 114.161 12.4927 113.603 13.0657C113.492 13.1797 113.375 13.2877 113.261 13.3987C113.054 13.5937 112.856 13.7797 112.706 13.9807C112.559 14.1757 112.442 14.4067 112.313 14.6527C112.259 14.7607 112.202 14.8657 112.145 14.9707C111.458 16.2217 110.423 17.1847 109.229 17.6767C108.644 17.9167 108.002 18.0457 107.372 18.0457L107.369 18.0367Z" fill="white"></path><path d="M107.735 7.41671C108.248 7.41671 108.749 7.49471 109.139 7.81271C109.673 8.24471 109.817 8.98871 109.928 9.66671C109.988 10.0357 110.057 10.4287 110.306 10.7077C110.48 10.9027 110.642 10.9777 110.801 10.9777C111.302 10.9777 111.734 10.2037 112.154 9.96371C112.37 9.84071 112.622 9.76271 112.871 9.76271C113.006 9.76271 113.141 9.78371 113.267 9.83471C113.789 10.0387 114.059 10.6627 113.993 11.2177C113.927 11.7757 113.591 12.2647 113.201 12.6667C112.886 12.9907 112.526 13.2757 112.256 13.6357C112.013 13.9597 111.848 14.3347 111.653 14.6917C111.062 15.7657 110.147 16.6837 109.013 17.1517C108.494 17.3647 107.93 17.4787 107.369 17.4787C106.703 17.4787 106.043 17.3227 105.467 16.9897C104.204 16.2607 103.502 14.8057 103.322 13.3597C103.142 11.9137 103.406 10.4527 103.673 9.01871C103.766 8.51771 103.913 7.94171 104.378 7.72571C104.549 7.64771 104.744 7.62971 104.93 7.61471C105.644 7.55771 106.358 7.50071 107.072 7.44671C107.288 7.42871 107.513 7.41371 107.738 7.41371M107.735 6.30671C107.471 6.30671 107.216 6.32471 106.982 6.34271L104.84 6.51071C104.609 6.52871 104.264 6.55571 103.91 6.72071C102.881 7.19771 102.668 8.33171 102.581 8.81771C102.317 10.2487 102.017 11.8687 102.221 13.4977C102.467 15.4537 103.472 17.1187 104.912 17.9527C105.635 18.3697 106.484 18.5917 107.369 18.5917C108.071 18.5917 108.788 18.4507 109.436 18.1807C110.744 17.6407 111.878 16.5937 112.625 15.2287C112.685 15.1207 112.742 15.0067 112.799 14.8957C112.913 14.6707 113.024 14.4607 113.141 14.3017C113.264 14.1367 113.444 13.9687 113.633 13.7887C113.75 13.6777 113.87 13.5637 113.993 13.4407C114.638 12.7807 115.007 12.0757 115.094 11.3467C115.226 10.2427 114.626 9.17171 113.669 8.79671C113.417 8.69771 113.15 8.64971 112.871 8.64971C112.439 8.64971 111.998 8.76971 111.602 8.99771C111.377 9.12671 111.188 9.29771 111.02 9.46571C110.909 8.78471 110.723 7.66271 109.838 6.94571C109.304 6.51371 108.617 6.30371 107.735 6.30371V6.30671Z" fill="black"></path><path d="M114.347 23.2477L113.093 13.6777" stroke="black" stroke-width="1.11" stroke-linecap="round" stroke-linejoin="round"></path><path d="M107.858 17.8657L108.317 22.7107" stroke="black" stroke-width="1.11" stroke-linecap="round" stroke-linejoin="round"></path><path d="M127.271 99.5045H96.2298L94.5498 53.1545H128.951L127.271 99.5045Z" fill="black"></path><path d="M96.5058 98.9526C96.3798 99.8526 96.0528 99.7866 95.3568 100.405L90.6648 104.56C90.6348 104.59 90.6228 104.632 90.6378 104.671C90.6528 104.71 90.6888 104.737 90.7338 104.74C90.8508 104.746 102.476 105.409 109.121 103.678C109.832 103.492 110.399 102.949 110.597 102.259L111.476 99.2106L96.5058 98.9556V98.9526Z" fill="white" stroke="black" stroke-width="1.11" stroke-linecap="round" stroke-linejoin="round"></path><path d="M111.98 98.9526C111.854 99.8526 111.527 99.7866 110.831 100.405L106.139 104.56C106.109 104.59 106.097 104.632 106.112 104.671C106.127 104.71 106.163 104.737 106.208 104.74C106.325 104.746 117.95 105.409 124.595 103.678C125.306 103.492 125.873 102.949 126.071 102.259L126.95 99.2106L111.98 98.9556V98.9526Z" fill="white" stroke="black" stroke-width="1.11" stroke-linecap="round" stroke-linejoin="round"></path><path d="M107.495 62.7996L111.476 99.5046" stroke="white" stroke-width="1.11" stroke-linecap="round" stroke-linejoin="round"></path><path d="M96.2298 99.5045L94.5498 53.1545H128.951" stroke="black" stroke-width="1.11" stroke-linecap="round" stroke-linejoin="round"></path><path d="M88.4565 25.2036C92.0565 22.0806 96.6645 20.3586 101.432 20.3586H123.569C126.527 20.3586 131.792 23.8746 134.027 29.2776L140.93 45.9306L142.385 49.4436C142.391 49.4766 142.394 49.5126 142.4 49.5486C142.634 51.6516 141.947 53.8356 140.333 55.4496C137.516 58.2666 132.953 58.2666 130.139 55.4496L129.794 55.1046H94.0395V52.4556" fill="white"></path><path d="M93.0495 56.0226L91.4325 50.7786L85.4355 51.4626L87.0465 61.0086L87.0315 61.2096L86.6205 66.2766C86.5995 66.5496 86.6055 66.8256 86.6385 67.0956C86.6715 67.3656 86.7345 67.6356 86.8215 67.8936L87.4125 69.6276L87.7515 70.6266C87.8445 70.9026 88.0575 71.1096 88.3155 71.2056C88.4715 71.2626 88.6425 71.2806 88.8135 71.2476L88.8675 71.2386L88.8945 71.2326C89.0055 71.2116 89.1075 71.1666 89.1975 71.1126C89.2515 71.0796 89.2995 71.0436 89.3475 71.0016C89.4015 70.9536 89.4465 70.9026 89.4855 70.8426C89.5725 70.7196 89.6295 70.5786 89.6475 70.4286C89.6475 70.4196 89.6505 70.4136 89.6535 70.4046C89.6595 70.3386 89.6595 70.2696 89.6535 70.2036C89.6445 70.1346 89.6295 70.0686 89.6055 69.9996L88.8345 67.7976C88.7955 67.6836 88.7625 67.5636 88.7325 67.4466C88.7235 67.4046 88.7145 67.3626 88.7055 67.3206C88.6995 67.2966 88.6965 67.2726 88.6935 67.2516C88.6995 67.2726 88.7115 67.2936 88.7175 67.3146C88.7385 67.3686 88.7565 67.4226 88.7805 67.4766C88.8075 67.5426 88.8375 67.6116 88.8705 67.6776C88.8945 67.7256 88.9155 67.7766 88.9425 67.8246C88.9815 67.8966 89.0235 67.9686 89.0655 68.0376C89.0895 68.0766 89.1105 68.1156 89.1345 68.1516C89.2035 68.2566 89.2785 68.3616 89.3565 68.4606L89.8005 69.0126L91.1625 70.7106C91.1985 70.7556 91.2405 70.7976 91.2825 70.8336C91.3245 70.8696 91.3725 70.9026 91.4175 70.9326C91.5615 71.0166 91.7235 71.0616 91.8885 71.0616C91.9125 71.0616 91.9395 71.0586 91.9635 71.0556C92.0085 71.0526 92.0535 71.0466 92.0955 71.0376C92.1915 71.0166 92.2845 70.9836 92.3715 70.9326L92.4435 70.8906C92.6895 70.7436 92.8425 70.5036 92.8905 70.2456C92.9025 70.1796 92.9055 70.1166 92.9055 70.0506C92.9055 69.9636 92.8815 69.8766 92.8545 69.7926C92.8185 69.6846 92.7705 69.5826 92.6925 69.4896L91.9485 68.5806L91.2165 67.6836C91.1265 67.5756 91.0455 67.4616 90.9675 67.3446C90.8895 67.2276 90.8205 67.1046 90.7575 66.9816C90.6285 66.7326 90.5265 66.4686 90.4545 66.1986L90.2355 65.3946L90.2475 65.3856L90.4635 66.1506C90.4995 66.2826 90.5415 66.4146 90.5925 66.5406C90.7395 66.9246 90.9465 67.2816 91.2045 67.6026L91.7145 68.2386L93.7185 70.7406C93.7935 70.8366 93.8865 70.9146 93.9855 70.9716C94.1775 71.0856 94.4025 71.1276 94.6215 71.0946C94.7475 71.0766 94.8705 71.0376 94.9845 70.9686C95.0475 70.9296 95.1045 70.8876 95.1555 70.8396C95.1735 70.8216 95.1885 70.8006 95.2035 70.7826C95.2335 70.7496 95.2635 70.7166 95.2905 70.6806C95.3085 70.6536 95.3235 70.6236 95.3385 70.5936C95.3565 70.5636 95.3745 70.5336 95.3865 70.5006C95.4015 70.4646 95.4105 70.4286 95.4195 70.3926C95.4285 70.3656 95.4375 70.3386 95.4435 70.3116C95.4525 70.2696 95.4525 70.2276 95.4555 70.1856C95.4555 70.1616 95.4615 70.1376 95.4615 70.1136C95.4615 70.0686 95.4525 70.0236 95.4465 69.9786C95.4435 69.9576 95.4435 69.9336 95.4375 69.9126C95.4285 69.8676 95.4105 69.8256 95.3955 69.7806C95.3865 69.7596 95.3805 69.7386 95.3715 69.7176C95.3535 69.6756 95.3265 69.6366 95.2995 69.5976C95.2875 69.5796 95.2815 69.5616 95.2695 69.5466L95.5455 69.8916C95.5455 69.8916 95.5575 69.9036 95.5605 69.9066C95.8095 70.2006 96.2085 70.3026 96.5625 70.1736C96.6135 70.1556 96.6645 70.1316 96.7125 70.1016L96.8445 70.0236C97.0755 69.8856 97.2225 69.6636 97.2705 69.4206C97.2705 69.4146 97.2735 69.4116 97.2765 69.4056C97.2885 69.3426 97.2915 69.2796 97.2915 69.2166C97.2855 69.0276 97.2195 68.8356 97.0905 68.6766L95.8005 67.0896L94.9395 66.0306C94.5285 65.5236 94.2255 64.9356 94.0515 64.3056L93.5865 62.6016L92.9205 60.1686C92.8965 59.9556 92.9205 59.7426 92.9955 59.5416L93.1665 59.0796L95.9025 62.4666C96.2685 62.9226 96.9375 62.9916 97.3905 62.6256L97.4655 62.5656C97.9215 62.1996 97.9905 61.5306 97.6245 61.0776L94.8075 57.5916C94.3125 56.9796 93.7215 56.4516 93.0555 56.0316L93.0495 56.0226ZM92.5905 66.0996C92.6145 66.1416 92.6415 66.1836 92.6655 66.2256C92.6985 66.2796 92.7285 66.3366 92.7645 66.3906C92.8335 66.4956 92.9085 66.6006 92.9865 66.6996L95.0205 69.2376L93.0585 66.8226C92.9685 66.7116 92.8845 66.5946 92.8065 66.4746C92.7945 66.4536 92.7825 66.4326 92.7705 66.4146C92.7075 66.3126 92.6475 66.2106 92.5905 66.1026V66.0996Z" fill="white" stroke="black" stroke-width="1.11" stroke-linecap="round" stroke-linejoin="round"></path><path d="M97.9188 31.4705L96.7698 56.3105L85.3638 56.6555V34.2605C85.3638 30.2795 88.5918 27.0515 92.5728 27.0515C94.1388 27.0515 95.5878 27.5495 96.7698 28.3985C96.7698 28.3985 98.0358 28.9145 97.9188 31.4705Z" fill="white"></path><path d="M88.4565 25.2036C92.0565 22.0806 96.6645 20.3586 101.432 20.3586H120.677C126.521 20.3586 131.789 23.8746 134.027 29.2776L140.93 45.9306L142.385 49.4436C142.391 49.4766 142.394 49.5126 142.4 49.5486C142.634 51.6516 141.947 53.8356 140.333 55.4496C137.516 58.2666 132.953 58.2666 130.139 55.4496L129.794 55.1046L122.93 41.8596" fill="white"></path><path d="M88.4565 25.2036C92.0565 22.0806 96.6645 20.3586 101.432 20.3586H120.677C126.521 20.3586 131.789 23.8746 134.027 29.2776L140.93 45.9306L142.385 49.4436C142.391 49.4766 142.394 49.5126 142.4 49.5486C142.634 51.6516 141.947 53.8356 140.333 55.4496C137.516 58.2666 132.953 58.2666 130.139 55.4496L129.794 55.1046L122.93 41.8596" stroke="black" stroke-width="1.11" stroke-linecap="round" stroke-linejoin="round"></path><path d="M141.697 47.7787L128.002 29.2717" stroke="black" stroke-width="1.11" stroke-linecap="round" stroke-linejoin="round"></path><path d="M98.6515 22.427L96.4277 19.2488L87.3723 25.5848L89.596 28.7631L98.6515 22.427Z" fill="#020202"></path><path d="M91.9827 22.3618L91.646 22.5974L93.8698 25.7757L94.2065 25.5401L91.9827 22.3618Z" fill="#F9A534"></path><path d="M90.9788 23.0686L90.6421 23.3042L92.8659 26.4825L93.2026 26.2468L90.9788 23.0686Z" fill="#F9A534"></path><path d="M89.9749 23.7683L89.6382 24.0039L91.862 27.1822L92.1987 26.9466L89.9749 23.7683Z" fill="#F9A534"></path><path d="M88.972 24.4726L88.6353 24.7083L90.859 27.8865L91.1958 27.6509L88.972 24.4726Z" fill="#F9A534"></path><path d="M95.9803 23.2519C96.6007 22.8178 96.8264 22.0697 96.4845 21.581C96.1425 21.0923 95.3624 21.048 94.742 21.4821C94.1216 21.9162 93.8959 22.6642 94.2378 23.153C94.5798 23.6417 95.3599 23.686 95.9803 23.2519Z" fill="#F9A534"></path><path d="M106.106 44.9797V20.3557H116.843L106.106 44.9797Z" fill="#020202"></path><path d="M126.05 19.7144L123.898 22.197L132.251 29.4347L134.402 26.9521L126.05 19.7144Z" fill="#020202"></path><path d="M130.155 23.2684L128.003 25.751L128.314 26.0201L130.465 23.5375L130.155 23.2684Z" fill="#F9A534"></path><path d="M131.079 24.0704L128.928 26.553L129.239 26.8221L131.39 24.3395L131.079 24.0704Z" fill="#F9A534"></path><path d="M132.007 24.8736L129.856 27.3562L130.167 27.6254L132.318 25.1428L132.007 24.8736Z" fill="#F9A534"></path><path d="M132.932 25.6754L130.78 28.158L131.091 28.4271L133.242 25.9445L132.932 25.6754Z" fill="#F9A534"></path><path d="M128.026 23.5979C128.356 23.2172 128.159 22.5067 127.587 22.0108C127.015 21.515 126.284 21.4216 125.954 21.8022C125.624 22.1829 125.82 22.8934 126.393 23.3893C126.965 23.8851 127.696 23.9785 128.026 23.5979Z" fill="#F9A534"></path><path d="M102.17 8.28362C102.17 8.28362 103.133 1.18262 108.659 1.18262C114.185 1.18262 114.983 8.28362 114.983 8.28362H99.0615" fill="black"></path><path d="M102.17 8.28362C102.17 8.28362 103.133 1.18262 108.659 1.18262C114.185 1.18262 114.983 8.28362 114.983 8.28362H99.0615" stroke="black" stroke-width="1.11" stroke-linecap="round" stroke-linejoin="round"></path><path d="M106.116 5.04948C106.403 4.31116 106.272 3.5717 105.824 3.39787C105.376 3.22403 104.78 3.68165 104.494 4.41997C104.207 5.1583 104.338 5.89776 104.786 6.07159C105.234 6.24543 105.83 5.78781 106.116 5.04948Z" fill="#F9A534"></path><path d="M97.9188 31.4707L95.7168 56.3107L85.3638 56.6557V34.2607" fill="white"></path><path d="M97.9188 31.4707L95.7168 56.3107L85.3638 56.6557V34.2607" stroke="black" stroke-width="1.11" stroke-linecap="round" stroke-linejoin="round"></path><path d="M114.203 25.9057C114.908 25.0987 115.322 24.0367 115.283 22.8817C115.205 20.4667 113.189 18.5737 110.78 18.6517C108.374 18.7297 106.487 20.7517 106.565 23.1667C106.604 24.3217 107.087 25.3537 107.843 26.1127L95.7016 26.5117L96.1036 38.7397C95.2936 38.0077 94.2136 37.5727 93.0406 37.6117C90.6346 37.6897 88.7476 39.7117 88.8256 42.1267C88.9036 44.5417 90.9196 46.4347 93.3286 46.3567C94.5046 46.3177 95.5546 45.8137 96.3136 45.0307L96.7156 57.2587L109.061 56.8537C108.185 56.0797 107.615 54.9637 107.576 53.7037C107.498 51.2887 109.385 49.2667 111.791 49.1887C114.197 49.1107 116.213 51.0037 116.294 53.4187C116.336 54.6787 115.841 55.8307 115.016 56.6587L127.361 56.2537L126.353 25.5067L114.212 25.9057H114.203Z" fill="#EC1C24" stroke="black" stroke-width="1.11" stroke-linecap="round" stroke-linejoin="round"></path><path d="M122.786 28.4316C122.648 27.8736 122.525 27.2826 122.615 26.7066C122.711 26.1066 123.14 25.6956 123.647 25.4166C123.47 25.1886 123.32 25.0686 123.323 25.0746C123.323 23.9316 114.581 23.6256 114.581 25.7946L114.506 31.1406C114.497 31.7136 114.953 32.1846 115.526 32.1936C116.099 32.2026 116.57 31.7466 116.579 31.1736V31.9926C116.564 32.5656 117.02 33.0366 117.593 33.0456C118.166 33.0546 118.637 32.5986 118.646 32.0256L118.658 31.0806C118.694 31.6116 119.126 32.0376 119.669 32.0466C120.242 32.0556 120.713 31.5996 120.722 31.0266L120.743 29.4486C120.824 29.9316 121.238 30.3036 121.745 30.3126C122.318 30.3216 122.789 29.8656 122.798 29.2926L122.81 28.5006C122.801 28.4796 122.792 28.4556 122.786 28.4286V28.4316Z" fill="white" stroke="black" stroke-width="1.11" stroke-linecap="round" stroke-linejoin="round"></path><path d="M116.579 31.1737L116.768 27.3667" stroke="black" stroke-width="1.11" stroke-linecap="round" stroke-linejoin="round"></path><path d="M118.658 31.0805L118.724 26.9585" stroke="black" stroke-width="1.11" stroke-linecap="round" stroke-linejoin="round"></path><path d="M120.743 29.4516L120.755 26.9136" stroke="black" stroke-width="1.11" stroke-linecap="round" stroke-linejoin="round"></path><path d="M53.6151 98.9526C53.5341 99.5556 49.7541 101.863 47.2611 103.321C46.6221 103.696 46.8651 104.674 47.6061 104.704C51.3021 104.848 58.2831 104.899 62.7771 103.675C63.4581 103.489 64.0011 102.946 64.1901 102.256L65.0301 99.2076L53.6121 98.9526H53.6151Z" fill="black"></path><path d="M76.9071 99.2076L62.5761 98.9526C62.4531 99.8526 62.1411 99.7866 61.4781 100.405L56.9871 104.56C56.9571 104.59 56.9451 104.632 56.9601 104.671C56.9751 104.71 57.0111 104.737 57.0501 104.74C57.1611 104.746 68.2911 105.409 74.6511 103.678C75.3321 103.492 75.8751 102.949 76.0641 102.259L76.9041 99.2106L76.9071 99.2076Z" fill="black"></path><path d="M67.433 98.9526H68.12H76.874L75.365 55.7256C75.365 54.0846 74.984 52.3746 74.306 50.7696C74.3 50.7546 74.294 50.7396 74.285 50.7246C74.246 50.6316 74.207 50.5416 74.165 50.4516C74.147 50.4096 74.126 50.3676 74.105 50.3226C74.09 50.2896 74.075 50.2566 74.06 50.2236C74.054 50.2116 74.048 50.1966 74.042 50.1846C74.021 50.1396 74 50.0976 73.976 50.0526C73.967 50.0316 73.958 50.0136 73.949 49.9956C73.892 49.8816 73.835 49.7676 73.775 49.6566C73.709 49.5336 73.646 49.4136 73.58 49.2936C73.379 48.9366 73.163 48.5856 72.932 48.2466C72.854 48.1326 72.776 48.0216 72.695 47.9106C72.665 47.8656 72.632 47.8206 72.599 47.7756C72.557 47.7186 72.515 47.6616 72.47 47.6016C72.38 47.4876 72.293 47.3736 72.2 47.2626C72.116 47.1576 72.026 47.0526 71.939 46.9506C71.852 46.8486 71.762 46.7496 71.669 46.6506C71.579 46.5516 71.486 46.4556 71.393 46.3596C71.3 46.2636 71.204 46.1706 71.108 46.0776C71.012 45.9846 70.913 45.8946 70.814 45.8076C70.469 45.4986 70.106 45.2136 69.731 44.9556C69.653 44.9016 69.572 44.8476 69.494 44.7966C69.464 44.7756 69.437 44.7576 69.407 44.7396C69.329 44.6886 69.248 44.6376 69.167 44.5926C69.101 44.5536 69.038 44.5146 68.972 44.4786C68.753 44.3556 68.531 44.2386 68.303 44.1336C68.252 44.1096 68.201 44.0856 68.153 44.0646C67.991 43.9926 67.826 43.9236 67.658 43.8636C67.598 43.8396 67.535 43.8156 67.472 43.7946C67.367 43.7586 67.262 43.7256 67.154 43.6926C67.094 43.6746 67.034 43.6566 66.971 43.6416C66.875 43.6146 66.779 43.5906 66.683 43.5666C66.533 43.5306 66.383 43.4976 66.23 43.4706C66.152 43.4586 66.074 43.4466 65.999 43.4346C65.951 43.4286 65.903 43.4196 65.855 43.4136C65.792 43.4046 65.729 43.3986 65.666 43.3926C65.627 43.3866 65.588 43.3836 65.552 43.3806C65.513 43.3776 65.474 43.3746 65.438 43.3716C65.393 43.3686 65.351 43.3656 65.306 43.3626C65.261 43.3626 65.216 43.3566 65.171 43.3566C65.081 43.3536 64.991 43.3506 64.901 43.3506C63.596 43.3506 62.345 43.6866 61.193 44.2746C61.139 44.3016 61.088 44.3286 61.034 44.3586C61.001 44.3736 60.971 44.3916 60.941 44.4126C60.551 44.6226 60.173 44.8656 59.807 45.1356C58.622 46.0026 57.581 47.1396 56.738 48.4236C55.295 50.6196 54.431 53.2446 54.431 55.7196L53.99 63.4416L53.627 98.9496H67.445L67.433 98.9526Z" fill="#F9A534"></path><path d="M53.7861 84.1147L62.8881 83.1187L63.2421 85.3297L54.0621 86.1906" fill="white"></path><path d="M76.8769 98.9526L75.3679 55.7256C75.3679 54.0846 74.9869 52.3746 74.3089 50.7696C74.3029 50.7546 74.2969 50.7396 74.2879 50.7246C74.2489 50.6316 74.2099 50.5416 74.1679 50.4516C74.1499 50.4096 74.1289 50.3676 74.1079 50.3226C74.0929 50.2896 74.0779 50.2566 74.0629 50.2236C74.0569 50.2116 74.0509 50.1966 74.0449 50.1846C74.0239 50.1396 74.0029 50.0976 73.9789 50.0526C73.9699 50.0316 73.9609 50.0136 73.9519 49.9956C73.8949 49.8816 73.8379 49.7676 73.7779 49.6566C73.7119 49.5336 73.6489 49.4136 73.5829 49.2936C73.3819 48.9366 73.1659 48.5856 72.9349 48.2466C72.8569 48.1326 72.7789 48.0216 72.6979 47.9106C72.6679 47.8656 72.6349 47.8206 72.6019 47.7756C72.5599 47.7186 72.5179 47.6616 72.4729 47.6016C72.3829 47.4876 72.2959 47.3736 72.2029 47.2626C72.1189 47.1576 72.0289 47.0526 71.9419 46.9506C71.8549 46.8486 71.7649 46.7496 71.6719 46.6506C71.5819 46.5516 71.4889 46.4556 71.3959 46.3596C71.3029 46.2636 71.2069 46.1706 71.1109 46.0776C71.0149 45.9846 70.9159 45.8946 70.8169 45.8076C70.4719 45.4986 70.1089 45.2136 69.7339 44.9556C69.6559 44.9016 69.5749 44.8476 69.4969 44.7966C69.4669 44.7756 69.4399 44.7576 69.4099 44.7396C69.3319 44.6886 69.2509 44.6376 69.1699 44.5926C69.1039 44.5536 69.0409 44.5146 68.9749 44.4786C68.7559 44.3556 68.5339 44.2386 68.3059 44.1336C68.2549 44.1096 68.2039 44.0856 68.1559 44.0646C67.9939 43.9926 67.8289 43.9236 67.6609 43.8636C67.6009 43.8396 67.5379 43.8156 67.4749 43.7946C67.3699 43.7586 67.2649 43.7256 67.1569 43.6926C67.0969 43.6746 67.0369 43.6566 66.9739 43.6416C66.8779 43.6146 66.7819 43.5906 66.6859 43.5666C66.5359 43.5306 66.3859 43.4976 66.2329 43.4706C66.1549 43.4586 66.0769 43.4466 66.0019 43.4346C65.9539 43.4286 65.9059 43.4196 65.8579 43.4136C65.7949 43.4046 65.7319 43.3986 65.6689 43.3926C65.6299 43.3866 65.5909 43.3836 65.5549 43.3806C65.5159 43.3776 65.4769 43.3746 65.4409 43.3716C65.3959 43.3686 65.3539 43.3656 65.3089 43.3626C65.2639 43.3626 65.2189 43.3566 65.1739 43.3566C65.0839 43.3536 64.9939 43.3506 64.9039 43.3506C63.5989 43.3506 62.3479 43.6866 61.1959 44.2746C61.1419 44.3016 61.0909 44.3286 61.0369 44.3586C61.0039 44.3736 60.9739 44.3916 60.9439 44.4126C60.5539 44.6226 60.1759 44.8656 59.8099 45.1356C58.6249 46.0026 57.5839 47.1396 56.7409 48.4236C55.2979 50.6196 54.4339 53.2446 54.4339 55.7196L53.9929 63.4416L53.6299 98.9496" stroke="black" stroke-width="1.11" stroke-linecap="round" stroke-linejoin="round"></path><path d="M49.6938 23.9375C51.8238 22.4975 51.2508 22.3295 53.7918 21.5075C55.0518 21.0995 56.3689 20.9045 57.6949 20.9045H61.2888H62.3568H71.7348C71.7348 20.9045 76.4118 21.7235 76.7838 26.2805C77.1588 30.8375 76.8768 63.8855 76.8768 63.8855H61.3338L53.6148 62.6375L50.8338 31.6805L49.6938 23.9405V23.9375Z" fill="#F9A534"></path><path d="M75.0142 22.7104C75.0142 22.7104 84.6952 35.6075 85.3162 41.0045C85.9342 46.3985 78.3292 49.2065 76.1182 47.0525" fill="#F9A534"></path><path d="M62.8491 85.8905L76.3701 84.4146L76.4391 86.4275L63.1281 87.9665" fill="white"></path><path d="M51.3079 22.7104C51.3079 22.7104 41.6269 35.6075 41.0059 41.0045C40.3879 46.3985 47.6539 47.7785 49.6909 42.3755" fill="#F9A534"></path><path d="M42.5449 26.7634C42.5449 26.7634 36.3409 40.5064 42.5449 44.7874C48.7489 49.0684 45.3769 33.2194 45.3769 33.2194" fill="#F9A534"></path><path d="M47.4831 39.1325L40.1841 35.1755L40.4631 33.0425L47.1531 36.9665" fill="white"></path><path d="M68.8041 14.2624L63.8541 11.4694L57.9921 11.2024L57.9501 9.92744C57.8031 5.62244 61.8951 2.40944 66.0501 3.56744C70.1871 4.71944 72.0111 9.54344 69.6741 13.1464L68.8041 14.2624Z" fill="black"></path><path d="M60.9561 22.9324C60.6621 22.6564 60.7731 22.1674 60.5721 21.8374H60.6171L59.8281 17.9464C59.8281 17.9464 60.2961 11.6494 65.5881 15.6544L67.4541 21.6364L68.1021 23.1844C68.1021 23.1844 64.0521 25.8244 60.9531 22.9384L60.9561 22.9324Z" fill="white"></path><path d="M61.3311 23.9375L59.8281 17.9465" stroke="black" stroke-width="1.11" stroke-linecap="round" stroke-linejoin="round"></path><path d="M65.5879 15.6516L67.4539 21.6336" stroke="black" stroke-width="1.11" stroke-linecap="round" stroke-linejoin="round"></path><path d="M62.2281 19.8876C62.1771 19.8876 62.1261 19.8876 62.0751 19.8846C60.4161 19.8156 58.8531 18.5916 58.0881 16.7646C57.4161 15.1596 57.4041 13.3596 57.3921 11.9136C57.3921 11.8746 57.3951 11.8356 57.4041 11.7966C57.4281 11.6886 57.9741 9.12956 59.8701 8.11556C59.9511 8.07056 60.0411 8.04956 60.1311 8.04956C60.2151 8.04956 60.2991 8.06756 60.3741 8.10656C60.5331 8.18456 60.6471 8.33456 60.6771 8.51156C60.8631 9.58856 61.6761 9.80456 62.9871 10.0716C63.9831 10.2726 65.0121 10.4826 65.5701 11.3646C65.7591 11.6646 65.8761 12.0156 65.9151 12.4236C66.2121 12.2076 66.5391 12.0516 66.8601 12.0516C66.8661 12.0516 66.8901 12.0516 66.8961 12.0516C67.9071 12.0846 68.8011 12.9036 68.9301 13.9146C69.0531 14.8686 68.4921 15.8736 67.5951 16.2996C67.2831 16.4496 66.9351 16.5876 66.5151 16.5876C66.5151 16.5876 66.5091 16.5876 66.5061 16.5876C66.1551 17.4606 65.6511 18.2046 65.0331 18.7596C64.2351 19.4766 63.2091 19.8876 62.2221 19.8876H62.2281Z" fill="white"></path><path d="M60.131 8.60463C60.716 12.0006 66.41 9.04263 65.213 13.9686C65.213 13.9686 66.176 12.6096 66.86 12.6066C66.866 12.6066 66.872 12.6066 66.878 12.6066C67.619 12.6306 68.285 13.2516 68.381 13.9866C68.477 14.7216 68.027 15.4806 67.358 15.8016C67.088 15.9306 66.821 16.0326 66.518 16.0326C66.398 16.0326 66.275 16.0176 66.14 15.9786C65.846 16.8726 65.363 17.7156 64.664 18.3426C63.995 18.9426 63.119 19.3296 62.225 19.3296C62.183 19.3296 62.138 19.3296 62.096 19.3296C60.524 19.2636 59.204 18.0006 58.598 16.5486C57.992 15.0966 57.956 13.4796 57.947 11.9076C57.947 11.9076 58.442 9.50763 60.131 8.60163M60.131 7.49463C59.951 7.49463 59.771 7.53963 59.606 7.62663C57.518 8.74263 56.921 11.3886 56.858 11.6856C56.843 11.7606 56.834 11.8386 56.834 11.9166C56.846 13.4106 56.858 15.2706 57.572 16.9776C58.418 19.0026 60.176 20.3586 62.048 20.4366C62.105 20.4366 62.165 20.4396 62.222 20.4396C63.344 20.4396 64.502 19.9776 65.402 19.1706C66.005 18.6276 66.509 17.9286 66.881 17.1156C67.25 17.0616 67.565 16.9296 67.832 16.8036C68.957 16.2666 69.632 15.0486 69.476 13.8456C69.311 12.5736 68.183 11.5416 66.911 11.4996C66.893 11.4996 66.875 11.4996 66.857 11.4996C66.665 11.4996 66.476 11.5356 66.293 11.5956C66.224 11.4096 66.14 11.2326 66.035 11.0676C65.348 9.98463 64.097 9.73263 63.092 9.52863C61.721 9.24963 61.334 9.08163 61.22 8.41863C61.16 8.06763 60.935 7.76763 60.614 7.60863C60.461 7.53363 60.293 7.49463 60.128 7.49463H60.131Z" fill="black"></path><path d="M76.7809 26.2776C77.1559 30.8346 76.8739 63.8826 76.8739 63.8826L53.6089 62.9796" stroke="black" stroke-width="1.11" stroke-linecap="round" stroke-linejoin="round"></path><path d="M63.1222 71.1545L62.5762 98.9525" stroke="black" stroke-width="1.11" stroke-linecap="round" stroke-linejoin="round"></path><path d="M57.071 7.80053C57.071 7.80053 60.407 -0.410475 66.392 1.39553C73.94 3.88853 72.056 12.2705 72.056 12.2705L54.623 7.06853" fill="#F9A534"></path><path d="M57.071 7.80053C57.071 7.80053 60.407 -0.410475 66.392 1.39553C73.94 3.88853 72.056 12.2705 72.056 12.2705L54.623 7.06853" stroke="black" stroke-width="1.11" stroke-linecap="round" stroke-linejoin="round"></path><path d="M77.2159 43.0836C75.0319 43.0836 73.2649 41.3136 73.2649 39.1296C73.2649 36.9456 75.0349 35.1756 77.2159 35.1756C78.2179 35.1756 79.1299 35.5506 79.8289 36.1656V24.1086H67.6909C68.5279 24.8916 69.0499 25.9986 69.0499 27.2316C69.0499 29.5896 67.1299 31.5036 64.7629 31.5036C62.3959 31.5036 60.4759 29.5896 60.4759 27.2316C60.4759 26.0016 60.9979 24.8916 61.8349 24.1086H49.6969V35.7096C48.9799 35.1726 48.0919 34.8576 47.1259 34.8576C44.7589 34.8576 42.8389 36.7716 42.8389 39.1296C42.8389 41.4876 44.7589 43.4016 47.1259 43.4016C48.0889 43.4016 48.9799 43.0836 49.6969 42.5496V54.1506H79.8319V42.0936C79.1359 42.7086 78.2239 43.0836 77.2189 43.0836H77.2159Z" fill="#00ADE5" stroke="black" stroke-width="1.11" stroke-linecap="round" stroke-linejoin="round"></path><path d="M79.6672 37.6235L77.9212 36.8405L76.6702 37.0115C76.1332 37.0835 75.6382 36.7055 75.5662 36.1655L75.5602 36.1115C75.5092 35.7275 75.6892 35.3675 75.9922 35.1635C75.5272 35.1875 75.1132 34.8515 75.0502 34.3805L75.0232 34.1795C74.9572 33.6815 75.3052 33.2225 75.8032 33.1535L75.8812 33.1415C75.5842 33.0155 75.3592 32.7425 75.3142 32.4005L75.2962 32.2715C75.2272 31.7525 75.5902 31.2755 76.1092 31.2065L76.4542 31.1585C76.0462 31.1165 75.7042 30.8015 75.6472 30.3755L75.6202 30.1775C75.5542 29.6765 75.9052 29.2175 76.4032 29.1485L77.9182 28.9415C78.6382 28.8425 79.3702 28.9415 80.0392 29.2295L79.4452 27.6035C79.1542 27.0785 79.3432 26.4155 79.8682 26.1245L79.9222 26.0945C80.4472 25.8035 81.1042 25.9925 81.3952 26.5205L82.0462 27.6965C82.5022 28.5185 82.4722 28.8965 82.8172 29.7695L83.1562 30.6245L83.3782 30.7235L83.5252 30.7895C85.4452 31.6505 84.6952 33.1505 83.8342 35.0765L83.4922 35.8385C83.4922 35.8385 82.2982 38.9525 79.6702 37.6205L79.6672 37.6235Z" fill="white"></path><path d="M84.5991 31.7285C84.5991 31.7285 90.1731 39.5285 83.3031 45.8555L80.9541 38.3525C80.9541 38.3525 83.5581 35.0435 84.5991 31.7285Z" fill="#F9A534"></path><path d="M80.6777 40.3175L86.5547 36.5645L86.7317 38.5565L80.9537 42.3935" fill="white"></path><path d="M84.5987 31.7285C84.5987 31.7285 90.1727 39.5285 83.3027 45.8555" stroke="black" stroke-width="1.11" stroke-linecap="round" stroke-linejoin="round"></path><path d="M48.9621 32.6524L50.7081 31.8694L51.9591 32.0404C52.4961 32.1124 52.9911 31.7344 53.0631 31.1944L53.0691 31.1404C53.1201 30.7564 52.9401 30.3964 52.6371 30.1924C53.1021 30.2164 53.5161 29.8804 53.5791 29.4094L53.6061 29.2084C53.6721 28.7104 53.3241 28.2514 52.8261 28.1824L52.7481 28.1704C53.0451 28.0444 53.2701 27.7714 53.3151 27.4294L53.3331 27.3004C53.4021 26.7814 53.0391 26.3044 52.5201 26.2354L52.1751 26.1874C52.5831 26.1454 52.9251 25.8304 52.9821 25.4044L53.0091 25.2064C53.0751 24.7054 52.7241 24.2464 52.2261 24.1774L50.7111 23.9704C49.9911 23.8714 49.2591 23.9704 48.5901 24.2584L49.0251 23.2744C49.3161 22.7494 49.1271 22.0864 48.6021 21.7954L48.5481 21.7654C48.0231 21.4744 47.3661 21.6634 47.0751 22.1914L46.4241 23.3674C45.9681 24.1894 46.1601 23.9254 45.8151 24.7984L45.4761 25.6534L45.2541 25.7524L45.1071 25.8184C43.1871 26.6794 43.9371 28.1794 44.7981 30.1054L45.1401 30.8674C45.1401 30.8674 46.3341 33.9814 48.9621 32.6494V32.6524Z" fill="white"></path><path d="M79.6672 37.6235L77.9212 36.8405L76.6702 37.0115C76.1332 37.0835 75.6382 36.7055 75.5662 36.1655L75.5602 36.1115C75.5092 35.7275 75.6892 35.3675 75.9922 35.1635C75.5272 35.1875 75.1132 34.8515 75.0502 34.3805L75.0232 34.1795C74.9572 33.6815 75.3052 33.2225 75.8032 33.1535L75.8812 33.1415C75.5842 33.0155 75.3592 32.7425 75.3142 32.4005L75.2962 32.2715C75.2272 31.7525 75.5902 31.2755 76.1092 31.2065L76.4542 31.1585C76.0462 31.1165 75.7042 30.8015 75.6472 30.3755L75.6202 30.1775C75.5542 29.6765 75.9052 29.2175 76.4032 29.1485L77.9182 28.9415C78.6382 28.8425 79.3702 28.9415 80.0392 29.2295L79.4452 27.6035C79.1542 27.0785 79.3432 26.4155 79.8682 26.1245L79.9222 26.0945C80.4472 25.8035 81.1042 25.9925 81.3952 26.5205L82.0462 27.6965C82.5022 28.5185 82.4722 28.8965 82.8172 29.7695L83.1562 30.6245L83.3782 30.7235L83.5252 30.7895" fill="white"></path><path d="M79.6672 37.6235L77.9212 36.8405L76.6702 37.0115C76.1332 37.0835 75.6382 36.7055 75.5662 36.1655L75.5602 36.1115C75.5092 35.7275 75.6892 35.3675 75.9922 35.1635C75.5272 35.1875 75.1132 34.8515 75.0502 34.3805L75.0232 34.1795C74.9572 33.6815 75.3052 33.2225 75.8032 33.1535L75.8812 33.1415C75.5842 33.0155 75.3592 32.7425 75.3142 32.4005L75.2962 32.2715C75.2272 31.7525 75.5902 31.2755 76.1092 31.2065L76.4542 31.1585C76.0462 31.1165 75.7042 30.8015 75.6472 30.3755L75.6202 30.1775C75.5542 29.6765 75.9052 29.2175 76.4032 29.1485L77.9182 28.9415C78.6382 28.8425 79.3702 28.9415 80.0392 29.2295L79.4452 27.6035C79.1542 27.0785 79.3432 26.4155 79.8682 26.1245L79.9222 26.0945C80.4472 25.8035 81.1042 25.9925 81.3952 26.5205L82.0462 27.6965C82.5022 28.5185 82.4722 28.8965 82.8172 29.7695L83.1562 30.6245L83.3782 30.7235L83.5252 30.7895" stroke="black" stroke-width="1.11" stroke-linecap="round" stroke-linejoin="round"></path><path d="M48.9621 32.6525L50.7081 31.8695L55.1181 31.8035C55.6551 31.8755 56.1501 31.4975 56.2221 30.9575L56.2281 30.9035C56.2791 30.5195 56.0991 30.1595 55.7961 29.9555C56.2611 29.9795 56.6751 29.6435 56.7381 29.1725L56.7651 28.9715C56.8311 28.4735 56.4831 28.0145 55.9851 27.9455L55.9071 27.9335C56.2041 27.8075 56.4291 27.5345 56.4741 27.1925L56.4921 27.0635C56.5611 26.5445 56.1981 26.0675 55.6791 25.9985L55.3341 25.9505C55.7421 25.9085 56.0841 25.5935 56.1411 25.1675L56.1681 24.9695C56.2341 24.4685 55.8831 24.0095 55.3851 23.9405L50.7111 23.9675C49.9911 23.8685 49.2591 23.9675 48.5901 24.2555L49.0251 23.2715C49.3161 22.7465 49.1271 22.0835 48.6021 21.7925L48.5481 21.7625C48.0231 21.4715 47.3661 21.6605 47.0751 22.1885L46.4241 23.3645C45.9681 24.1865 46.1601 23.9225 45.8151 24.7955L45.4761 25.6505L45.2541 25.7495L45.1071 25.8155C43.1871 26.6765 43.9371 28.1765 44.7981 30.1025L45.1401 30.8645C45.1401 30.8645 46.3341 33.9785 48.9621 32.6465V32.6525Z" fill="white" stroke="black" stroke-width="1.11" stroke-linecap="round" stroke-linejoin="round"></path><path d="M55.3337 25.9565L49.9907 25.9595" stroke="black" stroke-width="1.11" stroke-linecap="round" stroke-linejoin="round"></path><path d="M55.9069 27.9396L50.8579 27.8826" stroke="black" stroke-width="1.11" stroke-linecap="round" stroke-linejoin="round"></path><path d="M55.7961 29.9585L50.6001 30.1085" stroke="black" stroke-width="1.11" stroke-linecap="round" stroke-linejoin="round"></path><path d="M43.9011 25.5066L47.7921 33.9336L43.4841 34.7136C43.4841 34.7136 39.5961 27.9936 43.8981 25.5066H43.9011Z" fill="#F9A534"></path><path d="M13.7027 98.9526H4.26172L5.77072 55.7256C5.77072 54.0846 6.15172 52.3746 6.82972 50.7696C6.83572 50.7546 6.84172 50.7396 6.85072 50.7246C6.88972 50.6316 6.92872 50.5416 6.97072 50.4516C6.98872 50.4096 7.00972 50.3676 7.03072 50.3226C7.04572 50.2896 7.06072 50.2566 7.07572 50.2236C7.08172 50.2116 7.08772 50.1966 7.09372 50.1846C7.11472 50.1396 7.13572 50.0976 7.15972 50.0526C7.16872 50.0316 7.17772 50.0136 7.18672 49.9956C7.24372 49.8816 7.30072 49.7676 7.36072 49.6566C7.42672 49.5336 7.48972 49.4136 7.55572 49.2936C7.75672 48.9366 7.97272 48.5856 8.20372 48.2466C8.28172 48.1326 8.35972 48.0216 8.44072 47.9106C8.47072 47.8656 8.50372 47.8206 8.53672 47.7756C8.57872 47.7186 8.62072 47.6616 8.66572 47.6016C8.75572 47.4876 8.84272 47.3736 8.93572 47.2626C9.01972 47.1576 9.10972 47.0526 9.19672 46.9506C9.28372 46.8486 9.37372 46.7496 9.46672 46.6506C9.55672 46.5516 9.64972 46.4556 9.74272 46.3596C9.83572 46.2636 9.93172 46.1706 10.0277 46.0776C10.1237 45.9846 10.2227 45.8946 10.3217 45.8076C10.6667 45.4986 11.0297 45.2136 11.4047 44.9556C11.4827 44.9016 11.5637 44.8476 11.6417 44.7966C11.6717 44.7756 11.6987 44.7576 11.7287 44.7396C11.8067 44.6886 11.8877 44.6376 11.9687 44.5926C12.0347 44.5536 12.0977 44.5146 12.1637 44.4786C12.3827 44.3556 12.6047 44.2386 12.8327 44.1336C12.8837 44.1096 12.9347 44.0856 12.9827 44.0646C13.1447 43.9926 13.3097 43.9236 13.4777 43.8636C13.5377 43.8396 13.6007 43.8156 13.6637 43.7946C13.7687 43.7586 13.8737 43.7256 13.9817 43.6926C14.0417 43.6746 14.1017 43.6566 14.1647 43.6416C14.2607 43.6146 14.3567 43.5906 14.4527 43.5666C14.6027 43.5306 14.7527 43.4976 14.9057 43.4706C14.9837 43.4586 15.0617 43.4466 15.1367 43.4346C15.1847 43.4286 15.2327 43.4196 15.2807 43.4136C15.3437 43.4046 15.4067 43.3986 15.4697 43.3926C15.5087 43.3866 15.5477 43.3836 15.5837 43.3806C15.6227 43.3776 15.6617 43.3746 15.6977 43.3716C15.7427 43.3686 15.7847 43.3656 15.8297 43.3626C15.8747 43.3626 15.9197 43.3566 15.9647 43.3566C16.0547 43.3536 16.1447 43.3506 16.2347 43.3506C17.5397 43.3506 18.7907 43.6866 19.9427 44.2746C19.9967 44.3016 20.0477 44.3286 20.1017 44.3586C20.1347 44.3736 20.1647 44.3916 20.1947 44.4126C20.5847 44.6226 20.9627 44.8656 21.3287 45.1356C22.5137 46.0026 23.5547 47.1396 24.3977 48.4236C25.8407 50.6196 26.7047 53.2446 26.7047 55.7196L27.1457 63.4416L27.5087 98.9496H13.6907L13.7027 98.9526Z" fill="#0072BB"></path><path d="M16.1025 99.2076L27.5205 98.9526C27.6435 99.8526 36.0255 104.557 36.0255 104.557C36.0555 104.587 36.0675 104.629 36.0525 104.668C36.0375 104.707 36.0015 104.734 35.9625 104.737C35.8515 104.743 24.7215 105.406 18.3615 103.675C17.6805 103.489 17.1375 102.946 16.9485 102.256L16.1085 99.2076H16.1025Z" fill="white" stroke="black" stroke-width="1.11" stroke-linecap="round" stroke-linejoin="round"></path><path d="M4.22852 99.2076L18.5595 98.9526C18.6825 99.8526 18.9945 99.7866 19.6575 100.405L24.1485 104.56C24.1785 104.59 24.1905 104.632 24.1755 104.671C24.1605 104.71 24.1245 104.737 24.0855 104.74C23.9745 104.746 12.8445 105.409 6.48452 103.678C5.80352 103.492 5.26052 102.949 5.07152 102.259L4.23152 99.2106L4.22852 99.2076Z" fill="white" stroke="black" stroke-width="1.11" stroke-linecap="round" stroke-linejoin="round"></path><path d="M4.26172 98.9526L5.77072 55.7256C5.77072 54.0846 6.15172 52.3746 6.82972 50.7696C6.83572 50.7546 6.84172 50.7396 6.85072 50.7246C6.88972 50.6316 6.92872 50.5416 6.97072 50.4516C6.98872 50.4096 7.00972 50.3676 7.03072 50.3226C7.04572 50.2896 7.06072 50.2566 7.07572 50.2236C7.08172 50.2116 7.08772 50.1966 7.09372 50.1846C7.11472 50.1396 7.13572 50.0976 7.15972 50.0526C7.16872 50.0316 7.17772 50.0136 7.18672 49.9956C7.24372 49.8816 7.30072 49.7676 7.36072 49.6566C7.42672 49.5336 7.48972 49.4136 7.55572 49.2936C7.75672 48.9366 7.97272 48.5856 8.20372 48.2466C8.28172 48.1326 8.35972 48.0216 8.44072 47.9106C8.47072 47.8656 8.50372 47.8206 8.53672 47.7756C8.57872 47.7186 8.62072 47.6616 8.66572 47.6016C8.75572 47.4876 8.84272 47.3736 8.93572 47.2626C9.01972 47.1576 9.10972 47.0526 9.19672 46.9506C9.28372 46.8486 9.37372 46.7496 9.46672 46.6506C9.55672 46.5516 9.64972 46.4556 9.74272 46.3596C9.83572 46.2636 9.93172 46.1706 10.0277 46.0776C10.1237 45.9846 10.2227 45.8946 10.3217 45.8076C10.6667 45.4986 11.0297 45.2136 11.4047 44.9556C11.4827 44.9016 11.5637 44.8476 11.6417 44.7966C11.6717 44.7756 11.6987 44.7576 11.7287 44.7396C11.8067 44.6886 11.8877 44.6376 11.9687 44.5926C12.0347 44.5536 12.0977 44.5146 12.1637 44.4786C12.3827 44.3556 12.6047 44.2386 12.8327 44.1336C12.8837 44.1096 12.9347 44.0856 12.9827 44.0646C13.1447 43.9926 13.3097 43.9236 13.4777 43.8636C13.5377 43.8396 13.6007 43.8156 13.6637 43.7946C13.7687 43.7586 13.8737 43.7256 13.9817 43.6926C14.0417 43.6746 14.1017 43.6566 14.1647 43.6416C14.2607 43.6146 14.3567 43.5906 14.4527 43.5666C14.6027 43.5306 14.7527 43.4976 14.9057 43.4706C14.9837 43.4586 15.0617 43.4466 15.1367 43.4346C15.1847 43.4286 15.2327 43.4196 15.2807 43.4136C15.3437 43.4046 15.4067 43.3986 15.4697 43.3926C15.5087 43.3866 15.5477 43.3836 15.5837 43.3806C15.6227 43.3776 15.6617 43.3746 15.6977 43.3716C15.7427 43.3686 15.7847 43.3656 15.8297 43.3626C15.8747 43.3626 15.9197 43.3566 15.9647 43.3566C16.0547 43.3536 16.1447 43.3506 16.2347 43.3506C17.5397 43.3506 18.7907 43.6866 19.9427 44.2746C19.9967 44.3016 20.0477 44.3286 20.1017 44.3586C20.1347 44.3736 20.1647 44.3916 20.1947 44.4126C20.5847 44.6226 20.9627 44.8656 21.3287 45.1356C22.5137 46.0026 23.5547 47.1396 24.3977 48.4236C25.8407 50.6196 26.7047 53.2446 26.7047 55.7196L27.1457 63.4416L27.5087 98.9496" stroke="black" stroke-width="1.11" stroke-linecap="round" stroke-linejoin="round"></path><path d="M34.5137 24.9965C32.3837 23.5565 29.8877 22.3295 27.3467 21.5075C26.0867 21.0995 24.7697 20.9045 23.4437 20.9045H9.40372C9.40372 20.9045 4.72672 21.7235 4.35472 26.2805C3.97972 30.8375 1.26172 63.8855 1.26172 63.8855L20.6897 66.1325L30.5207 62.0495L30.3047 31.6805L34.5137 24.9995V24.9965Z" fill="#EC1C24"></path><path d="M14.5757 15.6784L17.9537 11.1064L23.1947 8.46645L22.7147 7.28445C21.0887 3.29745 16.0427 2.03445 12.7217 4.78845C9.41566 7.53045 9.72166 12.6784 13.3277 15.0124L14.5757 15.6754V15.6784Z" fill="black"></path><path d="M11.6634 7.16438C12.5452 5.49966 11.9058 3.43278 10.2352 2.54788C8.56463 1.66298 6.49552 2.29515 5.61372 3.95988C4.73193 5.6246 5.37136 7.69147 7.04194 8.57637C8.71252 9.46127 10.7816 8.8291 11.6634 7.16438Z" fill="black"></path><path d="M20.1644 24.6216C20.1644 24.0606 20.1074 23.4936 20.1794 22.9356C20.2334 22.5366 20.3624 22.1706 20.5634 21.8406H20.5184L21.3074 17.9496C21.3074 17.9496 20.8394 11.6526 15.5474 15.6576L13.6334 23.0316L13.0304 23.1876C12.8534 23.2326 12.8054 23.4636 12.9494 23.5746C14.0144 24.3936 17.3654 26.6316 20.2424 24.8316C20.1944 24.7746 20.1644 24.7056 20.1644 24.6276V24.6216Z" fill="white"></path><path d="M11.5186 23.8956L19.8706 33.9336L20.6896 22.0176L11.5186 23.8956Z" fill="#020202"></path><path d="M30.3496 57.5646C30.3496 56.6016 30.0316 55.7106 29.4976 54.9936H41.0986V42.8556C40.3156 43.6926 39.2086 44.2146 37.9756 44.2146C35.6176 44.2146 33.7036 42.2946 33.7036 39.9276C33.7036 37.5606 35.6176 35.6406 37.9756 35.6406C39.2056 35.6406 40.3156 36.1626 41.0986 36.9996V24.8616H11.0566V54.9966H22.6576C22.1206 55.7136 21.8056 56.6016 21.8056 57.5676C21.8056 59.9346 23.7196 61.8546 26.0776 61.8546C28.4356 61.8546 30.3496 59.9346 30.3496 57.5676V57.5646Z" fill="white" stroke="black" stroke-width="1.11" stroke-linecap="round" stroke-linejoin="round"></path><path d="M22.967 52.5154C22.433 52.5154 21.908 52.4254 21.404 52.2484L19.712 51.6394C18.836 51.3244 18.056 50.7844 17.453 50.0764L16.208 48.6364L8.47102 44.6404C8.26402 44.5354 8.15602 44.3044 8.20102 44.0764L9.10102 39.6094C9.13102 39.4624 9.22102 39.3364 9.35002 39.2614C9.43102 39.2164 9.52102 39.1924 9.61102 39.1924C9.66802 39.1924 9.72202 39.2014 9.77602 39.2194L19.274 42.4174C19.289 42.4114 19.31 42.4054 19.331 42.3964C19.643 42.2824 20.294 42.0424 21.149 42.0424C21.662 42.0424 22.172 42.1294 22.667 42.3004L23.327 42.5284C23.771 42.6814 24.014 42.8614 24.23 43.0204C24.416 43.1554 24.56 43.2634 24.854 43.3654L27.884 44.4154C28.598 44.6614 28.976 45.4414 28.73 46.1524L28.709 46.2154C28.52 46.7644 28.001 47.1304 27.419 47.1304C27.266 47.1304 27.116 47.1064 26.972 47.0554L24.968 46.3624C25.409 46.8184 25.955 47.1724 26.558 47.3794L27.599 47.7394C28.721 48.1294 29.402 48.5644 30.059 48.9874L30.2 49.0804C30.728 49.4164 30.953 50.0644 30.749 50.6554L30.728 50.7214C30.539 51.2644 30.029 51.6274 29.453 51.6274C29.195 51.6274 28.946 51.5524 28.727 51.4144L28.559 51.3064C28.388 51.1954 28.22 51.0964 28.052 51.0034C27.641 51.3514 27.005 51.5974 26.588 51.7294C26.552 51.7414 26.513 51.7474 26.474 51.7534C26.258 51.7714 25.685 51.9484 25.223 52.0924C24.617 52.2784 24.092 52.4404 23.771 52.4674L23.372 52.5004C23.237 52.5124 23.105 52.5184 22.97 52.5184L22.967 52.5154Z" fill="white"></path><path d="M9.61079 39.7114L19.3218 42.9814L19.3368 42.9424C19.4988 42.9094 20.1798 42.5614 21.1518 42.5614C21.5568 42.5614 22.0098 42.6214 22.4988 42.7924L23.1588 43.0204C23.8968 43.2754 23.9508 43.6024 24.6858 43.8574L27.7158 44.9074C28.1598 45.0604 28.3938 45.5434 28.2408 45.9844L28.2198 46.0444C28.0998 46.3924 27.7698 46.6144 27.4188 46.6144C27.3258 46.6144 27.2328 46.5994 27.1398 46.5664L23.5968 45.3394L24.0558 46.0474C24.6078 46.8994 25.4268 47.5414 26.3868 47.8714L27.4278 48.2314C28.5708 48.6274 29.2188 49.0684 29.9208 49.5184C30.2448 49.7254 30.3828 50.1244 30.2568 50.4844L30.2328 50.5504C30.1128 50.8984 29.7888 51.1054 29.4498 51.1054C29.2968 51.1054 29.1438 51.0634 29.0028 50.9734L28.8348 50.8654C28.5138 50.6614 28.2168 50.4934 27.9168 50.3494C27.7548 50.8084 26.4258 51.2344 26.4258 51.2344C25.8858 51.2794 24.2538 51.9034 23.7228 51.9484L23.3238 51.9814C23.2038 51.9904 23.0868 51.9964 22.9668 51.9964C22.4958 51.9964 22.0248 51.9154 21.5778 51.7594L19.8888 51.1534C19.0968 50.8684 18.3948 50.3824 17.8518 49.7434L16.5408 48.2254L8.71678 44.1814L9.61378 39.7144M9.61079 38.6704C9.43079 38.6704 9.25078 38.7184 9.09178 38.8084C8.83378 38.9584 8.65078 39.2104 8.59378 39.5044L7.69679 43.9714C7.60679 44.4274 7.82578 44.8864 8.23978 45.0994L15.8868 49.0504L17.0688 50.4184C17.7228 51.1894 18.5808 51.7834 19.5408 52.1284L21.2298 52.7344C21.7938 52.9324 22.3758 53.0344 22.9698 53.0344C23.1168 53.0344 23.2668 53.0284 23.4138 53.0164L23.8128 52.9834C24.1638 52.9534 24.6378 52.8124 25.3758 52.5844C25.7388 52.4734 26.3478 52.2844 26.5188 52.2694C26.5968 52.2634 26.6718 52.2484 26.7438 52.2244C27.2898 52.0504 27.7398 51.8494 28.0848 51.6214C28.1478 51.6604 28.2108 51.6994 28.2768 51.7414L28.4448 51.8494C28.7478 52.0414 29.0958 52.1434 29.4498 52.1434C30.2448 52.1434 30.9528 51.6394 31.2138 50.8894L31.2378 50.8234C31.5198 50.0074 31.2078 49.1104 30.4788 48.6424L30.3378 48.5524C29.7588 48.1804 29.1648 47.7994 28.2798 47.4424C28.7028 47.2264 29.0358 46.8514 29.1978 46.3834L29.2188 46.3204C29.3838 45.8464 29.3538 45.3334 29.1318 44.8804C28.9128 44.4274 28.5288 44.0884 28.0518 43.9234L25.0218 42.8734C24.8058 42.7984 24.7098 42.7294 24.5358 42.6004C24.3138 42.4384 24.0138 42.2134 23.4948 42.0364L22.8348 41.8084C22.2858 41.6194 21.7188 41.5204 21.1488 41.5204C20.2998 41.5204 19.6398 41.7304 19.2678 41.8654L9.94379 38.7274C9.83579 38.6914 9.72478 38.6734 9.61378 38.6734L9.61079 38.6704Z" fill="black"></path><path d="M9.16059 34.2454C9.16059 34.2454 8.39558 25.5274 7.09058 25.5244C6.13958 25.5244 5.19458 25.5754 4.24958 25.6504L0.670585 37.6174C-0.0464154 40.0114 2.51858 44.3884 5.02358 44.3764L13.3756 49.7914L19.3126 41.7064L9.15759 34.2484L9.16059 34.2454Z" fill="#EC1C24"></path><path d="M20.5186 21.8375L21.3106 17.9465" stroke="black" stroke-width="1.11" stroke-linecap="round" stroke-linejoin="round"></path><path d="M15.5477 15.6516L12.8657 24.2466" stroke="black" stroke-width="1.11" stroke-linecap="round" stroke-linejoin="round"></path><path d="M21.2415 18.4627C20.7735 18.4627 20.3055 18.3877 19.8495 18.2437C19.0575 17.9887 18.2955 17.5177 17.6175 16.8637C17.2665 17.0227 16.9215 17.0497 16.6395 17.0497C16.5945 17.0497 16.5525 17.0497 16.5075 17.0497C15.5145 17.0257 14.5935 16.3387 14.3145 15.4177C14.0205 14.4427 14.5035 13.3297 15.4095 12.8857C15.5715 12.8047 15.7635 12.7657 15.9765 12.7657C16.1295 12.7657 16.2915 12.7867 16.4565 12.8227C16.3275 12.4327 16.2885 12.0667 16.3395 11.7157C16.4895 10.6807 17.3445 10.0687 18.1695 9.47773C19.2555 8.69773 19.9095 8.16673 19.6395 7.11073C19.5945 6.93673 19.6395 6.75372 19.7505 6.61872C19.8555 6.49272 20.0115 6.41772 20.1765 6.41772C20.1885 6.41772 20.2035 6.41772 20.2155 6.41772C22.3605 6.56772 23.9055 8.67972 23.9715 8.76972C23.9955 8.80272 24.0135 8.83572 24.0285 8.87172C24.6105 10.1947 25.3335 11.8417 25.3755 13.5847C25.4235 15.5647 24.4965 17.3227 23.0115 18.0607C22.4835 18.3247 21.8715 18.4627 21.2415 18.4627Z" fill="white"></path><path d="M20.1766 6.96962C22.0876 7.10462 23.5216 9.09362 23.5216 9.09362C24.1546 10.5336 24.7846 12.0246 24.8236 13.5966C24.8626 15.1686 24.1726 16.8606 22.7656 17.5626C22.2946 17.7966 21.7696 17.9076 21.2416 17.9076C20.8276 17.9076 20.4136 17.8416 20.0206 17.7156C19.1266 17.4276 18.3406 16.8546 17.7076 16.1586C17.3656 16.4406 17.0146 16.4946 16.6396 16.4946C16.6006 16.4946 16.5616 16.4946 16.5226 16.4946C15.7816 16.4766 15.0616 15.9666 14.8486 15.2556C14.6356 14.5446 14.9896 13.7076 15.6586 13.3806C15.7516 13.3356 15.8596 13.3176 15.9826 13.3176C16.6786 13.3176 17.7346 13.9416 17.7346 13.9416C14.6296 9.93662 21.0346 10.3086 20.1826 6.96962M20.1766 5.85962C19.8496 5.85962 19.5376 6.00362 19.3246 6.25862C19.0966 6.53162 19.0126 6.90062 19.1026 7.24562C19.2676 7.89662 18.9856 8.21162 17.8486 9.02462C17.0146 9.62162 15.9766 10.3656 15.7936 11.6316C15.7666 11.8236 15.7576 12.0186 15.7726 12.2166C15.5536 12.2376 15.3526 12.2946 15.1696 12.3846C14.0236 12.9456 13.4176 14.3466 13.7866 15.5766C14.1376 16.7406 15.2506 17.5746 16.4986 17.6046C16.5466 17.6046 16.5946 17.6046 16.6426 17.6046C16.8766 17.6046 17.1736 17.5896 17.4916 17.4996C18.1636 18.0906 18.9106 18.5256 19.6846 18.7716C20.1946 18.9336 20.7196 19.0176 21.2446 19.0176C21.9616 19.0176 22.6576 18.8586 23.2636 18.5556C24.9406 17.7186 25.9876 15.7626 25.9336 13.5696C25.8886 11.7186 25.1386 10.0176 24.5386 8.64662C24.5086 8.57462 24.4696 8.50862 24.4216 8.44562C24.2446 8.19962 22.6156 6.03062 20.2546 5.86262C20.2276 5.86262 20.2036 5.86262 20.1766 5.86262V5.85962Z" fill="black"></path><path d="M2.50369 33.0454C0.508687 34.5514 -0.0583126 40.5754 2.97469 42.8014L13.3787 49.7884L19.3157 41.7034L9.16069 34.2454" stroke="black" stroke-width="1.11" stroke-linecap="round" stroke-linejoin="round"></path><path d="M35.2216 22.4886L35.2426 21.8556C35.3086 19.7526 27.6436 19.3656 27.5716 21.4686L27.5656 21.6306L27.5566 21.8766L26.8906 22.5126C26.2126 23.1606 25.8526 23.2776 25.2616 24.0066L24.4186 25.0506C24.0406 25.5186 24.1126 26.1996 24.5806 26.5746L24.6286 26.6136C25.0966 26.9886 25.7806 26.9136 26.1556 26.4486L27.4396 25.2846C27.4276 26.0106 27.6106 26.7246 27.9736 27.3576L28.7356 28.6836C28.9876 29.1216 29.5456 29.2716 29.9836 29.0226L30.1546 28.9236C30.5266 28.7106 30.6916 28.2756 30.5776 27.8796L30.7516 28.1796C31.0126 28.6326 31.5916 28.7886 32.0446 28.5306L32.1586 28.4676C32.4586 28.2966 32.6266 27.9846 32.6326 27.6606L32.6716 27.7296C32.9206 28.1646 33.4786 28.3146 33.9136 28.0656L34.0906 27.9636C34.5046 27.7266 34.6576 27.2196 34.4596 26.7966C34.7626 27.0006 35.1646 27.0306 35.5006 26.8386L35.5456 26.8116C36.0196 26.5416 36.1816 25.9416 35.9116 25.4706L35.2816 24.3756L35.3476 22.4646" fill="white"></path><path d="M35.2216 22.4886L35.2426 21.8556C35.3086 19.7526 27.6436 19.3656 27.5716 21.4686L27.5656 21.6306L27.5566 21.8766L26.8906 22.5126C26.2126 23.1606 25.8526 23.2776 25.2616 24.0066L24.4186 25.0506C24.0406 25.5186 24.1126 26.1996 24.5806 26.5746L24.6286 26.6136C25.0966 26.9886 25.7806 26.9136 26.1556 26.4486L27.4396 25.2846C27.4276 26.0106 27.6106 26.7246 27.9736 27.3576L28.7356 28.6836C28.9876 29.1216 29.5456 29.2716 29.9836 29.0226L30.1546 28.9236C30.5266 28.7106 30.6916 28.2756 30.5776 27.8796L30.7516 28.1796C31.0126 28.6326 31.5916 28.7886 32.0446 28.5306L32.1586 28.4676C32.4586 28.2966 32.6266 27.9846 32.6326 27.6606L32.6716 27.7296C32.9206 28.1646 33.4786 28.3146 33.9136 28.0656L34.0906 27.9636C34.5046 27.7266 34.6576 27.2196 34.4596 26.7966C34.7626 27.0006 35.1646 27.0306 35.5006 26.8386L35.5456 26.8116C36.0196 26.5416 36.1816 25.9416 35.9116 25.4706L35.2816 24.3756L35.3476 22.4646" stroke="black" stroke-width="1.11" stroke-linecap="round" stroke-linejoin="round"></path><path d="M30.5748 27.8827L29.6118 25.0657" stroke="black" stroke-width="1.11" stroke-linecap="round" stroke-linejoin="round"></path><path d="M32.6267 27.6637L31.8677 24.8677" stroke="black" stroke-width="1.11" stroke-linecap="round" stroke-linejoin="round"></path><path d="M34.4564 26.7996L33.5234 24.3306" stroke="black" stroke-width="1.11" stroke-linecap="round" stroke-linejoin="round"></path><path d="M3.40072 44.0615C3.02572 48.6185 1.26172 63.8825 1.26172 63.8825L20.6897 66.1295L30.5207 62.0465" stroke="black" stroke-width="1.11" stroke-linecap="round" stroke-linejoin="round"></path><path d="M18.0137 71.1545L18.5597 98.9525" stroke="black" stroke-width="1.11" stroke-linecap="round" stroke-linejoin="round"></path></g><defs><clipPath id="clip0_469_29612"><rect width="142.701" height="104.841" fill="white" transform="translate(0.298828 0.57959)"></rect></clipPath></defs></svg>