<svg xmlns="http://www.w3.org/2000/svg" width="96" height="45" viewBox="0 0 96 45" fill="none"><g clip-path="url(#clip0_298_14511)"><path d="M35.351 19.98C34.9267 22.4056 34.4932 24.8312 34.069 27.2568C22.725 32.4123 14.1109 22.1012 2.76685 27.2568C3.19109 24.8312 3.62457 22.4056 4.04881 19.98C15.3928 14.8244 24.0069 25.1355 35.351 19.98Z" fill="white"></path><path d="M38.6066 1.48828C38.1823 3.91387 37.7489 6.33946 37.3246 8.76506C25.9806 13.9206 17.3665 3.60952 6.02246 8.76506C6.44671 6.33946 6.88018 3.91387 7.30443 1.48828C18.6485 -3.66726 27.2625 6.64381 38.6066 1.48828Z" fill="white"></path><path d="M36.9833 10.7203C36.559 13.1459 36.1256 15.5715 35.7013 17.9971C24.3573 23.1527 15.7432 12.8416 4.39917 17.9971C4.82342 15.5715 5.25689 13.1459 5.68114 10.7203C17.0252 5.56479 25.6392 15.8759 36.9833 10.7203Z" fill="white"></path><path d="M42.1575 1.479H55.9087C61.1749 1.479 65.0946 4.58708 63.914 11.2921C62.8442 17.3514 57.744 20.9575 52.4778 20.9575H47.064L45.9573 27.2475H37.6199L42.1575 1.479ZM49.2221 8.67278L48.3275 13.7453H52.4224C53.8612 13.7453 55.0786 12.6478 55.3368 11.209C55.5859 9.80718 54.765 8.67278 53.3263 8.67278H49.2314H49.2221Z" fill="white"></path><path d="M67.677 1.479H76.0144L71.4675 27.2383H63.1301L67.677 1.479Z" fill="white"></path><path d="M74.4097 27.2383L78.9565 1.479H87.2939L84.0198 20.0445H95.8434L94.5707 27.2475H74.4189L74.4097 27.2383Z" fill="white"></path><path d="M0 44.0759L2.04746 32.4552H5.81036L4.33471 40.8295H9.66548L9.09367 44.0759H0Z" fill="white"></path><path d="M17.5049 32.2891C20.9357 32.2891 23.0477 34.853 22.4483 38.2839C21.8488 41.6871 18.8329 44.251 15.4021 44.251C11.9712 44.251 9.89605 41.6871 10.4955 38.2839C11.1042 34.853 14.1201 32.2891 17.5141 32.2891H17.5049ZM16.02 40.7095C17.4034 40.7095 18.5194 39.6304 18.7499 38.2839C18.9897 36.9005 18.2611 35.8214 16.8777 35.8214C15.4943 35.8214 14.3783 36.9005 14.1385 38.2839C13.8987 39.6304 14.6642 40.7095 16.02 40.7095Z" fill="white"></path><path d="M35.1757 37.2048L34.235 42.554C32.9992 43.4394 30.6197 44.2417 28.8489 44.2417C25.418 44.2417 23.057 42.019 23.7118 38.2746C24.3758 34.5025 27.5208 32.2798 30.9517 32.2798C32.8331 32.2798 34.3272 32.9162 35.3325 33.7831L33.1375 36.6237C32.455 36.0427 31.5327 35.7383 30.426 35.7383C29.0426 35.7383 27.8713 36.6422 27.5854 38.2838C27.2995 39.8886 28.148 40.7924 29.7066 40.7924C30.1309 40.7924 30.7119 40.691 31.2929 40.5157L31.4497 39.6303H29.1625L29.5867 37.2048H35.1757Z" fill="white"></path><path d="M38.4405 32.4551H42.2034L40.156 44.0758H36.3931L38.4405 32.4551Z" fill="white"></path><path d="M45.7082 39.3075C43.9098 38.7449 43.2365 37.8042 43.5316 36.1257C43.919 33.9399 46.031 32.2982 49.1575 32.2982C50.7992 32.2982 52.3947 32.7225 53.234 33.2205L51.6385 36.347C50.8084 35.7475 49.5357 35.2864 48.4566 35.2864C47.7741 35.2864 47.3868 35.5446 47.3222 35.9228C47.2761 36.181 47.4052 36.3194 47.8756 36.4669L49.6464 37.0664C51.7307 37.7673 52.4409 38.7726 52.1734 40.2944C51.7676 42.5816 49.6648 44.2417 46.5752 44.2417C44.8136 44.2417 43.1627 43.6607 42.4434 43.2364L43.8729 40.0546C44.7122 40.7002 46.0402 41.2535 47.1654 41.2535C47.8664 41.2535 48.2722 40.8939 48.3367 40.5157C48.3921 40.2206 48.1338 40.0177 47.7003 39.8794L45.699 39.2983L45.7082 39.3075Z" fill="white"></path><path d="M60.9442 36.218L59.5608 44.0758H55.7979L57.1813 36.218H54.1101L54.7741 32.4551H64.6794L64.0154 36.218H60.9442Z" fill="white"></path><path d="M66.8192 32.4551H70.5821L68.5346 44.0758H64.7717L66.8192 32.4551Z" fill="white"></path><path d="M81.5847 42.3696C80.3673 43.3564 78.4213 44.251 76.4845 44.251C73.0536 44.251 70.7941 42.0283 71.4581 38.2839C72.1222 34.5118 75.1657 32.2891 78.5965 32.2891C81.6032 32.2891 82.9866 33.9676 82.5716 36.6791L79.0116 37.38C79.1868 36.3932 78.9562 35.7384 77.9325 35.7384C76.6874 35.7384 75.6176 36.6422 75.3317 38.2839C75.0458 39.8886 75.7928 40.7925 77.1762 40.7925C78.3752 40.7925 79.4543 40.2668 80.3673 39.5751L81.5847 42.3603V42.3696Z" fill="white"></path><path d="M86.104 39.3075C84.3055 38.7449 83.6323 37.8042 83.9274 36.1257C84.3148 33.9399 86.4268 32.2982 89.5533 32.2982C91.195 32.2982 92.7905 32.7225 93.6298 33.2205L92.0342 36.347C91.2042 35.7475 89.9314 35.2864 88.8524 35.2864C88.1699 35.2864 87.7825 35.5446 87.718 35.9228C87.6719 36.181 87.801 36.3194 88.2713 36.4669L90.0421 37.0664C92.1265 37.7673 92.8366 38.7726 92.5692 40.2944C92.1634 42.5816 90.0606 44.2417 86.9709 44.2417C85.2094 44.2417 83.5585 43.6607 82.8391 43.2364L84.2686 40.0546C85.1079 40.7002 86.436 41.2535 87.5612 41.2535C88.2621 41.2535 88.6679 40.8939 88.7325 40.5157C88.7878 40.2206 88.5296 40.0177 88.0961 39.8794L86.0948 39.2983L86.104 39.3075Z" fill="white"></path></g><defs><clipPath id="clip0_298_14511"><rect width="96" height="44.1956" fill="white"></rect></clipPath></defs></svg>