<svg xmlns="http://www.w3.org/2000/svg" width="108" height="32" viewBox="0 0 108 32" fill="none"><path d="M104 0H4C1.79086 0 0 1.79086 0 4V28C0 30.2091 1.79086 32 4 32H104C106.209 32 108 30.2091 108 28V4C108 1.79086 106.209 0 104 0Z" fill="black"></path><path d="M104 0.64C105.856 0.64 107.36 2.144 107.36 4V28C107.36 29.856 105.856 31.36 104 31.36H4C2.144 31.36 0.64 29.856 0.64 28V4C0.64 2.144 2.144 0.64 4 0.64H104ZM104 0H4C1.8 0 0 1.8 0 4V28C0 30.2 1.8 32 4 32H104C106.2 32 108 30.2 108 28V4C108 1.8 106.2 0 104 0Z" fill="#A6A6A6"></path><path d="M34.376 10.176C33.992 9.95999 33.696 9.65599 33.472 9.27199C33.248 8.88799 33.136 8.46399 33.136 7.99999C33.136 7.53599 33.248 7.11199 33.472 6.72799C33.696 6.34399 34 6.03999 34.376 5.82399C34.752 5.60799 35.168 5.49599 35.624 5.49599C35.976 5.49599 36.312 5.55999 36.616 5.67999C36.92 5.79999 37.184 5.98399 37.384 6.20799L36.976 6.61599C36.824 6.43199 36.632 6.28799 36.392 6.18399C36.152 6.07999 35.896 6.03199 35.624 6.03199C35.288 6.03199 34.968 6.11199 34.672 6.27999C34.376 6.44799 34.144 6.67199 33.968 6.96799C33.792 7.26399 33.704 7.60799 33.704 7.99999C33.704 8.39199 33.792 8.73599 33.968 9.03199C34.144 9.32799 34.384 9.55999 34.672 9.71999C34.968 9.87999 35.28 9.96799 35.616 9.96799C35.952 9.96799 36.208 9.91999 36.424 9.81599C36.64 9.71199 36.824 9.58399 36.984 9.41599C37.104 9.28799 37.192 9.14399 37.264 8.95999C37.336 8.78399 37.384 8.59199 37.4 8.37599H35.624V7.84799H37.928C37.952 7.97599 37.96 8.08799 37.96 8.19999C37.96 8.49599 37.912 8.78399 37.816 9.06399C37.72 9.34399 37.576 9.58399 37.368 9.79999C36.928 10.28 36.336 10.52 35.608 10.52C35.16 10.52 34.744 10.408 34.36 10.192L34.376 10.176Z" fill="white" stroke="white" stroke-width="0.16" stroke-miterlimit="10"></path><path d="M38.952 5.59998H41.728V6.14398H39.512V7.73598H41.512V8.27198H39.512V9.86398H41.728V10.408H38.952V5.60798V5.59998Z" fill="white" stroke="white" stroke-width="0.16" stroke-miterlimit="10"></path><path d="M43.768 6.14398H42.424V5.59998H45.68V6.14398H44.336V10.4H43.768V6.14398Z" fill="white" stroke="white" stroke-width="0.16" stroke-miterlimit="10"></path><path d="M48.216 5.59998H48.776V10.4H48.216V5.59998Z" fill="white" stroke="white" stroke-width="0.16" stroke-miterlimit="10"></path><path d="M50.976 6.14398H49.632V5.59998H52.888V6.14398H51.544V10.4H50.976V6.14398Z" fill="white" stroke="white" stroke-width="0.16" stroke-miterlimit="10"></path><path d="M56.264 10.168C55.888 9.94398 55.592 9.63998 55.376 9.25598C55.16 8.87198 55.056 8.45598 55.056 7.99198C55.056 7.52798 55.16 7.11998 55.376 6.72798C55.592 6.33598 55.888 6.03998 56.264 5.81598C56.64 5.59198 57.056 5.47998 57.52 5.47998C57.984 5.47998 58.4 5.59198 58.776 5.81598C59.152 6.03998 59.448 6.34398 59.664 6.72798C59.88 7.11198 59.992 7.53598 59.992 7.99198C59.992 8.44798 59.888 8.87198 59.672 9.25598C59.456 9.63998 59.16 9.94398 58.784 10.168C58.408 10.392 57.984 10.504 57.528 10.504C57.072 10.504 56.648 10.392 56.272 10.168H56.264ZM58.464 9.71198C58.752 9.54398 58.976 9.31198 59.144 9.01598C59.312 8.71998 59.392 8.38398 59.392 7.99998C59.392 7.61598 59.304 7.27998 59.144 6.98398C58.976 6.68798 58.752 6.45598 58.464 6.28798C58.176 6.11998 57.856 6.03998 57.512 6.03998C57.168 6.03998 56.856 6.11998 56.568 6.28798C56.28 6.45598 56.056 6.68798 55.888 6.99198C55.72 7.28798 55.632 7.63198 55.632 8.00798C55.632 8.38398 55.72 8.71998 55.888 9.02398C56.056 9.31998 56.288 9.55998 56.568 9.72798C56.856 9.89598 57.168 9.97598 57.512 9.97598C57.856 9.97598 58.176 9.89598 58.464 9.72798V9.71198Z" fill="white" stroke="white" stroke-width="0.16" stroke-miterlimit="10"></path><path d="M60.952 5.59998H61.648L64.056 9.42398H64.08L64.056 8.49598V5.59998H64.624V10.4H64.032L61.512 6.39998H61.488L61.512 7.32798V10.408H60.952V5.60798V5.59998Z" fill="white" stroke="white" stroke-width="0.16" stroke-miterlimit="10"></path><path d="M54.512 17.4C52.632 17.4 51.096 18.832 51.096 20.8C51.096 22.768 52.632 24.2 54.512 24.2C56.392 24.2 57.928 22.76 57.928 20.8C57.928 18.84 56.392 17.4 54.512 17.4ZM54.512 22.864C53.48 22.864 52.592 22.016 52.592 20.8C52.592 19.584 53.48 18.736 54.512 18.736C55.544 18.736 56.432 19.576 56.432 20.8C56.432 22.024 55.544 22.864 54.512 22.864ZM47.056 17.4C45.176 17.4 43.64 18.832 43.64 20.8C43.64 22.768 45.176 24.2 47.056 24.2C48.936 24.2 50.472 22.76 50.472 20.8C50.472 18.84 48.936 17.4 47.056 17.4ZM47.056 22.864C46.024 22.864 45.136 22.016 45.136 20.8C45.136 19.584 46.024 18.736 47.056 18.736C48.088 18.736 48.976 19.576 48.976 20.8C48.976 22.024 48.088 22.864 47.056 22.864ZM38.192 18.448V19.888H41.648C41.544 20.696 41.272 21.296 40.864 21.704C40.36 22.208 39.576 22.76 38.2 22.76C36.072 22.76 34.408 21.048 34.408 18.92C34.408 16.792 36.072 15.08 38.2 15.08C39.344 15.08 40.184 15.528 40.8 16.112L41.816 15.096C40.952 14.272 39.808 13.64 38.192 13.64C35.28 13.64 32.832 16.008 32.832 18.928C32.832 21.848 35.28 24.216 38.192 24.216C39.768 24.216 40.952 23.704 41.88 22.736C42.832 21.784 43.128 20.44 43.128 19.36C43.128 19.024 43.104 18.712 43.048 18.456H38.192V18.448ZM74.44 19.568C74.16 18.808 73.296 17.4 71.528 17.4C69.76 17.4 68.32 18.776 68.32 20.8C68.32 22.704 69.76 24.2 71.696 24.2C73.256 24.2 74.16 23.248 74.528 22.696L73.368 21.92C72.984 22.488 72.456 22.864 71.696 22.864C70.936 22.864 70.392 22.52 70.048 21.832L74.6 19.952L74.448 19.568H74.44ZM69.8 20.704C69.76 19.392 70.816 18.72 71.576 18.72C72.168 18.72 72.672 19.016 72.84 19.44L69.8 20.704ZM66.104 24H67.6V14H66.104V24ZM63.656 18.16H63.608C63.272 17.76 62.632 17.4 61.816 17.4C60.112 17.4 58.552 18.896 58.552 20.816C58.552 22.736 60.112 24.208 61.816 24.208C62.624 24.208 63.272 23.848 63.608 23.432H63.656V23.92C63.656 25.224 62.96 25.92 61.84 25.92C60.928 25.92 60.36 25.264 60.128 24.712L58.824 25.256C59.2 26.16 60.192 27.264 61.84 27.264C63.592 27.264 65.072 26.232 65.072 23.72V17.608H63.656V18.16ZM61.936 22.864C60.904 22.864 60.04 22 60.04 20.816C60.04 19.632 60.904 18.744 61.936 18.744C62.968 18.744 63.752 19.624 63.752 20.816C63.752 22.008 62.952 22.864 61.936 22.864ZM81.448 14H77.872V24H79.368V20.208H81.456C83.112 20.208 84.736 19.008 84.736 17.104C84.736 15.2 83.112 14 81.456 14H81.448ZM81.48 18.816H79.36V15.384H81.48C82.6 15.384 83.232 16.312 83.232 17.096C83.232 17.88 82.6 18.808 81.48 18.808V18.816ZM90.712 17.384C89.632 17.384 88.512 17.864 88.048 18.912L89.376 19.464C89.656 18.912 90.184 18.728 90.736 18.728C91.504 18.728 92.296 19.192 92.304 20.016V20.12C92.032 19.968 91.456 19.736 90.744 19.736C89.312 19.736 87.864 20.52 87.864 21.984C87.864 23.32 89.032 24.184 90.344 24.184C91.344 24.184 91.904 23.736 92.248 23.208H92.296V23.976H93.736V20.144C93.736 18.368 92.408 17.376 90.696 17.376L90.712 17.384ZM90.528 22.864C90.04 22.864 89.36 22.616 89.36 22.016C89.36 21.248 90.208 20.952 90.944 20.952C91.6 20.952 91.912 21.096 92.304 21.288C92.192 22.216 91.392 22.872 90.528 22.872V22.864ZM98.992 17.6L97.28 21.936H97.232L95.456 17.6H93.848L96.512 23.664L94.992 27.032H96.552L100.656 17.6H99H98.992ZM85.552 24H87.048V14H85.552V24Z" fill="white"></path><path d="M16.576 15.536L8.05603 24.576C8.32003 25.56 9.21603 26.28 10.28 26.28C10.704 26.28 11.104 26.168 11.448 25.96L11.472 25.944L21.056 20.416L16.568 15.528L16.576 15.536Z" fill="#EA4335"></path><path d="M25.192 14H25.184L21.048 11.592L16.384 15.744L21.064 20.424L25.184 18.048C25.904 17.656 26.392 16.896 26.392 16.024C26.392 15.152 25.912 14.392 25.192 14.008V14Z" fill="#FBBC04"></path><path d="M8.05601 7.42401C8.00801 7.61601 7.97601 7.80801 7.97601 8.01601V23.992C7.97601 24.2 8.00001 24.392 8.05601 24.584L16.864 15.776L8.05601 7.42401Z" fill="#4285F4"></path><path d="M16.64 16L21.048 11.592L11.472 6.04001C11.128 5.83201 10.72 5.71201 10.28 5.71201C9.21603 5.71201 8.32003 6.44001 8.05603 7.41601L16.64 15.992V16Z" fill="#34A853"></path></svg>