<svg xmlns="http://www.w3.org/2000/svg" width="129" height="118" viewBox="0 0 129 118" fill="none"><g clip-path="url(#clip0_469_29857)"><path d="M72.9687 82.553H33.2967L17.7417 89.57L22.5687 91.184L69.2007 91.556L73.1277 89.57L72.9687 82.553Z" fill="#0072BB" stroke="black" stroke-width="0.966" stroke-linecap="round" stroke-linejoin="round"></path><path d="M30.5698 88.6217L35.3668 85.2827" stroke="black" stroke-width="0.966" stroke-linecap="round" stroke-linejoin="round"></path><path d="M66.4351 88.6217L67.8451 85.3877" stroke="black" stroke-width="0.966" stroke-linecap="round" stroke-linejoin="round"></path><path d="M38.532 84.7908L34.998 88.2948" stroke="black" stroke-width="0.966" stroke-linecap="round" stroke-linejoin="round"></path><path d="M41.7449 84.7908L39.3809 88.0758" stroke="black" stroke-width="0.966" stroke-linecap="round" stroke-linejoin="round"></path><path d="M62.5439 88.0008L64.1429 84.7908" stroke="black" stroke-width="0.966" stroke-linecap="round" stroke-linejoin="round"></path><path d="M58.8027 88.2229L60.2907 85.4749" stroke="black" stroke-width="0.966" stroke-linecap="round" stroke-linejoin="round"></path><path d="M54.5488 88.2228L56.9488 84.7908" stroke="black" stroke-width="0.966" stroke-linecap="round" stroke-linejoin="round"></path><path d="M50.7236 88.6217L53.1806 85.3877" stroke="black" stroke-width="0.966" stroke-linecap="round" stroke-linejoin="round"></path><path d="M47.5259 88.3908L48.7859 86.4858" stroke="black" stroke-width="0.966" stroke-linecap="round" stroke-linejoin="round"></path><path d="M43.311 88.6217L45.408 85.3877" stroke="black" stroke-width="0.966" stroke-linecap="round" stroke-linejoin="round"></path><path d="M73.1307 93.4731V89.5701H68.3397V90.5691H22.5357V89.5701H17.7417V90.5691V93.4731V112.724V115.046V116.627H22.5357V115.046H68.3397V116.627H73.1307V112.724H73.1277V93.4731H73.1307Z" fill="#00ADE5" stroke="black" stroke-width="0.966" stroke-linecap="round" stroke-linejoin="round"></path><path d="M22.1215 93.3079L22.0195 112.391" stroke="black" stroke-width="0.966" stroke-linecap="round" stroke-linejoin="round"></path><path d="M27.2606 93.3259L27.1616 112.409" stroke="black" stroke-width="0.966" stroke-linecap="round" stroke-linejoin="round"></path><path d="M32.4027 93.3438L32.3037 112.427" stroke="black" stroke-width="0.966" stroke-linecap="round" stroke-linejoin="round"></path><path d="M37.5444 93.3618L37.4424 112.445" stroke="black" stroke-width="0.966" stroke-linecap="round" stroke-linejoin="round"></path><path d="M42.6835 93.3799L42.5845 112.463" stroke="black" stroke-width="0.966" stroke-linecap="round" stroke-linejoin="round"></path><path d="M47.8256 93.3979L47.7266 112.481" stroke="black" stroke-width="0.966" stroke-linecap="round" stroke-linejoin="round"></path><path d="M52.9677 93.4158L52.8657 112.499" stroke="black" stroke-width="0.966" stroke-linecap="round" stroke-linejoin="round"></path><path d="M58.1063 93.4309L58.0073 112.517" stroke="black" stroke-width="0.966" stroke-linecap="round" stroke-linejoin="round"></path><path d="M63.2484 93.449L63.1494 112.535" stroke="black" stroke-width="0.966" stroke-linecap="round" stroke-linejoin="round"></path><path d="M68.3906 93.4668L68.2886 112.553" stroke="black" stroke-width="0.966" stroke-linecap="round" stroke-linejoin="round"></path><path d="M22.5356 89.5699L33.7736 84.4099" stroke="black" stroke-width="0.966" stroke-linecap="round" stroke-linejoin="round"></path><path d="M70.0376 85.394L70.6796 84.188" stroke="black" stroke-width="0.966" stroke-linecap="round" stroke-linejoin="round"></path><path d="M68.3398 89.57L69.4318 86.99" stroke="black" stroke-width="0.966" stroke-linecap="round" stroke-linejoin="round"></path><path d="M73.2899 82.6909H112.962L128.517 89.7079L123.69 91.3219L77.0579 91.6969L73.1309 89.7079L73.2899 82.6909Z" fill="#0072BB" stroke="black" stroke-width="0.966" stroke-linecap="round" stroke-linejoin="round"></path><path d="M115.689 88.7599L110.892 85.4209" stroke="black" stroke-width="0.966" stroke-linecap="round" stroke-linejoin="round"></path><path d="M79.8241 88.7599L78.4141 85.5259" stroke="black" stroke-width="0.966" stroke-linecap="round" stroke-linejoin="round"></path><path d="M107.727 84.929L111.264 88.433" stroke="black" stroke-width="0.966" stroke-linecap="round" stroke-linejoin="round"></path><path d="M104.517 84.929L106.881 88.214" stroke="black" stroke-width="0.966" stroke-linecap="round" stroke-linejoin="round"></path><path d="M83.7151 88.139L82.1191 84.929" stroke="black" stroke-width="0.966" stroke-linecap="round" stroke-linejoin="round"></path><path d="M87.4593 88.361L85.9683 85.613" stroke="black" stroke-width="0.966" stroke-linecap="round" stroke-linejoin="round"></path><path d="M91.7101 88.361L89.3101 84.929" stroke="black" stroke-width="0.966" stroke-linecap="round" stroke-linejoin="round"></path><path d="M95.5381 88.7599L93.0781 85.5259" stroke="black" stroke-width="0.966" stroke-linecap="round" stroke-linejoin="round"></path><path d="M98.7361 88.529L97.4731 86.624" stroke="black" stroke-width="0.966" stroke-linecap="round" stroke-linejoin="round"></path><path d="M102.948 88.7599L100.851 85.5259" stroke="black" stroke-width="0.966" stroke-linecap="round" stroke-linejoin="round"></path><path d="M73.1279 93.611V89.708H77.9189V90.707H123.726V89.708H128.517V90.707V93.611V112.862V115.184V116.765H123.726V115.184H77.9189V116.765H73.1279V112.862H73.1339V93.611H73.1279Z" fill="#00ADE5" stroke="black" stroke-width="0.966" stroke-linecap="round" stroke-linejoin="round"></path><path d="M124.14 93.4458L124.239 112.529" stroke="black" stroke-width="0.966" stroke-linecap="round" stroke-linejoin="round"></path><path d="M118.998 93.4639L119.097 112.547" stroke="black" stroke-width="0.966" stroke-linecap="round" stroke-linejoin="round"></path><path d="M113.856 93.4817L113.958 112.565" stroke="black" stroke-width="0.966" stroke-linecap="round" stroke-linejoin="round"></path><path d="M108.717 93.4998L108.816 112.583" stroke="black" stroke-width="0.966" stroke-linecap="round" stroke-linejoin="round"></path><path d="M103.575 93.5178L103.674 112.601" stroke="black" stroke-width="0.966" stroke-linecap="round" stroke-linejoin="round"></path><path d="M98.4331 93.5359L98.5351 112.619" stroke="black" stroke-width="0.966" stroke-linecap="round" stroke-linejoin="round"></path><path d="M93.2939 93.5537L93.3929 112.637" stroke="black" stroke-width="0.966" stroke-linecap="round" stroke-linejoin="round"></path><path d="M88.1519 93.5718L88.2509 112.655" stroke="black" stroke-width="0.966" stroke-linecap="round" stroke-linejoin="round"></path><path d="M83.0103 93.5869L83.1123 112.673" stroke="black" stroke-width="0.966" stroke-linecap="round" stroke-linejoin="round"></path><path d="M77.8711 93.6047L77.9701 112.691" stroke="black" stroke-width="0.966" stroke-linecap="round" stroke-linejoin="round"></path><path d="M123.726 89.7078L112.485 84.5479" stroke="black" stroke-width="0.966" stroke-linecap="round" stroke-linejoin="round"></path><path d="M76.2241 85.5319L75.5791 84.3259" stroke="black" stroke-width="0.966" stroke-linecap="round" stroke-linejoin="round"></path><path d="M77.9191 89.7079L76.8271 87.1279" stroke="black" stroke-width="0.966" stroke-linecap="round" stroke-linejoin="round"></path><path d="M92.9636 58.0249H53.2916L45.4346 63.2779L50.2616 64.8919L96.8936 65.2639L100.821 63.2779L92.9636 58.0249Z" fill="#0072BB" stroke="black" stroke-width="0.966" stroke-linecap="round" stroke-linejoin="round"></path><path d="M100.824 67.1808V63.2778H96.0326V64.2768H50.2256V63.2778H45.4346V64.2768V67.1808V86.4318V88.7538V90.3348H50.2256V88.7538H96.0326V90.3348H100.824V86.4318H100.821V67.1808H100.824Z" fill="#00ADE5" stroke="black" stroke-width="0.966" stroke-linecap="round" stroke-linejoin="round"></path><path d="M49.8114 67.0159L49.7124 86.0989" stroke="black" stroke-width="0.966" stroke-linecap="round" stroke-linejoin="round"></path><path d="M54.9535 67.0339L54.8545 86.1169" stroke="black" stroke-width="0.966" stroke-linecap="round" stroke-linejoin="round"></path><path d="M60.0956 67.0518L59.9966 86.1348" stroke="black" stroke-width="0.966" stroke-linecap="round" stroke-linejoin="round"></path><path d="M65.2343 67.0698L65.1353 86.1528" stroke="black" stroke-width="0.966" stroke-linecap="round" stroke-linejoin="round"></path><path d="M70.3763 67.0879L70.2773 86.1709" stroke="black" stroke-width="0.966" stroke-linecap="round" stroke-linejoin="round"></path><path d="M75.5185 67.106L75.4165 86.189" stroke="black" stroke-width="0.966" stroke-linecap="round" stroke-linejoin="round"></path><path d="M80.6576 67.1208L80.5586 86.2069" stroke="black" stroke-width="0.966" stroke-linecap="round" stroke-linejoin="round"></path><path d="M85.7992 67.1389L85.7002 86.2249" stroke="black" stroke-width="0.966" stroke-linecap="round" stroke-linejoin="round"></path><path d="M90.9414 67.157L90.8394 86.243" stroke="black" stroke-width="0.966" stroke-linecap="round" stroke-linejoin="round"></path><path d="M96.0805 67.1748L95.9814 86.2578" stroke="black" stroke-width="0.966" stroke-linecap="round" stroke-linejoin="round"></path><path d="M50.2256 63.278L55.6556 59.885" stroke="black" stroke-width="0.966" stroke-linecap="round" stroke-linejoin="round"></path><path d="M96.0325 63.2778L92.5645 59.9778" stroke="black" stroke-width="0.966" stroke-linecap="round" stroke-linejoin="round"></path><path d="M59.2677 59.447L56.0127 62.909" stroke="black" stroke-width="0.966" stroke-linecap="round" stroke-linejoin="round"></path><path d="M62.8978 59.4468L61.5088 62.6628" stroke="black" stroke-width="0.966" stroke-linecap="round" stroke-linejoin="round"></path><path d="M90.2037 62.582L87.6807 59.447" stroke="black" stroke-width="0.966" stroke-linecap="round" stroke-linejoin="round"></path><path d="M85.7486 62.8248L84.0986 60.0588" stroke="black" stroke-width="0.966" stroke-linecap="round" stroke-linejoin="round"></path><path d="M80.6097 62.8248L79.7847 59.4468" stroke="black" stroke-width="0.966" stroke-linecap="round" stroke-linejoin="round"></path><path d="M75.4673 63.278V59.978" stroke="black" stroke-width="0.966" stroke-linecap="round" stroke-linejoin="round"></path><path d="M70.5356 63.0169L70.6496 61.0129" stroke="black" stroke-width="0.966" stroke-linecap="round" stroke-linejoin="round"></path><path d="M65.8613 63.278L66.5123 59.978" stroke="black" stroke-width="0.966" stroke-linecap="round" stroke-linejoin="round"></path><path d="M27.0447 38.429C26.8077 38.429 26.5647 38.372 26.3217 38.264C26.1867 38.303 26.0067 38.339 25.8027 38.339C25.3257 38.339 24.4467 38.141 23.9067 36.809C23.1717 34.997 22.9047 30.479 22.8927 30.29C22.8837 30.158 22.9317 30.029 23.0217 29.933C23.1117 29.837 23.2347 29.78 23.3667 29.78C23.3667 29.78 23.4417 29.78 23.5767 29.78C24.8877 29.78 29.2917 29.879 30.9447 31.16C31.0497 31.241 31.1187 31.364 31.1307 31.496C31.3017 33.275 31.5627 36.335 31.4007 36.815C31.1997 37.415 30.5427 37.886 29.9007 37.886C29.7477 37.886 29.6007 37.859 29.4657 37.808C29.2497 37.997 28.9287 38.186 28.5147 38.186C28.3407 38.186 28.1697 38.153 27.9987 38.087C27.7707 38.273 27.4467 38.435 27.0417 38.435L27.0447 38.429Z" fill="white"></path><path d="M23.5768 30.2599C24.5878 30.2599 29.0878 30.3289 30.6508 31.5379C30.6508 31.5379 31.0978 36.2029 30.9448 36.6589C30.8098 37.0669 30.3358 37.3999 29.9038 37.3999C29.7118 37.3999 29.5258 37.3339 29.3818 37.1779C29.3818 37.1779 29.0518 37.6969 28.5148 37.6969C28.3348 37.6969 28.1278 37.6369 27.9058 37.4809C27.9058 37.4809 27.6118 37.9459 27.0448 37.9459C26.8468 37.9459 26.6158 37.8889 26.3548 37.7389C26.3548 37.7389 26.1238 37.8559 25.8028 37.8559C25.3678 37.8559 24.7648 37.6399 24.3538 36.6289C23.6398 34.8679 23.3758 30.2629 23.3758 30.2629C23.3758 30.2629 23.4478 30.2629 23.5798 30.2629M23.5768 29.2939C23.4358 29.2939 23.3578 29.2939 23.3578 29.2939C23.0938 29.2969 22.8448 29.4109 22.6648 29.6029C22.4848 29.7949 22.3918 30.0529 22.4068 30.3169C22.4338 30.8059 22.7038 35.1379 23.4538 36.9919C24.0988 38.5849 25.1998 38.8219 25.7968 38.8219C25.9768 38.8219 26.1418 38.8009 26.2798 38.7709C26.5318 38.8639 26.7868 38.9119 27.0388 38.9119C27.4438 38.9119 27.7948 38.7889 28.0798 38.6149C28.2208 38.6479 28.3648 38.6659 28.5088 38.6659C28.9138 38.6659 29.2708 38.5279 29.5618 38.3359C29.6698 38.3569 29.7838 38.3689 29.8978 38.3689C30.7468 38.3689 31.5898 37.7659 31.8568 36.9679C31.9228 36.7729 32.0728 36.3169 31.6078 31.4479C31.5838 31.1809 31.4488 30.9379 31.2388 30.7759C29.5108 29.4409 25.3018 29.2939 23.5738 29.2939H23.5768Z" fill="black"></path><path d="M23.376 30.26C23.376 30.26 28.887 30.17 30.654 31.538C30.654 31.538 31.101 36.203 30.948 36.659C30.75 37.247 29.85 37.682 29.385 37.178C29.385 37.178 28.797 38.108 27.909 37.481C27.909 37.481 27.375 38.324 26.358 37.736C26.358 37.736 25.071 38.384 24.357 36.626C23.643 34.865 23.379 30.26 23.379 30.26H23.376Z" fill="white"></path><path d="M40.3588 20.0781L33.2578 38.5731L50.7148 31.9401L58.1308 31.0281" fill="#0071BA"></path><path d="M63.3751 12.0921C62.1091 12.0921 60.8761 11.8341 59.7121 11.3301C59.6221 11.2911 59.5471 11.2251 59.4961 11.1411L58.2511 9.14006C58.0261 9.06206 57.6901 8.89106 57.4201 8.52506C57.0211 7.97906 56.9131 7.21106 57.0961 6.23906C57.1771 5.81306 57.4621 5.53106 57.8581 5.48006C57.9001 5.32106 57.9721 5.15306 58.1011 4.99706C58.2451 4.82006 58.5031 4.61606 58.9381 4.54106C58.9771 4.30106 59.0701 4.01606 59.2741 3.78806C59.4331 3.61106 59.7211 3.40106 60.1951 3.40106C60.3031 3.40106 60.4141 3.41006 60.5281 3.43106C60.7351 3.01706 61.1341 2.59106 61.7881 2.59106C61.9921 2.59106 62.2081 2.63306 62.4301 2.72006C63.6571 3.18506 68.8501 8.20106 69.8791 9.20006C69.9781 9.29606 70.0321 9.43406 70.0261 9.57206C70.0171 9.71006 69.9511 9.84206 69.8401 9.92606C69.7261 10.0131 67.0141 12.0921 63.3781 12.0921H63.3751Z" fill="white"></path><path d="M61.7849 3.07098C61.9229 3.07098 62.0789 3.10098 62.2559 3.16698C63.4529 3.61998 69.5399 9.54198 69.5399 9.54198C69.5399 9.54198 66.8849 11.609 63.3719 11.609C62.2799 11.609 61.1039 11.408 59.9009 10.886L58.5569 8.72298C58.5569 8.72298 57.1499 8.54898 57.5669 6.32598C57.6239 6.02598 57.8129 5.95098 57.9869 5.95098C58.1609 5.95098 58.3019 6.01998 58.3019 6.01998C58.3019 6.01998 58.1009 4.99098 59.3039 4.99098C59.3339 4.99098 59.3639 4.99098 59.3939 4.99098C59.3939 4.99098 59.2769 3.87798 60.1919 3.87798C60.3659 3.87798 60.5759 3.91698 60.8279 4.01298C60.8279 4.01298 60.9959 3.06798 61.7849 3.06798M61.7849 2.10498C61.1039 2.10498 60.5909 2.45298 60.2639 2.91498C60.2399 2.91498 60.2129 2.91498 60.1889 2.91498C59.5379 2.91498 59.1329 3.21198 58.9079 3.46098C58.7189 3.67098 58.5989 3.91098 58.5269 4.14198C58.1369 4.27398 57.8819 4.49298 57.7199 4.68798C57.6179 4.81398 57.5399 4.94298 57.4799 5.07198C57.0329 5.23698 56.7119 5.62098 56.6129 6.14598C56.4059 7.25598 56.5409 8.14998 57.0209 8.80698C57.3029 9.19098 57.6389 9.40698 57.9149 9.52998L59.0729 11.396C59.1779 11.561 59.3279 11.693 59.5079 11.771C60.7349 12.305 62.0309 12.575 63.3659 12.575C67.1669 12.575 70.0079 10.397 70.1249 10.307C70.3439 10.136 70.4819 9.87798 70.4969 9.59898C70.5119 9.31998 70.4069 9.04698 70.2059 8.85498C68.7449 7.43298 63.8759 2.75598 62.5919 2.26998C62.3129 2.16498 62.0399 2.11098 61.7789 2.11098L61.7849 2.10498Z" fill="black"></path><path d="M32.4479 69.8091C30.7439 70.4571 28.8989 70.7631 27.0149 70.6821C21.3419 70.4301 15.3299 69.3861 9.62692 67.6641C8.72692 67.3911 7.75492 67.4421 6.88792 67.8051L1.04692 70.2501C1.00792 70.2651 0.962918 70.2591 0.929918 70.2291C0.899918 70.1991 0.887918 70.1541 0.905918 70.1151C0.947918 70.0071 5.09992 59.2431 9.46492 53.9961C9.93292 53.4321 10.6769 53.1561 11.4089 53.2731C14.6399 53.7891 22.5599 55.1031 26.7179 56.2131L34.0469 36.7341C34.0619 36.6951 34.0979 36.6681 34.1399 36.6651L49.0799 35.7231C49.1129 35.7231 49.1459 35.7351 49.1669 35.7591C49.1879 35.7831 49.1969 35.8191 49.1909 35.8491C49.1549 36.0291 45.5039 53.9781 39.0989 64.3401C37.5299 66.8811 35.1719 68.7771 32.4509 69.8091H32.4479Z" fill="#F9A534"></path><path d="M14.6341 53.7861L8.72106 67.3911C7.82106 67.1181 7.74906 67.4421 6.88206 67.8021L1.04106 70.2471C1.00206 70.2621 0.957059 70.2561 0.924059 70.2261C0.894059 70.1961 0.882059 70.1511 0.900059 70.1121C0.942059 70.0041 5.09406 59.2401 9.45906 53.9931C9.92706 53.4291 10.6711 53.1531 11.4031 53.2701L14.6341 53.7861Z" fill="white"></path><path d="M9.62425 67.6642C8.72425 67.3912 7.75225 67.4422 6.88525 67.8052L1.04425 70.2502C1.00525 70.2652 0.960246 70.2592 0.927246 70.2292" fill="white"></path><path d="M55.872 31.8889L56.187 34.2349C56.187 34.2349 63.021 17.6629 58.881 17.0059C55.998 16.5499 45.63 18.8899 39.606 20.3509" fill="#0071BA"></path><path d="M68.9222 24.875L37.9682 36.6319C37.2812 38.1259 36.6662 39.653 36.0932 41.192C35.4872 42.818 34.9262 44.4559 34.3682 46.097C35.7092 47.1859 37.5842 47.627 39.4742 46.91L65.7482 36.9319C65.7482 36.9319 57.1682 50.78 54.5372 58.46C54.3332 59.06 54.9212 59.6269 55.5092 59.396L75.3122 51.665C75.6152 51.545 75.6332 51.122 75.3362 50.9809L71.6252 49.211C71.6252 49.211 77.1152 39.815 81.2612 30.872C83.4542 26.141 79.4132 20.8969 68.9192 24.8809L68.9222 24.875Z" fill="#F9A534"></path><path d="M71.6279 49.2051L75.3389 50.9751C75.6329 51.1161 75.6179 51.5421 75.3149 51.6591L55.5119 59.3901C54.9209 59.6211 54.3329 59.0541 54.5399 58.4541L55.9979 54.8241" fill="white"></path><path d="M47.187 43.982C45.483 50.117 42.735 58.451 39.093 64.34C37.524 66.881 35.166 68.777 32.445 69.809C30.741 70.457 28.896 70.763 27.012 70.682C21.339 70.43 15.327 69.386 9.62399 67.664C8.72399 67.391 7.75199 67.442 6.88499 67.805L1.04399 70.25C1.00499 70.265 0.959988 70.259 0.926988 70.229C0.896988 70.199 0.884988 70.154 0.902988 70.115C0.944988 70.007 5.09699 59.243 9.46199 53.996C9.92999 53.432 10.674 53.156 11.406 53.273C14.637 53.789 22.557 55.103 26.715 56.213L34.548 36.509" stroke="black" stroke-width="0.966" stroke-linecap="round" stroke-linejoin="round"></path><path d="M34.3682 46.097C35.7092 47.186 37.5842 47.627 39.4742 46.91L65.7482 36.932C65.7482 36.932 57.1682 50.78 54.5372 58.46C54.3332 59.06 54.9212 59.627 55.5092 59.396L75.3122 51.665C75.6152 51.545 75.6332 51.122 75.3362 50.981L71.6252 49.211C71.6252 49.211 77.1152 39.815 81.2612 30.872C83.2082 26.669 80.2382 22.064 72.1982 23.876" stroke="black" stroke-width="0.966" stroke-linecap="round" stroke-linejoin="round"></path><path d="M38.145 28.694C36.225 26.798 30.405 24.428 30.405 24.428L30.864 32.039L23.313 30.569C23.313 30.569 21.597 23.126 23.922 17.654C26.817 10.841 42.18 19.049 42.18 19.049" fill="#0071BA"></path><path d="M43.1553 19.3281C46.9323 17.5071 64.7553 15.8451 64.7553 15.8451L59.9223 10.8381L66.0873 6.23608C66.0873 6.23608 72.7503 9.97108 75.2373 15.3711C78.3333 22.0941 58.8213 25.6011 58.8213 25.6011" fill="#0071BA"></path><path d="M59.3731 20.5281C59.3731 20.5281 60.0931 23.5431 58.1401 28.3611" stroke="black" stroke-width="0.966" stroke-linecap="round" stroke-linejoin="round"></path><path d="M54.7739 8.24903C56.9159 4.22903 53.9159 -0.921974 47.8619 1.27703C47.8619 1.27703 43.5029 0.368026 40.9739 4.36103C38.4419 8.35403 40.2389 22.895 40.8929 23.048C41.5469 23.201 49.6019 18.152 49.6019 18.152" fill="black"></path><path d="M45.7826 12.1549L43.9016 19.2799L43.3166 19.4269C43.1456 19.4689 43.0976 19.6909 43.2356 19.8019C44.4566 20.7529 48.8096 23.6599 51.8126 19.6009C52.2596 18.9949 51.8216 18.1399 51.0686 18.1519L50.5646 18.1609L51.3446 14.3989C51.3446 14.3989 50.9186 8.30288 45.7796 12.1549H45.7826Z" fill="white"></path><path d="M50.5649 18.161L51.3479 14.396" stroke="black" stroke-width="0.966" stroke-linecap="round" stroke-linejoin="round"></path><path d="M45.7829 12.155L43.1519 20.459" stroke="black" stroke-width="0.966" stroke-linecap="round" stroke-linejoin="round"></path><path d="M51.2972 14.843C50.8442 14.843 50.3912 14.771 49.9502 14.627C49.1822 14.378 48.4442 13.91 47.7902 13.271C47.4512 13.43 47.1182 13.457 46.8482 13.457C46.8002 13.457 46.7522 13.457 46.7042 13.457C45.7652 13.43 44.8982 12.779 44.6402 11.906C44.3672 10.985 44.8262 9.94104 45.6812 9.52404C45.8312 9.45204 46.0052 9.41604 46.2002 9.41604C46.3772 9.41604 46.5662 9.44604 46.7552 9.49404C46.6082 9.09204 46.5632 8.71404 46.6172 8.35404C46.7642 7.37604 47.5832 6.79404 48.3752 6.23304C49.4492 5.47104 50.0942 4.94904 49.8272 3.89004C49.7912 3.74004 49.8272 3.58104 49.9262 3.46104C50.0192 3.35004 50.1542 3.29004 50.2952 3.29004C50.3072 3.29004 50.3192 3.29004 50.3312 3.29004C52.3802 3.44304 53.8532 5.47404 53.9162 5.56104C53.9372 5.58804 53.9522 5.61804 53.9672 5.64804C54.5222 6.92604 55.2122 8.51904 55.2482 10.193C55.2872 12.086 54.3932 13.763 52.9712 14.465C52.4732 14.711 51.8942 14.843 51.2972 14.843Z" fill="white"></path><path d="M50.298 3.77296C52.146 3.91095 53.526 5.84295 53.526 5.84295C54.132 7.23796 54.735 8.68396 54.768 10.205C54.798 11.726 54.126 13.361 52.761 14.036C52.308 14.258 51.807 14.363 51.3 14.363C50.895 14.363 50.487 14.297 50.103 14.171C49.239 13.889 48.48 13.331 47.871 12.656C47.544 12.923 47.208 12.977 46.854 12.977C46.812 12.977 46.767 12.977 46.725 12.977C46.008 12.956 45.312 12.461 45.108 11.771C44.904 11.084 45.252 10.274 45.897 9.96196C45.984 9.91996 46.089 9.90196 46.206 9.90196C46.878 9.90196 47.904 10.514 47.904 10.514C44.916 6.62596 51.111 7.01296 50.301 3.77896M50.298 2.80696C50.013 2.80696 49.743 2.93296 49.56 3.15196C49.359 3.38896 49.287 3.70695 49.362 4.00995C49.536 4.69995 49.23 5.03595 48.099 5.83995C47.265 6.43095 46.32 7.10296 46.143 8.28196C46.11 8.49496 46.107 8.71096 46.131 8.93296C45.891 8.94196 45.672 8.99296 45.477 9.08896C44.412 9.60496 43.845 10.901 44.181 12.041C44.502 13.124 45.534 13.904 46.695 13.937C46.749 13.937 46.8 13.937 46.854 13.937C47.082 13.937 47.37 13.919 47.682 13.826C48.33 14.411 49.053 14.84 49.803 15.083C50.292 15.242 50.796 15.323 51.3 15.323C51.969 15.323 52.623 15.176 53.187 14.897C54.774 14.114 55.773 12.263 55.731 10.181C55.695 8.41096 54.984 6.77296 54.411 5.45296C54.384 5.38996 54.351 5.33296 54.312 5.27596C54.246 5.18296 52.644 2.97496 50.37 2.80396C50.346 2.80396 50.322 2.80396 50.298 2.80396V2.80696Z" fill="black"></path><path d="M71.6278 49.2051L59.3818 54.1581" stroke="black" stroke-width="0.966" stroke-linecap="round" stroke-linejoin="round"></path><path d="M8.12402 67.5081L13.554 56.6541" stroke="black" stroke-width="0.966" stroke-linecap="round" stroke-linejoin="round"></path><path d="M38.3548 26.312L26.7148 56.21" stroke="black" stroke-width="0.966" stroke-linecap="round" stroke-linejoin="round"></path></g><defs><clipPath id="clip0_469_29857"><rect width="128.586" height="116.496" fill="white" transform="translate(0.414062 0.751953)"></rect></clipPath></defs></svg>