<svg xmlns="http://www.w3.org/2000/svg" width="116" height="72" viewBox="0 0 116 72" fill="none"><path d="M19.3776 7.72302C9.18308 7.72302 0.880371 16.2409 0.880371 26.7045C0.880371 37.168 9.17411 45.6859 19.3776 45.6859C29.5812 45.6859 37.8749 37.168 37.8749 26.7045C37.8749 16.2409 29.5722 7.72302 19.3776 7.72302ZM32.9256 20.6075H29.7605C28.8549 17.541 27.3486 14.9856 25.6809 12.9055C28.8997 14.4835 31.491 17.2272 32.9256 20.6075ZM34.1629 26.7045C34.1629 27.8073 34.0463 28.8743 33.8312 29.9054H30.3164C30.6392 27.9956 30.7199 25.9603 30.4419 23.8174H33.885C34.0643 24.7498 34.1629 25.7182 34.1629 26.7045ZM4.59238 26.7045C4.59238 25.7182 4.69101 24.7498 4.86136 23.8174H8.19679C7.91884 25.9603 7.99953 27.9956 8.32232 29.9054H4.91516C4.70894 28.8743 4.59238 27.7983 4.59238 26.7045ZM11.4515 23.8174H17.7279V29.9054H11.6308C11.2094 27.8611 11.1377 25.8258 11.4515 23.8174ZM21.0364 12.6006C23.0807 14.5284 25.1698 17.1824 26.3892 20.6075H21.0364V12.6006ZM17.7189 12.502V20.6075H12.2674C13.5048 17.1196 15.6477 14.4387 17.7189 12.502ZM17.7189 33.1153V41.3552C16.7057 40.2345 15.2263 38.4323 13.9441 36.119C13.3882 35.1148 12.9399 34.1106 12.5544 33.1153H17.7189ZM21.0364 41.2387V33.1153H26.0933C25.7078 34.1195 25.2595 35.1148 24.7036 36.119C23.4662 38.3516 22.0496 40.1179 21.0364 41.2387ZM21.0364 29.9054V23.8174H27.2051C27.519 25.8258 27.4472 27.8611 27.0348 29.9054H21.0364ZM12.8951 12.9951C11.2543 15.0574 9.78381 17.5858 8.88719 20.6075H5.82971C7.23741 17.281 9.75691 14.5911 12.8951 12.9951ZM5.98214 33.1153H9.12928C10.0618 35.9755 11.4695 38.4412 12.8234 40.3779C9.81967 38.8268 7.3988 36.2624 5.98214 33.1153ZM25.7705 40.4586C27.1424 38.513 28.577 36.0204 29.5274 33.1153H32.7821C31.3296 36.3252 28.846 38.9254 25.7705 40.4586Z" fill="white"></path><path d="M88.1755 71.9479H19.2255C18.5171 71.9479 17.8536 71.6341 17.3964 71.0961L3.74083 54.7686C3.14906 54.0603 3.02354 53.0651 3.40908 52.2312C3.79463 51.3973 4.64642 50.8594 5.56994 50.8594H33.0872C33.7776 50.8594 34.4411 51.1642 34.8894 51.6843L37.6331 54.8762H98.6301C99.9392 54.8762 101.015 55.9432 101.015 57.2612V64.1562C101.015 65.4653 99.9482 66.5413 98.6301 66.5413H92.2552L90.3274 70.594C89.9329 71.4099 89.0901 71.9479 88.1755 71.9479ZM19.9159 68.0924H87.2431L89.1708 64.0397C89.5653 63.2148 90.4081 62.6858 91.3227 62.6858H97.1597V58.7317H36.9606C36.2702 58.7317 35.6067 58.4268 35.1584 57.9068L32.4147 54.7148H8.72604L19.9159 68.0924Z" fill="white"></path><path d="M50.9481 52.5362H42.8427C41.4709 52.5362 40.3501 51.4154 40.3501 50.0435V32.1291C40.3501 30.7572 41.4709 29.6365 42.8427 29.6365H50.9481C52.32 29.6365 53.4407 30.7572 53.4407 32.1291V50.0435C53.4407 51.4154 52.3289 52.5362 50.9481 52.5362ZM44.3311 48.5552H49.4687V33.6175H44.3311V48.5552Z" fill="white"></path><path d="M66.9799 52.536H58.8744C57.5026 52.536 56.3818 51.4152 56.3818 50.0434V3.37432C56.3818 2.00249 57.5026 0.881714 58.8744 0.881714H66.9799C68.3517 0.881714 69.4725 2.00249 69.4725 3.37432V50.0344C69.4725 51.4152 68.3517 52.536 66.9799 52.536ZM60.3539 48.555H65.4915V4.86271H60.3539V48.555Z" fill="white"></path><path d="M83.0106 52.5361H74.9052C73.5334 52.5361 72.4126 51.4153 72.4126 50.0435V21.8C72.4126 20.4281 73.5334 19.3074 74.9052 19.3074H83.0106C84.3825 19.3074 85.5032 20.4281 85.5032 21.8V50.0435C85.5032 51.4153 84.3825 52.5361 83.0106 52.5361ZM76.3846 48.5551H81.5223V23.2794H76.3846V48.5551Z" fill="white"></path><path d="M98.765 52.5356H90.6596C89.2878 52.5356 88.167 51.4149 88.167 50.043V42.108C88.167 40.7361 89.2878 39.6154 90.6596 39.6154H98.765C100.137 39.6154 101.258 40.7361 101.258 42.108V50.043C101.258 51.4149 100.146 52.5356 98.765 52.5356ZM92.148 48.5547H97.2856V43.5874H92.148V48.5547Z" fill="white"></path><path d="M102.396 70.0202V68.9084C102.396 68.478 102.037 68.1194 101.607 68.1194H6.86121C6.44876 68.1194 6.12598 68.4422 6.12598 68.8546V70.0202V71.132C6.12598 71.5624 6.48462 71.9211 6.915 71.9211H101.661C102.073 71.9211 102.396 71.5983 102.396 71.1858V70.0202Z" fill="white"></path><path d="M109.103 71.1948L109.121 68.9263C109.121 68.496 108.771 68.1373 108.341 68.1373L106.073 68.1194C105.66 68.1194 105.337 68.4422 105.337 68.8456L105.319 71.1141C105.319 71.5445 105.669 71.9031 106.099 71.9031L108.368 71.9211C108.771 71.9211 109.103 71.5983 109.103 71.1948Z" fill="white"></path><path d="M115.236 71.1769V68.9084C115.236 68.478 114.877 68.1194 114.447 68.1194H112.178C111.766 68.1194 111.443 68.4422 111.443 68.8546V71.1231C111.443 71.5534 111.802 71.9121 112.232 71.9121H114.5C114.913 71.9121 115.236 71.5893 115.236 71.1769Z" fill="white"></path></svg>