<svg xmlns="http://www.w3.org/2000/svg" width="56" height="55" viewBox="0 0 56 55" fill="none"><path d="M44.088 21.6645C43.8729 21.3022 43.5276 21.0418 43.1144 20.9399L40.2049 20.2267V20.1418L37.035 19.4455L32.9029 18.4267L27.0783 17.0002C26.8292 16.9436 26.5745 16.9436 26.3198 17.0002L17.9762 19.038L16.2781 19.4512L13.0856 20.2267L10.1534 20.9399C9.74021 21.0418 9.37794 21.3022 9.15718 21.6645C8.93076 22.0267 8.85717 22.4626 8.9534 22.8701L14.2629 45.7102H17.546L12.4176 23.6513L16.2271 22.723L25.0518 20.5776L24.6103 45.7158H27.7915L28.233 20.5776L32.852 21.7097L40.7653 23.6513L34.8671 45.7102H38.1502L44.2578 22.8701C44.3597 22.4626 44.3031 22.0267 44.088 21.6645Z" fill="white"></path><path d="M50.0712 47.3067L50.0542 48.2803C50.0485 48.6256 49.7712 48.8973 49.4259 48.8973H11.0988C10.7365 48.8973 10.4422 48.5973 10.4478 48.235L10.4648 47.301L10.4818 46.3274C10.4875 45.9822 10.7648 45.7104 11.1101 45.7104H49.4372C49.7995 45.7104 50.0938 46.0105 50.0882 46.3727L50.0712 47.3067Z" fill="white"></path><path d="M55.1032 46.3727L55.0693 48.2803C55.0636 48.6256 54.7862 48.8973 54.4409 48.8973H52.5334C52.1711 48.8973 51.8767 48.5973 51.8824 48.235L51.9164 46.3274C51.922 45.9822 52.1994 45.7104 52.5447 45.7104H54.4523C54.8145 45.7104 55.1089 46.0105 55.1032 46.3727Z" fill="white"></path><path d="M5.72702 52.4915L5.71004 53.4255C5.70438 53.7877 5.99873 54.0877 6.361 54.0877H44.6881C45.0334 54.0877 45.3108 53.816 45.3164 53.4707L45.3334 52.4971L45.3504 51.5632C45.356 51.2009 45.0617 50.9009 44.6994 50.9009H6.37232C6.02703 50.9009 5.74967 51.1726 5.744 51.5179L5.72702 52.4915Z" fill="white"></path><path d="M0.728867 51.512L0.694905 53.4196C0.689244 53.7819 0.983589 54.0819 1.34586 54.0819H3.25344C3.59873 54.0819 3.87609 53.8102 3.88175 53.4649L3.91572 51.5573C3.92138 51.195 3.62703 50.895 3.26476 50.895H1.35718C1.01189 50.895 0.734528 51.1667 0.728867 51.512Z" fill="white"></path><path d="M38.8746 5.75309H32.5179L32.5858 1.73415C32.6028 0.856776 31.9009 0.143555 31.0235 0.143555H22.963C22.0856 0.143555 21.3611 0.856776 21.3441 1.73415L21.2762 5.75309H14.9251C14.0477 5.75309 13.3232 6.46631 13.3062 7.34368L13.0854 20.2269L16.278 19.4515L16.4591 8.93994H37.2217L37.0406 19.4515L40.2105 20.1477L40.4312 7.34935C40.4482 6.46631 39.752 5.75309 38.8746 5.75309ZM29.3367 5.75309H24.4517L24.4913 3.33041H29.3763L29.3367 5.75309Z" fill="white"></path></svg>