<svg xmlns="http://www.w3.org/2000/svg" width="53" height="52" viewBox="0 0 53 52" fill="none"><path d="M13.0686 50.9309C12.3101 50.9309 11.4724 50.9026 10.629 50.8347C4.0232 50.2743 1.45901 46.4422 1.26655 43.0402L2.70997 42.9383L1.26655 43.0346C1.12504 40.5666 2.14958 37.3118 5.44964 35.574C7.69119 34.391 10.5554 34.374 12.9215 35.5174C18.1178 38.0363 17.7725 46.6346 17.5461 49.2101C17.4668 50.0649 16.7932 50.7385 15.9385 50.812C15.4177 50.8573 14.3536 50.9309 13.0686 50.9309ZM9.1799 37.5722C8.33083 37.5722 7.49874 37.759 6.78552 38.1326C4.17604 39.5081 4.11377 42.0836 4.15905 42.8421V42.8478C4.2383 44.2176 5.04775 47.4497 10.9007 47.9478C12.3384 48.0667 13.7479 48.0441 14.7328 47.9931C14.8857 44.5629 14.3819 39.4571 11.6422 38.1269C10.878 37.7533 10.0233 37.5722 9.1799 37.5722Z" fill="white"></path><path d="M27.1745 9.49634C18.5366 9.49634 11.4497 16.521 11.3761 25.1589C11.3535 27.7061 11.9478 30.1118 13.0177 32.2458C13.0177 32.2458 13.0233 32.2458 13.0233 32.2515C15.5705 37.3346 20.8235 40.8214 26.9028 40.8214C35.5407 40.8214 42.6276 33.7968 42.7012 25.1589C42.7748 16.521 35.8124 9.49634 27.1745 9.49634ZM26.8575 32.6137C27.5141 29.5854 27.9217 28.6344 29.2066 28.5948C30.0161 28.5608 30.6387 28.7816 31.1425 29.2627C32.7727 30.8194 32.818 34.6515 32.8407 36.2874C32.8407 36.3553 32.8407 36.4063 32.8407 36.4685C31.0633 37.3968 29.0538 37.9233 26.9255 37.9233C26.2405 37.9233 25.5726 37.8667 24.9216 37.7648C26.0594 36.3044 26.4896 34.3232 26.8575 32.6137ZM35.6822 34.4591C35.5577 32.1383 35.0879 29.0137 33.152 27.157C32.0878 26.1382 30.7236 25.6513 29.1387 25.6966C25.3632 25.8155 24.5877 29.4042 24.0216 32.025C23.4669 34.6006 23.0084 36.2195 21.5933 36.7402C19.8951 35.9478 18.4008 34.793 17.2121 33.3722C17.7102 33.3496 18.2083 33.2987 18.7008 33.1854C20.8348 32.71 22.431 31.4986 23.1952 29.7722C24.265 27.3552 23.9367 25.1985 23.699 23.6249C23.5065 22.3796 23.4216 21.6494 23.7726 21.1966C26.2009 18.0889 26.2179 15.7115 25.799 14.2738C25.6122 13.6228 25.3009 13.0624 24.933 12.5756C25.6518 12.4511 26.3877 12.3775 27.1462 12.3775C28.6576 12.3775 30.1066 12.6436 31.4482 13.1304C29.3425 14.053 27.9726 15.6663 27.316 17.2399C26.3707 19.5097 26.7047 21.8418 28.1708 23.1834C29.6255 24.5136 31.4821 24.2928 32.9708 24.1174C34.352 23.9532 35.0426 23.9249 35.4218 24.3551C35.5011 24.4513 35.5577 24.5532 35.6483 24.74C35.852 25.1476 36.152 25.7589 36.9558 26.2344C37.5445 26.5853 38.2238 26.7551 38.9879 26.7551C39.2144 26.7551 39.4521 26.7382 39.6898 26.7042C39.2936 29.7552 37.8275 32.4666 35.6822 34.4591ZM21.7631 13.5832C22.2839 13.8832 22.8103 14.3927 23.0197 15.1059C23.348 16.2436 22.8216 17.7437 21.497 19.4361C20.3536 20.9022 20.6084 22.6003 20.8348 24.0947C21.0499 25.5155 21.2763 26.9872 20.5461 28.6288C20.0366 29.7778 18.7913 30.2137 18.0951 30.3665C16.9177 30.6269 15.8536 30.4741 15.2932 30.2533C14.6252 28.691 14.2573 26.9646 14.2743 25.1532C14.3196 20.0362 17.3875 15.6153 21.7631 13.5832ZM38.4502 23.7494C38.3823 23.7098 38.3766 23.7041 38.2521 23.4494C38.1219 23.189 37.9464 22.8268 37.6124 22.4475C36.1973 20.8343 34.1539 21.072 32.6595 21.2532C31.3972 21.4003 30.5934 21.4626 30.1406 21.0494C29.6085 20.5626 29.5463 19.4248 29.9934 18.3437C30.2991 17.6135 31.5444 15.3153 35.2011 15.2757C37.7143 17.3474 39.4068 20.3645 39.7464 23.7834C38.954 23.9645 38.586 23.8343 38.4502 23.7494Z" fill="white"></path><path d="M21.667 51.4348C22.5047 51.5197 23.3425 51.5763 24.1802 51.5989C24.3444 51.6046 24.4859 51.4687 24.4915 51.3046L24.5595 49.0178C24.5651 48.8536 24.4406 48.7234 24.2764 48.7177C23.5179 48.6951 22.7594 48.6442 22.0009 48.5649C21.8424 48.5479 21.6953 48.6611 21.6783 48.8253L21.4066 51.0951C21.3839 51.2706 21.5028 51.4178 21.667 51.4348Z" fill="white"></path><path d="M26.3935 48.978L26.5124 51.2592C26.5237 51.4233 26.6652 51.5535 26.8294 51.5422C27.6671 51.4856 28.5105 51.395 29.3313 51.2761C29.4954 51.2535 29.6087 51.1007 29.586 50.9365L29.2634 48.678C29.2407 48.5195 29.0936 48.4063 28.9351 48.4289C28.1879 48.5365 27.4294 48.6157 26.6709 48.6667C26.5067 48.678 26.3878 48.8195 26.3935 48.978Z" fill="white"></path><path d="M31.0407 48.3215L31.4935 50.5574C31.5275 50.7216 31.686 50.8235 31.8501 50.7895C32.6652 50.6084 33.4747 50.3989 34.2672 50.1669C34.4257 50.1216 34.5162 49.9518 34.4709 49.7933L33.82 47.6083C33.7747 47.4555 33.6105 47.3649 33.4577 47.4159C32.7445 47.6253 32.0143 47.8178 31.2784 47.9763C31.1086 48.0046 31.0067 48.1574 31.0407 48.3215Z" fill="white"></path><path d="M45.6334 8.00188C40.856 3.11689 34.4143 0.365895 27.4972 0.258346C27.3614 0.258346 27.2199 0.252686 27.084 0.252686C12.9781 0.252686 1.30054 11.4265 0.966567 25.3513C0.830716 31.0344 3.0666 36.5986 6.08364 40.9402C6.12892 41.0081 6.14591 41.0874 6.12893 41.1723L5.41004 44.3875C5.37608 44.5459 5.47231 44.7044 5.63646 44.7384L7.88367 45.2195C8.04217 45.2535 8.20066 45.1516 8.24028 44.9931L8.47236 43.9459C9.13464 44.6818 9.81956 45.3554 10.4988 45.9667C10.6233 46.0743 10.8101 46.0573 10.9234 45.9328L12.429 44.195C12.5366 44.0705 12.5253 43.8893 12.4007 43.7818C11.7668 43.2214 11.1668 42.6157 10.5837 41.9761H11.897C12.0611 41.9761 12.197 41.8459 12.197 41.6817L12.2196 39.3779C12.2196 39.2138 12.0894 39.0836 11.9253 39.0836H8.47802C8.37613 39.0836 8.28557 39.0326 8.22896 38.9534C5.42703 34.7646 3.7402 29.7778 3.84775 25.3965C4.14776 12.9265 14.7159 2.9584 27.435 3.13953C33.5936 3.23576 39.322 5.68109 43.573 10.0283C47.8127 14.3643 50.0712 20.0813 49.9241 26.1154C49.709 35.025 44.1957 43.0063 35.8521 46.5328C35.7049 46.595 35.6314 46.7649 35.688 46.912L36.537 49.029C36.5993 49.1819 36.7748 49.2555 36.9276 49.1932C46.341 45.2252 52.5562 36.2194 52.7996 26.1607C52.9581 19.3455 50.4165 12.8925 45.6334 8.00188Z" fill="white"></path></svg>