<svg xmlns="http://www.w3.org/2000/svg" width="79" height="89" viewBox="0 0 79 89" fill="none"><path d="M51.1857 7.86441H27.8377C27.5507 7.86441 27.3176 7.63129 27.3176 7.34437V1.18459C27.3176 0.897672 27.5507 0.664551 27.8377 0.664551H51.1857C51.4726 0.664551 51.7057 0.897672 51.7057 1.18459V7.34437C51.6967 7.63129 51.4726 7.86441 51.1857 7.86441Z" fill="white"></path><path fill-rule="evenodd" clip-rule="evenodd" d="M39.4755 3.14783C40.8372 3.14783 41.9412 4.25176 41.9412 5.61353V11.8092C41.9412 13.2614 41.2429 14.6077 40.0849 15.4516C39.9585 15.5437 39.848 15.606 39.8151 15.6245L39.814 15.6251C39.7623 15.6543 39.7153 15.6789 39.6832 15.6954C39.6196 15.7281 39.5473 15.7636 39.4892 15.7921C39.4756 15.7987 39.4618 15.8055 39.4478 15.8124C39.3295 15.8703 39.1955 15.9359 39.037 16.0169C38.6849 16.1967 38.2315 16.4425 37.7454 16.7549C36.732 17.4062 35.7602 18.2309 35.1998 19.1698C34.6498 20.0928 34.3067 21.662 34.6141 23.2039C34.9007 24.6415 35.7267 25.9736 37.4771 26.772L37.4784 26.7726C38.3891 27.1886 40.1882 27.1854 41.8467 26.2753C43.3622 25.4437 44.4965 23.997 44.4965 21.7796C44.4965 20.4178 45.6005 19.3139 46.9622 19.3139C48.324 19.3139 49.4279 20.4178 49.4279 21.7796C49.4279 26.0537 47.0744 29.0318 44.2189 30.5987C41.5068 32.0868 38.0525 32.4558 35.4306 31.2587C32.0702 29.7259 30.3364 26.9694 29.7779 24.1681C29.2403 21.4717 29.7667 18.6525 30.9648 16.6433L30.9653 16.6425C32.0905 14.7571 33.7907 13.4344 35.0793 12.6063C35.7443 12.179 36.3495 11.8521 36.794 11.6251C36.8705 11.586 36.9429 11.5495 37.0098 11.5162V5.61353C37.0098 4.25176 38.1137 3.14783 39.4755 3.14783ZM37.4165 11.3157C37.4506 11.2969 37.4593 11.2937 37.4265 11.3106C37.4238 11.312 37.4205 11.3137 37.4165 11.3157Z" fill="white"></path><path fill-rule="evenodd" clip-rule="evenodd" d="M5.69997 44.5811V83.5482H73.3141V44.5811H5.69997ZM0.768555 42.6533C0.768555 40.9957 2.11459 39.6497 3.77223 39.6497H75.2418C76.8994 39.6497 78.2455 40.9956 78.2455 42.6533V85.4759C78.2455 87.1336 76.8994 88.4796 75.2418 88.4796H3.77223C2.11459 88.4796 0.768555 87.1336 0.768555 85.4759V42.6533Z" fill="white"></path><path fill-rule="evenodd" clip-rule="evenodd" d="M38.7169 30.5061C38.716 30.5067 38.7151 30.5073 38.7142 30.5078L18.5757 43.7453C17.4378 44.4933 15.9089 44.1772 15.1609 43.0392C14.4129 41.9013 14.729 40.3724 15.867 39.6244L36.0226 26.3757C37.7924 25.2229 40.0473 25.1803 41.8594 26.3157C41.8601 26.3162 41.8609 26.3167 41.8616 26.3171L63.108 39.5939C64.2628 40.3155 64.614 41.8367 63.8923 42.9915C63.1707 44.1464 61.6495 44.4975 60.4947 43.7759L39.2412 30.4947C39.0819 30.3948 38.9001 30.388 38.7169 30.5061Z" fill="white"></path><path d="M34.0421 70.5293H30.0522C29.7922 70.5293 29.5859 70.323 29.5859 70.063V49.0193C29.5859 48.7593 29.7922 48.5531 30.0522 48.5531H34.0421C34.3022 48.5531 34.5084 48.7593 34.5084 49.0193V70.063C34.5084 70.323 34.2932 70.5293 34.0421 70.5293Z" fill="white"></path><path d="M48.7108 79.092H44.7209C44.4609 79.092 44.2546 78.8858 44.2546 78.6258V57.5821C44.2546 57.3221 44.4609 57.1158 44.7209 57.1158H48.7108C48.9709 57.1158 49.1771 57.3221 49.1771 57.5821V78.6258C49.186 78.8768 48.9709 79.092 48.7108 79.092Z" fill="white"></path><path d="M63.3883 70.5293H59.3984C59.1384 70.5293 58.9321 70.323 58.9321 70.063V49.0193C58.9321 48.7593 59.1384 48.5531 59.3984 48.5531H63.3883C63.6484 48.5531 63.8546 48.7593 63.8546 49.0193V70.063C63.8635 70.323 63.6484 70.5293 63.3883 70.5293Z" fill="white"></path><path d="M48.8007 53.4038H44.8107C44.5507 53.4038 44.3445 53.1976 44.3445 52.9376V49.0193C44.3445 48.7593 44.5507 48.5531 44.8107 48.5531H48.8007C49.0607 48.5531 49.2669 48.7593 49.2669 49.0193V52.9376C49.2759 53.1976 49.0607 53.4038 48.8007 53.4038Z" fill="white"></path><path d="M33.8717 79.0916H29.8818C29.6218 79.0916 29.4155 78.8853 29.4155 78.6253V74.7071C29.4155 74.4471 29.6218 74.2408 29.8818 74.2408H33.8717C34.1318 74.2408 34.338 74.4471 34.338 74.7071V78.6253C34.338 78.8764 34.1318 79.0916 33.8717 79.0916Z" fill="white"></path><path d="M63.3883 79.0916H59.3984C59.1384 79.0916 58.9321 78.8853 58.9321 78.6253V74.7071C58.9321 74.4471 59.1384 74.2408 59.3984 74.2408H63.3883C63.6484 74.2408 63.8546 74.4471 63.8546 74.7071V78.6253C63.8635 78.8764 63.6484 79.0916 63.3883 79.0916Z" fill="white"></path><path d="M19.3644 53.4038H15.3744C15.1144 53.4038 14.9082 53.1976 14.9082 52.9376V49.0193C14.9082 48.7593 15.1144 48.5531 15.3744 48.5531H19.3644C19.6244 48.5531 19.8306 48.7593 19.8306 49.0193V52.9376C19.8306 53.1976 19.6244 53.4038 19.3644 53.4038Z" fill="white"></path><path d="M19.3644 79.092H15.3744C15.1144 79.092 14.9082 78.8858 14.9082 78.6258V57.5821C14.9082 57.3221 15.1144 57.1158 15.3744 57.1158H19.3644C19.6244 57.1158 19.8306 57.3221 19.8306 57.5821V78.6258C19.8306 78.8768 19.6244 79.092 19.3644 79.092Z" fill="white"></path></svg>