<svg xmlns="http://www.w3.org/2000/svg" id="Layer_1" viewBox="0 0 150 126.1"><defs><style>      .st0 {        fill: #1c2e5e;      }      .st1 {        fill: #fefefe;      }    </style></defs><path class="st0" d="M74.2.7c2.6-.3,5,.5,6.9,2.3,22.9,37.7,45.7,75.5,68.2,113.4,1.3,4.2-1.2,8.4-5.4,9.5-43.8,0-93.2.2-135.2.3-5.7-.4-9.2-5.7-6.7-10.9L69.2,3.4c1.3-1.5,3-2.5,5-2.7Z"></path><path class="st1" d="M73.2,28.6c1.8-.2,7.4-.3,7.8,2.2s-.2,6.8-.2,9.8c-.2,16.3-.5,32.5-.8,48.8,0,.6-.5,1.1-1,1.3-1.3.6-4.9.6-6.4.3s-2-1.2-2.1-2.9c-.2-2.7,0-5.7,0-8.5-.2-10.4-.6-20.8-.6-31.2.2-5.4-1-12.1-.4-17.3.2-1.9,2-2.2,3.6-2.4Z"></path><path class="st1" d="M72.8,98.8c1.5-.2,4.3-.2,5.7.2,2.8.7,3.3,2.9,3.4,5.4.4,6.3-1.6,8.5-8,8-2.1-.2-3.9-.7-4.7-2.8s-.8-7.3.5-9.1,2-1.5,3.1-1.7Z"></path></svg>