<svg xmlns="http://www.w3.org/2000/svg" width="80" height="80" viewBox="0 0 80 80" fill="none"><path d="M24.7521 67.2934C23.9272 67.2934 23.016 67.2626 22.0988 67.1887C14.9146 66.5792 12.1259 62.4116 11.9166 58.7117L13.4864 58.6009L11.9166 58.7056C11.7627 56.0215 12.8769 52.4817 16.4659 50.5918C18.9038 49.3052 22.0188 49.2867 24.592 50.5303C30.2433 53.2697 29.8678 62.6209 29.6216 65.4219C29.5354 66.3515 28.8028 67.084 27.8732 67.1641C27.3069 67.2133 26.1495 67.2934 24.7521 67.2934ZM20.5228 52.7649C19.5994 52.7649 18.6945 52.9681 17.9188 53.3744C15.0808 54.8703 15.0131 57.6713 15.0624 58.4963V58.5024C15.1485 59.9922 16.0289 63.5073 22.3943 64.0491C23.9579 64.1784 25.4908 64.1537 26.562 64.0983C26.7282 60.3677 26.1803 54.8149 23.2007 53.3682C22.3697 52.9619 21.4401 52.7649 20.5228 52.7649Z" fill="#808080"></path><path d="M40.0878 22.2305C30.6936 22.2305 22.9861 29.8703 22.9061 39.2645C22.8814 42.0348 23.5278 44.6511 24.6913 46.972C24.6913 46.972 24.6975 46.972 24.6975 46.9781C27.4678 52.5063 33.1806 56.2985 39.7923 56.2985C49.1865 56.2985 56.894 48.6587 56.974 39.2645C57.054 29.8703 49.482 22.2305 40.0878 22.2305ZM39.743 47.3721C40.4571 44.0786 40.9004 43.0444 42.2978 43.0013C43.1781 42.9643 43.8553 43.2044 44.4032 43.7277C46.1762 45.4206 46.2254 49.5883 46.25 51.3674C46.25 51.4413 46.25 51.4967 46.25 51.5644C44.317 52.574 42.1316 53.1465 39.8169 53.1465C39.072 53.1465 38.3456 53.085 37.6376 52.9742C38.875 51.3859 39.3429 49.2312 39.743 47.3721ZM49.3404 49.379C49.205 46.855 48.694 43.4568 46.5886 41.4376C45.4313 40.3295 43.9477 39.8001 42.224 39.8493C38.1178 39.9786 37.2744 43.8816 36.6588 46.7319C36.0555 49.5329 35.5569 51.2935 34.0179 51.8599C32.171 50.998 30.5458 49.7422 29.253 48.197C29.7948 48.1724 30.3365 48.117 30.8721 47.9939C33.1929 47.4767 34.929 46.1593 35.76 44.2817C36.9235 41.6531 36.5665 39.3076 36.3079 37.5962C36.0986 36.2418 36.0063 35.4477 36.388 34.9552C39.0289 31.5755 39.0474 28.99 38.5918 27.4263C38.3887 26.7184 38.0501 26.1089 37.65 25.5795C38.4318 25.444 39.2321 25.364 40.057 25.364C41.7007 25.364 43.2766 25.6533 44.7356 26.1828C42.4456 27.1862 40.9558 28.9407 40.2417 30.6521C39.2136 33.1207 39.5768 35.657 41.1713 37.116C42.7534 38.5627 44.7726 38.3226 46.3916 38.1318C47.8937 37.9533 48.6448 37.9225 49.0572 38.3903C49.1434 38.495 49.205 38.6058 49.3035 38.8089C49.5251 39.2522 49.8514 39.917 50.7255 40.4342C51.3658 40.8158 52.1045 41.0005 52.9356 41.0005C53.1818 41.0005 53.4404 40.9821 53.6989 40.9451C53.268 44.2633 51.6736 47.212 49.3404 49.379ZM34.2025 26.6753C34.7689 27.0015 35.3414 27.5556 35.5692 28.3312C35.9262 29.5686 35.3537 31.2 33.9132 33.0407C32.6697 34.6351 32.9467 36.4819 33.1929 38.1072C33.4269 39.6523 33.6731 41.2529 32.879 43.0382C32.3249 44.2879 30.9706 44.7619 30.2134 44.9281C28.9329 45.2113 27.7756 45.0451 27.1661 44.805C26.4397 43.1059 26.0395 41.2283 26.058 39.2583C26.1073 33.6932 29.4439 28.8853 34.2025 26.6753ZM52.3508 37.7316C52.2769 37.6885 52.2707 37.6824 52.1353 37.4054C51.9937 37.1222 51.8029 36.7282 51.4396 36.3157C49.9006 34.5612 47.6783 34.8198 46.0531 35.0168C44.6802 35.1768 43.8061 35.2446 43.3136 34.7952C42.7349 34.2657 42.6672 33.0284 43.1535 31.8525C43.4859 31.0584 44.8403 28.559 48.8171 28.5159C51.5505 30.7691 53.3911 34.0503 53.7605 37.7686C52.8986 37.9656 52.4985 37.824 52.3508 37.7316Z" fill="#808080"></path><path d="M34.102 67.8412C35.0131 67.9336 35.9242 67.9951 36.8353 68.0197C37.0138 68.0259 37.1677 67.8782 37.1739 67.6996L37.2478 65.2126C37.2539 65.034 37.1185 64.8924 36.94 64.8863C36.115 64.8617 35.2901 64.8063 34.4652 64.7201C34.2928 64.7016 34.1328 64.8247 34.1143 65.0033L33.8188 67.4719C33.7942 67.6627 33.9235 67.8228 34.102 67.8412Z" fill="#808080"></path><path d="M39.242 65.1695L39.3713 67.6504C39.3836 67.8289 39.5375 67.9705 39.7161 67.9582C40.6272 67.8966 41.5444 67.7981 42.4371 67.6688C42.6156 67.6442 42.7387 67.478 42.7141 67.2995L42.3632 64.8432C42.3386 64.6708 42.1785 64.5477 42.0061 64.5723C41.1935 64.6893 40.3686 64.7755 39.5437 64.8309C39.3652 64.8432 39.2359 64.9971 39.242 65.1695Z" fill="#808080"></path><path d="M44.2969 64.4551L44.7894 66.8868C44.8263 67.0653 44.9987 67.1761 45.1772 67.1392C46.0637 66.9422 46.944 66.7144 47.8059 66.462C47.9782 66.4128 48.0767 66.2281 48.0275 66.0557L47.3195 63.6795C47.2703 63.5133 47.0917 63.4148 46.9255 63.4702C46.1499 63.6979 45.3557 63.9073 44.5554 64.0796C44.3707 64.1104 44.2599 64.2766 44.2969 64.4551Z" fill="#808080"></path><path d="M60.1668 20.6055C54.971 15.2927 47.9654 12.3009 40.4426 12.1839C40.2949 12.1839 40.1409 12.1778 39.9932 12.1778C24.6522 12.1778 11.9521 24.3299 11.5889 39.474C11.4412 45.6547 13.8728 51.7061 17.154 56.4279C17.2033 56.5018 17.2217 56.5879 17.2033 56.6803L16.4215 60.177C16.3845 60.3493 16.4892 60.5217 16.6677 60.5586L19.1117 61.0819C19.284 61.1188 19.4564 61.008 19.4995 60.8357L19.7519 59.6968C20.4722 60.4971 21.2171 61.2296 21.9558 61.8945C22.0912 62.0115 22.2944 61.993 22.4175 61.8576L24.055 59.9676C24.172 59.8322 24.1597 59.6352 24.0243 59.5182C23.3348 58.9088 22.6822 58.2501 22.0481 57.5544H23.4764C23.6549 57.5544 23.8026 57.4129 23.8026 57.2343L23.8273 54.7288C23.8273 54.5503 23.6857 54.4087 23.5071 54.4087H19.7581C19.6473 54.4087 19.5488 54.3533 19.4872 54.2671C16.4399 49.7116 14.6054 44.288 14.7224 39.5232C15.0486 25.9613 26.5421 15.1204 40.3749 15.3174C47.0727 15.422 53.3027 18.0815 57.926 22.8094C62.5369 27.5249 64.9932 33.7426 64.8331 40.305C64.5992 49.9947 58.6031 58.6749 49.529 62.5101C49.369 62.5778 49.2889 62.7625 49.3505 62.9226L50.2739 65.225C50.3416 65.3912 50.5325 65.4712 50.6987 65.4035C60.9363 61.0881 67.6957 51.2937 67.9604 40.3543C68.1328 32.9423 65.3687 25.9244 60.1668 20.6055Z" fill="#808080"></path></svg>