<svg xmlns="http://www.w3.org/2000/svg" width="80" height="80" viewBox="0 0 80 80" fill="none"><path d="M60.498 42.5L64.998 38L69.498 42.5" stroke="#808080" stroke-width="3" stroke-linecap="square"></path><mask id="path-2-inside-1_76_720" fill="white"><path d="M66.498 40C66.498 43.677 65.7738 47.318 64.3667 50.7151C62.9595 54.1123 60.8971 57.1989 58.297 59.799C55.697 62.399 52.6103 64.4615 49.2132 65.8686C45.8161 67.2758 42.1751 68 38.498 68L38.498 64.9981C41.7808 64.9981 45.0315 64.3515 48.0644 63.0952C51.0973 61.8389 53.8531 59.9976 56.1743 57.6763C58.4956 55.355 60.337 52.5992 61.5932 49.5663C62.8495 46.5334 63.4961 43.2828 63.4961 40H66.498Z"></path></mask><path d="M66.498 40C66.498 43.677 65.7738 47.318 64.3667 50.7151C62.9595 54.1123 60.8971 57.1989 58.297 59.799C55.697 62.399 52.6103 64.4615 49.2132 65.8686C45.8161 67.2758 42.1751 68 38.498 68L38.498 64.9981C41.7808 64.9981 45.0315 64.3515 48.0644 63.0952C51.0973 61.8389 53.8531 59.9976 56.1743 57.6763C58.4956 55.355 60.337 52.5992 61.5932 49.5663C62.8495 46.5334 63.4961 43.2828 63.4961 40H66.498Z" stroke="#808080" stroke-width="6" mask="url(#path-2-inside-1_76_720)"></path><path d="M31.9138 20.9966L25.7667 19.3495L27.4138 13.2024" stroke="#808080" stroke-width="3" stroke-linecap="square"></path><mask id="path-4-inside-2_76_720" fill="white"><path d="M26.7487 17.0504C29.9331 15.2119 33.4484 14.0186 37.094 13.5387C40.7395 13.0587 44.4439 13.3015 47.9956 14.2532C51.5474 15.2049 54.8769 16.8468 57.794 19.0852C60.7112 21.3237 63.1589 24.1148 64.9974 27.2991L62.3977 28.8001C60.7563 25.9571 58.571 23.4653 55.9666 21.4668C53.3621 19.4684 50.3896 18.0025 47.2187 17.1529C44.0477 16.3032 40.7405 16.0865 37.4858 16.5149C34.2311 16.9434 31.0927 18.0088 28.2497 19.6502L26.7487 17.0504Z"></path></mask><path d="M26.7487 17.0504C29.9331 15.2119 33.4484 14.0186 37.094 13.5387C40.7395 13.0587 44.4439 13.3015 47.9956 14.2532C51.5474 15.2049 54.8769 16.8468 57.794 19.0852C60.7112 21.3237 63.1589 24.1148 64.9974 27.2991L62.3977 28.8001C60.7563 25.9571 58.571 23.4653 55.9666 21.4668C53.3621 19.4684 50.3896 18.0025 47.2187 17.1529C44.0477 16.3032 40.7405 16.0865 37.4858 16.5149C34.2311 16.9434 31.0927 18.0088 28.2497 19.6502L26.7487 17.0504Z" stroke="#808080" stroke-width="6" mask="url(#path-4-inside-2_76_720)"></path><path d="M27.5843 56.5034L29.2314 62.6505L23.0843 64.2976" stroke="#808080" stroke-width="3" stroke-linecap="square"></path><mask id="path-6-inside-3_76_720" fill="white"><path d="M26.7493 62.9496C23.5649 61.1111 20.7739 58.6633 18.5354 55.7462C16.297 52.829 14.6551 49.4995 13.7034 45.9478C12.7517 42.3961 12.5089 38.6917 12.9889 35.0461C13.4688 31.4006 14.6621 27.8852 16.5006 24.7009L19.1004 26.2018C17.459 29.0448 16.3936 32.1832 15.9651 35.438C15.5367 38.6927 15.7534 41.9999 16.6031 45.1708C17.4527 48.3418 18.9186 51.3143 20.917 53.9187C22.9155 56.5231 25.4073 58.7084 28.2503 60.3498L26.7493 62.9496Z"></path></mask><path d="M26.7493 62.9496C23.5649 61.1111 20.7739 58.6633 18.5354 55.7462C16.297 52.829 14.6551 49.4995 13.7034 45.9478C12.7517 42.3961 12.5089 38.6917 12.9889 35.0461C13.4688 31.4006 14.6621 27.8852 16.5006 24.7009L19.1004 26.2018C17.459 29.0448 16.3936 32.1832 15.9651 35.438C15.5367 38.6927 15.7534 41.9999 16.6031 45.1708C17.4527 48.3418 18.9186 51.3143 20.917 53.9187C22.9155 56.5231 25.4073 58.7084 28.2503 60.3498L26.7493 62.9496Z" stroke="#808080" stroke-width="6" mask="url(#path-6-inside-3_76_720)"></path><path d="M40.9697 26.3692L47.3949 32.8089C54.1992 39.6284 49.3616 51.2703 39.7282 51.2594C30.0947 51.2486 25.2833 39.5959 32.1029 32.7917L38.5426 26.3665C39.2135 25.697 40.3002 25.6982 40.9697 26.3692Z" stroke="#808080" stroke-width="3"></path><path d="M39.7903 55L39.7903 36.2426" stroke="#808080" stroke-width="3" stroke-linecap="round"></path><path d="M39.9942 43.8134L35.5403 39.3494" stroke="#808080" stroke-width="3" stroke-linecap="round"></path><path d="M39.9936 45.2945L44.4576 40.8405" stroke="#808080" stroke-width="3" stroke-linecap="round"></path></svg>