<svg xmlns="http://www.w3.org/2000/svg" width="80" height="80" viewBox="0 0 80 80" fill="none"><path d="M21.9573 25.5H57.9485L51.7285 45.0451L51.6177 45.3933L51.6794 45.7533L55.0632 65.5H24.8527L27.2784 45.6822L27.3139 45.3922L27.2379 45.11L21.9573 25.5Z" stroke="#808080" stroke-width="3"></path><line x1="39.5" y1="32" x2="39.5" y2="60" stroke="#808080" stroke-width="3"></line><path d="M47.5 32L45.5 46L46.5 60" stroke="#808080" stroke-width="3"></path><path d="M31.5 32L33.5 46L32.5 60" stroke="#808080" stroke-width="3"></path><path d="M63.5 45C63.5 45.9143 63.5 53.381 63.5 57" stroke="#808080" stroke-width="3"></path><path d="M16.5 37C16.5 37.9143 16.5 45.381 16.5 49" stroke="#808080" stroke-width="3"></path><path d="M68 53.5L63.5 58L59 53.5" stroke="#808080" stroke-width="3" stroke-linecap="square"></path><path d="M21 45.5L16.5 50L12 45.5" stroke="#808080" stroke-width="3" stroke-linecap="square"></path><rect x="18.5" y="18.5" width="43" height="7" stroke="#808080" stroke-width="3"></rect><path d="M45.4776 18.5H34.5224C34.775 15.6968 37.131 13.5 40 13.5C42.869 13.5 45.225 15.6968 45.4776 18.5Z" stroke="#808080" stroke-width="3"></path></svg>